<svg xmlns="http://www.w3.org/2000/svg" viewBox="0 0 693.3 318.42"><defs><style>.cls-1{fill:#fff;}</style></defs><g id="레이어_2" data-name="레이어 2"><g id="메인_홍보" data-name="메인 홍보"><g id="_3page" data-name="3page"><path class="cls-1" d="M37.8,35.06a14.65,14.65,0,0,1-2.22,8,14.92,14.92,0,0,1-6.51,5.54,23.72,23.72,0,0,1-10.15,2q-7,0-11.62-2.73A15.6,15.6,0,0,1,2,42.58,12.17,12.17,0,0,1,0,36.2a4.35,4.35,0,0,1,1.22-3.09,4.05,4.05,0,0,1,3.09-1.28,3.59,3.59,0,0,1,2.58,1,7.61,7.61,0,0,1,1.8,3,20.19,20.19,0,0,0,2,3.9,7.93,7.93,0,0,0,3,2.58,10.67,10.67,0,0,0,5,1,11.08,11.08,0,0,0,7-2,6.21,6.21,0,0,0,2.68-5.12,5.5,5.5,0,0,0-1.44-4,9.22,9.22,0,0,0-3.73-2.32A61.67,61.67,0,0,0,17,28.16a44.37,44.37,0,0,1-8.58-2.89,14,14,0,0,1-5.48-4.5,11.88,11.88,0,0,1-2-7.09A12.39,12.39,0,0,1,3.05,6.51a13.6,13.6,0,0,1,6.2-4.83A24.79,24.79,0,0,1,18.79,0a22.83,22.83,0,0,1,7.57,1.12,15.77,15.77,0,0,1,5.31,3A12.44,12.44,0,0,1,34.75,8a9.16,9.16,0,0,1,1,4,4.74,4.74,0,0,1-1.22,3.19,3.85,3.85,0,0,1-3,1.42A3.45,3.45,0,0,1,29,15.7a11.35,11.35,0,0,1-1.87-2.79A12.47,12.47,0,0,0,24,8.59C22.76,7.56,20.82,7,18.14,7a9.92,9.92,0,0,0-6,1.68,4.94,4.94,0,0,0-2.29,4.06,4.16,4.16,0,0,0,.78,2.53,6.6,6.6,0,0,0,2.14,1.84,14.43,14.43,0,0,0,2.76,1.2c.93.29,2.46.71,4.61,1.27a69,69,0,0,1,7.28,2.13A21.86,21.86,0,0,1,33,24.59a11.67,11.67,0,0,1,3.57,4.22A13.86,13.86,0,0,1,37.8,35.06Z"/><path class="cls-1" d="M76.86,9H66.35V44.54A6.7,6.7,0,0,1,65,49.09a4.42,4.42,0,0,1-3.44,1.48,4.47,4.47,0,0,1-3.49-1.5,6.59,6.59,0,0,1-1.35-4.53V9H46.23a5.19,5.19,0,0,1-3.66-1.12,3.84,3.84,0,0,1-1.2-2.95,3.76,3.76,0,0,1,1.25-3A5.25,5.25,0,0,1,46.23.83H76.86A5.29,5.29,0,0,1,80.58,2a3.85,3.85,0,0,1,1.21,3,3.79,3.79,0,0,1-1.23,2.95A5.33,5.33,0,0,1,76.86,9Z"/><path class="cls-1" d="M100.45,28.82H97.07V44.54a6.65,6.65,0,0,1-1.33,4.57,4.47,4.47,0,0,1-3.47,1.46A4.39,4.39,0,0,1,88.7,49a6.94,6.94,0,0,1-1.26-4.5V6.91c0-2.14.46-3.68,1.39-4.64S91.27.83,93.34.83H109a46,46,0,0,1,5.55.29,13.55,13.55,0,0,1,4.15,1.15,12.21,12.21,0,0,1,6.57,7,14.22,14.22,0,0,1,.9,5.06,12.42,12.42,0,0,1-3,8.74q-3,3.27-9.1,4.64a17.57,17.57,0,0,1,4.9,4.13,42.32,42.32,0,0,1,4.17,5.82A43.79,43.79,0,0,1,126,43.19a11.19,11.19,0,0,1,1,3.41,3.55,3.55,0,0,1-.6,1.92,4.17,4.17,0,0,1-1.64,1.5,5,5,0,0,1-2.4.55,4.63,4.63,0,0,1-2.73-.78,7.45,7.45,0,0,1-1.89-2c-.53-.81-1.25-2-2.16-3.54l-3.86-6.61A35.89,35.89,0,0,0,108,32.13a9.24,9.24,0,0,0-3.32-2.61A11.3,11.3,0,0,0,100.45,28.82ZM106,8.27H97.07V21.72h8.63a23.57,23.57,0,0,0,5.84-.62,6.79,6.79,0,0,0,3.62-2.1,6.17,6.17,0,0,0,1.25-4.09,6.44,6.44,0,0,0-1-3.58A6.07,6.07,0,0,0,112.61,9Q110.93,8.27,106,8.27Z"/><path class="cls-1" d="M174.94,34.29a13.28,13.28,0,0,1-1.12,5.06,18.45,18.45,0,0,1-3.52,5.34,18,18,0,0,1-6.13,4.25,21.54,21.54,0,0,1-8.7,1.63,29.47,29.47,0,0,1-6.84-.73,18.16,18.16,0,0,1-10.22-6.37,23.85,23.85,0,0,1-3.21-5.16,27.1,27.1,0,0,1-2-6.08,34.39,34.39,0,0,1-.67-6.88,31.09,31.09,0,0,1,1.68-10.57,22.7,22.7,0,0,1,4.78-8,21,21,0,0,1,7.3-5.06A23.2,23.2,0,0,1,155.21,0,21.81,21.81,0,0,1,165.5,2.37a18.83,18.83,0,0,1,6.91,5.85,11.78,11.78,0,0,1,2.4,6.59,4.33,4.33,0,0,1-1.17,3,3.66,3.66,0,0,1-2.82,1.31,3.82,3.82,0,0,1-2.77-.91,12.37,12.37,0,0,1-2.07-3.1,15,15,0,0,0-4.42-5.44,10.61,10.61,0,0,0-6.28-1.8,11.28,11.28,0,0,0-9.46,4.64q-3.52,4.64-3.52,13.18a25.08,25.08,0,0,0,1.56,9.49A11.29,11.29,0,0,0,155,42.7a11.48,11.48,0,0,0,7-2.12,12.75,12.75,0,0,0,4.33-6.22,10.75,10.75,0,0,1,1.52-3.15A3.42,3.42,0,0,1,170.75,30a4,4,0,0,1,3,1.24A4.15,4.15,0,0,1,174.94,34.29Z"/><path class="cls-1" d="M24,114.65a8.16,8.16,0,0,1-1.23,4.43,8.29,8.29,0,0,1-3.62,3.08,13.2,13.2,0,0,1-5.64,1.11,12.32,12.32,0,0,1-6.45-1.52,8.71,8.71,0,0,1-2.93-2.92A6.75,6.75,0,0,1,3,115.29a2.43,2.43,0,0,1,.68-1.72,2.28,2.28,0,0,1,1.72-.71,2,2,0,0,1,1.43.55,4.31,4.31,0,0,1,1,1.65,11.22,11.22,0,0,0,1.09,2.17,4.49,4.49,0,0,0,1.65,1.44,6.06,6.06,0,0,0,2.8.56,6.17,6.17,0,0,0,3.86-1.14,3.46,3.46,0,0,0,1.49-2.84,3.08,3.08,0,0,0-.8-2.2,5.26,5.26,0,0,0-2.08-1.29c-.84-.29-2-.61-3.39-.94a24.76,24.76,0,0,1-4.77-1.6,7.81,7.81,0,0,1-3-2.51,6.62,6.62,0,0,1-1.12-3.94,6.84,6.84,0,0,1,1.19-4,7.57,7.57,0,0,1,3.44-2.68,13.83,13.83,0,0,1,5.3-.93,12.66,12.66,0,0,1,4.21.62,8.68,8.68,0,0,1,2.94,1.65,6.63,6.63,0,0,1,1.72,2.16,5.05,5.05,0,0,1,.54,2.2,2.64,2.64,0,0,1-.68,1.77,2.11,2.11,0,0,1-1.68.79,1.92,1.92,0,0,1-1.4-.47,6.6,6.6,0,0,1-1-1.55,6.82,6.82,0,0,0-1.73-2.4,4.91,4.91,0,0,0-3.24-.86,5.56,5.56,0,0,0-3.35.93,2.77,2.77,0,0,0-1.27,2.25,2.3,2.3,0,0,0,.44,1.41,3.44,3.44,0,0,0,1.19,1,7.34,7.34,0,0,0,1.53.67c.51.16,1.37.4,2.56.7a39.6,39.6,0,0,1,4,1.19,12.09,12.09,0,0,1,3.09,1.58,6.43,6.43,0,0,1,2,2.34A7.72,7.72,0,0,1,24,114.65Z"/><path class="cls-1" d="M46,99.88H33.9v6.68H45a2.57,2.57,0,0,1,1.83.56,2,2,0,0,1,.6,1.49,2,2,0,0,1-.59,1.51,2.54,2.54,0,0,1-1.84.59H33.9v7.73H46.37a2.69,2.69,0,0,1,1.9.6,2.07,2.07,0,0,1,.64,1.6,2.05,2.05,0,0,1-.64,1.57,2.69,2.69,0,0,1-1.9.6H31.82a3.37,3.37,0,0,1-2.51-.8,3.62,3.62,0,0,1-.77-2.57V99a4.63,4.63,0,0,1,.35-1.93A2.13,2.13,0,0,1,30,96a4.35,4.35,0,0,1,1.86-.34H46a2.7,2.7,0,0,1,1.9.58,2.22,2.22,0,0,1,0,3.08A2.7,2.7,0,0,1,46,99.88Z"/><path class="cls-1" d="M64.79,95.18a13.85,13.85,0,0,1,7.06,1.71,11,11,0,0,1,4.46,4.87,17.05,17.05,0,0,1,1.51,7.43,18.34,18.34,0,0,1-.83,5.72,12.5,12.5,0,0,1-2.48,4.47,11,11,0,0,1-4.08,2.89,14.28,14.28,0,0,1-5.53,1,14.12,14.12,0,0,1-5.55-1,10.84,10.84,0,0,1-4.09-2.9,12.36,12.36,0,0,1-2.48-4.5,18.59,18.59,0,0,1-.84-5.69,18.15,18.15,0,0,1,.87-5.75A12.41,12.41,0,0,1,55.35,99a10.86,10.86,0,0,1,4-2.81A14.18,14.18,0,0,1,64.79,95.18Zm7.61,14a13.15,13.15,0,0,0-.94-5.17,6.92,6.92,0,0,0-6.67-4.43,7.07,7.07,0,0,0-3,.62A6.55,6.55,0,0,0,59.48,102a8.81,8.81,0,0,0-1.55,3,14,14,0,0,0-.57,4.14,14.39,14.39,0,0,0,.57,4.19,8.66,8.66,0,0,0,1.61,3.1,6.66,6.66,0,0,0,2.38,1.85,6.94,6.94,0,0,0,2.94.61,7.05,7.05,0,0,0,3.78-1.06,7.21,7.21,0,0,0,2.74-3.26A12.9,12.9,0,0,0,72.4,109.15Z"/><path class="cls-1" d="M82.44,111.58V98.51a3.69,3.69,0,0,1,.73-2.5,2.39,2.39,0,0,1,1.92-.83,2.47,2.47,0,0,1,2,.83,3.69,3.69,0,0,1,.73,2.5v13.37a12.5,12.5,0,0,0,.5,3.8A4.42,4.42,0,0,0,90,118.06a6.35,6.35,0,0,0,3.54.84c2.09,0,3.56-.57,4.43-1.72a8.51,8.51,0,0,0,1.3-5.19V98.51A3.74,3.74,0,0,1,100,96a2.42,2.42,0,0,1,1.93-.82,2.51,2.51,0,0,1,2,.82,3.64,3.64,0,0,1,.75,2.51v13.07a20,20,0,0,1-.6,5.32,8.35,8.35,0,0,1-2.28,3.74,8.7,8.7,0,0,1-3.36,2,14.27,14.27,0,0,1-4.47.63,18,18,0,0,1-5.24-.67,8.31,8.31,0,0,1-3.59-2.1,8.46,8.46,0,0,1-2-3.63A18.7,18.7,0,0,1,82.44,111.58Z"/><path class="cls-1" d="M115.69,98.51v19.78h10.85a2.76,2.76,0,0,1,2,.65,2.25,2.25,0,0,1,0,3.25,2.89,2.89,0,0,1-2,.62H113.62a3.4,3.4,0,0,1-2.52-.8,3.62,3.62,0,0,1-.76-2.57V98.51a3.69,3.69,0,0,1,.73-2.5,2.42,2.42,0,0,1,1.92-.83,2.49,2.49,0,0,1,2,.82A3.64,3.64,0,0,1,115.69,98.51Z"/><path class="cls-1" d="M159.13,100.18h-5.84v19.74a3.71,3.71,0,0,1-.74,2.53,2.44,2.44,0,0,1-1.91.82,2.48,2.48,0,0,1-1.94-.83,3.73,3.73,0,0,1-.74-2.52V100.18h-5.84a2.91,2.91,0,0,1-2-.62,2.11,2.11,0,0,1-.67-1.64,2.09,2.09,0,0,1,.7-1.67,2.93,2.93,0,0,1,2-.61h17a2.92,2.92,0,0,1,2.06.63,2.33,2.33,0,0,1,0,3.29A3,3,0,0,1,159.13,100.18Z"/><path class="cls-1" d="M182.46,99.88H170.4v6.68h11.1a2.57,2.57,0,0,1,1.83.56,2,2,0,0,1,.6,1.49,2,2,0,0,1-.59,1.51,2.54,2.54,0,0,1-1.84.59H170.4v7.73h12.47a2.69,2.69,0,0,1,1.9.6,2.07,2.07,0,0,1,.64,1.6,2.05,2.05,0,0,1-.64,1.57,2.69,2.69,0,0,1-1.9.6H168.32a3.37,3.37,0,0,1-2.51-.8,3.62,3.62,0,0,1-.77-2.57V99a4.63,4.63,0,0,1,.35-1.93,2.13,2.13,0,0,1,1.07-1.1,4.35,4.35,0,0,1,1.86-.34h14.14a2.7,2.7,0,0,1,1.9.58,2.22,2.22,0,0,1,0,3.08A2.7,2.7,0,0,1,182.46,99.88Z"/><path class="cls-1" d="M212.18,114.23a7.54,7.54,0,0,1-.62,2.81,10.34,10.34,0,0,1-2,3,9.83,9.83,0,0,1-3.41,2.36,11.86,11.86,0,0,1-4.83.91,16.54,16.54,0,0,1-3.8-.4,10.16,10.16,0,0,1-5.68-3.54,13.44,13.44,0,0,1-1.78-2.87,14.41,14.41,0,0,1-1.11-3.38,18.69,18.69,0,0,1-.37-3.82,17.3,17.3,0,0,1,.93-5.87A12.53,12.53,0,0,1,192.21,99a11.5,11.5,0,0,1,4-2.81,12.85,12.85,0,0,1,5-1,12,12,0,0,1,5.71,1.31,10.46,10.46,0,0,1,3.84,3.25,6.58,6.58,0,0,1,1.34,3.66,2.42,2.42,0,0,1-.65,1.67,2.07,2.07,0,0,1-1.57.73,2.13,2.13,0,0,1-1.54-.5,6.8,6.8,0,0,1-1.15-1.73,8.18,8.18,0,0,0-2.46-3,5.85,5.85,0,0,0-3.49-1,6.25,6.25,0,0,0-5.25,2.58c-1.3,1.71-2,4.15-2,7.32a13.86,13.86,0,0,0,.87,5.27,6.28,6.28,0,0,0,6.16,4.18,6.39,6.39,0,0,0,3.91-1.18,7.07,7.07,0,0,0,2.4-3.45,6,6,0,0,1,.85-1.76,1.9,1.9,0,0,1,1.62-.67,2.24,2.24,0,0,1,1.64.68A2.32,2.32,0,0,1,212.18,114.23Z"/><path class="cls-1" d="M222.38,98.51v7.79h11.55V98.51a3.75,3.75,0,0,1,.73-2.5,2.42,2.42,0,0,1,1.92-.83,2.52,2.52,0,0,1,2,.82,3.64,3.64,0,0,1,.75,2.51v21.41a3.68,3.68,0,0,1-.76,2.52,2.5,2.5,0,0,1-1.95.83,2.42,2.42,0,0,1-1.93-.84,3.78,3.78,0,0,1-.72-2.51v-9.14H222.38v9.14a3.63,3.63,0,0,1-.76,2.52,2.48,2.48,0,0,1-1.94.83,2.41,2.41,0,0,1-1.93-.84,3.78,3.78,0,0,1-.72-2.51V98.51a3.75,3.75,0,0,1,.71-2.5,2.39,2.39,0,0,1,1.94-.83,2.51,2.51,0,0,1,1.95.82A3.64,3.64,0,0,1,222.38,98.51Z"/><path class="cls-1" d="M261.46,111.19h-1.88v8.73a3.67,3.67,0,0,1-.74,2.54,2.48,2.48,0,0,1-1.93.81,2.42,2.42,0,0,1-2-.85,3.84,3.84,0,0,1-.7-2.5V99a3.62,3.62,0,0,1,.77-2.57,3.41,3.41,0,0,1,2.51-.8h8.71a24.73,24.73,0,0,1,3.08.16,7.42,7.42,0,0,1,2.3.64A6.56,6.56,0,0,1,273.8,98a6.78,6.78,0,0,1,1.45,2.33,8,8,0,0,1,.5,2.81,6.9,6.9,0,0,1-1.67,4.85,9.42,9.42,0,0,1-5.05,2.58,10,10,0,0,1,2.72,2.3,22.88,22.88,0,0,1,2.31,3.23,24.88,24.88,0,0,1,1.59,3.1,6.19,6.19,0,0,1,.57,1.9,2,2,0,0,1-.33,1.06,2.45,2.45,0,0,1-.91.84,2.88,2.88,0,0,1-1.34.3,2.54,2.54,0,0,1-1.51-.43,4.17,4.17,0,0,1-1.06-1.11c-.29-.44-.69-1.09-1.2-2l-2.14-3.67a21,21,0,0,0-2.06-3.08,5.22,5.22,0,0,0-1.85-1.44A6.19,6.19,0,0,0,261.46,111.19Zm3.06-11.42h-4.94v7.47h4.8a13,13,0,0,0,3.24-.34,3.77,3.77,0,0,0,2-1.17,3.44,3.44,0,0,0,.69-2.27,3.59,3.59,0,0,0-.55-2,3.39,3.39,0,0,0-1.55-1.29A10.94,10.94,0,0,0,264.52,99.77Z"/><path class="cls-1" d="M279.93,111.58V98.51a3.69,3.69,0,0,1,.73-2.5,2.42,2.42,0,0,1,1.92-.83,2.49,2.49,0,0,1,2,.83,3.75,3.75,0,0,1,.73,2.5v13.37a12.53,12.53,0,0,0,.49,3.8,4.44,4.44,0,0,0,1.76,2.38,6.33,6.33,0,0,0,3.53.84q3.14,0,4.43-1.72a8.51,8.51,0,0,0,1.3-5.19V98.51a3.74,3.74,0,0,1,.72-2.51,2.44,2.44,0,0,1,1.93-.82,2.52,2.52,0,0,1,2,.82,3.64,3.64,0,0,1,.75,2.51v13.07a20,20,0,0,1-.61,5.32,8.17,8.17,0,0,1-2.28,3.74,8.74,8.74,0,0,1-3.35,2,14.27,14.27,0,0,1-4.47.63,18.06,18.06,0,0,1-5.25-.67,8.27,8.27,0,0,1-3.58-2.1,8.37,8.37,0,0,1-2-3.63A19.07,19.07,0,0,1,279.93,111.58Z"/><path class="cls-1" d="M314.92,98.48l10.29,16V98.33a3.64,3.64,0,0,1,.66-2.37,2.2,2.2,0,0,1,1.77-.78,2.26,2.26,0,0,1,1.82.78,3.58,3.58,0,0,1,.67,2.37V119.7q0,3.57-2.88,3.57a3.77,3.77,0,0,1-1.3-.21,3.12,3.12,0,0,1-1.08-.68,6.63,6.63,0,0,1-.94-1.08c-.29-.41-.58-.84-.87-1.27L313,104.2v15.92a3.48,3.48,0,0,1-.7,2.36,2.46,2.46,0,0,1-3.62,0,3.52,3.52,0,0,1-.69-2.35v-21a6.08,6.08,0,0,1,.29-2.09,3.11,3.11,0,0,1,2.85-1.89,3,3,0,0,1,1.24.24,2.88,2.88,0,0,1,.9.65,7.14,7.14,0,0,1,.79,1.05Z"/><path class="cls-1" d="M343,98.48l10.3,16V98.33a3.7,3.7,0,0,1,.65-2.37,2.21,2.21,0,0,1,1.78-.78,2.27,2.27,0,0,1,1.82.78,3.64,3.64,0,0,1,.67,2.37V119.7q0,3.57-2.89,3.57a3.71,3.71,0,0,1-1.29-.21,3.25,3.25,0,0,1-1.09-.68,6.58,6.58,0,0,1-.93-1.08c-.29-.41-.58-.84-.87-1.27l-10-15.83v15.92a3.48,3.48,0,0,1-.7,2.36,2.46,2.46,0,0,1-3.62,0,3.52,3.52,0,0,1-.69-2.35v-21a6.08,6.08,0,0,1,.29-2.09,3.08,3.08,0,0,1,2.85-1.89,2.75,2.75,0,0,1,2.13.89,6.5,6.5,0,0,1,.8,1.05C342.4,97.55,342.68,98,343,98.48Z"/><path class="cls-1" d="M364.25,119.92V98.51A3.69,3.69,0,0,1,365,96a2.42,2.42,0,0,1,1.91-.83,2.52,2.52,0,0,1,2,.82,3.69,3.69,0,0,1,.74,2.51v21.41a3.73,3.73,0,0,1-.74,2.52,2.49,2.49,0,0,1-2,.83,2.43,2.43,0,0,1-1.9-.84A3.67,3.67,0,0,1,364.25,119.92Z"/><path class="cls-1" d="M382.56,98.48l10.3,16V98.33a3.7,3.7,0,0,1,.65-2.37,2.21,2.21,0,0,1,1.78-.78,2.26,2.26,0,0,1,1.82.78,3.64,3.64,0,0,1,.67,2.37V119.7q0,3.57-2.89,3.57a3.71,3.71,0,0,1-1.29-.21,3.25,3.25,0,0,1-1.09-.68,6.58,6.58,0,0,1-.93-1.08c-.29-.41-.58-.84-.87-1.27l-10-15.83v15.92a3.48,3.48,0,0,1-.7,2.36,2.46,2.46,0,0,1-3.62,0,3.52,3.52,0,0,1-.69-2.35v-21a6.08,6.08,0,0,1,.29-2.09,3.08,3.08,0,0,1,2.85-1.89,2.75,2.75,0,0,1,2.13.89,6.5,6.5,0,0,1,.8,1.05C382,97.55,382.28,98,382.56,98.48Z"/><path class="cls-1" d="M427.77,111.76V117a5.68,5.68,0,0,1-.2,1.66,2.56,2.56,0,0,1-.73,1.12,7,7,0,0,1-1.36,1,21.81,21.81,0,0,1-4.61,1.94,18,18,0,0,1-4.83.61,15.41,15.41,0,0,1-5.56-1,11.67,11.67,0,0,1-4.27-2.8,12.36,12.36,0,0,1-2.71-4.45,17.07,17.07,0,0,1-.95-5.84,17.59,17.59,0,0,1,.92-5.8A12,12,0,0,1,406.18,99a11.72,11.72,0,0,1,4.34-2.81,16.22,16.22,0,0,1,5.8-1,14,14,0,0,1,4.73.73,10.3,10.3,0,0,1,3.33,1.84,8.16,8.16,0,0,1,1.93,2.36,4.88,4.88,0,0,1,.65,2.2,2.39,2.39,0,0,1-.75,1.77,2.47,2.47,0,0,1-1.79.73,2.39,2.39,0,0,1-1.11-.27,2.57,2.57,0,0,1-.89-.78,20.31,20.31,0,0,0-1.68-2.41,5.32,5.32,0,0,0-1.85-1.37,6.85,6.85,0,0,0-3-.56,8,8,0,0,0-3.32.66,6.94,6.94,0,0,0-2.5,1.91,8.69,8.69,0,0,0-1.58,3.06,13.83,13.83,0,0,0-.55,4c0,3.18.71,5.64,2.13,7.35a7.32,7.32,0,0,0,6,2.58,12,12,0,0,0,3.49-.5,17.07,17.07,0,0,0,3.31-1.43v-4.41h-4.15a4.41,4.41,0,0,1-2.26-.46,1.71,1.71,0,0,1-.77-1.58,2,2,0,0,1,.64-1.5,2.49,2.49,0,0,1,1.74-.59h6.08a7.88,7.88,0,0,1,1.89.2,2.14,2.14,0,0,1,1.25.91A3.76,3.76,0,0,1,427.77,111.76Z"/><path class="cls-1" d="M464.61,114.23A7.54,7.54,0,0,1,464,117a10.13,10.13,0,0,1-2,3,9.79,9.79,0,0,1-3.4,2.36,11.86,11.86,0,0,1-4.83.91,16.63,16.63,0,0,1-3.81-.4,11,11,0,0,1-3.11-1.27,10.86,10.86,0,0,1-2.56-2.27,13.48,13.48,0,0,1-1.79-2.87,15.4,15.4,0,0,1-1.11-3.38,19.42,19.42,0,0,1-.37-3.82,17.3,17.3,0,0,1,.93-5.87A12.68,12.68,0,0,1,444.64,99a11.53,11.53,0,0,1,4.06-2.81,12.84,12.84,0,0,1,4.95-1,12.09,12.09,0,0,1,5.72,1.31,10.46,10.46,0,0,1,3.84,3.25,6.56,6.56,0,0,1,1.33,3.66,2.42,2.42,0,0,1-.65,1.67,2,2,0,0,1-1.57.73,2.14,2.14,0,0,1-1.54-.5,7.1,7.1,0,0,1-1.14-1.73,8.37,8.37,0,0,0-2.46-3,5.89,5.89,0,0,0-3.49-1,6.24,6.24,0,0,0-5.25,2.58q-2,2.57-2,7.32a14.07,14.07,0,0,0,.86,5.27,6.3,6.3,0,0,0,6.17,4.18,6.34,6.34,0,0,0,3.9-1.18,7.08,7.08,0,0,0,2.41-3.45,6.27,6.27,0,0,1,.84-1.76,1.9,1.9,0,0,1,1.63-.67,2.28,2.28,0,0,1,1.64.68A2.35,2.35,0,0,1,464.61,114.23Z"/><path class="cls-1" d="M476.62,111.19h-1.88v8.73a3.67,3.67,0,0,1-.74,2.54,2.48,2.48,0,0,1-1.93.81,2.42,2.42,0,0,1-2-.85,3.84,3.84,0,0,1-.7-2.5V99a3.62,3.62,0,0,1,.77-2.57,3.41,3.41,0,0,1,2.51-.8h8.71a24.73,24.73,0,0,1,3.08.16,7.42,7.42,0,0,1,2.3.64A6.56,6.56,0,0,1,489,98a6.78,6.78,0,0,1,1.45,2.33,8,8,0,0,1,.5,2.81,6.9,6.9,0,0,1-1.67,4.85,9.42,9.42,0,0,1-5.05,2.58,10,10,0,0,1,2.72,2.3,22.88,22.88,0,0,1,2.31,3.23,24.88,24.88,0,0,1,1.59,3.1,6.19,6.19,0,0,1,.57,1.9,1.9,1.9,0,0,1-.34,1.06,2.31,2.31,0,0,1-.91.84,2.81,2.81,0,0,1-1.33.3,2.54,2.54,0,0,1-1.51-.43,4.17,4.17,0,0,1-1.06-1.11c-.29-.44-.69-1.09-1.2-2l-2.14-3.67a21,21,0,0,0-2.06-3.08,5.22,5.22,0,0,0-1.85-1.44A6.19,6.19,0,0,0,476.62,111.19Zm3.06-11.42h-4.94v7.47h4.8a13,13,0,0,0,3.24-.34,3.77,3.77,0,0,0,2-1.17,3.44,3.44,0,0,0,.69-2.27,3.59,3.59,0,0,0-.55-2,3.39,3.39,0,0,0-1.55-1.29A10.94,10.94,0,0,0,479.68,99.77Z"/><path class="cls-1" d="M513.39,99.88H501.33v6.68h11.1a2.57,2.57,0,0,1,1.83.56,2,2,0,0,1,.6,1.49,2,2,0,0,1-.59,1.51,2.54,2.54,0,0,1-1.84.59h-11.1v7.73H513.8a2.67,2.67,0,0,1,1.9.6,2.07,2.07,0,0,1,.64,1.6,2.05,2.05,0,0,1-.64,1.57,2.67,2.67,0,0,1-1.9.6H499.26a3.38,3.38,0,0,1-2.52-.8,3.62,3.62,0,0,1-.77-2.57V99a4.63,4.63,0,0,1,.35-1.93,2.17,2.17,0,0,1,1.07-1.1,4.4,4.4,0,0,1,1.87-.34h14.13a2.7,2.7,0,0,1,1.9.58,2.22,2.22,0,0,1,0,3.08A2.7,2.7,0,0,1,513.39,99.88Z"/><path class="cls-1" d="M539.31,118.53,535,102.24l-4.32,16.29c-.34,1.23-.61,2.12-.8,2.66a3.5,3.5,0,0,1-1,1.44,2.88,2.88,0,0,1-2,.64,3.1,3.1,0,0,1-1.63-.38,2.87,2.87,0,0,1-1-1.07,6.76,6.76,0,0,1-.65-1.65q-.26-1-.45-1.77l-4.4-18.29a11.45,11.45,0,0,1-.4-2.43,2.46,2.46,0,0,1,2.51-2.5,2,2,0,0,1,2,1,11.26,11.26,0,0,1,.89,2.8l3.46,15.86L531,100a24.61,24.61,0,0,1,.78-2.6,3.8,3.8,0,0,1,1.12-1.54,3.16,3.16,0,0,1,2.1-.64,3,3,0,0,1,2.1.67,3.62,3.62,0,0,1,1,1.48c.19.53.45,1.4.78,2.63l3.91,14.84,3.46-15.86c.17-.83.32-1.48.47-2a3.21,3.21,0,0,1,.78-1.26,2.16,2.16,0,0,1,1.6-.55,2.43,2.43,0,0,1,1.77.71,2.39,2.39,0,0,1,.73,1.79,11.65,11.65,0,0,1-.4,2.43l-4.39,18.29c-.3,1.23-.55,2.14-.75,2.71a3.63,3.63,0,0,1-1,1.51,2.86,2.86,0,0,1-2,.65,3,3,0,0,1-2-.63,3.4,3.4,0,0,1-1-1.41Q539.82,120.44,539.31,118.53Z"/><path class="cls-1" d="M8.82,206.17v-6.94h2.29V206c0,2.48.19,3.54,1.88,5.54a70.3,70.3,0,0,0,5.46,5.62L17,218.71c-2-1.93-3.74-3.71-5-5.09a14.39,14.39,0,0,1-2-2.52h0a15.33,15.33,0,0,1-2.23,3c-1.1,1.23-3.17,3.39-5,5.07l-1.47-1.58a63.74,63.74,0,0,0,5.27-5.29A7.78,7.78,0,0,0,8.82,206.17ZM25.1,226.55H22.9V208.49H16.1v-2.07h6.8v-9.35h2.2Z"/><path class="cls-1" d="M54.69,209.78v1.93H42.61v3.2h8.16v6.8H34.42v3.07H51.61v1.9H32.26v-6.84H48.6v-3H32.1v-1.9h8.31v-3.2H28.34v-1.93Zm-4.21-6.84c0,2.9-3.92,4.74-9,4.74s-9-1.84-9-4.74V202c0-2.94,3.92-4.74,9-4.74s9,1.83,9,4.74Zm-15.78-.13c0,1.68,3,3,6.81,3s6.81-1.29,6.81-3v-.64c0-1.68-3-3-6.81-3s-6.81,1.29-6.81,3Z"/><path class="cls-1" d="M74,219a153.16,153.16,0,0,1-18.54.74v-2c2.29,0,4.27,0,6.06,0V208.3H63.7v9.35c4-.1,7-.29,10.07-.65Zm-2.79-19.06v3.58a54.38,54.38,0,0,1-.75,9.68l-2.23-.29a46.52,46.52,0,0,0,.75-8.94v-2H56.86v-2Zm7,8.39h4.55v2H78.19v16.22H76V197.07h2.23Z"/><path class="cls-1" d="M92,200.39h7.18v2H82.65v-2h7.12v-3.74H92Zm-7.66,9.55v-1.16c0-2.65,2.54-4.94,6.56-4.94s6.55,2.29,6.55,4.94v1.16c0,2.65-2.54,4.94-6.55,4.94S84.31,212.59,84.31,209.94Zm2.1-1.06v1c0,1.71,1.82,3.13,4.46,3.13s4.45-1.42,4.45-3.13v-1c0-1.71-1.82-3.13-4.45-3.13S86.41,207.17,86.41,208.88Zm.47,8.25h18v9.68h-2.2v-7.68H86.88Zm18-12h4.39v2h-4.39v8.26h-2.2V197.07h2.2Z"/><path class="cls-1" d="M110.76,218c9.63-5.67,10.73-7.58,10.73-12.38v-3.71H111.08v-2.07h12.58v5.81c0,5.87-1.54,8.06-11.74,14.19Zm22.12,8.55h-2.23V197.07h2.23Z"/><path class="cls-1" d="M162.62,209.49v1.93H150.54v3.42h8.16v6.84H142.36v3.1h17.19v1.9H140.19v-6.87h16.35v-3.06H140v-1.91h8.31v-3.42H136.27v-1.93Zm-16.91-4.42c-1.63.74-3.6,1.61-6.49,2.71l-.88-1.87c2.48-.9,5.15-2,6.68-2.71,2.54-1.16,3.33-2.1,3.33-3.74V197.3h2.23v2.16c0,1.64.75,2.58,3.29,3.74,1.54.71,4.11,1.77,6.65,2.71l-.78,1.84c-2.7-1-4.9-2-6.53-2.71-1.91-.84-3.39-1.71-3.73-2.39h0C149.16,203.33,147.63,204.23,145.71,205.07Z"/><path class="cls-1" d="M175.43,199.88v2.06h-8.6v14.52h1.32a46.42,46.42,0,0,0,8.81-.65l.26,2a50,50,0,0,1-8.88.68H164.6V199.88Zm6,7.8h4.17V197.07h2.2v29.48h-2.2V209.71h-4.17V225.1h-2.2V197.68h2.2Z"/><path class="cls-1" d="M199.9,200.39h7.19v2H190.58v-2h7.13v-3.74h2.19Zm-7.65,9.55v-1.16c0-2.65,2.54-4.94,6.55-4.94s6.56,2.29,6.56,4.94v1.16c0,2.65-2.54,4.94-6.56,4.94S192.25,212.59,192.25,209.94Zm2.1-1.06v1c0,1.71,1.82,3.13,4.45,3.13s4.46-1.42,4.46-3.13v-1c0-1.71-1.82-3.13-4.46-3.13S194.35,207.17,194.35,208.88Zm.47,8.25h18v9.68H210.6v-7.68H194.82Zm18-12h4.4v2h-4.4v8.26H210.6V197.07h2.19Z"/><path class="cls-1" d="M223.56,220.42v-10.8h2.23v10.8h4.86v-10.8h2.23v10.8h10.69v2H217.22v-2Zm13.11-4.09a61,61,0,0,0,1-11.84v-2.68h-17.1v-2H239.9v3.49a73,73,0,0,1-1,13.29Z"/><path class="cls-1" d="M261.71,200.39h7.19v2H252.4v-2h7.12v-3.74h2.19Zm-7.65,9.55v-1.16c0-2.65,2.54-4.94,6.56-4.94s6.55,2.29,6.55,4.94v1.16c0,2.65-2.54,4.94-6.55,4.94S254.06,212.59,254.06,209.94Zm2.1-1.06v1c0,1.71,1.82,3.13,4.46,3.13s4.45-1.42,4.45-3.13v-1c0-1.71-1.82-3.13-4.45-3.13S256.16,207.17,256.16,208.88Zm.47,8.25h18v9.68h-2.2v-7.68H256.63Zm18-12H279v2h-4.39v8.26h-2.2V197.07h2.2Z"/><path class="cls-1" d="M291.55,212.94c-1.19-1-2.51-2.29-3.45-3.26a9.54,9.54,0,0,1-1.91-2.29h0a7.53,7.53,0,0,1-1.51,2.16,48.58,48.58,0,0,1-4.45,4.33l-1.42-1.52a37.87,37.87,0,0,0,4.43-4.32,6.72,6.72,0,0,0,1.82-5.33v-4.12h2.19v4.09c0,2.42.22,3.36,1.85,5.13a49.22,49.22,0,0,0,3.86,3.65Zm-5.83,9v-1.16c0-3.42,4.14-5.39,8.84-5.39s8.85,2,8.85,5.39v1.16c0,3.39-4.14,5.39-8.85,5.39S285.72,225.33,285.72,221.94Zm2.13-1.06v1c0,2.29,3.36,3.55,6.71,3.55s6.72-1.26,6.72-3.55v-1c0-2.29-3.36-3.55-6.72-3.55S287.85,218.59,287.85,220.88Zm9-16.58h4.2v-7.23h2.16v17.68h-2.16v-8.42h-4.2v7.26h-2.17V197.46h2.17Z"/><path class="cls-1" d="M332.37,209.91v1.93H306v-1.93Zm-3.92,4.8v6.91H312.1v3.16h17.2v1.9H309.94v-6.93h16.34v-3.13h-16.5v-1.91Zm-.16-14.77H312.17v5.19h16.28v1.94H310V198h18.29Z"/><path class="cls-1" d="M334.35,205v-1.42c0-3.13,2.89-5.87,7-5.87s7,2.74,7,5.87V205c0,3.13-2.88,5.87-7,5.87S334.35,208.1,334.35,205Zm2.13-1.22v1c0,2.19,2,4,4.87,4s4.86-1.84,4.86-4v-1c0-2.2-2-4-4.86-4S336.48,201.55,336.48,203.75Zm20.21,9.58v7.61H341.32v3.77h16.12v1.94H339.15V219h15.37V215.3H339v-2Zm0-1.74h-2.2V197.07h2.2Z"/><path class="cls-1" d="M390.26,199.62V213.1H382.1v7.32h12.08v2H367.83v-2h12.08V213.1h-8.16V199.62ZM374,211.1h14.12v-9.48H374Z"/><path class="cls-1" d="M418.59,226.59h-2.16V214.2H409.5a6.41,6.41,0,0,1-6.59,5.06c-4.43,0-7.06-3.16-7.06-8.55v-3c0-5.35,2.63-8.51,7.06-8.51a6.5,6.5,0,0,1,6.59,5h6.93v-7.13h2.16ZM407.8,208.1c0-4.9-1.94-6.8-4.89-6.8s-4.9,1.9-4.9,6.8v2.23c0,4.9,1.95,6.84,4.9,6.84s4.89-1.94,4.89-6.84Zm2.17,2.61c0,.49,0,1-.07,1.42h6.53v-5.87H409.9c0,.49.07,1,.07,1.45Z"/><path class="cls-1" d="M443.85,212.81h-12.8v-13.9h12.8Zm-2.13-11.9h-8.53v9.9h8.53Zm-4.49,23.29h15.82v2H435v-9.71h2.22Zm14.94-18.52h4.39v2h-4.39v10.49H450v-21.1h2.2Z"/><path class="cls-1" d="M483,212.65v2H456.63v-2ZM462.74,224.2h16.91v2H460.52v-8.61h2.22Zm16.16-23.74H462.77V207h16.29v2H460.61V198.49H478.9Z"/><path class="cls-1" d="M495.56,217.2h4.18a59.82,59.82,0,0,0,9.5-.65l.25,2a64.31,64.31,0,0,1-10.32.71h-5.8V207.94h9.79v-6.48h-9.79v-2h12v10.48h-9.79Zm17.57-9.71V197.07h2.2v29.48h-2.2v-17h-5.55v-2.06Z"/><path class="cls-1" d="M522.8,198.78v10.74a91.07,91.07,0,0,0,13.93-.77l.25,2c-5,.68-7.84.81-16.41.81V198.78Zm19.42,23c0,3.22-3.61,5.55-8.72,5.55s-8.72-2.33-8.72-5.55v-1.29c0-3.23,3.6-5.55,8.72-5.55s8.72,2.32,8.72,5.55Zm-2.14-.16v-1c0-2-2.79-3.77-6.58-3.77s-6.59,1.74-6.59,3.77v1c0,2,2.79,3.77,6.59,3.77S540.08,223.65,540.08,221.62Zm2-7.32h-2.19V197.07h2.19Z"/><path class="cls-1" d="M579.62,220.42v2H553.27v-2Zm-6.15-12.12c0-.88.06-1.75.06-2.68v-3.87H556.75v-2h19.07v4.67a68.92,68.92,0,0,1-1.13,13.33l-2.29-.26c.44-2.49.79-4.81,1-7.26l-17,.32-.06-2Z"/><path class="cls-1" d="M606.6,215v2h-12v9.58h-2.23V217H580.25v-2Zm-4-16.35v7.48H586.31v3.62h17v2H584.14V204.2h16.31v-3.58h-16.4v-2Z"/><path class="cls-1" d="M608.58,204c0-3,2.83-5.87,7-5.87s7,2.9,7,5.87v1.55c0,3-2.83,5.87-7,5.87s-7-2.91-7-5.87Zm11.86.22c0-2.13-2.07-4.06-4.86-4.06s-4.86,1.93-4.86,4.06v1.1c0,2.13,2.07,4.06,4.86,4.06s4.86-1.93,4.86-4.06Zm10.48,9.62v12.64H613.41V213.88h2.17v4.06h13.18v-4.06Zm-2.16,10.61v-4.55H615.58v4.55Zm2.16-12.36h-2.2V197.07h2.2Z"/><path class="cls-1" d="M638.92,216.39H643a53.55,53.55,0,0,0,9.57-.8l.28,2a59,59,0,0,1-10.07.84H636.7v-19h2.22Zm19,10.16h-2.23V197.07h2.23Z"/><path class="cls-1" d="M662.8,199.75h13.05v2.06H665v14.81h3.7a55.05,55.05,0,0,0,9.76-.81l.28,2a59.72,59.72,0,0,1-10.6.84H662.8ZM683.44,208h4.77v2h-4.77v16.51h-2.22V197.07h2.22Z"/><path class="cls-1" d="M690.13,220.71h3.17v3.23h-3.17Z"/><path class="cls-1" d="M3.64,245.3h7.22c4.8,0,7.18,1.87,7.18,5.67v.68a4.45,4.45,0,0,1-3.64,4.64c2.76.42,4.68,2.1,4.68,5.33v.8c0,3.81-2.36,6.13-7.25,6.13H3.64Zm2.17,2v8.2h5.11c3.14,0,4.93-1,4.93-3.87V251c0-2.74-1.6-3.74-5.15-3.74Zm0,19.29h5.83c3.55,0,5.21-1.42,5.21-4.16v-.71c0-2.84-1.38-4.32-5.9-4.32H5.81Z"/><path class="cls-1" d="M35.36,266.84a10.13,10.13,0,0,1-6.15,2c-4.48,0-7.15-2.9-7.15-8v-2.16c0-4.93,2.64-7.84,6.87-7.84,4.39,0,6.81,3,6.81,7.91v1.8H24.19v.29c0,3.84,1.95,6,5,6a8.55,8.55,0,0,0,5.18-1.71Zm-1.76-8.13v-.29c0-3.61-1.72-5.64-4.67-5.64s-4.74,2.22-4.74,5.64v.29Z"/><path class="cls-1" d="M60.4,262.81v-.68c0-2.19-1.1-3.32-5.93-4.45-5.27-1.22-6.9-3.16-6.9-6.09v-.75c0-3.51,3.11-5.9,7.4-5.9a11,11,0,0,1,6.72,2l-1,1.84A9.39,9.39,0,0,0,55,247c-2.79,0-5.17,1.42-5.17,3.84v.65c0,2,1.25,3.16,5.36,4.13,5.84,1.35,7.47,3.13,7.47,6.45v.74c0,3.32-2.89,6.1-7.78,6.1a12.46,12.46,0,0,1-7.69-2.58l1.13-1.91a10.69,10.69,0,0,0,6.46,2.39C58.3,266.81,60.4,264.91,60.4,262.81Z"/><path class="cls-1" d="M68.12,253H65.23v-1.87h2.89v-4.49h2.13v4.49h4.68V253H70.25v10.58c0,2.35.69,3.19,2.39,3.19a8.5,8.5,0,0,0,2.38-.32l.32,1.8a9.52,9.52,0,0,1-2.86.42c-3,0-4.36-1.22-4.36-5Z"/><path class="cls-1" d="M87.7,253.42a5.53,5.53,0,0,0-2-.35c-2.79,0-4.55,2.35-4.55,5.61v9.87H79V251.17h2.1v3.06a5.24,5.24,0,0,1,4.86-3.39,6.82,6.82,0,0,1,2.42.36Z"/><path class="cls-1" d="M104.7,258.75v2.16c0,5-2.66,7.9-7.18,7.9s-7.18-2.9-7.18-7.9v-2.16c0-5,2.66-7.91,7.18-7.91S104.7,253.75,104.7,258.75Zm-2.16,2v-1.9c0-4.1-1.91-6.1-5-6.1s-5,2-5,6.1v1.9c0,4.1,1.91,6.1,5,6.1S102.54,264.88,102.54,260.78Z"/><path class="cls-1" d="M122.31,256.84v11.71h-2.14V257.39c0-2.48-.91-4.55-4.26-4.55a4.79,4.79,0,0,0-4.83,4.42v11.29h-2.14V251.17H111v2.42a5.88,5.88,0,0,1,5.18-2.75C120.08,250.84,122.31,253.23,122.31,256.84Z"/><path class="cls-1" d="M138.18,265.94h0a5.59,5.59,0,0,1-5,2.55c-3.89,0-6.74-2.71-6.74-7.45v-2.75c0-4.74,2.85-7.45,6.71-7.45a6,6,0,0,1,5.08,2.45v-2.12h2.11v17.09c0,4.94-2.7,7.49-6.91,7.49a8.74,8.74,0,0,1-5.64-1.81l1-1.71a7,7,0,0,0,4.67,1.45c3.11,0,4.77-1.71,4.77-5.35Zm-9.63-5.23c0,3.71,1.88,5.84,4.71,5.84s4.92-1.48,4.92-4.55v-4.9a4.79,4.79,0,0,0-4.92-4.32c-2.86,0-4.71,2.16-4.71,5.84Z"/><path class="cls-1" d="M151.65,245.3H154l5.08,20.83h0l5.4-20.83H167l5.39,20.83h0l5.12-20.83h2.29l-6.25,23.25h-2.51l-5.36-20.64-5.36,20.64h-2.51Z"/><path class="cls-1" d="M183.27,245.39h2.33v2.45h-2.33Zm.1,5.78h2.13v17.38h-2.13Z"/><path class="cls-1" d="M191.93,253h-2.88v-1.87h2.88v-4.49h2.14v4.49h4.67V253h-4.67v10.58c0,2.35.69,3.19,2.38,3.19a8.62,8.62,0,0,0,2.39-.32l.31,1.8a9.52,9.52,0,0,1-2.86.42c-2.94,0-4.36-1.22-4.36-5Z"/><path class="cls-1" d="M216.15,256.84v11.71H214V257.39c0-2.48-.91-4.55-4.27-4.55a4.8,4.8,0,0,0-4.83,4.42v11.29h-2.13V244.17h2.13v9.42a5.82,5.82,0,0,1,5.15-2.75C213.93,250.84,216.15,253.23,216.15,256.84Z"/><path class="cls-1" d="M241.51,262.81v-.68c0-2.19-1.1-3.32-5.93-4.45-5.27-1.22-6.9-3.16-6.9-6.09v-.75c0-3.51,3.1-5.9,7.4-5.9a10.93,10.93,0,0,1,6.71,2l-1,1.84a9.41,9.41,0,0,0-5.68-1.75c-2.79,0-5.18,1.42-5.18,3.84v.65c0,2,1.26,3.16,5.37,4.13,5.83,1.35,7.46,3.13,7.46,6.45v.74c0,3.32-2.88,6.1-7.78,6.1a12.43,12.43,0,0,1-7.68-2.58l1.13-1.91a10.67,10.67,0,0,0,6.46,2.39C239.4,266.81,241.51,264.91,241.51,262.81Z"/><path class="cls-1" d="M262.69,245.3v2h-7.25v21.26h-2.2V247.29H246v-2Z"/><path class="cls-1" d="M274.61,258.49a8,8,0,0,1-.85,0h-5.64v10h-2.2V245.3h7.81c4.52,0,7.12,2.67,7.12,6.32v.48a6.06,6.06,0,0,1-4.08,5.9l4.55,10.55H279Zm-6.49-11.16v9.16h4.95c3.92,0,5.56-1.68,5.56-4.49v-.32c0-2.71-1.7-4.35-5.21-4.35Z"/><path class="cls-1" d="M301,247.26,299.84,249a9.25,9.25,0,0,0-6-2c-4.17,0-6.46,3.32-6.46,8.19v3c0,5.71,2.51,8.52,6.68,8.52a8.84,8.84,0,0,0,6.21-2.39l1.29,1.77a10.4,10.4,0,0,1-7.53,2.78c-5.87,0-8.88-3.94-8.88-10.68v-2.87c0-6.58,3.2-10.42,8.69-10.42A11.06,11.06,0,0,1,301,247.26Z"/><path class="cls-1" d="M314.8,262.75h4.05a61.15,61.15,0,0,0,9.51-.65l.25,2a64.39,64.39,0,0,1-10.32.71h-5.68V253.49H323V247H312.61v-2h12.61v10.49H314.8Zm18.51-9.1h4.77v2h-4.77V272.1h-2.22V242.62h2.22Z"/><path class="cls-1" d="M364.34,257.88v2H338v-2Zm-20.23,11.87H361v2H341.88v-8.81h2.23Zm.12-18h16.38v2H342v-10h2.22Z"/><path class="cls-1" d="M399.17,255.33v1.93H372.82v-1.93Zm-16.91-4.55c-1.63.74-3.79,1.68-6.49,2.71l-.88-1.87c2.45-.91,5.15-2,6.68-2.71,2.54-1.16,3.33-2.1,3.33-3.74v-2.26h2.23v2.26c0,1.64.75,2.61,3.29,3.74,1.6.71,4.14,1.77,6.65,2.71l-.78,1.84c-2.7-1-4.9-2-6.53-2.71-1.91-.84-3.39-1.71-3.73-2.39h0C385.65,249.07,384.18,249.94,382.26,250.78Zm13,9.42v6.93H378.91v3.2H396.1v1.9H376.74v-7h16.35V262.1H376.58v-1.9Z"/><path class="cls-1" d="M422.17,244.94v8.74H405.86v4.78h17v2h-8.75V266h12.08v2H399.8v-2h12.08v-5.55h-8.19v-8.67H420v-4.84H403.6v-2Z"/><path class="cls-1" d="M428,258.88c10-4.49,10.89-5.81,10.89-10.07v-2.26H429v-2H441v4.39a16.86,16.86,0,0,1-.09,1.81h7.43v-8.13h2.2v21.09h-2.2v-11H440.5c-1.07,2.71-4,4.61-11.61,8Zm7.25,10.87h16.06v2H433v-9.62h2.23Z"/><path class="cls-1" d="M480.12,266v2H453.77v-2Zm-22.65-14.48c0-4.26,4.27-7,9.48-7s9.47,2.74,9.47,7v1.58c0,4.26-4.3,7-9.47,7s-9.48-2.74-9.48-7Zm2.2.1V253c0,2.94,3.17,5,7.28,5s7.28-2.06,7.28-5v-1.38c0-2.94-3.2-5-7.28-5S459.67,248.65,459.67,251.59Z"/><path class="cls-1" d="M503.12,244.94v8.74H486.81v4.78h17v2H495V266h12.08v2H480.76v-2h12.07v-5.55h-8.18v-8.67H501v-4.84H484.55v-2Z"/><path class="cls-1" d="M11,291.49H18.2v2H1.7v-2H8.82v-3.74H11Zm5.46,8.19v1c0,2.36-2.19,4.75-6.55,4.75s-6.56-2.39-6.56-4.75v-1c0-2.35,2.2-4.74,6.56-4.74S16.47,297.33,16.47,299.68Zm-2.1.9v-.77c0-1.42-1.47-3-4.45-3s-4.46,1.52-4.46,3v.77c0,1.42,1.48,3,4.46,3S14.37,302,14.37,300.58Zm-7.69,7.07H23.91v10H6.68Zm2.14,7.93h13v-5.9H8.82ZM23.91,296.1H28.3v2H23.91v7.81h-2.2V288.17h2.2Z"/><path class="cls-1" d="M27.8,307.84c5.24-5.93,5.52-7.42,5.52-11.58v-3.13h-4.2v-2h6.34v5.26c0,5-.6,6.42-6.09,12.87Zm6.59,2.52c5.08-6.45,5.55-7.87,5.55-12v-5.2H36.68v-2h5.4v8.19H45.9V288.78H48V316.2H45.9V301.29h-4c-.38,3-1.66,5.1-5.9,10.42Zm19,7.29H51.21V288.17h2.16Z"/><path class="cls-1" d="M82.93,305.58c-2.83.3-5.49.46-8.91.59v10.54H71.76V306.26c-2.26,0-4.86.07-8,.07v-2a175.19,175.19,0,0,0,19-.71Zm-3-5.41H65.7V289.62H79.85v2.06H67.93v6.42H80Zm7.18,17.48H84.94V288.17h2.22Z"/><path class="cls-1" d="M116.5,303.42v2H90.15v-2ZM96.26,315.29h16.91v2H94v-8.8h2.22Zm.13-18h16.38v2H94.16v-10h2.23Z"/><path class="cls-1" d="M129.08,308.29h4.18a61,61,0,0,0,9.5-.64l.25,2a64.31,64.31,0,0,1-10.32.71h-5.8V299h9.79v-6.49h-9.79v-2h12V301h-9.79Zm17.57-9.7V288.17h2.2v29.48h-2.2v-17H141.1v-2.06Z"/><path class="cls-1" d="M156.32,289.88v10.74a89.71,89.71,0,0,0,13.93-.78l.25,2c-5,.67-7.84.8-16.41.8v-12.8Zm19.42,23c0,3.22-3.61,5.54-8.72,5.54s-8.72-2.32-8.72-5.54v-1.3c0-3.22,3.6-5.54,8.72-5.54s8.72,2.32,8.72,5.54Zm-2.13-.17v-1c0-2-2.8-3.78-6.59-3.78s-6.59,1.74-6.59,3.78v1c0,2,2.79,3.78,6.59,3.78S173.61,314.75,173.61,312.71Zm2-7.32h-2.19V288.17h2.19Z"/><path class="cls-1" d="M197.58,310.07a153.26,153.26,0,0,1-18.54.74v-2c2.29,0,4.26,0,6.05,0v-9.39h2.23v9.36c4.05-.1,7-.29,10.07-.65ZM194.79,291v3.59a53.27,53.27,0,0,1-.76,9.67l-2.22-.29a47.16,47.16,0,0,0,.75-8.93v-2H180.48v-2Zm7,8.39h4.55v2h-4.55v16.23h-2.22V288.17h2.22Z"/><path class="cls-1" d="M215,304.42c10-4.48,10.89-5.8,10.89-10.06V292.1h-9.91v-2H228v4.39a16.66,16.66,0,0,1-.09,1.8h7.43v-8.12h2.2v21.09h-2.2v-11h-7.87c-1.07,2.71-4,4.62-11.61,8Zm7.25,10.87h16.06v2H220v-9.61h2.23Z"/><path class="cls-1" d="M241.54,303.62c9.94-4.29,10.82-5.58,10.82-9.94V292h-9.85v-2h12v3.84c0,5.41-1.6,7-12.08,11.58Zm21.83,8.06v1.23c0,3.38-3.82,5.51-8.53,5.51s-8.53-2.13-8.53-5.51v-1.23c0-3.45,3.83-5.51,8.53-5.51S263.37,308.29,263.37,311.68Zm-2.13,1.13v-1c0-2.29-3-3.68-6.4-3.68s-6.4,1.39-6.4,3.68v1c0,2.29,3,3.68,6.4,3.68S261.24,315.1,261.24,312.81Zm2-17.61h4.39v2h-4.39v8.32H261V288.17h2.2Z"/><path class="cls-1" d="M277.4,291.65h7.19v2H268.08v-2h7.13v-3.77h2.19Zm5.49,10c0,2.67-2.51,5.19-6.59,5.19s-6.58-2.52-6.58-5.19v-1.23c0-2.68,2.51-5.19,6.58-5.19s6.59,2.51,6.59,5.19Zm-2.1-.1v-1c0-1.58-1.69-3.36-4.49-3.36s-4.48,1.78-4.48,3.36v1c0,1.58,1.69,3.36,4.48,3.36S280.79,303.1,280.79,301.52Zm-5.36,13.77h15.74v2h-18v-8.16h2.23Zm14.87-18.12h4.39v2H290.3v10.45h-2.2V288.17h2.2Z"/><path class="cls-1" d="M306.68,308.29h4.17a61,61,0,0,0,9.5-.64l.26,2a64.51,64.51,0,0,1-10.33.71h-5.8V299h9.79v-6.49h-9.79v-2h12V301h-9.78Zm17.57-9.7V288.17h2.19v29.48h-2.19v-17h-5.56v-2.06Z"/><path class="cls-1" d="M333.91,289.88v10.74a89.71,89.71,0,0,0,13.93-.78l.25,2c-4.95.67-7.84.8-16.41.8v-12.8Zm19.42,23c0,3.22-3.61,5.54-8.72,5.54s-8.72-2.32-8.72-5.54v-1.3c0-3.22,3.61-5.54,8.72-5.54s8.72,2.32,8.72,5.54Zm-2.13-.17v-1c0-2-2.79-3.78-6.59-3.78s-6.59,1.74-6.59,3.78v1c0,2,2.79,3.78,6.59,3.78S351.2,314.75,351.2,312.71Zm2-7.32H351V288.17h2.19Z"/><path class="cls-1" d="M390.73,303.2v1.93H379v6.23h-2.2v-6.23H364.38V303.2ZM370.5,315.29h16.94v2H368.27v-8.77h2.23Zm16.28-25.83v10.38H368.33V289.46Zm-16.28,8.42h14.11v-6.49H370.5Z"/><path class="cls-1" d="M410,311.29a153.34,153.34,0,0,1-18.57.75v-2c3.17,0,5.77,0,8-.07v-3.68c-3.48-.32-5.87-2.51-5.87-4.9v-1.22c0-2.65,2.83-4.94,6.81-4.94s6.81,2.32,6.81,4.94v1.22c0,2.29-2.23,4.42-5.52,4.87v3.65c3.07-.1,5.55-.29,8.12-.58Zm-8.5-19.7h7v2H392.05v-2h7.28v-3.68h2.2Zm-5.81,8.74v.9c0,1.58,1.89,3.19,4.71,3.19s4.71-1.61,4.71-3.19v-.9c0-1.58-1.89-3.16-4.71-3.16S395.72,298.75,395.72,300.33Zm18.51,0h4.55v2h-4.55v15.29H412V288.17h2.22Z"/><path class="cls-1" d="M444.7,302.23v1.94H418.35v-1.94Zm-3.92,4.48v6.49H424.43v2.71h17.19v1.9H422.27v-6.48h16.34v-2.71h-16.5v-1.91Zm-18.57-17.77h18.41v6.35H424.4v2.59h16.85v1.9H422.3v-6.36h16.22v-2.58H422.21Z"/><path class="cls-1" d="M479.53,305.52v2h-12v10.16h-2.23V307.49H453.18v-2Zm-3.08-3c-2.38-.91-4.7-1.84-6.37-2.58-1.94-.87-3.26-1.71-3.73-2.49h0c-.47.84-1.79,1.65-3.73,2.52-1.67.74-3.92,1.64-6.43,2.61l-.85-1.71c2.23-.84,5.08-2,6.59-2.71,2.48-1.16,3.32-2.22,3.32-4v-.77h-8.69v-1.94h8.69V288h2.23v3.45h8.72v1.94h-8.72v.77c0,1.78.78,2.84,3.32,4,1.54.71,3.9,1.68,6.47,2.68Z"/><path class="cls-1" d="M499.17,303.62a47,47,0,0,0,1-9.26v-2.29H483.61v-2H502.4v3.52a52.43,52.43,0,0,1-.94,10h5.05v2H494.43v12.07h-2.22V305.58h-12v-2Z"/><path class="cls-1" d="M516.81,291.46H524v2h-16.5v-2h7.12v-3.71h2.2Zm-7.66,8.9v-1c0-2.26,2.13-4.58,6.56-4.58s6.55,2.32,6.55,4.58v1c0,2.26-2.13,4.58-6.55,4.58S509.15,302.62,509.15,300.36Zm2.13-.84v.71c0,1.29,1.42,2.81,4.43,2.81s4.42-1.52,4.42-2.81v-.71c0-1.29-1.41-2.81-4.42-2.81S511.28,298.23,511.28,299.52Zm18.42,7v11.16H512.51V306.49h2.16v3.45h12.86v-3.45Zm-2.17,9.13v-3.68H514.67v3.68Zm2.17-20.13h4.39v2H529.7v7.26h-2.2V288.17h2.2Z"/><path class="cls-1" d="M538.83,307.49h4.11a53.68,53.68,0,0,0,9.57-.81l.28,2a58,58,0,0,1-10.07.84H536.6v-19h2.23Zm19,10.16h-2.22V288.17h2.22Z"/><path class="cls-1" d="M562.71,290.84h13v2.07H564.94v14.8h3.7a55,55,0,0,0,9.76-.8l.28,2a60.67,60.67,0,0,1-10.6.84h-5.37Zm20.64,8.26h4.77v2h-4.77v16.52h-2.22V288.17h2.22Z"/><path class="cls-1" d="M590,311.81h3.17V315H590Z"/></g></g></g></svg>