<svg xmlns="http://www.w3.org/2000/svg" viewBox="0 0 48.61 38.53"><defs><style>.cls-1{fill:#fff;}</style></defs><g id="레이어_2" data-name="레이어 2"><g id="메인_홍보" data-name="메인 홍보"><g id="_7page" data-name="7page"><g id="contact_me" data-name="contact me"><g id="카카오톡"><g id="카카오"><path d="M24.3,0C10.88,0,0,8.39,0,18.74c0,5.08,2.64,9.67,6.89,13A8.82,8.82,0,0,1,1,38.53c6.93,0,9.41-1.53,11.85-3.27A30,30,0,0,0,24.3,37.48c13.43,0,24.31-8.39,24.31-18.74S37.73,0,24.3,0Z"/><path class="cls-1" d="M8.61,19.34l3.52,5.12H10.88L7.89,20,6.58,21.33v3.13h-1V12.81h1v7.27l3.9-3.93h1.36Z"/><path class="cls-1" d="M15.84,24.58A2.73,2.73,0,0,1,14,24a2.19,2.19,0,0,1-.72-1.74v-.34A2.09,2.09,0,0,1,14,20.22a3.15,3.15,0,0,1,2.13-.63h2.28v-.77a1.92,1.92,0,0,0-.49-1.4,2,2,0,0,0-1.43-.48,3.36,3.36,0,0,0-1.26.24,5.29,5.29,0,0,0-1.12.61l-.5-.8a6.71,6.71,0,0,1,1.27-.7A4.22,4.22,0,0,1,16.47,16a3.11,3.11,0,0,1,2.14.69,2.52,2.52,0,0,1,.77,2v5.81h-1v-1h0a1.82,1.82,0,0,1-.35.41,3.32,3.32,0,0,1-.55.38A3.64,3.64,0,0,1,15.84,24.58Zm2.54-4.11H16.11a2,2,0,0,0-1.4.4,1.37,1.37,0,0,0-.44,1.05v.24a1.47,1.47,0,0,0,.15.69,1.39,1.39,0,0,0,.4.47,1.76,1.76,0,0,0,.55.27,2.2,2.2,0,0,0,.62.08,3,3,0,0,0,.87-.12,2.87,2.87,0,0,0,.75-.36,2,2,0,0,0,.55-.53,1.39,1.39,0,0,0,.22-.79Z"/><path class="cls-1" d="M24.69,19.34l3.52,5.12H27L24,20l-1.31,1.29v3.13h-1V12.81h1v7.27l3.9-3.93h1.36Z"/><path class="cls-1" d="M31.92,24.58A2.75,2.75,0,0,1,30.05,24a2.19,2.19,0,0,1-.72-1.74v-.34a2.09,2.09,0,0,1,.72-1.65,3.15,3.15,0,0,1,2.13-.63h2.28v-.77a1.88,1.88,0,0,0-.49-1.4,2,2,0,0,0-1.43-.48,3.36,3.36,0,0,0-1.26.24,5.29,5.29,0,0,0-1.12.61l-.5-.8a6.71,6.71,0,0,1,1.27-.7A4.22,4.22,0,0,1,32.55,16a3.09,3.09,0,0,1,2.14.69,2.52,2.52,0,0,1,.77,2v5.81h-1v-1h0a1.82,1.82,0,0,1-.35.41,3.32,3.32,0,0,1-.55.38A3.64,3.64,0,0,1,31.92,24.58Zm2.54-4.11H32.19a2,2,0,0,0-1.4.4,1.37,1.37,0,0,0-.44,1.05v.24a1.47,1.47,0,0,0,.15.69,1.39,1.39,0,0,0,.4.47,1.76,1.76,0,0,0,.55.27,2.2,2.2,0,0,0,.62.08,3,3,0,0,0,.87-.12,2.87,2.87,0,0,0,.75-.36,1.86,1.86,0,0,0,.55-.53,1.39,1.39,0,0,0,.22-.79Z"/><path class="cls-1" d="M40.78,16a3.23,3.23,0,0,1,2.53,1,4,4,0,0,1,.9,2.78v1a4,4,0,0,1-.9,2.79,3.76,3.76,0,0,1-5.06,0,4,4,0,0,1-.9-2.79v-1a4,4,0,0,1,.9-2.79A3.23,3.23,0,0,1,40.78,16Zm0,7.66a2.22,2.22,0,0,0,1.76-.72,3.21,3.21,0,0,0,.64-2.2v-.9a3.21,3.21,0,0,0-.64-2.2,2.51,2.51,0,0,0-3.52,0,3.26,3.26,0,0,0-.64,2.2v.9a3.26,3.26,0,0,0,.64,2.2A2.23,2.23,0,0,0,40.78,23.66Z"/></g></g></g></g></g></g></svg>