<svg xmlns="http://www.w3.org/2000/svg" viewBox="0 0 827.57 109.63"><defs><style>.cls-1{fill:#da691e;}.cls-2{fill:#fff;}.cls-3,.cls-4{fill:none;stroke:#fff;stroke-miterlimit:10;}.cls-3{stroke-width:0.04px;}.cls-4{stroke-width:0.35px;}</style></defs><g id="레이어_2" data-name="레이어 2"><g id="main"><g id="_7page" data-name="7page"><g id="하단바"><rect id="하단바-2" data-name="하단바" class="cls-1" width="827.57" height="109.63"/><g id="하단_로고" data-name="하단 로고"><path class="cls-2" d="M405.78,37.37c.31-1.22.62-2.44.94-3.66h-7.45c0-.12.05-.22.07-.31.57-2.24,1.14-4.46,1.7-6.69a.67.67,0,0,0,0-.19h-1.46c-.59,2.34-1.2,4.68-1.8,7,0,.12-.09.16-.2.15H374s0,0,0,.07l-.17.63h21.5a2.41,2.41,0,0,1,.91.17,1.49,1.49,0,0,1,.82,1.81c-.34,1.39-.7,2.77-1.06,4.16-.08.3-.17.61-.24.92,0,.11-.07.16-.19.15H374.15a3.22,3.22,0,0,1-.69-.06,1.49,1.49,0,0,1-1.15-1.2l-.18.7a3.71,3.71,0,0,0-.08,1.28h23.53c-.11.4-.21.8-.31,1.19-.34,1.28-.66,2.56-1,3.85a2.88,2.88,0,0,1-2.72,2.15H370L369,53.19h24.06a4.68,4.68,0,0,0,4.43-3.51L398.2,47,399,43.8a.11.11,0,0,0,0-.06c.05-.19.1-.38.15-.6l.4-1.54c.25-1,.5-1.94.74-2.92a3.91,3.91,0,0,0,.08-1.31Z"/><path class="cls-2" d="M422.13,37.37q1.38-5.34,2.74-10.67a.24.24,0,0,1,.1-.18h-1.42q-.9,3.47-1.78,6.93c0,.19-.11.26-.33.26h-7c-.17,0-.24,0-.29.21q-1,4.09-2.09,8.19l-1.83,7.18c0,.12-.05.22-.22.22h-7.14L401.93,53l2.22.12h7.35a2,2,0,0,0,1.93-1.57l0-.1c.61-2.36,1.2-4.72,1.81-7.07l.72-2.81c.36-1.41.72-2.83,1.09-4.25h5.06Z"/><path class="cls-2" d="M466.69,44c-.3,1.17-.6,2.33-.91,3.48a2.78,2.78,0,0,1-2.24,2.11,2,2,0,0,1-.49.05H442.81c0-.09,0-.16,0-.23.08-.27.14-.54.21-.81l-6.46-8.31L436,42.52c1.84,2.34,3.65,4.67,5.49,7h-7.3l-.93,3.67h8.85v0h22.45a3.64,3.64,0,0,0,.88-.09A4.62,4.62,0,0,0,469,49.77c.22-.82.43-1.65.64-2.47l1.25-4.9h-3.82C466.93,42.94,466.81,43.45,466.69,44Z"/><path class="cls-2" d="M439.87,37.36h6.06q1.33-5.17,2.65-10.35l-.06,0a3.58,3.58,0,0,0-1.79-.46h-1.21a1.67,1.67,0,0,1,.62.2,1.48,1.48,0,0,1,.73,1.6c-.18.86-.42,1.71-.64,2.57s-.44,1.71-.65,2.57a.26.26,0,0,1-.3.24H430.85c-.24,0-.33.06-.38.28l-3.9,15.28c-.05.22-.13.27-.34.27h-7l-.29,1.13-.06.25-.48,2.29h9.39a2.07,2.07,0,0,0,2.05-1.63c.61-2.42,1.24-4.85,1.86-7.27l.08-.34c.56-2.2,1.13-4.4,1.68-6.6Z"/><path class="cls-2" d="M472.59,27.2a3.51,3.51,0,0,0-2.13-.64h-1.12a1.78,1.78,0,0,1,.72.28,1.54,1.54,0,0,1,.57,1.69c-.42,1.69-.86,3.38-1.29,5.06,0,.1-.07.17-.19.15a.56.56,0,0,0-.13,0H454.58c-.2,0-.27.06-.31.25-.69,2.7-1.37,5.4-2.07,8.1a1.77,1.77,0,0,0-.07.29h3.81c.43-1.65.85-3.31,1.28-5h13.49a1.93,1.93,0,0,0,1.86-1.52l.54-2.14c.26-1,.5-1.94.74-2.91A3.39,3.39,0,0,0,472.59,27.2Z"/><line class="cls-3" x1="400.63" y1="28.19" x2="423.08" y2="28.19"/><line class="cls-3" x1="400.19" y1="30" x2="422.63" y2="30"/><line class="cls-3" x1="399.61" y1="31.81" x2="422.27" y2="31.81"/><line class="cls-3" x1="404.5" y1="49.59" x2="408.91" y2="31.7"/><line class="cls-3" x1="406.44" y1="49.5" x2="410.5" y2="33"/><line class="cls-3" x1="408.33" y1="49.59" x2="412.31" y2="33.42"/><path class="cls-3" d="M412.31,33.42a2.19,2.19,0,0,1,1.93-1.61"/><path class="cls-3" d="M410.4,33.42S411,30,414.09,30"/><line class="cls-3" x1="399.28" y1="33.62" x2="421.73" y2="33.62"/><path class="cls-3" d="M408.9,31.72s.87-3.53,5.61-3.53"/><line class="cls-3" x1="405.76" y1="37.05" x2="407.52" y2="29.92"/><path class="cls-3" d="M407.5,30s1-3.61,7.54-3.61"/><line class="cls-3" x1="401.1" y1="26.41" x2="399.27" y2="33.62"/><line class="cls-3" x1="403.09" y1="26.41" x2="401.26" y2="33.62"/><line class="cls-3" x1="423.55" y1="26.35" x2="421.72" y2="33.56"/><line class="cls-3" x1="421.55" y1="26.41" x2="419.72" y2="33.62"/><line class="cls-3" x1="423.97" y1="30" x2="446.42" y2="30"/><line class="cls-3" x1="423.39" y1="31.81" x2="446.05" y2="31.81"/><line class="cls-3" x1="423.07" y1="33.62" x2="445.51" y2="33.62"/><line class="cls-3" x1="420.97" y1="49.59" x2="425.37" y2="31.7"/><line class="cls-3" x1="422.89" y1="49.54" x2="426.97" y2="33"/><line class="cls-3" x1="424.8" y1="49.59" x2="428.78" y2="33.42"/><path class="cls-3" d="M428.78,33.42a2.17,2.17,0,0,1,1.92-1.61"/><path class="cls-3" d="M426.86,33.42s.57-3.43,3.7-3.43"/><path class="cls-3" d="M425.37,31.71s.86-3.53,5.61-3.53"/><path class="cls-3" d="M424,30s1-3.6,7.55-3.6"/><line class="cls-3" x1="435.24" y1="44.47" x2="439.17" y2="49.5"/><line class="cls-3" x1="434.66" y1="47" x2="436.69" y2="49.59"/><line class="cls-3" x1="445.32" y1="26.41" x2="443.49" y2="33.62"/><line class="cls-3" x1="448.26" y1="28.19" x2="470.71" y2="28.19"/><line class="cls-3" x1="447.82" y1="30" x2="470.26" y2="30"/><line class="cls-3" x1="447.24" y1="31.81" x2="469.9" y2="31.81"/><path class="cls-3" d="M445.08,26.4a1.91,1.91,0,0,1,1.4.44,1.41,1.41,0,0,1,.45,1.35H424.41"/><line class="cls-3" x1="451.34" y1="44.04" x2="463.61" y2="44.04"/><line class="cls-3" x1="450.87" y1="45.86" x2="463.19" y2="45.86"/><line class="cls-3" x1="449.72" y1="47.67" x2="462.73" y2="47.67"/><line class="cls-3" x1="451" y1="31.81" x2="448.43" y2="42.27"/><line class="cls-3" x1="449.26" y1="30.72" x2="446.18" y2="43.29"/><path class="cls-3" d="M451.45,44a1.12,1.12,0,0,1-1-1.57l2.24-9.29"/><path class="cls-3" d="M452.62,33.42s.19-1.61,2.28-1.61"/><path class="cls-3" d="M454,30a3.16,3.16,0,0,0-3.17,2.36"/><path class="cls-3" d="M451,45.86s-3.45,0-2.54-3.73"/><path class="cls-3" d="M449.26,30.72a4.46,4.46,0,0,1,4.15-2.53"/><path class="cls-3" d="M446.33,42.7s-1.3,5,3.87,5"/><line class="cls-3" x1="464.11" y1="42.26" x2="462.14" y2="49.48"/><path class="cls-2" d="M464.49,42.66l.51.14,0-.09.08,0,0,.09h0a.25.25,0,0,1,.19.33.47.47,0,0,1-.08.14l-.07,0a.27.27,0,0,0,.06-.12c0-.11,0-.17-.13-.19h0l-.09.35-.58-.16,0-.11.51.14.06-.24-.5-.14Z"/><path class="cls-2" d="M464.75,43.45l.16,0,0,.1-.1,0h0a.22.22,0,0,1,.06.23.21.21,0,0,1-.3.14l-.35-.09,0-.11.33.09c.1,0,.19,0,.21-.09a.18.18,0,0,0-.07-.18l-.05,0-.35-.09,0-.11Z"/><path class="cls-2" d="M464.13,44.07l.59.16,0,.11-.59-.16Zm.72.32a.06.06,0,0,1-.05-.08.07.07,0,0,1,.08-.05.06.06,0,0,1,.05.08A.06.06,0,0,1,464.85,44.39Z"/><path class="cls-2" d="M464.16,44.41a.29.29,0,0,0-.08.13c0,.08,0,.13.06.14s.08,0,.13-.08.14-.13.21-.11a.19.19,0,0,1,.12.25.37.37,0,0,1-.08.14l-.07-.05a.23.23,0,0,0,.07-.11c0-.07,0-.11,0-.12s-.08,0-.13.08-.13.14-.22.11-.15-.13-.12-.27a.35.35,0,0,1,.09-.16Z"/><path class="cls-2" d="M464.77,45.16l0,.11-.36-.1h0a.31.31,0,0,1,.05.1.24.24,0,0,1,0,.12.21.21,0,0,1-.3.14l-.35-.09,0-.11.33.09c.1,0,.19,0,.21-.09a.16.16,0,0,0-.07-.18l0,0-.36-.09,0-.11Z"/><line class="cls-3" x1="462.28" y1="42.25" x2="460.42" y2="49.5"/><polygon class="cls-2" points="461.93 47.67 461.37 47.84 461.72 48.31 461.17 48.11 461.19 48.71 460.86 48.22 460.53 48.71 460.55 48.11 460.01 48.31 460.35 47.84 459.8 47.67 460.35 47.5 460.01 47.03 460.55 47.23 460.53 46.63 460.86 47.12 461.19 46.63 461.17 47.23 461.72 47.03 461.37 47.5 461.93 47.67"/><polygon class="cls-2" points="414.44 29.92 413.88 30.09 414.23 30.56 413.69 30.36 413.7 30.96 413.38 30.47 413.05 30.96 413.06 30.36 412.52 30.56 412.87 30.09 412.31 29.92 412.87 29.76 412.52 29.28 413.06 29.48 413.05 28.89 413.38 29.38 413.7 28.89 413.69 29.48 414.23 29.28 413.88 29.76 414.44 29.92"/><polygon class="cls-2" points="450.77 29.95 450.22 30.12 450.57 30.59 450.02 30.39 450.04 30.99 449.71 30.5 449.38 30.99 449.4 30.39 448.86 30.59 449.2 30.12 448.65 29.95 449.2 29.78 448.86 29.31 449.4 29.51 449.38 28.92 449.71 29.41 450.04 28.92 450.02 29.51 450.57 29.31 450.22 29.78 450.77 29.95"/><path class="cls-3" d="M447.29,49.48a3.63,3.63,0,0,1-3.37-4.25L448.1,29s1.3-2.48,5.31-2.48"/><line class="cls-3" x1="469.11" y1="26.46" x2="467.28" y2="33.73"/><line class="cls-3" x1="378.69" y1="28.19" x2="399.26" y2="28.19"/><line class="cls-3" x1="379.35" y1="30" x2="398.81" y2="30"/><line class="cls-3" x1="380.73" y1="31.81" x2="398.44" y2="31.81"/><line class="cls-3" x1="371.23" y1="44" x2="395.06" y2="44"/><line class="cls-3" x1="370.76" y1="45.82" x2="394.68" y2="45.82"/><line class="cls-3" x1="370.27" y1="47.63" x2="394.2" y2="47.63"/><line class="cls-3" x1="380.09" y1="36.09" x2="394.41" y2="36.09"/><line class="cls-3" x1="378.26" y1="37.9" x2="392.27" y2="37.9"/><line class="cls-3" x1="376.44" y1="39.72" x2="390.19" y2="39.72"/><line class="cls-3" x1="374.43" y1="38" x2="376.44" y2="30.24"/><line class="cls-3" x1="376.61" y1="36.66" x2="378.04" y2="31.08"/><path class="cls-3" d="M376.4,30.39a2.46,2.46,0,0,1,2.39-2.2"/><path class="cls-3" d="M378,31.14A1.37,1.37,0,0,1,379.35,30"/><line class="cls-3" x1="397.64" y1="26.4" x2="395.74" y2="33.87"/><path class="cls-3" d="M379.44,32.73s0-.92,1.29-.92"/><path class="cls-3" d="M379.47,32.58l-.53,2.59s-.08.92,1.31.92"/><path class="cls-3" d="M376.8,35.88s-.94,2,1.46,2"/><path class="cls-3" d="M374.52,37.67s-.79,2,2.1,2"/><line class="cls-3" x1="389.78" y1="43.26" x2="390.57" y2="40.08"/><line class="cls-3" x1="391.21" y1="44.8" x2="392.8" y2="38.42"/><line class="cls-3" x1="392.56" y1="46.67" x2="395.06" y2="36.66"/><path class="cls-3" d="M394.41,36.09s.8-.05.62.69"/><path class="cls-3" d="M392.27,37.9s.68-.07.53.52"/><path class="cls-3" d="M390.14,39.72s.55-.08.43.36"/><path class="cls-3" d="M390.91,47.63s1.38.13,1.68-1"/><path class="cls-3" d="M389.63,45.82a1.61,1.61,0,0,0,1.63-1.2"/><path class="cls-3" d="M388.66,44a.93.93,0,0,0,1.12-.74"/><line class="cls-3" x1="373.63" y1="42.33" x2="371.73" y2="49.8"/><path class="cls-2" d="M372.61,43.26h0l-.08-.15.09,0,.09.18v.1h-.81v-.11Z"/><path class="cls-2" d="M371.43,44.27h.06l.07.11c.14.25.23.37.34.4a.15.15,0,0,0,.19-.13.3.3,0,0,0,0-.19h.08a.39.39,0,0,1,0,.25.23.23,0,0,1-.29.19c-.14,0-.24-.17-.36-.38l0-.08h0l-.08.37-.09,0Z"/><path class="cls-2" d="M371.1,46.22a.65.65,0,0,0-.09.17c0,.14.05.21.12.22s.18-.07.2-.17v-.06l.08,0v.06c0,.08,0,.19.09.21s.13,0,.16-.11a.47.47,0,0,0,0-.18h.08a.41.41,0,0,1,0,.23c0,.16-.15.21-.24.18s-.14-.08-.16-.19h0a.21.21,0,0,1-.24.14c-.13,0-.22-.16-.17-.36a.42.42,0,0,1,.1-.2Z"/><path class="cls-2" d="M370.44,48.34l.22,0,.08-.38h.07l.43.48,0,.12-.49-.11,0,.11-.09,0,0-.11-.22-.05Zm.3.06.27.07.12,0h0l-.1-.1-.22-.26h0Z"/><path class="cls-4" d="M423.46,26.57l-1.78,6.94c-.05.2-.11.27-.32.27h-7c-.17,0-.24,0-.29.22q-1,4.09-2.09,8.19l-1.83,7.18c0,.12-.05.21-.22.21h-7.31c1.35-5.26,2.69-10.51,4.05-15.79h-7.45c0-.12,0-.21.07-.3q.86-3.36,1.7-6.69a.83.83,0,0,0,.06-.21Z"/><path class="cls-4" d="M467,42.44c-.14.55-.27,1.07-.39,1.58-.3,1.16-.6,2.33-.91,3.48a2.81,2.81,0,0,1-2.24,2.11,2,2,0,0,1-.49,0H442.73l0-.22q2.91-11.3,5.79-22.59c.05-.18.11-.24.3-.24h20a1.86,1.86,0,0,1,1.11.31,1.54,1.54,0,0,1,.57,1.69c-.42,1.68-.86,3.37-1.29,5,0,.11-.06.18-.19.15H454.49c-.2,0-.27.06-.31.25-.69,2.7-1.37,5.4-2.07,8.09a2.21,2.21,0,0,0-.07.3Z"/><path class="cls-4" d="M399.55,26.57q-.9,3.51-1.81,7a.16.16,0,0,1-.2.15H373.8c0-.08,0-.15.05-.21.4-1.61.81-3.2,1.23-4.8a2.83,2.83,0,0,1,2.27-2.16l.11,0Z"/><path class="cls-4" d="M369.7,49.59c.62-2.42,1.23-4.81,1.85-7.2h23.94c-.11.41-.21.8-.31,1.2-.34,1.28-.66,2.56-1,3.85a2.87,2.87,0,0,1-2.72,2.14H369.7Z"/><path class="cls-4" d="M384.63,34.47h10.64a2.41,2.41,0,0,1,.91.17,1.5,1.5,0,0,1,.83,1.8c-.35,1.39-.71,2.78-1.08,4.16-.07.31-.16.62-.23.92,0,.12-.07.17-.19.16H374.06a3.22,3.22,0,0,1-.69-.06,1.51,1.51,0,0,1-1.12-1.9c.41-1.71.86-3.41,1.29-5.11,0-.15.11-.14.21-.14h10.88Z"/><path class="cls-4" d="M419,49.58a1.37,1.37,0,0,1,.05-.25q2.88-11.3,5.77-22.57c0-.15.1-.2.25-.2h20.1a1.75,1.75,0,0,1,.93.22,1.46,1.46,0,0,1,.73,1.6c-.18.85-.42,1.71-.64,2.57s-.44,1.71-.64,2.56c-.05.19-.12.25-.31.25H430.75c-.22,0-.32.05-.37.28-1.29,5.1-2.6,10.18-3.91,15.28,0,.21-.12.26-.33.26H419Z"/><path class="cls-4" d="M441.42,49.61H434c.61-2.39,1.21-4.77,1.84-7.2C437.69,44.82,439.54,47.2,441.42,49.61Z"/><path class="cls-2" d="M275.86,42.55l1.53-.14a3.54,3.54,0,0,0,.5,1.55,2.77,2.77,0,0,0,1.24,1,4.49,4.49,0,0,0,1.87.37,4.37,4.37,0,0,0,1.64-.28,2.27,2.27,0,0,0,1.05-.78,1.8,1.8,0,0,0,.35-1.07,1.7,1.7,0,0,0-.33-1,2.53,2.53,0,0,0-1.11-.74,21.8,21.8,0,0,0-2.17-.61,10.63,10.63,0,0,1-2.36-.79,3.27,3.27,0,0,1-1.31-1.17,2.88,2.88,0,0,1-.43-1.56,3.29,3.29,0,0,1,2.06-3,5.61,5.61,0,0,1,2.25-.43,6,6,0,0,1,2.39.45,3.4,3.4,0,0,1,1.6,1.33,3.81,3.81,0,0,1,.6,2l-1.55.12a2.53,2.53,0,0,0-.85-1.8,3.2,3.2,0,0,0-2.13-.61,3.35,3.35,0,0,0-2.14.55,1.66,1.66,0,0,0-.67,1.33,1.44,1.44,0,0,0,.48,1.12,6.37,6.37,0,0,0,2.44.9,15.24,15.24,0,0,1,2.7.8,3.69,3.69,0,0,1,1.58,1.28A3.2,3.2,0,0,1,285.6,43a3.5,3.5,0,0,1-.56,1.89,3.74,3.74,0,0,1-1.6,1.38,5.48,5.48,0,0,1-2.36.5,6.93,6.93,0,0,1-2.79-.5,4,4,0,0,1-1.76-1.5A4.44,4.44,0,0,1,275.86,42.55Z"/><path class="cls-2" d="M293.69,43.66l1.55.19A4,4,0,0,1,293.88,46a4.06,4.06,0,0,1-2.54.77,4,4,0,0,1-3.08-1.23,4.89,4.89,0,0,1-1.14-3.46,5.13,5.13,0,0,1,1.15-3.57,3.87,3.87,0,0,1,3-1.27,3.74,3.74,0,0,1,2.9,1.25,5,5,0,0,1,1.13,3.5c0,.09,0,.23,0,.41h-6.61a3.56,3.56,0,0,0,.83,2.3,2.42,2.42,0,0,0,1.85.8,2.24,2.24,0,0,0,1.41-.45A3,3,0,0,0,293.69,43.66Zm-4.94-2.5h4.95a3.07,3.07,0,0,0-.57-1.72,2.25,2.25,0,0,0-1.86-.9,2.34,2.34,0,0,0-1.74.72A2.85,2.85,0,0,0,288.75,41.16Z"/><path class="cls-2" d="M296.56,42a4.77,4.77,0,0,1,1.37-3.75,4,4,0,0,1,2.79-1,3.94,3.94,0,0,1,3,1.24,4.77,4.77,0,0,1,1.16,3.4,6.16,6.16,0,0,1-.52,2.76,3.65,3.65,0,0,1-1.49,1.57,4.27,4.27,0,0,1-2.14.56,3.93,3.93,0,0,1-3-1.23A5,5,0,0,1,296.56,42Zm1.55,0a3.94,3.94,0,0,0,.74,2.62,2.43,2.43,0,0,0,3.73,0,4.07,4.07,0,0,0,.74-2.67,3.89,3.89,0,0,0-.74-2.56,2.43,2.43,0,0,0-3.73,0A3.92,3.92,0,0,0,298.11,42Z"/><path class="cls-2" d="M312.43,46.59V45.25a3.22,3.22,0,0,1-2.81,1.55,3.57,3.57,0,0,1-1.46-.31,2.43,2.43,0,0,1-1-.78,3,3,0,0,1-.47-1.14,8.31,8.31,0,0,1-.09-1.44V37.48h1.5v5.05a9.09,9.09,0,0,0,.1,1.63,1.57,1.57,0,0,0,.6,1,1.81,1.81,0,0,0,1.13.35,2.42,2.42,0,0,0,1.27-.36,1.94,1.94,0,0,0,.84-1,5.1,5.1,0,0,0,.24-1.78V37.48h1.51v9.11Z"/><path class="cls-2" d="M316.1,46.59V34h1.5V46.59Z"/><path class="cls-2" d="M327.67,46.59V35.5h-4V34h9.69V35.5h-4V46.59Z"/><path class="cls-2" d="M339,43.66l1.56.19A4,4,0,0,1,339.17,46a4.06,4.06,0,0,1-2.54.77,4,4,0,0,1-3.08-1.23,4.89,4.89,0,0,1-1.14-3.46,5.13,5.13,0,0,1,1.15-3.57,3.87,3.87,0,0,1,3-1.27,3.74,3.74,0,0,1,2.9,1.25,5,5,0,0,1,1.13,3.5c0,.09,0,.23,0,.41H334a3.56,3.56,0,0,0,.83,2.3,2.42,2.42,0,0,0,1.85.8,2.24,2.24,0,0,0,1.41-.45A2.91,2.91,0,0,0,339,43.66ZM334,41.16H339a3.07,3.07,0,0,0-.57-1.72,2.25,2.25,0,0,0-1.86-.9,2.34,2.34,0,0,0-1.74.72A2.85,2.85,0,0,0,334,41.16Z"/><path class="cls-2" d="M348.19,43.26l1.48.19a3.93,3.93,0,0,1-1.24,2.46,3.55,3.55,0,0,1-2.45.89,3.77,3.77,0,0,1-2.92-1.22A5.06,5.06,0,0,1,342,42.07a6.45,6.45,0,0,1,.48-2.58,3.38,3.38,0,0,1,1.45-1.66,4.16,4.16,0,0,1,2.11-.56,3.56,3.56,0,0,1,2.36.76,3.46,3.46,0,0,1,1.18,2.13l-1.46.23a2.55,2.55,0,0,0-.74-1.38,1.87,1.87,0,0,0-1.28-.47,2.28,2.28,0,0,0-1.84.84A4,4,0,0,0,343.5,42a4.19,4.19,0,0,0,.68,2.67,2.22,2.22,0,0,0,1.79.83,2.06,2.06,0,0,0,1.47-.56A2.73,2.73,0,0,0,348.19,43.26Z"/><path class="cls-2" d="M351,46.59V34h1.5v4.51a3.3,3.3,0,0,1,2.65-1.26,3.54,3.54,0,0,1,1.71.4,2.32,2.32,0,0,1,1,1.11,5.19,5.19,0,0,1,.31,2v5.77h-1.5V40.82a2.42,2.42,0,0,0-.49-1.69,1.78,1.78,0,0,0-1.38-.53,2.35,2.35,0,0,0-1.25.36,2,2,0,0,0-.84,1,4.44,4.44,0,0,0-.25,1.68v5Z"/><path class="cls-2" d="M483.05,47.9V35.33h5.42a7,7,0,0,1,2.49.34,2.7,2.7,0,0,1,1.36,1.19,3.68,3.68,0,0,1,.51,1.9A3.25,3.25,0,0,1,492,41a4.21,4.21,0,0,1-2.61,1.16,4,4,0,0,1,1,.63,8.37,8.37,0,0,1,1.34,1.67l2.13,3.42h-2l-1.62-2.61c-.47-.76-.86-1.33-1.16-1.73a3.53,3.53,0,0,0-.83-.85,2.26,2.26,0,0,0-.73-.33,4.87,4.87,0,0,0-.91-.06h-1.87V47.9Zm1.62-7h3.48a4.94,4.94,0,0,0,1.73-.24,1.85,1.85,0,0,0,.95-.75,2.07,2.07,0,0,0,.33-1.13,1.91,1.91,0,0,0-.63-1.47,2.9,2.9,0,0,0-2-.57h-3.87Z"/><path class="cls-2" d="M501,47.9V46.57a3.22,3.22,0,0,1-2.81,1.54,3.49,3.49,0,0,1-1.47-.31,2.4,2.4,0,0,1-1-.77,3.05,3.05,0,0,1-.46-1.15,8.16,8.16,0,0,1-.09-1.44V38.79h1.5v5.06a9.48,9.48,0,0,0,.09,1.63,1.67,1.67,0,0,0,.6,1,1.8,1.8,0,0,0,1.14.35,2.51,2.51,0,0,0,1.27-.35,2,2,0,0,0,.83-1,4.88,4.88,0,0,0,.25-1.78V38.79h1.5V47.9Z"/><path class="cls-2" d="M504.68,47.9V38.79H506v1.3a3.16,3.16,0,0,1,2.82-1.5,3.74,3.74,0,0,1,1.47.29,2.4,2.4,0,0,1,1,.78,3.07,3.07,0,0,1,.46,1.14,8.49,8.49,0,0,1,.09,1.5v5.6h-1.51V42.36A4.19,4.19,0,0,0,510.2,41a1.51,1.51,0,0,0-.62-.75,2,2,0,0,0-1.05-.27,2.44,2.44,0,0,0-1.66.62,3.17,3.17,0,0,0-.69,2.38v5Z"/><path class="cls-2" d="M514.18,47.9V38.79h1.35v1.3a3.16,3.16,0,0,1,2.82-1.5,3.67,3.67,0,0,1,1.47.29,2.34,2.34,0,0,1,1,.78,3.08,3.08,0,0,1,.47,1.14,10,10,0,0,1,.08,1.5v5.6h-1.5V42.36A4.15,4.15,0,0,0,519.7,41a1.46,1.46,0,0,0-.62-.75,2,2,0,0,0-1.05-.27,2.4,2.4,0,0,0-1.65.62,3.13,3.13,0,0,0-.7,2.38v5Z"/><path class="cls-2" d="M523.69,37.1V35.33h1.5V37.1Zm0,10.8V38.79h1.5V47.9Z"/><path class="cls-2" d="M527.48,47.9V38.79h1.35v1.3a3.16,3.16,0,0,1,2.82-1.5,3.67,3.67,0,0,1,1.47.29,2.34,2.34,0,0,1,1,.78,3.08,3.08,0,0,1,.47,1.14,10,10,0,0,1,.08,1.5v5.6h-1.5V42.36A4.15,4.15,0,0,0,533,41a1.46,1.46,0,0,0-.62-.75,2,2,0,0,0-1-.27,2.4,2.4,0,0,0-1.65.62,3.13,3.13,0,0,0-.7,2.38v5Z"/><path class="cls-2" d="M536.71,48.66l1.46.22a1.41,1.41,0,0,0,.51,1,2.41,2.41,0,0,0,1.52.43,2.57,2.57,0,0,0,1.61-.43,2.05,2.05,0,0,0,.77-1.2,10.31,10.31,0,0,0,.11-2,3,3,0,0,1-2.45,1.19,3.32,3.32,0,0,1-2.83-1.35,5.3,5.3,0,0,1-1-3.25,6.16,6.16,0,0,1,.46-2.41,3.74,3.74,0,0,1,1.33-1.7,3.5,3.5,0,0,1,2-.6,3.14,3.14,0,0,1,2.59,1.3v-1.1h1.39v7.88a7.51,7.51,0,0,1-.43,3,3.15,3.15,0,0,1-1.33,1.4,4.56,4.56,0,0,1-2.25.51,4.14,4.14,0,0,1-2.56-.73A2.5,2.5,0,0,1,536.71,48.66ZM538,43.19a4,4,0,0,0,.69,2.61,2.24,2.24,0,0,0,3.47,0,3.91,3.91,0,0,0,.7-2.57,3.79,3.79,0,0,0-.72-2.52,2.19,2.19,0,0,0-1.74-.85,2.14,2.14,0,0,0-1.7.83A3.79,3.79,0,0,0,538,43.19Z"/><path class="cls-2" d="M560.15,43.49l1.62.43A5.65,5.65,0,0,1,559.94,47a4.94,4.94,0,0,1-3.23,1.08,5.72,5.72,0,0,1-3.22-.83,5.16,5.16,0,0,1-1.89-2.4,8.75,8.75,0,0,1-.64-3.37,7.57,7.57,0,0,1,.73-3.43,5.08,5.08,0,0,1,2.08-2.22,6,6,0,0,1,3-.76,4.93,4.93,0,0,1,3.09,1,5.05,5.05,0,0,1,1.74,2.71l-1.59.38a3.91,3.91,0,0,0-1.24-2,3.25,3.25,0,0,0-2-.62,3.9,3.9,0,0,0-2.36.69A3.69,3.69,0,0,0,553,39.1a7.55,7.55,0,0,0-.38,2.41,7.91,7.91,0,0,0,.45,2.8,3.43,3.43,0,0,0,1.42,1.79,3.82,3.82,0,0,0,2.07.59,3.42,3.42,0,0,0,2.31-.8A4.21,4.21,0,0,0,560.15,43.49Z"/><path class="cls-2" d="M563.56,47.9V38.79h1.35v1.38a3.67,3.67,0,0,1,1-1.27,1.65,1.65,0,0,1,1-.31,2.81,2.81,0,0,1,1.54.5l-.52,1.43a2,2,0,0,0-1.1-.34,1.35,1.35,0,0,0-.88.31,1.63,1.63,0,0,0-.56.84,6.07,6.07,0,0,0-.25,1.8V47.9Z"/><path class="cls-2" d="M575.33,45l1.55.2a3.91,3.91,0,0,1-1.36,2.17,4.52,4.52,0,0,1-5.62-.46,4.88,4.88,0,0,1-1.14-3.45,5.1,5.1,0,0,1,1.16-3.57,3.81,3.81,0,0,1,3-1.27,3.75,3.75,0,0,1,2.91,1.24,5,5,0,0,1,1.12,3.5c0,.09,0,.23,0,.41h-6.6a3.55,3.55,0,0,0,.82,2.3,2.44,2.44,0,0,0,1.85.8,2.24,2.24,0,0,0,1.41-.45A2.94,2.94,0,0,0,575.33,45Zm-4.93-2.5h5a3.17,3.17,0,0,0-.57-1.72,2.26,2.26,0,0,0-1.86-.89,2.33,2.33,0,0,0-1.74.71A2.85,2.85,0,0,0,570.4,42.47Z"/><path class="cls-2" d="M580.4,47.9l-2.71-9.11h1.55l1.41,5.26.53,2c0-.1.17-.72.46-1.88l1.41-5.34h1.54l1.33,5.29.44,1.74.51-1.76,1.52-5.27h1.46l-2.77,9.11h-1.56l-1.41-5.45-.34-1.56-1.8,7Z"/></g><path class="cls-2" d="M22.21,42.25V32.82h5.44v.81H23.1v3.61h4.29v.81H23.1v4.2Z"/><path class="cls-2" d="M32.84,36.11A2.27,2.27,0,0,0,32,36a1.77,1.77,0,0,0-.77.17,1.65,1.65,0,0,0-.58.47,2,2,0,0,0-.37.72,3,3,0,0,0-.13.92v4h-.86v-7h.85v1.24a3.76,3.76,0,0,1,.29-.5,1.93,1.93,0,0,1,.42-.44,2.11,2.11,0,0,1,.55-.31,2,2,0,0,1,.71-.12,4.22,4.22,0,0,1,.53,0,2.28,2.28,0,0,1,.45.11Z"/><path class="cls-2" d="M36.82,35.07a2.75,2.75,0,0,1,2.15.84,3.35,3.35,0,0,1,.77,2.36v.88A3.4,3.4,0,0,1,39,41.52a3.2,3.2,0,0,1-4.3,0,3.44,3.44,0,0,1-.76-2.37v-.88a3.41,3.41,0,0,1,.76-2.37A2.79,2.79,0,0,1,36.82,35.07Zm0,6.5a1.92,1.92,0,0,0,1.5-.61,2.75,2.75,0,0,0,.54-1.86v-.78a2.75,2.75,0,0,0-.54-1.86,2.14,2.14,0,0,0-3,0,2.75,2.75,0,0,0-.54,1.86v.78A2.75,2.75,0,0,0,35.33,41,1.91,1.91,0,0,0,36.82,41.57Z"/><path class="cls-2" d="M44.4,35.07a2.25,2.25,0,0,1,2.47,2.43v4.75H46V37.72a3.23,3.23,0,0,0-.07-.71,1.4,1.4,0,0,0-.28-.59,1.29,1.29,0,0,0-.53-.4,2.29,2.29,0,0,0-.85-.14,1.89,1.89,0,0,0-.79.16,2,2,0,0,0-.62.43,2,2,0,0,0-.4.57,1.6,1.6,0,0,0-.14.63v4.58h-.87v-7h.85v1a2.55,2.55,0,0,1,.31-.4,2.45,2.45,0,0,1,.46-.36,2.62,2.62,0,0,1,.59-.25A2.5,2.5,0,0,1,44.4,35.07Z"/><path class="cls-2" d="M49.39,36H48.22V35.2h1.17V33.38h.86V35.2h1.9V36h-1.9v4.29a1.74,1.74,0,0,0,.22,1,.87.87,0,0,0,.75.29,3.32,3.32,0,0,0,1-.13l.13.73a1.94,1.94,0,0,1-.54.13,4.59,4.59,0,0,1-.62,0,2.68,2.68,0,0,1-.78-.1,1.2,1.2,0,0,1-.55-.34,1.46,1.46,0,0,1-.32-.62,3.33,3.33,0,0,1-.11-1Z"/><path class="cls-2" d="M87.89,37.28a3.93,3.93,0,0,1-.75,2.56,2.9,2.9,0,0,1-4.24,0,3.93,3.93,0,0,1-.75-2.56V36a3.93,3.93,0,0,1,.75-2.56,2.91,2.91,0,0,1,4.24,0,3.93,3.93,0,0,1,.75,2.56ZM87,36.21a4.66,4.66,0,0,0-.15-1.27,2.38,2.38,0,0,0-.41-.86,1.59,1.59,0,0,0-.63-.49,2.13,2.13,0,0,0-1.62,0,1.59,1.59,0,0,0-.63.49,2.38,2.38,0,0,0-.41.86A4.66,4.66,0,0,0,83,36.21v.91a4.78,4.78,0,0,0,.15,1.28,2.38,2.38,0,0,0,.41.86,1.5,1.5,0,0,0,.63.49,2.13,2.13,0,0,0,1.62,0,1.5,1.5,0,0,0,.63-.49,2.38,2.38,0,0,0,.41-.86A4.78,4.78,0,0,0,87,37.12Zm4.08,7.48h-.9v-12h.9Z"/><path class="cls-2" d="M95.82,35.67a1.08,1.08,0,0,1-.3.46c-.18.2-.42.44-.7.72l-.84.78c-.34.3-.69.59-1,.88l-.56-.67c.35-.26.71-.55,1.07-.87s.7-.62,1-.92a6.43,6.43,0,0,0,.48-.55,2.41,2.41,0,0,0,.26-.46,1.41,1.41,0,0,0,.12-.5,5.85,5.85,0,0,0,0-.64V32.27h.92v1.61a5.73,5.73,0,0,0,0,.62,1.88,1.88,0,0,0,.12.48,2.21,2.21,0,0,0,.28.45,4.65,4.65,0,0,0,.5.51c.32.28.64.56,1,.82s.62.51.9.72l-.53.64-.93-.74-.74-.64a3.75,3.75,0,0,1-1-1.07ZM98.13,39a5.24,5.24,0,0,1,1.34.16,3.78,3.78,0,0,1,1.1.44,2.33,2.33,0,0,1,.75.71,1.68,1.68,0,0,1,.27.93v.49a1.68,1.68,0,0,1-.27.93,2.33,2.33,0,0,1-.75.71,3.78,3.78,0,0,1-1.1.44,5.24,5.24,0,0,1-1.34.16,5.29,5.29,0,0,1-1.34-.16,3.78,3.78,0,0,1-1.1-.44,2.43,2.43,0,0,1-.75-.71,1.68,1.68,0,0,1-.27-.93v-.49a1.67,1.67,0,0,1,.27-.94,2.43,2.43,0,0,1,.75-.71,3.78,3.78,0,0,1,1.1-.44A5.79,5.79,0,0,1,98.13,39Zm0,4.19a4.46,4.46,0,0,0,1-.11,3.67,3.67,0,0,0,.83-.29,1.89,1.89,0,0,0,.57-.47,1,1,0,0,0,.21-.62v-.42a1,1,0,0,0-.21-.63,2,2,0,0,0-.57-.47,3.67,3.67,0,0,0-.83-.29,4.85,4.85,0,0,0-2,0,3.67,3.67,0,0,0-.83.29,2,2,0,0,0-.57.47,1,1,0,0,0-.21.63v.42a1,1,0,0,0,.21.62,1.89,1.89,0,0,0,.57.47,3.67,3.67,0,0,0,.83.29A4.46,4.46,0,0,0,98.13,43.22Zm3.4-8.46h1.78v.81h-1.78v3.2h-.89v-7h.89Z"/><path class="cls-2" d="M114.06,37.74v.78H109.3v2.56h-.89V38.52h-5v-.78Zm-5.35-2.84a1.23,1.23,0,0,1-.51.46,10.47,10.47,0,0,1-1,.49l-1.13.46-1.44.52-.36-.72c1.16-.39,2-.72,2.66-1a5.43,5.43,0,0,0,.65-.34,2,2,0,0,0,.41-.33,1.11,1.11,0,0,0,.21-.38,1.66,1.66,0,0,0,.07-.47v-.52h-3.49v-.79h7.89v.79h-3.5v.52a1.68,1.68,0,0,0,.06.47.85.85,0,0,0,.21.38,1.72,1.72,0,0,0,.4.33,5.43,5.43,0,0,0,.65.34c.31.14.7.29,1.16.47s1,.35,1.5.52l-.33.72q-.79-.26-1.44-.51c-.43-.16-.81-.32-1.14-.47a7.37,7.37,0,0,1-1-.49,1.3,1.3,0,0,1-.51-.45Zm-2.85,7.83h6.87v.81H105V39.92h.9Z"/><path class="cls-2" d="M22.21,50.82h2.93c1.94,0,2.91.77,2.91,2.3v.28A2.41,2.41,0,0,1,28,54a1.61,1.61,0,0,1-.25.55,1.55,1.55,0,0,1-.45.43,2.24,2.24,0,0,1-.7.3,2.42,2.42,0,0,1,1.37.65,2,2,0,0,1,.53,1.51v.32a2.36,2.36,0,0,1-.72,1.83,3.2,3.2,0,0,1-2.22.66H22.21Zm.88.8v3.32h2.07a2.68,2.68,0,0,0,1.48-.34,1.38,1.38,0,0,0,.52-1.23v-.24a1.32,1.32,0,0,0-.5-1.17,2.89,2.89,0,0,0-1.59-.34Zm0,7.82h2.36a2.45,2.45,0,0,0,1.6-.43,1.54,1.54,0,0,0,.51-1.26v-.29a2.25,2.25,0,0,0-.11-.76,1.32,1.32,0,0,0-.39-.55,2.21,2.21,0,0,0-.74-.33,5.27,5.27,0,0,0-1.15-.11H23.09Z"/><path class="cls-2" d="M31.85,60.35a2.37,2.37,0,0,1-1.59-.53,1.86,1.86,0,0,1-.61-1.48v-.29a1.78,1.78,0,0,1,.61-1.4,2.66,2.66,0,0,1,1.81-.53H34v-.66a1.61,1.61,0,0,0-.41-1.18,1.64,1.64,0,0,0-1.22-.41,2.79,2.79,0,0,0-1.07.2,4.39,4.39,0,0,0-.95.52l-.42-.68A5.25,5.25,0,0,1,31,53.32a3.5,3.5,0,0,1,1.38-.25,2.64,2.64,0,0,1,1.82.59,2.12,2.12,0,0,1,.65,1.66v4.93H34v-.87h0a1.56,1.56,0,0,1-.3.35,2.21,2.21,0,0,1-.46.32A3,3,0,0,1,31.85,60.35ZM34,56.86H32.08a1.74,1.74,0,0,0-1.2.34,1.17,1.17,0,0,0-.36.89v.21a1.28,1.28,0,0,0,.12.58,1.21,1.21,0,0,0,.34.4,1.58,1.58,0,0,0,.47.23,1.88,1.88,0,0,0,.53.07,2.5,2.5,0,0,0,.74-.1,2.6,2.6,0,0,0,.63-.3,1.87,1.87,0,0,0,.47-.46,1.15,1.15,0,0,0,.18-.67Z"/><path class="cls-2" d="M39.29,53.07a4.05,4.05,0,0,1,1.27.18,3,3,0,0,1,1,.51l-.39.69a3.33,3.33,0,0,0-.93-.46,3.59,3.59,0,0,0-.93-.12,1.77,1.77,0,0,0-1.44.62,2.59,2.59,0,0,0-.52,1.73v.9a2.64,2.64,0,0,0,.54,1.79,1.77,1.77,0,0,0,1.44.63,3.05,3.05,0,0,0,1.18-.2,4,4,0,0,0,.83-.49l.41.7a4.43,4.43,0,0,1-.42.29,2.8,2.8,0,0,1-.52.26,4.44,4.44,0,0,1-.66.18,4.21,4.21,0,0,1-.83.07,2.67,2.67,0,0,1-2.1-.84,3.48,3.48,0,0,1-.75-2.39v-.87a4.11,4.11,0,0,1,.21-1.37,2.82,2.82,0,0,1,.58-1,2.4,2.4,0,0,1,.89-.61A3.11,3.11,0,0,1,39.29,53.07Z"/><path class="cls-2" d="M45.64,55.91l3,4.34h-1L45,56.49l-1.1,1.1v2.66h-.87V50.36h.87v6.17l3.31-3.33h1.15Z"/><path class="cls-2" d="M54.82,59.55a4.06,4.06,0,0,1-1,.55,3.83,3.83,0,0,1-1.47.25,2.74,2.74,0,0,1-2.14-.84,3.43,3.43,0,0,1-.76-2.39v-.87a3.35,3.35,0,0,1,.74-2.34,2.6,2.6,0,0,1,2-.84,2.47,2.47,0,0,1,2,.86A3.57,3.57,0,0,1,55,56.27V57H50.29v.12a2.65,2.65,0,0,0,.55,1.81,1.85,1.85,0,0,0,1.5.64,3.23,3.23,0,0,0,1.21-.21,4,4,0,0,0,.89-.49Zm-.71-3.29v-.12a2.57,2.57,0,0,0-.5-1.7,1.74,1.74,0,0,0-1.4-.59,1.72,1.72,0,0,0-1.42.63,2.57,2.57,0,0,0-.5,1.66v.12Z"/><path class="cls-2" d="M59.62,53.07a2.25,2.25,0,0,1,2.47,2.43v4.75h-.86V55.72a3.22,3.22,0,0,0-.08-.71,1.52,1.52,0,0,0-.27-.59,1.32,1.32,0,0,0-.54-.4,2.23,2.23,0,0,0-.84-.14,1.89,1.89,0,0,0-1.41.59,1.84,1.84,0,0,0-.4.57,1.45,1.45,0,0,0-.15.63v4.58h-.87v-7h.86v1a2,2,0,0,1,.3-.4,2.45,2.45,0,0,1,.46-.36,2.7,2.7,0,0,1,.6-.25A2.39,2.39,0,0,1,59.62,53.07Z"/><path class="cls-2" d="M68.55,59.32h0a1.7,1.7,0,0,1-.87.78,2.83,2.83,0,0,1-1.17.25,3,3,0,0,1-1.09-.2,2.45,2.45,0,0,1-.86-.59,2.67,2.67,0,0,1-.58-1,3.86,3.86,0,0,1-.2-1.28V56.09a3.86,3.86,0,0,1,.2-1.28,2.8,2.8,0,0,1,.57-1,2.45,2.45,0,0,1,.86-.59,3,3,0,0,1,1.09-.2,2.46,2.46,0,0,1,1.27.3,2.42,2.42,0,0,1,.78.69v-3.7h.86v9.89h-.85ZM64.63,57.2A2.61,2.61,0,0,0,65.16,59a1.72,1.72,0,0,0,1.38.62,2.77,2.77,0,0,0,.78-.11,1.73,1.73,0,0,0,.63-.34,1.79,1.79,0,0,0,.43-.58,1.88,1.88,0,0,0,.16-.82V55.61a1.45,1.45,0,0,0-.15-.63,2,2,0,0,0-.41-.56,2,2,0,0,0-.64-.41,2.08,2.08,0,0,0-.8-.16,1.7,1.7,0,0,0-1.39.63,2.66,2.66,0,0,0-.52,1.74Z"/><path class="cls-2" d="M86.62,59.2V56.46h.92V59.2h4.88V60H81.74v-.8Zm-3.55-8.39h8v.79H87.54v.46a5.17,5.17,0,0,0,0,.85,1.61,1.61,0,0,0,.22.59,1.84,1.84,0,0,0,.44.5c.19.15.44.34.75.55s.68.43,1.14.7,1,.55,1.5.83l-.46.69c-.44-.24-.91-.5-1.39-.78s-.91-.55-1.29-.8-.77-.54-1-.72a1.77,1.77,0,0,1-.42-.46h0a1.47,1.47,0,0,1-.42.47q-.33.27-1,.72l-1.3.81c-.48.29-1,.55-1.41.8l-.47-.72c.53-.28,1-.56,1.51-.83s.86-.51,1.16-.71.55-.4.74-.55a2.08,2.08,0,0,0,.45-.5,1.8,1.8,0,0,0,.21-.59,5,5,0,0,0,.06-.85V51.6H83.07Z"/><path class="cls-2" d="M96.07,56.3a3,3,0,0,1-1.18-.23,2.77,2.77,0,0,1-.91-.6,3,3,0,0,1-.57-.84,2.36,2.36,0,0,1-.2-1v-.78a2.33,2.33,0,0,1,.2-1,3,3,0,0,1,.57-.84,2.77,2.77,0,0,1,.91-.6,2.83,2.83,0,0,1,1.18-.23,2.86,2.86,0,0,1,1.18.23,2.63,2.63,0,0,1,.9.6,2.81,2.81,0,0,1,.58.84,2.5,2.5,0,0,1,.2,1v.78a2.54,2.54,0,0,1-.2,1,2.81,2.81,0,0,1-.58.84,2.63,2.63,0,0,1-.9.6A3,3,0,0,1,96.07,56.3Zm0-5.22a2,2,0,0,0-.82.16,1.93,1.93,0,0,0-.63.42,1.75,1.75,0,0,0-.4.6,1.69,1.69,0,0,0-.15.7v.63a1.74,1.74,0,0,0,.15.71,1.86,1.86,0,0,0,.4.6,2.31,2.31,0,0,0,.63.42,2.18,2.18,0,0,0,.82.16,2.13,2.13,0,0,0,.81-.16,2,2,0,0,0,.63-.42,1.89,1.89,0,0,0,.41-.6,1.73,1.73,0,0,0,.14-.71V53a1.68,1.68,0,0,0-.14-.7,1.78,1.78,0,0,0-.41-.6,1.74,1.74,0,0,0-.63-.42A2,2,0,0,0,96.07,51.08Zm0,9.65h6.5v.81h-7.4V57.63h.9Zm6.2-2.44h-.89V49.73h.89Z"/><path class="cls-2" d="M107.46,51.08h3v.8h-6.74v-.8h2.86V49.55h.89ZM107,57a3.44,3.44,0,0,1-1.1-.16,2.72,2.72,0,0,1-.83-.44,1.86,1.86,0,0,1-.53-.63,1.72,1.72,0,0,1-.19-.77v-.47a1.68,1.68,0,0,1,.19-.76,2,2,0,0,1,.53-.64,2.72,2.72,0,0,1,.83-.44,3.86,3.86,0,0,1,2.2,0,2.72,2.72,0,0,1,.83.44,2,2,0,0,1,.53.64,1.68,1.68,0,0,1,.19.76V55a1.72,1.72,0,0,1-.19.77,1.86,1.86,0,0,1-.53.63,2.72,2.72,0,0,1-.83.44A3.44,3.44,0,0,1,107,57Zm0-3.7a2.39,2.39,0,0,0-.73.1,2.15,2.15,0,0,0-.57.27,1.42,1.42,0,0,0-.37.41,1,1,0,0,0-.12.49v.39a1,1,0,0,0,.12.49,1.3,1.3,0,0,0,.37.41,1.67,1.67,0,0,0,.57.27,2.68,2.68,0,0,0,1.45,0,1.64,1.64,0,0,0,.58-.27,1.3,1.3,0,0,0,.37-.41,1,1,0,0,0,.12-.49v-.39a1,1,0,0,0-.12-.49,1.42,1.42,0,0,0-.37-.41,2.08,2.08,0,0,0-.58-.27A2.37,2.37,0,0,0,107,53.25Zm-1.25,4.62h7.48v3.92h-.89V58.68h-6.59Zm6.6-5.15v-3h.88v7.43h-.88V55.81h-2V55h2V53.51h-2v-.79Z"/><path class="cls-2" d="M25.07,68.82a3.6,3.6,0,0,1,2.73,1,4.17,4.17,0,0,1,1,3v1.35a4.17,4.17,0,0,1-1,3,3.6,3.6,0,0,1-2.73,1H22.21V68.82Zm-2,8.62h2a3.24,3.24,0,0,0,1.13-.2,2.26,2.26,0,0,0,.89-.61,3,3,0,0,0,.58-1,4.57,4.57,0,0,0,.21-1.47V72.93a4.55,4.55,0,0,0-.21-1.46,2.92,2.92,0,0,0-.58-1,2.26,2.26,0,0,0-.89-.61,3.24,3.24,0,0,0-1.13-.2h-2Z"/><path class="cls-2" d="M35.74,77.55a4.06,4.06,0,0,1-1,.55,3.76,3.76,0,0,1-1.47.25,2.74,2.74,0,0,1-2.14-.84,3.43,3.43,0,0,1-.76-2.39v-.87a3.4,3.4,0,0,1,.74-2.34,2.6,2.6,0,0,1,2-.84,2.49,2.49,0,0,1,2.06.86,3.57,3.57,0,0,1,.7,2.34V75H31.21v.12a2.7,2.7,0,0,0,.55,1.81,1.87,1.87,0,0,0,1.5.64,3.23,3.23,0,0,0,1.21-.21,3.75,3.75,0,0,0,.89-.49ZM35,74.26v-.12a2.57,2.57,0,0,0-.5-1.7,1.73,1.73,0,0,0-1.4-.59,1.69,1.69,0,0,0-1.41.63,2.51,2.51,0,0,0-.51,1.66v.12Z"/><path class="cls-2" d="M39.77,77.55A2,2,0,0,0,41,77.21a1,1,0,0,0,.44-.79v-.13a.89.89,0,0,0-.43-.81A4.33,4.33,0,0,0,39.63,75a7.14,7.14,0,0,1-.94-.24,2.5,2.5,0,0,1-.71-.37,1.55,1.55,0,0,1-.46-.53,1.53,1.53,0,0,1-.16-.74v-.18a1.79,1.79,0,0,1,.15-.72,1.56,1.56,0,0,1,.46-.6,2.24,2.24,0,0,1,.77-.4,3.57,3.57,0,0,1,1.1-.15,4.24,4.24,0,0,1,1.36.2,3.59,3.59,0,0,1,1,.53l-.4.67a3.48,3.48,0,0,0-.87-.46,3.52,3.52,0,0,0-1.11-.16,1.89,1.89,0,0,0-1.18.32,1,1,0,0,0-.41.78v.15a.79.79,0,0,0,.45.71,3.92,3.92,0,0,0,1.27.42,4.29,4.29,0,0,1,1.84.71,1.6,1.6,0,0,1,.56,1.31v.19a1.54,1.54,0,0,1-.19.77,1.82,1.82,0,0,1-.53.61,2.67,2.67,0,0,1-.79.4,3.58,3.58,0,0,1-1,.13,4.32,4.32,0,0,1-1.49-.23,4.09,4.09,0,0,1-1.14-.59l.42-.71a4.23,4.23,0,0,0,1,.53A3.16,3.16,0,0,0,39.77,77.55Z"/><path class="cls-2" d="M43.89,68.86h.94v1h-.94Zm0,2.34h.87v7h-.87Z"/><path class="cls-2" d="M51.32,77.19h0a1.72,1.72,0,0,1-.86.78,2.82,2.82,0,0,1-1.16.25,3,3,0,0,1-1.1-.2,2.45,2.45,0,0,1-.86-.59,2.67,2.67,0,0,1-.58-1,3.86,3.86,0,0,1-.2-1.28V74.09a3.86,3.86,0,0,1,.2-1.28,2.8,2.8,0,0,1,.57-1,2.4,2.4,0,0,1,.87-.59,2.92,2.92,0,0,1,1.08-.2,2.5,2.5,0,0,1,1.28.3,2.42,2.42,0,0,1,.78.69V71.2h.85v6.93a3.12,3.12,0,0,1-.75,2.27,2.75,2.75,0,0,1-2,.76A3.89,3.89,0,0,1,48.1,81a3.32,3.32,0,0,1-1-.54l.39-.69A4.06,4.06,0,0,0,48,80a3.38,3.38,0,0,0,.44.18,2.36,2.36,0,0,0,.46.1,4.39,4.39,0,0,0,.54,0,1.89,1.89,0,0,0,1.44-.53,2.35,2.35,0,0,0,.49-1.64Zm-3.9-2.12a2.61,2.61,0,0,0,.52,1.75,1.72,1.72,0,0,0,1.38.62,2.9,2.9,0,0,0,.79-.11,1.77,1.77,0,0,0,.62-.34,1.79,1.79,0,0,0,.43-.58,1.88,1.88,0,0,0,.16-.82v-2a1.45,1.45,0,0,0-.15-.63,1.79,1.79,0,0,0-.41-.56,2,2,0,0,0-.64-.41,2.08,2.08,0,0,0-.8-.16,1.7,1.7,0,0,0-1.39.63,2.65,2.65,0,0,0-.51,1.74Z"/><path class="cls-2" d="M57.18,71.07a2.25,2.25,0,0,1,2.47,2.43v4.75h-.87V73.72a3.23,3.23,0,0,0-.07-.71,1.4,1.4,0,0,0-.28-.59,1.29,1.29,0,0,0-.53-.4,2.29,2.29,0,0,0-.85-.14,1.89,1.89,0,0,0-.79.16,2,2,0,0,0-.62.43,2,2,0,0,0-.4.57,1.6,1.6,0,0,0-.14.63v4.58h-.87v-7h.85v1a2.55,2.55,0,0,1,.31-.4,2.33,2.33,0,0,1,1-.61A2.5,2.5,0,0,1,57.18,71.07Z"/><path class="cls-2" d="M82.53,73.91c.67-.29,1.25-.55,1.73-.78s.88-.45,1.21-.65a4.93,4.93,0,0,0,.78-.58,2.16,2.16,0,0,0,.44-.59,2.36,2.36,0,0,0,.21-.65,6.18,6.18,0,0,0,0-.79v-.61h-4v-.81h4.9v1.49a5.83,5.83,0,0,1-.08,1,2.48,2.48,0,0,1-.26.81,2.82,2.82,0,0,1-.54.69,5.53,5.53,0,0,1-.9.67c-.37.22-.81.46-1.33.71s-1.14.54-1.84.85Zm1.93,1.2h7.1v4.55h-7.1Zm.86,3.73H90.7V75.93H85.32Zm6.24-4.44h-.89V67.73h.89Z"/><path class="cls-2" d="M103.61,74.6v.8H98.72v4.29h-.9V75.4h-4.9v-.8Zm-3.86-2.54A3.31,3.31,0,0,1,98.27,71h0a3.48,3.48,0,0,1-1.48,1.12l-1.23.59c-.47.22-1,.44-1.48.65l-.4-.73c.48-.19,1-.39,1.46-.62s.95-.45,1.35-.67a4.35,4.35,0,0,0,.63-.38,1.85,1.85,0,0,0,.41-.43,1.72,1.72,0,0,0,.23-.55,3.88,3.88,0,0,0,.07-.74v-1h.9v1a3.21,3.21,0,0,0,.07.74,1.71,1.71,0,0,0,.22.55,1.85,1.85,0,0,0,.41.43,4.81,4.81,0,0,0,.62.38q.61.33,1.35.66c.48.23,1,.43,1.44.61l-.38.72c-.52-.21-1-.42-1.47-.64S100.1,72.24,99.75,72.06Z"/><path class="cls-2" d="M109.89,74.12h-5.24V68.48h5.24ZM109,69.29h-3.51v4H109Zm-1.78,9.44h6.51v.81h-7.41V75.63h.9Zm6.22-2.44h-.89V67.73h.89Z"/><path class="cls-2" d="M325.82,84.93a4,4,0,0,0,1.14-.16,2.6,2.6,0,0,0,.85-.42,1.81,1.81,0,0,0,.53-.62,1.54,1.54,0,0,0,.18-.72v-.32a1.85,1.85,0,0,0-.12-.69,1.35,1.35,0,0,0-.43-.57,3.25,3.25,0,0,0-.86-.46,10.63,10.63,0,0,0-1.42-.41,8.21,8.21,0,0,1-1.58-.5,3.52,3.52,0,0,1-1-.65,2.09,2.09,0,0,1-.55-.8,2.93,2.93,0,0,1-.15-1v-.36a2.59,2.59,0,0,1,.26-1.15,2.49,2.49,0,0,1,.74-.88,3.31,3.31,0,0,1,1.12-.58,4.64,4.64,0,0,1,1.42-.21,5.73,5.73,0,0,1,1.87.27,5.09,5.09,0,0,1,1.34.67l-.5.88a4.24,4.24,0,0,0-1.2-.61,4.75,4.75,0,0,0-1.51-.22,3.69,3.69,0,0,0-.95.12,2.33,2.33,0,0,0-.78.36,1.75,1.75,0,0,0-.54.58,1.44,1.44,0,0,0-.21.77v.31a1.71,1.71,0,0,0,.13.65,1.46,1.46,0,0,0,.42.52,3,3,0,0,0,.79.43,7.31,7.31,0,0,0,1.23.37,12.17,12.17,0,0,1,1.74.54,3.83,3.83,0,0,1,1.09.65,2.14,2.14,0,0,1,.57.83,3.2,3.2,0,0,1,.17,1.07V83a2.57,2.57,0,0,1-.26,1.13,2.78,2.78,0,0,1-.72.92,3.65,3.65,0,0,1-1.17.64,5.13,5.13,0,0,1-1.57.23,6.07,6.07,0,0,1-2-.33,5.56,5.56,0,0,1-1.66-.91l.54-.91a5.87,5.87,0,0,0,1.58.88A4.59,4.59,0,0,0,325.82,84.93Z"/><path class="cls-2" d="M338.65,74.64v1h-3.47V85.76h-1.05V75.59h-3.45v-1Z"/><path class="cls-2" d="M344.35,81h-3.11v4.8h-1.05V74.64h3.74a4.27,4.27,0,0,1,1.44.22,3.06,3.06,0,0,1,1.07.63,2.69,2.69,0,0,1,.67,1,3.16,3.16,0,0,1,.22,1.2v.23a2.92,2.92,0,0,1-.52,1.75,3.06,3.06,0,0,1-1.43,1.08l2.18,5h-1.13Zm-3.11-5.34V80h2.37a3.05,3.05,0,0,0,2-.56,2.06,2.06,0,0,0,.62-1.58v-.16a2,2,0,0,0-.61-1.53,2.71,2.71,0,0,0-1.88-.55Z"/><path class="cls-2" d="M353.53,74.47a5.86,5.86,0,0,1,1.91.28,4.94,4.94,0,0,1,1.51.83l-.54.85a4.65,4.65,0,0,0-1.4-.74,4.86,4.86,0,0,0-1.48-.2,3,3,0,0,0-1.33.28,2.78,2.78,0,0,0-1,.8,3.85,3.85,0,0,0-.59,1.24,6.07,6.07,0,0,0-.2,1.59v1.42a4.65,4.65,0,0,0,.85,3.07,2.88,2.88,0,0,0,2.34,1,4.16,4.16,0,0,0,1.74-.33,4.86,4.86,0,0,0,1.23-.81l.62.85a5.24,5.24,0,0,1-1.46.94,5.15,5.15,0,0,1-2.14.39,3.82,3.82,0,0,1-3.17-1.34,5.88,5.88,0,0,1-1.08-3.77V79.45a5.63,5.63,0,0,1,1.09-3.68A3.78,3.78,0,0,1,353.53,74.47Z"/><path class="cls-2" d="M358.93,84.66h1.51v1.55h-1.51Z"/><path class="cls-2" d="M370.46,80c.3-.37.54-.67.72-.93a5.82,5.82,0,0,0,.42-.69,2.65,2.65,0,0,0,.19-.53,1.73,1.73,0,0,0,0-.45v-.12a1.68,1.68,0,0,0-.53-1.32,2.18,2.18,0,0,0-1.52-.48,2.67,2.67,0,0,0-1.35.35,3.24,3.24,0,0,0-1.16,1.33l-.84-.54a6.57,6.57,0,0,1,.48-.74,3.43,3.43,0,0,1,.69-.68,3.46,3.46,0,0,1,2.15-.71,4.08,4.08,0,0,1,1.3.2,2.81,2.81,0,0,1,1,.56,2.54,2.54,0,0,1,.63.88,2.82,2.82,0,0,1,.23,1.13v.16a2.57,2.57,0,0,1-.15.87,4.21,4.21,0,0,1-.4.83,7.62,7.62,0,0,1-.58.8l-.67.82-3.36,4h5.55v1h-6.87v-.93Z"/><path class="cls-2" d="M382.45,81.05a6.33,6.33,0,0,1-.87,3.62,3.18,3.18,0,0,1-2.82,1.26A3.13,3.13,0,0,1,376,84.66a6.31,6.31,0,0,1-.87-3.61V79.33a6.24,6.24,0,0,1,.88-3.6,3.72,3.72,0,0,1,5.58,0,6.17,6.17,0,0,1,.89,3.6Zm-1.08-1.74a5.22,5.22,0,0,0-.65-3,2.27,2.27,0,0,0-2-.9,2.21,2.21,0,0,0-1.91.91,5.05,5.05,0,0,0-.67,3v1.76a5.1,5.1,0,0,0,.67,3,2.5,2.5,0,0,0,3.86,0,5.15,5.15,0,0,0,.66-3Z"/><path class="cls-2" d="M388.47,80c.3-.37.54-.67.72-.93a5.6,5.6,0,0,0,.41-.69,2.65,2.65,0,0,0,.19-.53,1.74,1.74,0,0,0,.06-.45v-.12a1.69,1.69,0,0,0-.54-1.32,2.18,2.18,0,0,0-1.52-.48,2.67,2.67,0,0,0-1.35.35,3.16,3.16,0,0,0-1.15,1.33l-.85-.54a6.57,6.57,0,0,1,.48-.74,3.79,3.79,0,0,1,1.63-1.19,3.53,3.53,0,0,1,1.21-.2,4.14,4.14,0,0,1,1.31.2,2.81,2.81,0,0,1,1,.56,2.54,2.54,0,0,1,.63.88,2.81,2.81,0,0,1,.22,1.13v.16a2.57,2.57,0,0,1-.15.87,4.21,4.21,0,0,1-.4.83,9.21,9.21,0,0,1-.57.8l-.68.82-3.36,4h5.55v1h-6.87v-.93Z"/><path class="cls-2" d="M396.94,85.76V76l-2.61,1.63-.48-.86,3.35-2.13H398V85.76Z"/><path class="cls-2" d="M414.57,85.76h-1.13l-1.2-3.46h-4.57l-1.23,3.46h-1.08l4-11.12h1.18ZM408,81.36h3.91l-1.05-3c-.07-.18-.13-.36-.19-.54s-.13-.36-.2-.57-.14-.45-.22-.71l-.29-.94c-.1.36-.19.68-.27.94s-.15.5-.22.71-.14.4-.2.57-.12.36-.19.54Z"/><path class="cls-2" d="M416.1,74.1h1V85.76h-1Z"/><path class="cls-2" d="M419.52,74.1h1V85.76h-1Z"/><path class="cls-2" d="M430.86,78.52a2.68,2.68,0,0,0-1-.17,2.05,2.05,0,0,0-1.59.76,2.52,2.52,0,0,0-.43.85,3.71,3.71,0,0,0-.15,1.08v4.72h-1V77.44h1v1.47a4,4,0,0,1,.34-.59,2.41,2.41,0,0,1,.49-.52,2.67,2.67,0,0,1,.66-.37,2.47,2.47,0,0,1,.84-.14,4,4,0,0,1,.62,0,2.42,2.42,0,0,1,.53.13Z"/><path class="cls-2" d="M432.55,74.68h1.11v1.18h-1.11Zm.05,2.76h1v8.32h-1Z"/><path class="cls-2" d="M441.31,84.51h0a2.1,2.1,0,0,1-1,.93,3.44,3.44,0,0,1-1.37.29,3.37,3.37,0,0,1-1.29-.24,2.86,2.86,0,0,1-1-.7,3.08,3.08,0,0,1-.67-1.11,4.47,4.47,0,0,1-.24-1.51V80.85a4.43,4.43,0,0,1,.24-1.51,3.35,3.35,0,0,1,.66-1.12,3,3,0,0,1,1-.69,3.44,3.44,0,0,1,1.29-.24,2.87,2.87,0,0,1,1.5.36,2.67,2.67,0,0,1,.93.81v-1h1v8.18a3.7,3.7,0,0,1-.89,2.68,3.25,3.25,0,0,1-2.41.9,4.71,4.71,0,0,1-1.52-.23,4.05,4.05,0,0,1-1.18-.64l.47-.81a5.63,5.63,0,0,0,.54.33,2.75,2.75,0,0,0,.51.21,2.57,2.57,0,0,0,.55.12,6.05,6.05,0,0,0,.63,0,2.21,2.21,0,0,0,1.7-.62,2.78,2.78,0,0,0,.58-1.94Zm-4.6-2.5a3.12,3.12,0,0,0,.61,2.07,2.05,2.05,0,0,0,1.64.72,3.05,3.05,0,0,0,.92-.13,2.12,2.12,0,0,0,.74-.4,1.91,1.91,0,0,0,.5-.68,2.19,2.19,0,0,0,.19-1V80.28a1.77,1.77,0,0,0-.17-.73,2.36,2.36,0,0,0-.49-.66,2.39,2.39,0,0,0-1.69-.67,2,2,0,0,0-1.65.73,3.16,3.16,0,0,0-.6,2.06Z"/><path class="cls-2" d="M448.23,77.29a2.66,2.66,0,0,1,2.91,2.87v5.6h-1V80.42a3.73,3.73,0,0,0-.09-.84,1.82,1.82,0,0,0-.32-.69,1.58,1.58,0,0,0-.63-.47,2.46,2.46,0,0,0-1-.17,2.26,2.26,0,0,0-.94.19,2.55,2.55,0,0,0-.73.5,2.37,2.37,0,0,0-.47.68,1.66,1.66,0,0,0-.17.74v5.4h-1V74.1h1v4.5a2.81,2.81,0,0,1,.36-.47,2.72,2.72,0,0,1,1.23-.72A3,3,0,0,1,448.23,77.29Z"/><path class="cls-2" d="M454.11,78.34h-1.38v-.9h1.38V75.3h1v2.14h2.23v.9h-2.23V83.4a2.07,2.07,0,0,0,.26,1.19,1.07,1.07,0,0,0,.88.34,4.24,4.24,0,0,0,1.14-.16l.15.87a2.68,2.68,0,0,1-.64.14,4.88,4.88,0,0,1-.73.06,3.19,3.19,0,0,1-.92-.13,1.4,1.4,0,0,1-.65-.4,1.69,1.69,0,0,1-.38-.73,4.06,4.06,0,0,1-.13-1.14Z"/><path class="cls-2" d="M461.86,84.94a2.37,2.37,0,0,0,1.5-.4,1.18,1.18,0,0,0,.51-.94v-.16a1,1,0,0,0-.5-1,5.06,5.06,0,0,0-1.67-.56,8.9,8.9,0,0,1-1.11-.29,3,3,0,0,1-.84-.43,1.91,1.91,0,0,1-.54-.63,1.8,1.8,0,0,1-.2-.87V79.5a2.06,2.06,0,0,1,.18-.85,1.92,1.92,0,0,1,.54-.7,2.8,2.8,0,0,1,.91-.48,4.21,4.21,0,0,1,1.3-.18,4.77,4.77,0,0,1,1.6.24,4.33,4.33,0,0,1,1.17.62l-.46.79a4.14,4.14,0,0,0-1-.54,4,4,0,0,0-1.3-.18,2.25,2.25,0,0,0-1.4.37,1.15,1.15,0,0,0-.48.92v.17a1,1,0,0,0,.54.85,4.63,4.63,0,0,0,1.49.49,5.15,5.15,0,0,1,2.17.84,1.87,1.87,0,0,1,.66,1.54v.23a1.88,1.88,0,0,1-.22.91,2.25,2.25,0,0,1-.62.72,3.05,3.05,0,0,1-.94.46,4.08,4.08,0,0,1-1.19.16,5.33,5.33,0,0,1-1.76-.27,4.86,4.86,0,0,1-1.34-.7l.49-.83a5.68,5.68,0,0,0,1.2.62A3.76,3.76,0,0,0,461.86,84.94Z"/><path class="cls-2" d="M474.64,78.52a2.63,2.63,0,0,0-1-.17,2.05,2.05,0,0,0-1.59.76,2.54,2.54,0,0,0-.44.85,3.71,3.71,0,0,0-.15,1.08v4.72h-1V77.44h1v1.47a4,4,0,0,1,.34-.59,2.41,2.41,0,0,1,.49-.52,2.67,2.67,0,0,1,.66-.37,2.41,2.41,0,0,1,.83-.14,4.09,4.09,0,0,1,.63,0,2.42,2.42,0,0,1,.53.13Z"/><path class="cls-2" d="M482.26,84.94a5.57,5.57,0,0,1-1.2.65,4.73,4.73,0,0,1-1.74.29,3.23,3.23,0,0,1-2.52-1,4.06,4.06,0,0,1-.9-2.82V81a4,4,0,0,1,.88-2.76,3.06,3.06,0,0,1,2.41-1,3,3,0,0,1,2.42,1,4.22,4.22,0,0,1,.83,2.77v.86h-5.52v.14a3.18,3.18,0,0,0,.65,2.14,2.21,2.21,0,0,0,1.77.75,3.87,3.87,0,0,0,1.42-.25,4.71,4.71,0,0,0,1.05-.57Zm-.84-3.89v-.13a3,3,0,0,0-.58-2,2,2,0,0,0-1.65-.69,2,2,0,0,0-1.67.73,3,3,0,0,0-.6,2v.13Z"/><path class="cls-2" d="M487,84.94a2.37,2.37,0,0,0,1.5-.4,1.18,1.18,0,0,0,.51-.94v-.16a1.06,1.06,0,0,0-.5-1,5.22,5.22,0,0,0-1.68-.56,8.9,8.9,0,0,1-1.11-.29,3,3,0,0,1-.84-.43,1.91,1.91,0,0,1-.54-.63,1.8,1.8,0,0,1-.19-.87V79.5a2.06,2.06,0,0,1,.18-.85,1.92,1.92,0,0,1,.54-.7,2.7,2.7,0,0,1,.91-.48,4.1,4.1,0,0,1,1.29-.18,4.83,4.83,0,0,1,1.61.24,4.33,4.33,0,0,1,1.17.62l-.47.79a3.61,3.61,0,0,0-2.34-.72,2.21,2.21,0,0,0-1.39.37,1.15,1.15,0,0,0-.48.92v.17a1,1,0,0,0,.53.85,4.71,4.71,0,0,0,1.49.49,5.09,5.09,0,0,1,2.17.84,1.85,1.85,0,0,1,.67,1.54v.23a1.89,1.89,0,0,1-.23.91,2.13,2.13,0,0,1-.62.72,2.94,2.94,0,0,1-.94.46,4,4,0,0,1-1.18.16,5.29,5.29,0,0,1-1.76-.27,4.78,4.78,0,0,1-1.35-.7l.5-.83a5.85,5.85,0,0,0,1.19.62A3.85,3.85,0,0,0,487,84.94Z"/><path class="cls-2" d="M497.86,84.94a5.57,5.57,0,0,1-1.2.65,4.73,4.73,0,0,1-1.74.29,3.23,3.23,0,0,1-2.52-1,4.06,4.06,0,0,1-.9-2.82V81a4,4,0,0,1,.88-2.76,3.06,3.06,0,0,1,2.41-1,3,3,0,0,1,2.42,1,4.22,4.22,0,0,1,.83,2.77v.86h-5.52v.14a3.18,3.18,0,0,0,.65,2.14,2.21,2.21,0,0,0,1.77.75,3.87,3.87,0,0,0,1.42-.25,4.71,4.71,0,0,0,1.05-.57ZM497,81.05v-.13a3,3,0,0,0-.58-2,2,2,0,0,0-1.65-.69,2,2,0,0,0-1.67.73,3,3,0,0,0-.6,2v.13Z"/><path class="cls-2" d="M504.22,78.52a2.63,2.63,0,0,0-1-.17,2.05,2.05,0,0,0-1.59.76,2.54,2.54,0,0,0-.44.85,3.71,3.71,0,0,0-.15,1.08v4.72h-1V77.44h1v1.47a4,4,0,0,1,.34-.59,2.41,2.41,0,0,1,.49-.52,2.67,2.67,0,0,1,.66-.37,2.41,2.41,0,0,1,.83-.14,4.09,4.09,0,0,1,.63,0,2.42,2.42,0,0,1,.53.13Z"/><path class="cls-2" d="M507.93,85.76l-3-8.32h1.1l2.45,7.24,2.4-7.24H512l-2.91,8.32Z"/><path class="cls-2" d="M519.35,84.94a5.57,5.57,0,0,1-1.2.65,4.73,4.73,0,0,1-1.74.29,3.23,3.23,0,0,1-2.52-1,4.06,4.06,0,0,1-.9-2.82V81a4,4,0,0,1,.87-2.76,3.06,3.06,0,0,1,2.41-1,3,3,0,0,1,2.42,1,4.22,4.22,0,0,1,.84,2.77v.86H514v.14a3.18,3.18,0,0,0,.64,2.14,2.21,2.21,0,0,0,1.77.75,3.93,3.93,0,0,0,1.43-.25,4.71,4.71,0,0,0,1-.57Zm-.84-3.89v-.13a3,3,0,0,0-.59-2,2,2,0,0,0-1.65-.69,2,2,0,0,0-1.67.73,3,3,0,0,0-.59,2v.13Z"/><path class="cls-2" d="M526.74,84.66h0a2.06,2.06,0,0,1-1,.93,3.52,3.52,0,0,1-1.38.29,3.37,3.37,0,0,1-1.29-.24,3,3,0,0,1-1-.69,3.15,3.15,0,0,1-.68-1.12,4.39,4.39,0,0,1-.24-1.51V80.85a4.43,4.43,0,0,1,.24-1.51,3.22,3.22,0,0,1,.67-1.12,2.79,2.79,0,0,1,1-.69,3.35,3.35,0,0,1,1.28-.24,2.87,2.87,0,0,1,1.5.36,2.73,2.73,0,0,1,.92.81V74.1h1V85.76h-1Zm-4.62-2.49a3.09,3.09,0,0,0,.62,2.06,2,2,0,0,0,1.63.73,3.35,3.35,0,0,0,.92-.13,2.1,2.1,0,0,0,.75-.41,2,2,0,0,0,.5-.67,2.43,2.43,0,0,0,.19-1v-2.5a1.64,1.64,0,0,0-.18-.73,2.14,2.14,0,0,0-.48-.66,2.44,2.44,0,0,0-.75-.49,2.47,2.47,0,0,0-1-.18,2,2,0,0,0-1.64.73,3.11,3.11,0,0,0-.61,2.06Z"/></g></g></g></g></svg>