<svg xmlns="http://www.w3.org/2000/svg" viewBox="0 0 198.39 766.18"><defs><style>.cls-1{opacity:0.7;}.cls-2{fill:none;stroke:#fff;stroke-miterlimit:10;stroke-width:0.5px;}.cls-3{opacity:0.3;}.cls-4{fill:aqua;}</style></defs><g id="레이어_2" data-name="레이어 2"><g id="메인_홍보" data-name="메인 홍보"><g class="cls-1"><path class="cls-2" d="M57,514.75A22.4,22.4,0,0,1,67.51,517a19.34,19.34,0,0,1,7,6.15,26.41,26.41,0,0,1,3.91,9,46,46,0,0,1,1.21,10.72v32.46H1.42v-30.7a49.59,49.59,0,0,1,1.12-10.73,23.81,23.81,0,0,1,3.82-8.83,19.48,19.48,0,0,1,7.06-6,23.75,23.75,0,0,1,10.84-2.22,17.45,17.45,0,0,1,8.5,2.08,14.32,14.32,0,0,1,5.71,5.32,15.27,15.27,0,0,1,7.24-7A24.75,24.75,0,0,1,57,514.75Zm-33,20.9a8.25,8.25,0,0,0-4,.79,5.18,5.18,0,0,0-2.2,2.35,10.91,10.91,0,0,0-.94,3.93c-.12,1.58-.18,3.38-.18,5.41v8.6H31.63v-8.6c0-2-.07-3.83-.22-5.41a10.84,10.84,0,0,0-1-3.93,5.37,5.37,0,0,0-2.29-2.35A8.74,8.74,0,0,0,24,535.65Zm31.92-2c-3.24,0-5.59.81-7.06,2.45s-2.2,4.14-2.2,7.53v13.13H64.37V543.6c0-3.2-.63-5.67-1.89-7.39S59,533.62,55.91,533.62Z"/><path class="cls-2" d="M79.65,448.09v58.34H1.42V449.11H16.71v38.74H31.63V451.14h15v36.71H64.37V448.09Z"/><path class="cls-2" d="M56.81,357.94a22.28,22.28,0,0,1,10.34,2.31,20.8,20.8,0,0,1,7.51,6.52,30.76,30.76,0,0,1,4.59,10.08,50.05,50.05,0,0,1,1.57,13,39.76,39.76,0,0,1-1.71,11.93,26.75,26.75,0,0,1-5.26,9.57,26.44,26.44,0,0,1-9,6.65A39.7,39.7,0,0,1,52,421.28V402.6q6.65-.56,10.11-3.52t3.46-9.33a38.58,38.58,0,0,0-.31-5,13.49,13.49,0,0,0-1.17-4.16,7,7,0,0,0-2.47-2.82,7.58,7.58,0,0,0-4.23-1.06q-2.79,0-4.63,3.05a31.74,31.74,0,0,0-3.19,8q-1.26,4.63-3.06,9.94a45.11,45.11,0,0,1-4.72,9.9,27.58,27.58,0,0,1-7.19,7.63,17.59,17.59,0,0,1-10.48,3.05A22.72,22.72,0,0,1,13.56,416a21.39,21.39,0,0,1-7.47-6.29,27.43,27.43,0,0,1-4.4-9.34,45.5,45.5,0,0,1-.23-21.78,25,25,0,0,1,4.23-9.1,25.68,25.68,0,0,1,8-6.94,32.26,32.26,0,0,1,12.55-3.7V377q-6.39.74-9,3.93A12.34,12.34,0,0,0,14.64,389q0,5.73,2.47,8a9,9,0,0,0,6.34,2.27,6.2,6.2,0,0,0,5.4-2.68,23.74,23.74,0,0,0,3.14-7.4q1.62-6.29,3.64-11.93a46.68,46.68,0,0,1,4.86-9.94,23.19,23.19,0,0,1,6.79-6.84A17.31,17.31,0,0,1,56.81,357.94Z"/><path class="cls-2" d="M16.71,294.23v22H79.65v18.58H16.71v21.92H1.42V294.23Z"/><path class="cls-2" d="M79.65,224v20.71L48.72,262.33v6.84H79.65v18.59H1.42V258a56.4,56.4,0,0,1,1.12-11.51A26,26,0,0,1,6.41,237a19.53,19.53,0,0,1,7.33-6.38,24.84,24.84,0,0,1,11.42-2.35q9.43,0,14.61,3.93A20.58,20.58,0,0,1,47,243.19ZM25.21,246.89a8.81,8.81,0,0,0-4.3.93,7.3,7.3,0,0,0-2.62,2.35A8.5,8.5,0,0,0,17,253.46a21.88,21.88,0,0,0-.31,3.69v12H33.43v-12a25.45,25.45,0,0,0-.27-3.69A8.39,8.39,0,0,0,32,250.17a7.21,7.21,0,0,0-2.49-2.35A8.48,8.48,0,0,0,25.21,246.89Z"/><path class="cls-2" d="M40.63,152.49a52.72,52.72,0,0,1,15.24,2.17,38.77,38.77,0,0,1,12.81,6.52,31.22,31.22,0,0,1,8.86,11,38.86,38.86,0,0,1,0,31.25,31.26,31.26,0,0,1-8.86,11A39,39,0,0,1,55.87,221a53.07,53.07,0,0,1-15.24,2.17A53.78,53.78,0,0,1,25.25,221a38.82,38.82,0,0,1-12.86-6.52,31.26,31.26,0,0,1-8.86-11,38.86,38.86,0,0,1,0-31.25,31.22,31.22,0,0,1,8.86-11,38.64,38.64,0,0,1,12.86-6.52A53.43,53.43,0,0,1,40.63,152.49Zm0,18.58a67,67,0,0,0-8.83.6,26.3,26.3,0,0,0-8.1,2.36,15.13,15.13,0,0,0-5.91,5.09,15,15,0,0,0-2.29,8.69c0,3.64.76,6.53,2.29,8.69a15.77,15.77,0,0,0,5.91,5,24.75,24.75,0,0,0,8.1,2.36,72.29,72.29,0,0,0,8.83.55,70,70,0,0,0,8.74-.55,24.21,24.21,0,0,0,8-2.36,15.85,15.85,0,0,0,5.86-5c1.53-2.16,2.29-5.05,2.29-8.69a15,15,0,0,0-2.29-8.69A15.2,15.2,0,0,0,57.38,174a25.73,25.73,0,0,0-8-2.36A64.84,64.84,0,0,0,40.67,171.07Z"/><path class="cls-2" d="M79.65,78.43V97.94L32.17,126.51H79.65v18.58H1.42V125.67L49,97H1.42V78.43Z"/><path class="cls-2" d="M25.16.29V19.06Q20,20.17,17.78,23.5t-2.24,10q0,6.19,2.29,9.89a16,16,0,0,0,5.91,5.69A23.53,23.53,0,0,0,31.8,51.7a60.47,60.47,0,0,0,8.87.65,59,59,0,0,0,8.74-.65,23.67,23.67,0,0,0,8-2.63,15.6,15.6,0,0,0,5.85-5.73q2.25-3.75,2.25-9.94a37.06,37.06,0,0,0-.27-4.81,22.93,22.93,0,0,0-.77-3.7,18.51,18.51,0,0,0-1.17-3c-.45-.89-1-1.8-1.49-2.72H50.16V35H34.87V.57H73.46a118,118,0,0,1,5.43,16.92,70.55,70.55,0,0,1,1.93,16.18,40,40,0,0,1-3.28,17,31.92,31.92,0,0,1-8.86,11.6A36.25,36.25,0,0,1,55.87,68.9,53.76,53.76,0,0,1,40.63,71,54.49,54.49,0,0,1,25.25,68.9a36.14,36.14,0,0,1-12.86-6.66A32.07,32.07,0,0,1,3.53,50.69,39.74,39.74,0,0,1,.25,33.77,46.92,46.92,0,0,1,1.82,21.33a31.62,31.62,0,0,1,4.68-10,25.8,25.8,0,0,1,7.78-7.17A30.4,30.4,0,0,1,25.16.29Z"/></g><g class="cls-3"><path class="cls-4" d="M119,672.15l78.23,15.53V707.1l-48.83,12.11,48.83,12.11v19.42L119,766.18V748.43L166.38,740l-46.49-11.28V709.59l46.49-11.28L119,690Z"/><path class="cls-4" d="M197.22,647.55v18.59H119V647.55Z"/><path class="cls-4" d="M134.27,579v22h62.95v18.59H134.27v21.91H119V579Z"/><path class="cls-4" d="M197.22,508.12V526.7H164.67V554h32.55v18.59H119V554h30.66V526.7H119V508.12Z"/><path class="cls-4" d="M174.38,414.27a22.31,22.31,0,0,1,10.34,2.31,21,21,0,0,1,7.51,6.52,30.74,30.74,0,0,1,4.58,10.08,50.15,50.15,0,0,1,1.58,13,39.72,39.72,0,0,1-1.71,11.93,25.87,25.87,0,0,1-14.25,16.23,39.7,39.7,0,0,1-12.91,3.28V458.93q6.66-.56,10.12-3.51t3.46-9.34a38.31,38.31,0,0,0-.31-5,13.41,13.41,0,0,0-1.17-4.16,7,7,0,0,0-2.47-2.82,7.58,7.58,0,0,0-4.23-1.07q-2.79,0-4.63,3a31.46,31.46,0,0,0-3.19,8.05q-1.26,4.62-3.06,9.94a45.25,45.25,0,0,1-4.72,9.89,27.47,27.47,0,0,1-7.2,7.63,17.56,17.56,0,0,1-10.47,3,22.69,22.69,0,0,1-10.52-2.31,21.39,21.39,0,0,1-7.47-6.29,27.16,27.16,0,0,1-4.4-9.34,45.46,45.46,0,0,1-.23-21.77,24.94,24.94,0,0,1,4.23-9.11,25.67,25.67,0,0,1,8-6.93,32.09,32.09,0,0,1,12.55-3.7v18.12q-6.39.74-9,3.93a12.41,12.41,0,0,0-2.6,8.09q0,5.73,2.47,8A9,9,0,0,0,141,455.6a6.19,6.19,0,0,0,5.39-2.68,23.39,23.39,0,0,0,3.15-7.4q1.62-6.28,3.64-11.92a46.45,46.45,0,0,1,4.86-9.94,23.1,23.1,0,0,1,6.79-6.85A17.29,17.29,0,0,1,174.38,414.27Z"/><path class="cls-4" d="M134.27,350.57v22h62.95v18.59H134.27v21.91H119v-62.5Z"/><path class="cls-4" d="M197.22,280.29V301l-30.93,17.66v6.84h30.93v18.58H119V314.32a56.4,56.4,0,0,1,1.12-11.51,25.84,25.84,0,0,1,3.87-9.43,19.44,19.44,0,0,1,7.33-6.38,24.81,24.81,0,0,1,11.42-2.36q9.44,0,14.61,3.93a20.57,20.57,0,0,1,7.24,11Zm-54.45,22.93a8.74,8.74,0,0,0-4.29.93,7.24,7.24,0,0,0-2.62,2.36,8.3,8.3,0,0,0-1.27,3.28,22,22,0,0,0-.32,3.7v12H151v-12a25.59,25.59,0,0,0-.27-3.7,8.2,8.2,0,0,0-1.18-3.28,7.12,7.12,0,0,0-2.48-2.36A8.5,8.5,0,0,0,142.77,303.22Z"/><path class="cls-4" d="M171,211.69a38.88,38.88,0,0,1,12.49,4.25,28.41,28.41,0,0,1,8.5,7.21,28.72,28.72,0,0,1,4.88,9.57,40.41,40.41,0,0,1,1.56,11.42,35.08,35.08,0,0,1-3.28,15.63,31.22,31.22,0,0,1-8.86,11,38.77,38.77,0,0,1-12.81,6.52,52.74,52.74,0,0,1-15.25,2.17,53.41,53.41,0,0,1-15.37-2.17A38.64,38.64,0,0,1,130,270.77a31.22,31.22,0,0,1-8.86-11,34.94,34.94,0,0,1-3.28-15.63,40.59,40.59,0,0,1,1.53-11.37,27,27,0,0,1,13-16.46,38.19,38.19,0,0,1,12.13-4.16V231.1q-6.2,1-8.81,4.12t-2.61,8.64a14.34,14.34,0,0,0,8.2,14,24.88,24.88,0,0,0,8.11,2.36,72.17,72.17,0,0,0,8.83.55,70,70,0,0,0,8.74-.55,24.21,24.21,0,0,0,8-2.36,15.53,15.53,0,0,0,5.85-5.13c1.54-2.22,2.3-5.18,2.3-8.88s-.93-6.7-2.79-8.83-5-3.62-9.35-4.48Z"/></g><g class="cls-1"><path class="cls-2" d="M113.42,669.21l78.23,15.54v19.41l-48.82,12.12,48.82,12.11v19.42l-78.23,15.44V745.49l47.39-8.41L114.32,725.8V706.66l46.49-11.28-47.39-8.32Z"/><path class="cls-2" d="M191.65,644.62V663.2H113.42V644.62Z"/><path class="cls-2" d="M128.71,576.1v22h62.94V616.7H128.71v21.91H113.42V576.1Z"/><path class="cls-2" d="M191.65,505.19v18.58H159.1v27.28h32.55v18.58H113.42V551.05h30.66V523.77H113.42V505.19Z"/><path class="cls-2" d="M168.81,411.34a22.28,22.28,0,0,1,10.34,2.31,20.8,20.8,0,0,1,7.51,6.52,30.76,30.76,0,0,1,4.59,10.08,50.05,50.05,0,0,1,1.57,13,39.76,39.76,0,0,1-1.71,11.93,26.75,26.75,0,0,1-5.26,9.57,26.44,26.44,0,0,1-9,6.65,39.7,39.7,0,0,1-12.9,3.29V456c4.43-.37,7.81-1.54,10.11-3.52s3.47-5.08,3.47-9.33a38.55,38.55,0,0,0-.32-5,13.49,13.49,0,0,0-1.17-4.16,7,7,0,0,0-2.47-2.82,7.58,7.58,0,0,0-4.23-1.06c-1.85,0-3.4,1-4.63,3.05a31.74,31.74,0,0,0-3.19,8q-1.26,4.64-3.06,9.94a45.11,45.11,0,0,1-4.72,9.9,27.58,27.58,0,0,1-7.19,7.63,17.59,17.59,0,0,1-10.48,3.05,22.75,22.75,0,0,1-10.52-2.31,21.27,21.27,0,0,1-7.46-6.29,27.26,27.26,0,0,1-4.41-9.34,45.32,45.32,0,0,1-.22-21.78,24.72,24.72,0,0,1,4.22-9.1,25.68,25.68,0,0,1,8-6.94,32.26,32.26,0,0,1,12.55-3.7v18.13q-6.39.74-9,3.93a12.34,12.34,0,0,0-2.61,8.09q0,5.73,2.47,8a9,9,0,0,0,6.34,2.27,6.2,6.2,0,0,0,5.4-2.68,23.27,23.27,0,0,0,3.14-7.4q1.62-6.29,3.65-11.93a46.2,46.2,0,0,1,4.85-9.94,23.19,23.19,0,0,1,6.79-6.84A17.31,17.31,0,0,1,168.81,411.34Z"/><path class="cls-2" d="M128.71,347.63v22h62.94v18.58H128.71v21.92H113.42V347.63Z"/><path class="cls-2" d="M191.65,277.36v20.71l-30.93,17.66v6.84h30.93v18.59H113.42V311.39a57.28,57.28,0,0,1,1.12-11.52,25.91,25.91,0,0,1,3.87-9.43,19.53,19.53,0,0,1,7.33-6.38,24.84,24.84,0,0,1,11.42-2.35q9.43,0,14.61,3.93A20.58,20.58,0,0,1,159,296.59Zm-54.44,22.93a8.81,8.81,0,0,0-4.3.93,7.3,7.3,0,0,0-2.62,2.35,8.5,8.5,0,0,0-1.27,3.29,21.88,21.88,0,0,0-.31,3.69v12h16.72v-12a25.45,25.45,0,0,0-.27-3.69,8.39,8.39,0,0,0-1.17-3.29,7.13,7.13,0,0,0-2.49-2.35A8.46,8.46,0,0,0,137.21,300.29Z"/><path class="cls-2" d="M165.4,208.75A38.91,38.91,0,0,1,177.88,213a27.74,27.74,0,0,1,13.38,16.78,40.36,40.36,0,0,1,1.56,11.42,34.9,34.9,0,0,1-3.28,15.62,31.26,31.26,0,0,1-8.86,11,38.66,38.66,0,0,1-12.81,6.51,52.72,52.72,0,0,1-15.24,2.18,53.49,53.49,0,0,1-15.38-2.18,38.62,38.62,0,0,1-12.86-6.51,31.26,31.26,0,0,1-8.86-11,35,35,0,0,1-3.28-15.62,40.71,40.71,0,0,1,1.53-11.38,27.89,27.89,0,0,1,4.77-9.43,27.52,27.52,0,0,1,8.27-7A38.26,38.26,0,0,1,139,209.22v18.95q-6.21,1-8.81,4.11t-2.61,8.65c0,3.7.76,6.66,2.3,8.88a15.38,15.38,0,0,0,5.9,5.13,24.75,24.75,0,0,0,8.1,2.36,72.29,72.29,0,0,0,8.83.55,70,70,0,0,0,8.74-.55,24.21,24.21,0,0,0,8-2.36,15.56,15.56,0,0,0,5.86-5.13,15.38,15.38,0,0,0,2.3-8.88q0-5.64-2.79-8.83t-9.35-4.48Z"/></g></g></g></svg>