<svg xmlns="http://www.w3.org/2000/svg" viewBox="0 0 751.35 85.52"><defs><style>.cls-1{fill:#fff;}.cls-2{fill:none;}.cls-2,.cls-3{stroke:#f15a24;}.cls-3{fill:#f15a24;}</style></defs><g id="레이어_2" data-name="레이어 2"><g id="메인_홍보" data-name="메인 홍보"><g id="_8page" data-name="8page"><path class="cls-1" d="M0,75.31V10.15Q0,5.08,2.25,2.54A7.42,7.42,0,0,1,8.06,0a7.69,7.69,0,0,1,6,2.51Q16.29,5,16.29,10.15V75.31q0,5.13-2.27,7.67a7.65,7.65,0,0,1-6,2.54A7.38,7.38,0,0,1,2.28,83Q0,80.38,0,75.31Z"/><path class="cls-1" d="M55.74,10,87.07,58.78V9.59c0-3.2.66-5.59,2-7.19A6.67,6.67,0,0,1,94.47,0,6.87,6.87,0,0,1,100,2.4c1.36,1.6,2,4,2,7.19v65q0,10.89-8.77,10.89a11.36,11.36,0,0,1-4-.65A10,10,0,0,1,86,82.81a20.16,20.16,0,0,1-2.85-3.3c-.88-1.26-1.75-2.55-2.63-3.86L50,27.47V75.93q0,4.74-2.14,7.16a7,7,0,0,1-5.49,2.43,6.93,6.93,0,0,1-5.54-2.45q-2.09-2.46-2.08-7.14V12.13a18.47,18.47,0,0,1,.88-6.38,9,9,0,0,1,3.45-4.14A9.25,9.25,0,0,1,44.27,0,8.91,8.91,0,0,1,48,.73a9.15,9.15,0,0,1,2.75,2,20.89,20.89,0,0,1,2.41,3.21Z"/><path class="cls-1" d="M181,59.29a24.75,24.75,0,0,1-3.76,13.48,25.12,25.12,0,0,1-11,9.37,40.3,40.3,0,0,1-17.17,3.38q-11.91,0-19.64-4.63A26.37,26.37,0,0,1,120.51,72a20.53,20.53,0,0,1-3.43-10.8,7.33,7.33,0,0,1,2-5.22,6.91,6.91,0,0,1,5.24-2.17,6.11,6.11,0,0,1,4.37,1.69,13.46,13.46,0,0,1,3,5,33.73,33.73,0,0,0,3.32,6.6,13.56,13.56,0,0,0,5,4.37,18.08,18.08,0,0,0,8.5,1.72q7.24,0,11.77-3.47a10.52,10.52,0,0,0,4.53-8.66,9.33,9.33,0,0,0-2.44-6.68,15.67,15.67,0,0,0-6.31-3.92q-3.87-1.35-10.35-2.88a74.49,74.49,0,0,1-14.51-4.88A23.66,23.66,0,0,1,122,35.12a20.22,20.22,0,0,1-3.43-12A21,21,0,0,1,122.23,11a23,23,0,0,1,10.48-8.15A41.84,41.84,0,0,1,148.84,0a38.86,38.86,0,0,1,12.81,1.89,26.87,26.87,0,0,1,9,5,20.79,20.79,0,0,1,5.21,6.57,15.49,15.49,0,0,1,1.65,6.72,8.06,8.06,0,0,1-2.06,5.38,6.48,6.48,0,0,1-5.13,2.4A5.8,5.8,0,0,1,166,26.54a19.32,19.32,0,0,1-3.15-4.71,21.3,21.3,0,0,0-5.27-7.3q-3.08-2.62-9.87-2.63-6.31,0-10.18,2.85t-3.87,6.86A7,7,0,0,0,135,25.89,11,11,0,0,0,138.64,29a24.31,24.31,0,0,0,4.66,2q2.35.73,7.79,2.14a118.63,118.63,0,0,1,12.32,3.61,37.28,37.28,0,0,1,9.38,4.8,19.45,19.45,0,0,1,6,7.13A23.33,23.33,0,0,1,181,59.29Z"/><path class="cls-1" d="M247.05,15.23H229.27V75.31q0,5.19-2.25,7.7a7.46,7.46,0,0,1-5.81,2.51,7.56,7.56,0,0,1-5.9-2.54Q213,80.45,213,75.31V15.23H195.26q-4.17,0-6.2-1.89a6.47,6.47,0,0,1-2-5,6.42,6.42,0,0,1,2.11-5.08,9,9,0,0,1,6.12-1.86h51.79c2.81,0,4.91.64,6.28,1.92a6.55,6.55,0,0,1,2.06,5,6.41,6.41,0,0,1-2.09,5Q251.21,15.23,247.05,15.23Z"/><path class="cls-1" d="M309.42,74.75l-3.84-10.38H272.89L269.05,75a37.66,37.66,0,0,1-3.84,8.38c-1.07,1.45-2.8,2.17-5.22,2.17a7.53,7.53,0,0,1-5.43-2.31A7.18,7.18,0,0,1,252.2,78a12.25,12.25,0,0,1,.55-3.5q.56-1.8,1.81-5l20.58-53.7q.87-2.31,2.11-5.56a28.53,28.53,0,0,1,2.63-5.39,10.81,10.81,0,0,1,3.68-3.46A10.92,10.92,0,0,1,289.18,0a11.08,11.08,0,0,1,5.68,1.33,10.94,10.94,0,0,1,3.67,3.41,23.9,23.9,0,0,1,2.36,4.48c.64,1.6,1.46,3.74,2.44,6.41l21,53.36c1.64,4.06,2.47,7,2.47,8.86a7.4,7.4,0,0,1-2.34,5.27,7.53,7.53,0,0,1-5.62,2.4,7.1,7.1,0,0,1-3.29-.71,6.79,6.79,0,0,1-2.31-1.91,18.17,18.17,0,0,1-2-3.73C310.55,77.5,309.94,76,309.42,74.75Zm-32.25-23h24L289.07,17.66Z"/><path class="cls-1" d="M409.44,50.49V66.34a17.19,17.19,0,0,1-.6,5,8.06,8.06,0,0,1-2.23,3.41,20.82,20.82,0,0,1-4.14,2.94,64.3,64.3,0,0,1-14,5.92,55.21,55.21,0,0,1-14.71,1.86,46.78,46.78,0,0,1-16.89-2.93,35.56,35.56,0,0,1-13-8.52,37.82,37.82,0,0,1-8.25-13.54,51.91,51.91,0,0,1-2.88-17.77,53.4,53.4,0,0,1,2.79-17.66A35.26,35.26,0,0,1,356.94,3,49.51,49.51,0,0,1,374.6,0,42.66,42.66,0,0,1,389,2.23a31.17,31.17,0,0,1,10.14,5.61A25,25,0,0,1,405,15a14.9,14.9,0,0,1,2,6.71,7.26,7.26,0,0,1-2.28,5.39,7.52,7.52,0,0,1-5.46,2.22,7.22,7.22,0,0,1-3.37-.84,7.92,7.92,0,0,1-2.72-2.37,65.37,65.37,0,0,0-5.1-7.33,16.43,16.43,0,0,0-5.62-4.18,20.94,20.94,0,0,0-9-1.69,24.39,24.39,0,0,0-10.09,2,21,21,0,0,0-7.6,5.81,26.57,26.57,0,0,0-4.83,9.34,42.27,42.27,0,0,0-1.67,12.24q0,14.55,6.5,22.39t18.13,7.85A35.88,35.88,0,0,0,384.45,71a52.61,52.61,0,0,0,10.07-4.34V53.25H381.9c-3,0-5.33-.47-6.89-1.41a5.16,5.16,0,0,1-2.33-4.79,6,6,0,0,1,1.95-4.57,7.45,7.45,0,0,1,5.29-1.81h18.49a23.11,23.11,0,0,1,5.76.62A6.56,6.56,0,0,1,408,44.06C409,45.49,409.44,47.63,409.44,50.49Z"/><path class="cls-1" d="M446.86,48.74h-5.71V75.31c0,3.5-.75,6.07-2.25,7.73A7.57,7.57,0,0,1,433,85.52a7.39,7.39,0,0,1-6-2.59q-2.14-2.59-2.14-7.62V11.68c0-3.61.78-6.23,2.35-7.84s4.12-2.43,7.63-2.43h26.5a78.2,78.2,0,0,1,9.38.48,23,23,0,0,1,7,2A20.58,20.58,0,0,1,488.85,15.6a24.1,24.1,0,0,1,1.51,8.54q0,9.25-5.07,14.78T469.9,46.77a29.78,29.78,0,0,1,8.28,7,70,70,0,0,1,7.05,9.84A73.18,73.18,0,0,1,490.06,73c1.15,2.81,1.73,4.73,1.73,5.79a6,6,0,0,1-1,3.24A7.16,7.16,0,0,1,488,84.59a8.53,8.53,0,0,1-4.06.93,7.73,7.73,0,0,1-4.61-1.33,12.68,12.68,0,0,1-3.21-3.35c-.89-1.36-2.11-3.35-3.64-6L466,63.69a62.39,62.39,0,0,0-6.28-9.37,15.65,15.65,0,0,0-5.63-4.4A18.84,18.84,0,0,0,446.86,48.74ZM456.18,14h-15V36.72h14.59a39.63,39.63,0,0,0,9.88-1,11.57,11.57,0,0,0,6.12-3.55,10.47,10.47,0,0,0,2.11-6.91,10.94,10.94,0,0,0-1.7-6.07,10.41,10.41,0,0,0-4.72-3.92Q464.58,14,456.18,14Z"/><path class="cls-1" d="M557.24,74.75,553.4,64.37H520.7L516.86,75A37.66,37.66,0,0,1,513,83.35q-1.59,2.18-5.21,2.17a7.53,7.53,0,0,1-5.43-2.31A7.14,7.14,0,0,1,500,78a11.91,11.91,0,0,1,.55-3.5c.36-1.2,1-2.87,1.81-5L523,15.74c.58-1.54,1.29-3.39,2.11-5.56a27.92,27.92,0,0,1,2.64-5.39,10.78,10.78,0,0,1,3.67-3.46,11.3,11.3,0,0,1,15,3.41,24.5,24.5,0,0,1,2.36,4.48q1,2.4,2.44,6.41l21,53.36c1.65,4.06,2.47,7,2.47,8.86a7.43,7.43,0,0,1-2.33,5.27,7.56,7.56,0,0,1-5.62,2.4,7.15,7.15,0,0,1-3.3-.71,6.75,6.75,0,0,1-2.3-1.91,17.69,17.69,0,0,1-2-3.73C558.36,77.5,557.75,76,557.24,74.75ZM525,51.79h24L536.88,17.66Z"/><path class="cls-1" d="M613.75,71.64,600.85,19V76q0,4.74-2.05,7.11a7.41,7.41,0,0,1-10.84,0q-2.09-2.34-2.08-7.14V10.61q0-5.41,2.74-7.31A12.87,12.87,0,0,1,596,1.41h5a18.67,18.67,0,0,1,6.62.85,5.62,5.62,0,0,1,3,3A48.1,48.1,0,0,1,613,12.47l11.69,45.3,11.68-45.3A48.1,48.1,0,0,1,638.6,5.3a5.61,5.61,0,0,1,3-3,18.57,18.57,0,0,1,6.61-.85h5a12.87,12.87,0,0,1,7.41,1.89q2.74,1.89,2.74,7.31V76q0,4.74-2.05,7.11a7,7,0,0,1-5.52,2.37,6.77,6.77,0,0,1-5.32-2.37q-2.09-2.37-2.08-7.11V19l-12.9,52.69q-1.26,5.14-2.05,7.53a10.42,10.42,0,0,1-2.94,4.38,8.43,8.43,0,0,1-5.92,2,8.69,8.69,0,0,1-4.83-1.27A9.17,9.17,0,0,1,616.76,81,19,19,0,0,1,615,76.64Q614.41,74.24,613.75,71.64Z"/><g id="INSTA"><line class="cls-2" x1="690.93" y1="84.11" x2="746.18" y2="27.31"/><path class="cls-3" d="M750.85,36a13.11,13.11,0,1,1-26.21,0,13.11,13.11,0,1,1,26.21,0Z"/></g></g></g></g></svg>