<svg xmlns="http://www.w3.org/2000/svg" viewBox="0 0 199.92 792.85"><defs><style>.cls-1{opacity:0.7;}.cls-2{fill:none;stroke:#fff;stroke-miterlimit:10;stroke-width:0.5px;}.cls-3{opacity:0.3;}.cls-4{fill:#fff;}</style></defs><g id="레이어_2" data-name="레이어 2"><g id="메인_홍보" data-name="메인 홍보"><g class="cls-1"><path class="cls-2" d="M120.26,64.05V43.34L151.2,25.68V18.83H120.26V.25H198.5V30a56.38,56.38,0,0,1-1.13,11.51A26.12,26.12,0,0,1,193.51,51a19.6,19.6,0,0,1-7.33,6.38,24.87,24.87,0,0,1-11.42,2.35q-9.45,0-14.61-3.93a20.52,20.52,0,0,1-7.24-11Zm54.45-22.93a8.81,8.81,0,0,0,4.3-.93,7.38,7.38,0,0,0,2.62-2.35,8.49,8.49,0,0,0,1.26-3.29,21.92,21.92,0,0,0,.32-3.7v-12H166.48v12a24.16,24.16,0,0,0,.28,3.7,8.39,8.39,0,0,0,1.17,3.29,7,7,0,0,0,2.49,2.35A8.43,8.43,0,0,0,174.71,41.12Z"/><path class="cls-2" d="M147.15,131.64a31.16,31.16,0,0,1-10.74-1.85,23.7,23.7,0,0,1-8.91-5.73,27.86,27.86,0,0,1-6.07-9.94,41.86,41.86,0,0,1-2.24-14.47,41.5,41.5,0,0,1,2.24-14.43,27.9,27.9,0,0,1,6.07-9.89,23.37,23.37,0,0,1,8.91-5.69,31.86,31.86,0,0,1,10.74-1.8H198.5V86.43h-49q-8.1,0-11.57,3t-3.47,10.17q0,7.21,3.47,10.31t11.57,3.09h49v18.59Z"/><path class="cls-2" d="M120.26,208.48V189l47.48-28.57H120.26V141.81H198.5v19.42l-47.57,28.66H198.5v18.59Z"/><path class="cls-2" d="M198.5,332.1l-78.24-15.54V297.15L169.09,285l-48.83-12.11V253.5l78.24-15.44v17.76l-47.39,8.41,46.49,11.28v19.14l-46.49,11.28,47.39,8.32Z"/><path class="cls-2" d="M120.26,356.69V338.1H198.5v18.59Z"/><path class="cls-2" d="M183.21,425.2v-22H120.26V384.61h63V362.7H198.5v62.5Z"/><path class="cls-2" d="M120.26,496.12V477.54h32.56V450.26H120.26V431.68H198.5v18.58H167.83v27.28H198.5v18.58Z"/><path class="cls-2" d="M143.1,590a22.34,22.34,0,0,1-10.34-2.31,21,21,0,0,1-7.51-6.52,31,31,0,0,1-4.58-10.08,50.05,50.05,0,0,1-1.57-13,40.09,40.09,0,0,1,1.7-11.93,26.9,26.9,0,0,1,5.26-9.57,26.48,26.48,0,0,1,9-6.65,39.57,39.57,0,0,1,12.9-3.29v18.68q-6.66.56-10.12,3.51t-3.46,9.34a38.55,38.55,0,0,0,.32,5,13.49,13.49,0,0,0,1.17,4.16,6.88,6.88,0,0,0,2.47,2.82,7.57,7.57,0,0,0,4.22,1.06q2.79,0,4.64-3.05a32.12,32.12,0,0,0,3.19-8q1.26-4.64,3.06-9.94a44.66,44.66,0,0,1,4.72-9.9,27.29,27.29,0,0,1,7.19-7.63,17.59,17.59,0,0,1,10.48-3,22.75,22.75,0,0,1,10.52,2.31,21.44,21.44,0,0,1,7.46,6.29,27.18,27.18,0,0,1,4.41,9.34,45.32,45.32,0,0,1,.22,21.78,25.12,25.12,0,0,1-4.22,9.1,25.74,25.74,0,0,1-8,6.94,32.2,32.2,0,0,1-12.54,3.7V570.92q6.38-.74,9-3.93a12.34,12.34,0,0,0,2.61-8.09c0-3.82-.83-6.48-2.47-8a9,9,0,0,0-6.34-2.27,6.2,6.2,0,0,0-5.4,2.68,23.39,23.39,0,0,0-3.15,7.4q-1.62,6.28-3.64,11.93a47.15,47.15,0,0,1-4.85,9.94,23.3,23.3,0,0,1-6.79,6.84A17.32,17.32,0,0,1,143.1,590Z"/><path class="cls-2" d="M183.21,653.68v-22H120.26V613.09h63V591.17H198.5v62.51Z"/><path class="cls-2" d="M120.26,724V703.24l30.94-17.66v-6.85H120.26V660.15H198.5v29.77a56.38,56.38,0,0,1-1.13,11.51,26.12,26.12,0,0,1-3.86,9.44,19.6,19.6,0,0,1-7.33,6.38,24.87,24.87,0,0,1-11.42,2.35q-9.45,0-14.61-3.93a20.52,20.52,0,0,1-7.24-10.95ZM174.71,701a8.81,8.81,0,0,0,4.3-.93,7.38,7.38,0,0,0,2.62-2.35,8.49,8.49,0,0,0,1.26-3.29,21.9,21.9,0,0,0,.32-3.69v-12H166.48v12a24.13,24.13,0,0,0,.28,3.69,8.39,8.39,0,0,0,1.17,3.29,7,7,0,0,0,2.49,2.35A8.43,8.43,0,0,0,174.71,701Z"/><path class="cls-2" d="M146.52,792.56A39.07,39.07,0,0,1,134,788.3a28.31,28.31,0,0,1-8.51-7.21,28.69,28.69,0,0,1-4.87-9.57,40.36,40.36,0,0,1-1.56-11.42,34.87,34.87,0,0,1,3.28-15.62,31.34,31.34,0,0,1,8.85-11A38.73,38.73,0,0,1,144.05,727a53,53,0,0,1,15.24-2.17A53.83,53.83,0,0,1,174.67,727a38.73,38.73,0,0,1,12.86,6.52,31.34,31.34,0,0,1,8.85,11,34.87,34.87,0,0,1,3.29,15.62,40.71,40.71,0,0,1-1.53,11.38,27,27,0,0,1-13,16.45A38.34,38.34,0,0,1,173,792.09v-19q6.21-1,8.81-4.12t2.61-8.64a14.34,14.34,0,0,0-8.2-14,24.74,24.74,0,0,0-8.11-2.36,72,72,0,0,0-8.82-.55,69.89,69.89,0,0,0-8.74.55,24.27,24.27,0,0,0-8,2.36,14.41,14.41,0,0,0-8.15,14q0,5.64,2.79,8.83t9.35,4.48Z"/></g><g class="cls-3"><path class="cls-4" d="M2.88,263.77V244.26l47.48-28.57H2.88V197.11H81.11v19.41L33.54,245.19H81.11v18.58Z"/><path class="cls-4" d="M41.9,341.81a52.72,52.72,0,0,1-15.24-2.17,38.68,38.68,0,0,1-12.81-6.52,31.22,31.22,0,0,1-8.86-11,38.86,38.86,0,0,1,0-31.25,31.26,31.26,0,0,1,8.86-11,38.68,38.68,0,0,1,12.81-6.52,53.07,53.07,0,0,1,15.24-2.17,53.83,53.83,0,0,1,15.38,2.17,38.64,38.64,0,0,1,12.86,6.52,31.26,31.26,0,0,1,8.86,11,38.86,38.86,0,0,1,0,31.25,31.22,31.22,0,0,1-8.86,11,38.64,38.64,0,0,1-12.86,6.52A53.48,53.48,0,0,1,41.9,341.81Zm0-18.58a67,67,0,0,0,8.83-.6,26.58,26.58,0,0,0,8.1-2.36A14.16,14.16,0,0,0,67,306.49c0-3.64-.76-6.53-2.29-8.69a15.77,15.77,0,0,0-5.91-5,24.75,24.75,0,0,0-8.1-2.36,72.29,72.29,0,0,0-8.83-.55,70,70,0,0,0-8.74.55,24.21,24.21,0,0,0-8,2.36,15.85,15.85,0,0,0-5.86,5C17.76,300,17,302.85,17,306.49a15,15,0,0,0,2.29,8.69,15.2,15.2,0,0,0,5.86,5.09,26,26,0,0,0,8,2.36A64.84,64.84,0,0,0,41.86,323.23Z"/><path class="cls-4" d="M2.88,427.71V373.9H81.11v18.58H18.16v35.23Z"/><path class="cls-4" d="M2.88,452.3V433.72H81.11V452.3Z"/><path class="cls-4" d="M2.88,542.64V524.33h43.7L3.87,510.92V493.63l42.8-13.31H2.88V462H81.11v23.3l-53,17,53,16.92v23.4Z"/><path class="cls-4" d="M2.88,570.93V552.34H81.11v18.59Z"/><path class="cls-4" d="M65.82,639.44v-22H2.88V598.85H65.82V576.94H81.11v62.5Z"/><path class="cls-4" d="M0,668.85V649.71H16.37v19.14Zm84.17.27L26.08,666.9V651.56l58.09-2.41Z"/></g><g class="cls-1"><path class="cls-2" d="M8.26,268V248.46l47.48-28.57H8.26V201.3H86.49v19.42L38.92,249.38H86.49V268Z"/><path class="cls-2" d="M47.29,346A52.74,52.74,0,0,1,32,343.83a38.77,38.77,0,0,1-12.81-6.52,31.22,31.22,0,0,1-8.86-11,38.86,38.86,0,0,1,0-31.25,31.26,31.26,0,0,1,8.86-11A39,39,0,0,1,32,277.53a53.08,53.08,0,0,1,15.25-2.17,53.76,53.76,0,0,1,15.37,2.17,38.82,38.82,0,0,1,12.86,6.52,31.26,31.26,0,0,1,8.86,11,38.86,38.86,0,0,1,0,31.25,31.22,31.22,0,0,1-8.86,11,38.64,38.64,0,0,1-12.86,6.52A53.41,53.41,0,0,1,47.29,346Zm0-18.58a66.85,66.85,0,0,0,8.83-.6,26.44,26.44,0,0,0,8.11-2.36,14.19,14.19,0,0,0,8.2-13.78,14.76,14.76,0,0,0-2.3-8.69,15.74,15.74,0,0,0-5.9-5,24.88,24.88,0,0,0-8.11-2.36,72.17,72.17,0,0,0-8.83-.55,70,70,0,0,0-8.74.55,24.21,24.21,0,0,0-8,2.36,15.93,15.93,0,0,0-5.86,5q-2.3,3.24-2.29,8.69a15,15,0,0,0,2.29,8.69,15.27,15.27,0,0,0,5.86,5.09,25.73,25.73,0,0,0,8,2.36A64.84,64.84,0,0,0,47.24,327.42Z"/><path class="cls-2" d="M8.26,431.9V378.09H86.49v18.58H23.55V431.9Z"/><path class="cls-2" d="M8.26,456.49V437.91H86.49v18.58Z"/><path class="cls-2" d="M8.26,546.83V528.52H52L9.25,515.11V497.82l42.8-13.31H8.26V466.2H86.49v23.3l-53,17,53,16.92v23.39Z"/><path class="cls-2" d="M8.26,575.12V556.54H86.49v18.58Z"/><path class="cls-2" d="M71.21,643.64v-22H8.26V603h63V581.13H86.49v62.51Z"/><path class="cls-2" d="M5.38,673V653.9H21.75V673Zm84.17.27L31.46,671.1V655.75l58.09-2.41Z"/></g></g></g></svg>