<svg xmlns="http://www.w3.org/2000/svg" viewBox="0 0 385.21 42.78"><defs><style>.cls-1{fill:#fff;}</style></defs><g id="레이어_2" data-name="레이어 2"><g id="메인_홍보" data-name="메인 홍보"><g id="_7page" data-name="7page"><g id="contact_me" data-name="contact me"><path class="cls-1" d="M35.87,29a11.31,11.31,0,0,1-.95,4.27,15.44,15.44,0,0,1-8.16,8.11,18.1,18.1,0,0,1-7.36,1.39,25.26,25.26,0,0,1-5.79-.62A15.54,15.54,0,0,1,5,36.77a20.69,20.69,0,0,1-2.72-4.36A23.56,23.56,0,0,1,.56,27.26,29.25,29.25,0,0,1,0,21.44,26.5,26.5,0,0,1,1.41,12.5,19.12,19.12,0,0,1,5.46,5.74a17.73,17.73,0,0,1,6.18-4.27A19.45,19.45,0,0,1,19.18,0a18.48,18.48,0,0,1,8.7,2,16,16,0,0,1,5.85,5,10,10,0,0,1,2,5.57,3.7,3.7,0,0,1-1,2.54,3.12,3.12,0,0,1-2.39,1.1A3.26,3.26,0,0,1,30,15.41a10.43,10.43,0,0,1-1.75-2.63,12.62,12.62,0,0,0-3.74-4.6,9,9,0,0,0-5.31-1.52,9.53,9.53,0,0,0-8,3.92q-3,3.93-3,11.15a21.14,21.14,0,0,0,1.32,8,10.12,10.12,0,0,0,3.73,4.79A10.1,10.1,0,0,0,19,36.12a9.76,9.76,0,0,0,5.94-1.79,10.88,10.88,0,0,0,3.67-5.27,8.56,8.56,0,0,1,1.29-2.66,2.86,2.86,0,0,1,2.47-1,3.4,3.4,0,0,1,2.49,1A3.52,3.52,0,0,1,35.87,29Z"/><path class="cls-1" d="M60.89,0A21,21,0,0,1,71.64,2.61,16.74,16.74,0,0,1,78.43,10a25.88,25.88,0,0,1,2.31,11.3,28.38,28.38,0,0,1-1.27,8.72,19,19,0,0,1-3.78,6.8,16.48,16.48,0,0,1-6.21,4.4,21.76,21.76,0,0,1-8.42,1.53,21.51,21.51,0,0,1-8.45-1.57,16.57,16.57,0,0,1-6.23-4.42,18.83,18.83,0,0,1-3.78-6.85,28.42,28.42,0,0,1-1.27-8.66,27.36,27.36,0,0,1,1.33-8.75,19,19,0,0,1,3.85-6.77,16.72,16.72,0,0,1,6.15-4.28A21.56,21.56,0,0,1,60.89,0ZM72.48,21.28a19.94,19.94,0,0,0-1.43-7.88,10.8,10.8,0,0,0-4.08-5,10.94,10.94,0,0,0-6.08-1.71,10.75,10.75,0,0,0-4.51.94,10,10,0,0,0-3.57,2.76A13.42,13.42,0,0,0,50.45,15a21.59,21.59,0,0,0-.86,6.31,22.11,22.11,0,0,0,.86,6.37,13.15,13.15,0,0,0,2.45,4.73,10.21,10.21,0,0,0,3.62,2.81,11.15,11.15,0,0,0,10.23-.68,11,11,0,0,0,4.17-5A19.54,19.54,0,0,0,72.48,21.28Z"/><path class="cls-1" d="M98.33,5,114,29.4V4.8a5.5,5.5,0,0,1,1-3.6A3.33,3.33,0,0,1,117.7,0a3.44,3.44,0,0,1,2.77,1.2,5.44,5.44,0,0,1,1,3.6V37.33c0,3.63-1.47,5.45-4.39,5.45a5.59,5.59,0,0,1-2-.33,5,5,0,0,1-1.65-1,10.06,10.06,0,0,1-1.42-1.65c-.44-.63-.88-1.27-1.32-1.93L95.44,13.74V38a5.21,5.21,0,0,1-1.07,3.58,3.71,3.71,0,0,1-5.51,0,5.35,5.35,0,0,1-1-3.57V6.07a9.35,9.35,0,0,1,.43-3.19A4.58,4.58,0,0,1,90,.8,4.69,4.69,0,0,1,92.59,0a4.32,4.32,0,0,1,1.88.37,4.46,4.46,0,0,1,1.37,1A9.9,9.9,0,0,1,97.05,3Z"/><path class="cls-1" d="M156.53,7.62h-8.89V37.67a5.64,5.64,0,0,1-1.13,3.85,3.71,3.71,0,0,1-2.9,1.26,3.78,3.78,0,0,1-3-1.27,5.61,5.61,0,0,1-1.14-3.84v-30h-8.89a4.43,4.43,0,0,1-3.11-1,3.26,3.26,0,0,1-1-2.49,3.18,3.18,0,0,1,1.06-2.54,4.48,4.48,0,0,1,3.06-.93h25.9a4.5,4.5,0,0,1,3.14,1,3.27,3.27,0,0,1,1,2.52,3.22,3.22,0,0,1-1,2.49A4.54,4.54,0,0,1,156.53,7.62Z"/><path class="cls-1" d="M187.73,37.39l-1.92-5.19H169.46l-1.92,5.3a18.18,18.18,0,0,1-1.93,4.19,3,3,0,0,1-2.6,1.09,3.78,3.78,0,0,1-2.72-1.16A3.58,3.58,0,0,1,159.11,39a5.76,5.76,0,0,1,.28-1.75c.18-.6.48-1.44.9-2.51L170.58,7.87c.29-.77.65-1.69,1.06-2.78A13.76,13.76,0,0,1,173,2.4,5.36,5.36,0,0,1,174.79.66a5.65,5.65,0,0,1,7.5,1.71,12.57,12.57,0,0,1,1.18,2.24c.32.8.72,1.87,1.22,3.21L195.2,34.51a13.76,13.76,0,0,1,1.23,4.43,3.74,3.74,0,0,1-1.16,2.64,3.8,3.8,0,0,1-2.82,1.2,3.41,3.41,0,0,1-2.8-1.31,9.29,9.29,0,0,1-1-1.87C188.3,38.77,188,38,187.73,37.39ZM171.6,25.9h12L177.55,8.83Z"/><path class="cls-1" d="M235.29,29a11.12,11.12,0,0,1-.95,4.27,15.34,15.34,0,0,1-8.16,8.11,18,18,0,0,1-7.35,1.39,25.14,25.14,0,0,1-5.79-.62,15.52,15.52,0,0,1-8.65-5.39,20.69,20.69,0,0,1-2.72-4.36A23,23,0,0,1,200,27.26a28.51,28.51,0,0,1-.57-5.82,26.25,26.25,0,0,1,1.42-8.94,19.24,19.24,0,0,1,4-6.76,17.73,17.73,0,0,1,6.18-4.27A19.46,19.46,0,0,1,218.61,0a18.54,18.54,0,0,1,8.7,2,15.85,15.85,0,0,1,5.84,5,10,10,0,0,1,2,5.57,3.7,3.7,0,0,1-1,2.54,3.1,3.1,0,0,1-2.38,1.1,3.27,3.27,0,0,1-2.35-.76,10.73,10.73,0,0,1-1.74-2.63A12.54,12.54,0,0,0,224,8.18a9,9,0,0,0-5.31-1.52,9.54,9.54,0,0,0-8,3.92q-3,3.93-3,11.15a21.14,21.14,0,0,0,1.32,8,9.54,9.54,0,0,0,9.39,6.37,9.76,9.76,0,0,0,5.94-1.79A10.8,10.8,0,0,0,228,29.06a9,9,0,0,1,1.29-2.66,2.87,2.87,0,0,1,2.47-1,3.44,3.44,0,0,1,2.5,1A3.55,3.55,0,0,1,235.29,29Z"/><path class="cls-1" d="M268.74,7.62h-8.89V37.67a5.64,5.64,0,0,1-1.12,3.85,3.72,3.72,0,0,1-2.91,1.26,3.8,3.8,0,0,1-2.95-1.27,5.61,5.61,0,0,1-1.14-3.84v-30h-8.89a4.41,4.41,0,0,1-3.1-1,3.23,3.23,0,0,1-1-2.49,3.18,3.18,0,0,1,1.06-2.54,4.48,4.48,0,0,1,3.06-.93h25.9a4.55,4.55,0,0,1,3.15,1,3.3,3.3,0,0,1,1,2.52,3.18,3.18,0,0,1-1,2.49A4.52,4.52,0,0,1,268.74,7.62Z"/><path class="cls-1" d="M305.38,35.84,298.93,9.48V38a5.26,5.26,0,0,1-1,3.55,3.7,3.7,0,0,1-5.42,0,5.27,5.27,0,0,1-1-3.57V5.3c0-1.8.46-3,1.37-3.65a6.42,6.42,0,0,1,3.7-.94H299a9.48,9.48,0,0,1,3.31.42,2.83,2.83,0,0,1,1.52,1.52A24.29,24.29,0,0,1,305,6.24l5.85,22.65,5.84-22.65a25.29,25.29,0,0,1,1.13-3.59,2.83,2.83,0,0,1,1.52-1.52,9.48,9.48,0,0,1,3.31-.42h2.52a6.45,6.45,0,0,1,3.71.94c.91.63,1.37,1.85,1.37,3.65V38a5.26,5.26,0,0,1-1,3.55,3.46,3.46,0,0,1-2.76,1.19,3.39,3.39,0,0,1-2.66-1.19,5.26,5.26,0,0,1-1-3.55V9.48L316.3,35.84c-.42,1.71-.76,3-1,3.76a5.12,5.12,0,0,1-1.47,2.19,4.19,4.19,0,0,1-3,1,4.35,4.35,0,0,1-2.42-.64,4.48,4.48,0,0,1-1.53-1.62,9.27,9.27,0,0,1-.87-2.19C305.81,37.53,305.6,36.7,305.38,35.84Z"/><path class="cls-1" d="M365.12,7.17H346.76V17.33h16.91a3.91,3.91,0,0,1,2.78.86,3,3,0,0,1,.92,2.27,3.1,3.1,0,0,1-.9,2.3,3.89,3.89,0,0,1-2.8.89H346.76V35.41h19a4.1,4.1,0,0,1,2.9.92,3.18,3.18,0,0,1,1,2.44,3.11,3.11,0,0,1-1,2.38,4.06,4.06,0,0,1-2.9.92H343.61a5.13,5.13,0,0,1-3.83-1.21,5.52,5.52,0,0,1-1.17-3.92V5.84a7.29,7.29,0,0,1,.52-2.95,3.28,3.28,0,0,1,1.64-1.66,6.64,6.64,0,0,1,2.84-.52h21.51a4.14,4.14,0,0,1,2.9.88A3.06,3.06,0,0,1,369,3.92,3.08,3.08,0,0,1,368,6.28,4.14,4.14,0,0,1,365.12,7.17Z"/><path class="cls-1" d="M378.05,24.15l-.88-13.51C377,8,376.92,6.11,376.92,5a5.27,5.27,0,0,1,1.19-3.66A4.08,4.08,0,0,1,381.26,0a3.14,3.14,0,0,1,3.15,1.68,11.64,11.64,0,0,1,.8,4.84c0,1.24-.07,2.5-.19,3.78l-1.18,13.91A11.16,11.16,0,0,1,383,28a2.15,2.15,0,0,1-2.08,1.33,2.07,2.07,0,0,1-2.06-1.29A13.05,13.05,0,0,1,378.05,24.15Zm3,18.57a4.26,4.26,0,0,1-2.92-1.11,4,4,0,0,1-1.25-3.12,4.14,4.14,0,0,1,1.19-3A3.93,3.93,0,0,1,381,34.28,4,4,0,0,1,384,35.51a4.08,4.08,0,0,1,1.22,3,4,4,0,0,1-1.24,3.1A4.14,4.14,0,0,1,381.09,42.72Z"/></g></g></g></g></svg>