<svg xmlns="http://www.w3.org/2000/svg" viewBox="0 0 775.91 85.52"><defs><style>.cls-1{fill:#fff;}.cls-2{fill:none;}.cls-2,.cls-3{stroke:#f15a24;}.cls-3{fill:#f15a24;}</style></defs><g id="레이어_2" data-name="레이어 2"><g id="메인_홍보" data-name="메인 홍보"><g id="_8page" data-name="8page"><path class="cls-1" d="M16.29,10.15v29l32-34.3A30.22,30.22,0,0,1,52.2,1.18,7.22,7.22,0,0,1,56.51,0a7.8,7.8,0,0,1,5.68,2.12,7,7,0,0,1,2.16,5.16c0,2.44-1.22,4.87-3.67,7.27L40.87,33.85,63.7,67.47a43.49,43.49,0,0,1,3.62,6.12,12.23,12.23,0,0,1,1.2,5.1,6.42,6.42,0,0,1-2.11,4.8,7.94,7.94,0,0,1-5.73,2A9.42,9.42,0,0,1,55.14,84a12.52,12.52,0,0,1-3.62-4c-1-1.66-1.87-3.16-2.64-4.52L29.63,45.07,16.29,58.22V75.31c0,3.46-.76,6-2.3,7.7a7.7,7.7,0,0,1-5.93,2.51,7.8,7.8,0,0,1-4-1.13,7.79,7.79,0,0,1-3-3,9.86,9.86,0,0,1-.93-3.67c-.12-1.39-.17-3.4-.17-6V10.15Q0,5.08,2.17,2.54A7.35,7.35,0,0,1,8.06,0a7.69,7.69,0,0,1,6,2.51C15.54,4.18,16.29,6.73,16.29,10.15Z"/><path class="cls-1" d="M134.52,74.75l-3.84-10.38H98L94.14,75a37.66,37.66,0,0,1-3.84,8.38c-1.06,1.45-2.79,2.17-5.21,2.17a7.53,7.53,0,0,1-5.43-2.31A7.18,7.18,0,0,1,77.3,78a11.91,11.91,0,0,1,.55-3.5q.56-1.8,1.81-5l20.57-53.7,2.12-5.56A28.53,28.53,0,0,1,105,4.79a10.81,10.81,0,0,1,3.68-3.46A10.92,10.92,0,0,1,114.28,0,11.08,11.08,0,0,1,120,1.33a11,11,0,0,1,3.67,3.41A23.9,23.9,0,0,1,126,9.22c.64,1.6,1.46,3.74,2.44,6.41l21,53.36c1.64,4.06,2.47,7,2.47,8.86a7.4,7.4,0,0,1-2.34,5.27,7.55,7.55,0,0,1-5.62,2.4,7.1,7.1,0,0,1-3.29-.71,6.79,6.79,0,0,1-2.31-1.91,17.69,17.69,0,0,1-2-3.73C135.65,77.5,135,76,134.52,74.75Zm-32.26-23h24L114.17,17.66Z"/><path class="cls-1" d="M180.28,10.15v29l32-34.3a30.19,30.19,0,0,1,3.93-3.67A7.16,7.16,0,0,1,220.49,0a7.78,7.78,0,0,1,5.68,2.12,6.92,6.92,0,0,1,2.17,5.16c0,2.44-1.23,4.87-3.68,7.27l-19.8,19.3,22.82,33.62a41.62,41.62,0,0,1,3.62,6.12,12.25,12.25,0,0,1,1.21,5.1,6.46,6.46,0,0,1-2.11,4.8,8,8,0,0,1-5.74,2,9.44,9.44,0,0,1-5.54-1.5,12.75,12.75,0,0,1-3.62-4c-1-1.66-1.87-3.16-2.63-4.52L193.61,45.07,180.28,58.22V75.31q0,5.19-2.31,7.7a7.68,7.68,0,0,1-5.92,2.51,8.12,8.12,0,0,1-7-4.17,10.26,10.26,0,0,1-.93-3.67q-.17-2.09-.17-6V10.15c0-3.38.73-5.92,2.17-7.61A7.37,7.37,0,0,1,172.05,0,7.67,7.67,0,0,1,178,2.51Q180.28,5,180.28,10.15Z"/><path class="cls-1" d="M298.51,74.75l-3.84-10.38H262L258.13,75a37.66,37.66,0,0,1-3.84,8.38q-1.59,2.18-5.21,2.17a7.53,7.53,0,0,1-5.43-2.31A7.14,7.14,0,0,1,241.29,78a12.22,12.22,0,0,1,.54-3.5c.37-1.2,1-2.87,1.82-5l20.57-53.7c.58-1.54,1.29-3.39,2.11-5.56A28.53,28.53,0,0,1,269,4.79a10.9,10.9,0,0,1,3.68-3.46A11,11,0,0,1,278.26,0a11.08,11.08,0,0,1,5.68,1.33,11.06,11.06,0,0,1,3.68,3.41A24.5,24.5,0,0,1,290,9.22q1,2.4,2.44,6.41l21,53.36c1.65,4.06,2.47,7,2.47,8.86a7.43,7.43,0,0,1-2.33,5.27,7.57,7.57,0,0,1-5.63,2.4,7.13,7.13,0,0,1-3.29-.71,6.75,6.75,0,0,1-2.3-1.91,17.69,17.69,0,0,1-2-3.73C299.63,77.5,299,76,298.51,74.75Zm-32.26-23h24L278.15,17.66Z"/><path class="cls-1" d="M361.76,0q12.51,0,21.48,5.22a33.45,33.45,0,0,1,13.58,14.83q4.6,9.63,4.61,22.6a56.79,56.79,0,0,1-2.52,17.43,38,38,0,0,1-7.58,13.59,33,33,0,0,1-12.39,8.8,43.77,43.77,0,0,1-16.85,3,43.21,43.21,0,0,1-16.89-3.13,33.52,33.52,0,0,1-12.46-8.83,38,38,0,0,1-7.54-13.71,56.79,56.79,0,0,1-2.55-17.32,54.64,54.64,0,0,1,2.66-17.48A37.55,37.55,0,0,1,333,11.51,33.25,33.25,0,0,1,345.31,3,43.19,43.19,0,0,1,361.76,0Zm23.16,42.53a39.73,39.73,0,0,0-2.86-15.73,21.7,21.7,0,0,0-8.14-10.07,21.91,21.91,0,0,0-12.16-3.42,21.47,21.47,0,0,0-9,1.89,19.94,19.94,0,0,0-7.13,5.5,26.47,26.47,0,0,0-4.72,9.23,42.79,42.79,0,0,0-1.73,12.6,43.84,43.84,0,0,0,1.73,12.75,26.38,26.38,0,0,0,4.88,9.45A20.72,20.72,0,0,0,353,70.35,22.32,22.32,0,0,0,373.48,69a22.06,22.06,0,0,0,8.34-9.93Q384.91,52.36,384.92,42.53Z"/><path class="cls-1" d="M463.31,15.23H445.54V75.31q0,5.19-2.25,7.7a7.47,7.47,0,0,1-5.82,2.51A7.54,7.54,0,0,1,431.58,83q-2.28-2.53-2.28-7.67V15.23H411.52q-4.17,0-6.19-1.89a6.48,6.48,0,0,1-2-5,6.43,6.43,0,0,1,2.12-5.08,9,9,0,0,1,6.11-1.86h51.79c2.82,0,4.91.64,6.29,1.92a6.54,6.54,0,0,1,2,5,6.4,6.4,0,0,1-2.08,5Q467.49,15.23,463.31,15.23Z"/><path class="cls-1" d="M525.69,74.75l-3.84-10.38h-32.7L485.31,75a37.66,37.66,0,0,1-3.84,8.38c-1.06,1.45-2.79,2.17-5.21,2.17a7.53,7.53,0,0,1-5.43-2.31A7.18,7.18,0,0,1,468.47,78a11.91,11.91,0,0,1,.55-3.5q.56-1.8,1.81-5l20.57-53.7,2.12-5.56a28.53,28.53,0,0,1,2.63-5.39,10.81,10.81,0,0,1,3.68-3.46A10.92,10.92,0,0,1,505.45,0a11.08,11.08,0,0,1,5.68,1.33,11,11,0,0,1,3.67,3.41,23.9,23.9,0,0,1,2.36,4.48c.64,1.6,1.46,3.74,2.44,6.41l21,53.36c1.64,4.06,2.46,7,2.46,8.86a7.39,7.39,0,0,1-2.33,5.27,7.55,7.55,0,0,1-5.62,2.4,7.1,7.1,0,0,1-3.29-.71,6.79,6.79,0,0,1-2.31-1.91,17.69,17.69,0,0,1-2-3.73C526.82,77.5,526.21,76,525.69,74.75Zm-32.26-23h24L505.34,17.66Z"/><path class="cls-1" d="M571,10.15v60.2h33a8.54,8.54,0,0,1,6.06,2,6.5,6.5,0,0,1,2.11,5,6.35,6.35,0,0,1-2.08,4.94Q608,84.11,604,84.11H564.7q-5.33,0-7.65-2.43c-1.56-1.61-2.33-4.23-2.33-7.84V10.15q0-5.07,2.22-7.61A7.4,7.4,0,0,1,562.78,0a7.67,7.67,0,0,1,6,2.51Q571,5,571,10.15Z"/><path class="cls-1" d="M639.31,10.15v29l32-34.3a29.58,29.58,0,0,1,3.92-3.67A7.22,7.22,0,0,1,679.53,0a7.8,7.8,0,0,1,5.68,2.12,7,7,0,0,1,2.16,5.16c0,2.44-1.22,4.87-3.67,7.27l-19.81,19.3,22.82,33.62a42.72,42.72,0,0,1,3.63,6.12,12.23,12.23,0,0,1,1.2,5.1,6.42,6.42,0,0,1-2.11,4.8,7.94,7.94,0,0,1-5.73,2,9.42,9.42,0,0,1-5.54-1.5,12.52,12.52,0,0,1-3.62-4c-1-1.66-1.87-3.16-2.64-4.52L652.65,45.07,639.31,58.22V75.31c0,3.46-.76,6-2.3,7.7a7.7,7.7,0,0,1-5.93,2.51,8.12,8.12,0,0,1-7-4.17,10.06,10.06,0,0,1-.94-3.67q-.16-2.09-.16-6V10.15q0-5.07,2.17-7.61A7.35,7.35,0,0,1,631.08,0a7.69,7.69,0,0,1,6,2.51Q639.3,5,639.31,10.15Z"/><g id="KAKAO"><line class="cls-2" x1="715.49" y1="84.21" x2="770.73" y2="27.41"/><path class="cls-3" d="M775.41,36.05a13.12,13.12,0,1,1-26.22,0,13.11,13.11,0,1,1,26.22,0Z"/></g></g></g></g></svg>