<svg xmlns="http://www.w3.org/2000/svg" viewBox="0 0 51.48 53.95"><defs><style>.cls-1{fill:none;}.cls-2{fill:#fff;}</style></defs><g id="레이어_2" data-name="레이어 2"><g id="레이어_1-2" data-name="레이어 1"><g id="카카오"><path d="M25.73,8.24c-13.42,0-24.3,8.16-24.3,18.23,0,4.94,2.64,9.4,6.89,12.68a8.59,8.59,0,0,1-5.87,6.56c6.93,0,9.41-1.48,11.84-3.18a30.76,30.76,0,0,0,11.45,2.16c13.42,0,24.3-8.16,24.3-18.23S39.16,8.24,25.73,8.24Z"/><rect class="cls-1" width="51.48" height="53.95"/><path class="cls-2" d="M10,27.05l3.52,5H12.32l-3-4.3L8,29v3H7V20.7H8v7.07L11.92,24h1.36Z"/><path class="cls-2" d="M17.28,32.15a2.82,2.82,0,0,1-1.87-.61,2.12,2.12,0,0,1-.72-1.7v-.33a2,2,0,0,1,.72-1.6,3.2,3.2,0,0,1,2.13-.62h2.28v-.74a1.77,1.77,0,0,0-.49-1.36,2,2,0,0,0-1.43-.47,3.35,3.35,0,0,0-1.26.23,5.7,5.7,0,0,0-1.12.59L15,24.77a6.14,6.14,0,0,1,1.27-.68,4.28,4.28,0,0,1,1.63-.28,3.21,3.21,0,0,1,2.14.67,2.42,2.42,0,0,1,.77,1.91V32h-1v-1h0a2,2,0,0,1-.35.4,4,4,0,0,1-.55.37A4.08,4.08,0,0,1,17.28,32.15Zm2.53-4H17.55a2.08,2.08,0,0,0-1.41.39,1.3,1.3,0,0,0-.43,1v.24a1.42,1.42,0,0,0,.15.68,1.24,1.24,0,0,0,.4.45,1.88,1.88,0,0,0,.55.27,2.56,2.56,0,0,0,.62.07,3.34,3.34,0,0,0,.87-.11,3.6,3.6,0,0,0,.75-.34,2.1,2.1,0,0,0,.55-.52,1.35,1.35,0,0,0,.22-.77V28.15Z"/><path class="cls-2" d="M26.12,27.05l3.52,5H28.4l-3-4.3L24.1,29v3h-1V20.7h1v7.07L28,24h1.36Z"/><path class="cls-2" d="M33.36,32.15a2.82,2.82,0,0,1-1.87-.61,2.12,2.12,0,0,1-.72-1.7v-.33a2,2,0,0,1,.72-1.6,3.2,3.2,0,0,1,2.13-.62H35.9v-.74a1.77,1.77,0,0,0-.49-1.36A2,2,0,0,0,34,24.72a3.35,3.35,0,0,0-1.26.23,5.7,5.7,0,0,0-1.12.59l-.49-.77a6.14,6.14,0,0,1,1.27-.68A4.28,4.28,0,0,1,34,23.81a3.21,3.21,0,0,1,2.14.67,2.42,2.42,0,0,1,.77,1.91V32h-1v-1h0a2,2,0,0,1-.35.4,4,4,0,0,1-.55.37A4,4,0,0,1,33.36,32.15Zm2.53-4H33.63a2.08,2.08,0,0,0-1.41.39,1.3,1.3,0,0,0-.43,1v.24a1.42,1.42,0,0,0,.15.68,1.24,1.24,0,0,0,.4.45,1.88,1.88,0,0,0,.55.27,2.56,2.56,0,0,0,.62.07,3.34,3.34,0,0,0,.87-.11,3.6,3.6,0,0,0,.75-.34,2.1,2.1,0,0,0,.55-.52,1.35,1.35,0,0,0,.22-.77V28.15Z"/><path class="cls-2" d="M42.21,23.8a3.26,3.26,0,0,1,2.53,1,3.81,3.81,0,0,1,.9,2.71v1a3.85,3.85,0,0,1-.9,2.72,3.81,3.81,0,0,1-5.06,0,3.85,3.85,0,0,1-.9-2.72v-1a3.82,3.82,0,0,1,.9-2.72A3.26,3.26,0,0,1,42.21,23.8Zm0,7.45a2.24,2.24,0,0,0,1.76-.7,3.09,3.09,0,0,0,.64-2.14v-.88A3.06,3.06,0,0,0,44,25.39a2.56,2.56,0,0,0-3.52,0,3.11,3.11,0,0,0-.64,2.14v.88a3,3,0,0,0,.64,2.14A2.25,2.25,0,0,0,42.21,31.25Z"/></g></g></g></svg>