<svg xmlns="http://www.w3.org/2000/svg" viewBox="0 0 348.93 304.46"><defs><style>.cls-1,.cls-3{fill:#fff;}.cls-2{fill:#1b1464;}.cls-3{isolation:isolate;font-size:28px;font-family:NanumBrush, Nanum Brush Script;letter-spacing:0.03em;}</style></defs><g id="레이어_2" data-name="레이어 2"><g id="레이어_1-2" data-name="레이어 1"><g id="_7page" data-name="7page"><g id="contact_me" data-name="contact me"><g id="사진"><path class="cls-1" d="M348.93,148.39C348.93,66.44,284.32,0,204.62,0c-45.8,0-86.61,21.94-113,56.15-30,7.59-52.32,35.44-52.32,68.66a71.35,71.35,0,0,0,24,53.67C76.8,246,134.94,296.77,204.61,296.77A140.54,140.54,0,0,0,273.1,279a52.52,52.52,0,0,0,21.55,4.61c29.8,0,54-24.84,54-55.48a56.45,56.45,0,0,0-8.21-29.42A151.61,151.61,0,0,0,348.93,148.39Z"/><path class="cls-2" d="M174,239.07l-140.5-.46A33.28,33.28,0,0,0,0,271.76c0,18.18,15.46,32.59,34.24,32.59l138.89.11c18.78,0,34.45-14.51,34.45-32.7S192.75,239.07,174,239.07Z"/><text class="cls-3" transform="translate(64.54 283.44)">이성혁</text></g></g></g></g></g></svg>