<svg xmlns="http://www.w3.org/2000/svg" viewBox="0 0 1918.74 125.16"><defs><style>.cls-1{fill:#d16319;}.cls-2{fill:#fff;}.cls-3,.cls-4{fill:none;stroke:#fff;stroke-miterlimit:10;}.cls-3{stroke-width:0.05px;}.cls-4{stroke-width:0.5px;}</style></defs><g id="레이어_2" data-name="레이어 2"><g id="메인_홍보" data-name="메인 홍보"><g id="_8page" data-name="8page"><g id="하단바"><rect id="하단바-2" data-name="하단바" class="cls-1" width="1918.74" height="125.16"/><g id="하단_로고" data-name="하단 로고"><path class="cls-2" d="M901.87,60.06l1.34-5.21H892.6l.1-.45,2.43-9.53a1.19,1.19,0,0,0,.07-.27h-2.08q-1.27,5-2.57,10c0,.17-.12.24-.28.22h-33.6l0,.11-.23.89h15.47c5,0,10.1,0,15.15,0a3.37,3.37,0,0,1,1.29.25,2.11,2.11,0,0,1,1.18,2.57q-.74,3-1.52,5.93c-.11.43-.24.87-.33,1.31,0,.15-.1.24-.27.21H856.82a4,4,0,0,1-1-.1,2.12,2.12,0,0,1-1.65-1.7l-.26,1a5.28,5.28,0,0,0-.1,1.81h33.52c-.17.58-.3,1.14-.44,1.71-.49,1.82-.95,3.65-1.4,5.48a4.11,4.11,0,0,1-3.88,3.06H850.84L849.5,82.6h34.28a6.68,6.68,0,0,0,6.32-5c.32-1.28.65-2.57,1-3.86l1.15-4.52a.19.19,0,0,0,0-.08c.09-.28.15-.55.22-.87l.57-2.18c.37-1.38.71-2.77,1.05-4.16a5.2,5.2,0,0,0,.12-1.87Z"/><path class="cls-2" d="M925.17,60.06l3.9-15.2a.38.38,0,0,1,.15-.26h-2c-.85,3.29-1.7,6.59-2.53,9.87-.08.27-.16.38-.47.38h-10c-.24,0-.34,0-.41.31-1,3.89-2,7.78-3,11.66-.87,3.41-1.73,6.83-2.61,10.23,0,.18-.06.31-.3.31H897.69l-1.29,5,3.16.16H910a2.78,2.78,0,0,0,2.75-2.24l0-.14c.86-3.36,1.7-6.73,2.57-10.07l1-4c.51-2,1-4,1.54-6h7.22Z"/><path class="cls-2" d="M988.65,69.44c-.43,1.66-.85,3.32-1.29,5a4,4,0,0,1-3.19,3,2.85,2.85,0,0,1-.71.07H954.64c0-.12,0-.23.05-.33.11-.38.2-.76.3-1.15l-9.21-11.83L945,67.39c2.63,3.34,5.21,6.66,7.82,10H942.38l-1.33,5.23h12.61v.06h32a5,5,0,0,0,1.26-.14A6.59,6.59,0,0,0,992,77.73c.31-1.18.6-2.36.91-3.52l1.77-7H989.2C989,68,988.82,68.73,988.65,69.44Z"/><path class="cls-2" d="M950.44,60.05h8.64q1.89-7.37,3.77-14.74l-.09-.06a5,5,0,0,0-2.55-.66H958.5a2.48,2.48,0,0,1,.87.29,2.08,2.08,0,0,1,1,2.28c-.26,1.22-.59,2.44-.91,3.66s-.63,2.43-.92,3.65c-.07.27-.17.35-.43.35H937.59c-.33,0-.46.08-.53.4L931.49,77c-.07.3-.18.38-.48.38-3.31,0-6.59,0-9.9,0H921l-.41,1.6c0,.13,0,.24-.08.36l-.68,3.26h13.37a2.94,2.94,0,0,0,2.93-2.32c.87-3.44,1.76-6.9,2.65-10.35l.11-.49c.8-3.13,1.61-6.26,2.4-9.39Z"/><path class="cls-2" d="M997.05,45.57a5,5,0,0,0-3-.91h-1.59a2.4,2.4,0,0,1,1,.41,2.22,2.22,0,0,1,.81,2.4c-.61,2.4-1.23,4.81-1.84,7.2,0,.15-.1.25-.28.21H971.4a.38.38,0,0,0-.45.36c-1,3.84-2,7.69-2.94,11.52,0,.13-.07.27-.11.42h5.43c.61-2.35,1.21-4.71,1.82-7.08h19.23A2.73,2.73,0,0,0,997,58l.78-3.06c.37-1.37.71-2.76,1.06-4.14A4.85,4.85,0,0,0,997.05,45.57Z"/><line class="cls-3" x1="894.54" y1="46.98" x2="926.52" y2="46.98"/><line class="cls-3" x1="893.91" y1="49.56" x2="925.89" y2="49.56"/><line class="cls-3" x1="893.09" y1="52.14" x2="925.37" y2="52.14"/><line class="cls-3" x1="900.06" y1="77.47" x2="906.33" y2="51.99"/><line class="cls-3" x1="902.82" y1="77.34" x2="908.61" y2="53.83"/><line class="cls-3" x1="905.51" y1="77.47" x2="911.19" y2="54.44"/><path class="cls-3" d="M911.19,54.44s.63-2.3,2.74-2.3"/><path class="cls-3" d="M908.46,54.44s.8-4.88,5.26-4.88"/><line class="cls-3" x1="892.62" y1="54.72" x2="924.6" y2="54.72"/><path class="cls-3" d="M906.33,52s1.23-5,8-5"/><line class="cls-3" x1="901.85" y1="59.61" x2="904.36" y2="49.45"/><path class="cls-3" d="M904.33,49.58s1.42-5.13,10.74-5.13"/><line class="cls-3" x1="895.21" y1="44.45" x2="892.6" y2="54.72"/><line class="cls-3" x1="898.05" y1="44.45" x2="895.44" y2="54.72"/><line class="cls-3" x1="927.19" y1="44.36" x2="924.58" y2="54.63"/><line class="cls-3" x1="924.35" y1="44.45" x2="921.74" y2="54.72"/><line class="cls-3" x1="927.79" y1="49.56" x2="959.77" y2="49.56"/><line class="cls-3" x1="926.97" y1="52.14" x2="959.25" y2="52.14"/><line class="cls-3" x1="926.5" y1="54.72" x2="958.48" y2="54.72"/><line class="cls-3" x1="923.51" y1="77.47" x2="929.79" y2="51.98"/><line class="cls-3" x1="926.25" y1="77.4" x2="932.06" y2="53.83"/><line class="cls-3" x1="928.97" y1="77.47" x2="934.64" y2="54.43"/><path class="cls-3" d="M934.64,54.43s.63-2.3,2.74-2.3"/><path class="cls-3" d="M931.91,54.43s.81-4.88,5.27-4.88"/><path class="cls-3" d="M929.79,52s1.23-5,8-5"/><path class="cls-3" d="M927.78,49.58s1.42-5.14,10.75-5.14"/><line class="cls-3" x1="943.84" y1="70.17" x2="949.44" y2="77.34"/><line class="cls-3" x1="943.02" y1="73.78" x2="945.9" y2="77.47"/><line class="cls-3" x1="958.21" y1="44.45" x2="955.6" y2="54.72"/><line class="cls-3" x1="962.4" y1="46.98" x2="994.38" y2="46.98"/><line class="cls-3" x1="961.77" y1="49.56" x2="993.74" y2="49.56"/><line class="cls-3" x1="960.94" y1="52.14" x2="993.22" y2="52.14"/><path class="cls-3" d="M957.87,44.43a2.72,2.72,0,0,1,2,.63A2,2,0,0,1,960.5,47H928.42"/><line class="cls-3" x1="966.79" y1="69.57" x2="984.26" y2="69.57"/><line class="cls-3" x1="966.11" y1="72.15" x2="983.66" y2="72.15"/><line class="cls-3" x1="964.47" y1="74.73" x2="983.01" y2="74.73"/><line class="cls-3" x1="966.3" y1="52.14" x2="962.64" y2="67.04"/><line class="cls-3" x1="963.82" y1="50.59" x2="959.43" y2="68.49"/><path class="cls-3" d="M966.94,69.57a1.62,1.62,0,0,1-1.46-2.25l3.2-13.22"/><path class="cls-3" d="M968.6,54.43s.28-2.29,3.25-2.29"/><path class="cls-3" d="M970.63,49.56a4.52,4.52,0,0,0-4.52,3.37"/><path class="cls-3" d="M966.3,72.15s-4.92,0-3.62-5.31"/><path class="cls-3" d="M963.82,50.59A6.36,6.36,0,0,1,969.74,47"/><path class="cls-3" d="M959.64,67.65s-1.85,7.08,5.51,7.08"/><line class="cls-3" x1="984.97" y1="67.02" x2="982.17" y2="77.32"/><path class="cls-2" d="M985.49,67.55l.71.2,0-.12.11,0,0,.12h0a.36.36,0,0,1,.27.47.42.42,0,0,1-.11.2l-.1-.07a.38.38,0,0,0,.09-.17c0-.16-.06-.24-.19-.28h0l-.13.5-.83-.23,0-.15.72.19.08-.34-.71-.2Z"/><path class="cls-2" d="M985.84,68.68l.23.06,0,.13-.14,0h0a.32.32,0,0,1,.08.33.31.31,0,0,1-.43.2l-.5-.13,0-.16.48.13c.13,0,.26,0,.3-.13a.26.26,0,0,0-.1-.25l-.07,0-.5-.14,0-.15Z"/><path class="cls-2" d="M985,69.55l.83.23,0,.16-.83-.23Zm1,.47s-.08-.06-.06-.13a.08.08,0,0,1,.11-.06.09.09,0,0,1,.07.12C986.1,70,986.05,70,986,70Z"/><path class="cls-2" d="M985,70a.5.5,0,0,0-.11.19c0,.12,0,.19.08.2s.12,0,.19-.11.2-.19.3-.17a.29.29,0,0,1,.17.37.56.56,0,0,1-.11.19l-.1-.07a.29.29,0,0,0,.09-.16c0-.09,0-.16-.07-.17s-.12,0-.19.12-.18.19-.31.16a.28.28,0,0,1-.16-.39.55.55,0,0,1,.11-.23Z"/><path class="cls-2" d="M985.88,71.11l0,.16-.52-.14h0a.37.37,0,0,1,.07.14.33.33,0,0,1,0,.17c0,.12-.15.28-.44.21l-.49-.14,0-.15.48.13c.13,0,.26,0,.29-.14a.24.24,0,0,0-.09-.25l-.07,0-.51-.13,0-.16Z"/><line class="cls-3" x1="982.36" y1="67.01" x2="979.72" y2="77.34"/><polygon class="cls-2" points="981.86 74.73 981.07 74.98 981.57 75.65 980.79 75.36 980.81 76.21 980.35 75.51 979.88 76.21 979.91 75.36 979.13 75.65 979.62 74.98 978.84 74.73 979.62 74.5 979.13 73.82 979.91 74.1 979.88 73.25 980.35 73.95 980.81 73.25 980.79 74.1 981.57 73.82 981.07 74.5 981.86 74.73"/><polygon class="cls-2" points="914.21 49.45 913.41 49.69 913.92 50.36 913.14 50.08 913.16 50.93 912.7 50.23 912.23 50.93 912.25 50.08 911.48 50.36 911.97 49.69 911.19 49.45 911.97 49.21 911.48 48.54 912.25 48.82 912.23 47.97 912.7 48.68 913.16 47.97 913.14 48.82 913.92 48.54 913.41 49.21 914.21 49.45"/><polygon class="cls-2" points="965.98 49.49 965.18 49.73 965.69 50.41 964.91 50.12 964.94 50.97 964.47 50.27 964 50.97 964.02 50.12 963.25 50.41 963.74 49.73 962.96 49.49 963.74 49.25 963.25 48.58 964.02 48.86 964 48.02 964.47 48.72 964.94 48.02 964.91 48.86 965.69 48.58 965.18 49.25 965.98 49.49"/><path class="cls-3" d="M961,77.32a5.19,5.19,0,0,1-4.81-6.07c.74-2.8,6-23.1,6-23.1s1.85-3.53,7.57-3.53"/><line class="cls-3" x1="992.1" y1="44.52" x2="989.49" y2="54.88"/><line class="cls-3" x1="863.29" y1="46.98" x2="892.59" y2="46.98"/><line class="cls-3" x1="864.23" y1="49.56" x2="891.95" y2="49.56"/><line class="cls-3" x1="866.19" y1="52.14" x2="891.42" y2="52.14"/><line class="cls-3" x1="852.66" y1="69.51" x2="886.61" y2="69.51"/><line class="cls-3" x1="851.98" y1="72.1" x2="886.06" y2="72.1"/><line class="cls-3" x1="851.29" y1="74.68" x2="885.38" y2="74.68"/><line class="cls-3" x1="865.27" y1="58.23" x2="885.68" y2="58.23"/><line class="cls-3" x1="862.68" y1="60.82" x2="882.63" y2="60.82"/><line class="cls-3" x1="860.07" y1="63.4" x2="879.67" y2="63.4"/><line class="cls-3" x1="857.22" y1="60.96" x2="860.07" y2="49.91"/><line class="cls-3" x1="860.31" y1="59.05" x2="862.36" y2="51.1"/><path class="cls-3" d="M860,50.12s.37-3.14,3.41-3.14"/><path class="cls-3" d="M862.34,51.19a2,2,0,0,1,1.89-1.61"/><line class="cls-3" x1="890.28" y1="44.43" x2="887.58" y2="55.07"/><path class="cls-3" d="M864.36,53.46s0-1.32,1.83-1.32"/><path class="cls-3" d="M864.39,53.23l-.74,3.7s-.12,1.3,1.86,1.3"/><path class="cls-3" d="M860.6,57.94s-1.34,2.88,2.08,2.88"/><path class="cls-3" d="M857.34,60.48s-1.12,2.92,3,2.92"/><line class="cls-3" x1="879.08" y1="68.46" x2="880.21" y2="63.92"/><line class="cls-3" x1="881.12" y1="70.65" x2="883.39" y2="61.56"/><line class="cls-3" x1="883.05" y1="73.31" x2="886.61" y2="59.05"/><path class="cls-3" d="M885.68,58.23s1.14-.06.89,1"/><path class="cls-3" d="M882.63,60.82s1-.1.76.74"/><path class="cls-3" d="M879.6,63.4s.78-.1.6.52"/><path class="cls-3" d="M880.69,74.68s2,.18,2.39-1.48"/><path class="cls-3" d="M878.87,72.1a2.28,2.28,0,0,0,2.31-1.7"/><path class="cls-3" d="M877.49,69.51a1.33,1.33,0,0,0,1.59-1.05"/><line class="cls-3" x1="856.07" y1="67.12" x2="853.36" y2="77.77"/><path class="cls-2" d="M854.65,68.48h0l-.11-.21.12,0,.13.26v.14l-1.16,0v-.16Z"/><path class="cls-2" d="M852.93,69.87l.1,0,.08.15c.21.36.33.52.5.57a.21.21,0,0,0,.27-.18.38.38,0,0,0,0-.27l.12,0a.53.53,0,0,1,0,.36.32.32,0,0,1-.41.28c-.2,0-.34-.25-.51-.54l-.07-.12h0l-.12.52-.12,0Z"/><path class="cls-2" d="M852.47,72.66a.49.49,0,0,0-.13.24.23.23,0,0,0,.16.31c.16,0,.26-.09.29-.24l0-.09.12,0,0,.08c0,.12,0,.28.13.31s.18,0,.22-.17a.41.41,0,0,0,0-.25h.12a.55.55,0,0,1,0,.32c0,.23-.2.3-.34.27a.29.29,0,0,1-.22-.27h0a.31.31,0,0,1-.35.2.39.39,0,0,1-.25-.51.61.61,0,0,1,.15-.28Z"/><path class="cls-2" d="M851.53,75.67l.31.07.11-.54.11,0,.6.69,0,.17-.71-.16,0,.16-.12,0,0-.16-.31-.07Zm.43.1.37.09.18,0h0a.92.92,0,0,1-.14-.14l-.33-.37h0Z"/><path class="cls-4" d="M927.07,44.67c-.85,3.29-1.7,6.6-2.54,9.9-.08.27-.16.38-.46.38H914c-.24,0-.34.05-.41.3q-1.47,5.84-3,11.67c-.87,3.41-1.73,6.82-2.61,10.23,0,.18-.06.31-.3.31-3.4,0-6.81,0-10.2,0h-.22c1.93-7.49,3.83-15,5.76-22.48H892.47l.1-.44c.81-3.19,1.62-6.36,2.43-9.53a1.11,1.11,0,0,0,.08-.3Z"/><path class="cls-4" d="M989.08,67.28c-.21.78-.38,1.53-.56,2.25-.43,1.66-.85,3.33-1.29,5a4,4,0,0,1-3.19,3,2.84,2.84,0,0,1-.71.06H954.51c0-.12,0-.22,0-.32q4.14-16.09,8.25-32.18c.07-.25.15-.34.43-.34h28.5a2.68,2.68,0,0,1,1.59.44,2.23,2.23,0,0,1,.81,2.41c-.6,2.4-1.23,4.8-1.84,7.2,0,.15-.09.24-.27.21H971.27c-.28,0-.38.09-.45.36q-1.46,5.78-2.93,11.53a4.26,4.26,0,0,0-.11.42Z"/><path class="cls-4" d="M893,44.67q-1.28,5-2.58,10a.23.23,0,0,1-.28.22H856.32c0-.12,0-.22.07-.31.57-2.29,1.16-4.56,1.75-6.84a4,4,0,0,1,3.24-3.07l.15,0Z"/><path class="cls-4" d="M850.47,77.47l2.64-10.26h34.1c-.15.58-.29,1.14-.43,1.71-.49,1.83-.95,3.65-1.4,5.49a4.09,4.09,0,0,1-3.88,3h-31Z"/><path class="cls-4" d="M871.75,55.94H886.9a3.56,3.56,0,0,1,1.29.24,2.14,2.14,0,0,1,1.19,2.58q-.75,3-1.53,5.92c-.11.44-.23.88-.33,1.31,0,.16-.1.24-.27.22H856.69a4.64,4.64,0,0,1-1-.09,2.15,2.15,0,0,1-1.61-2.71c.59-2.42,1.23-4.85,1.85-7.28,0-.2.15-.18.29-.18h15.51Z"/><path class="cls-4" d="M920.63,77.46c0-.14,0-.26.07-.36Q924.83,61,928.94,45c0-.22.13-.29.34-.29h28.65a2.59,2.59,0,0,1,1.31.31,2.08,2.08,0,0,1,1,2.28c-.26,1.23-.59,2.45-.91,3.67s-.63,2.43-.91,3.65c-.07.27-.17.35-.44.35H937.46c-.33,0-.46.08-.53.4-1.85,7.26-3.71,14.5-5.57,21.77-.06.3-.18.37-.47.37H920.63Z"/><path class="cls-4" d="M952.64,77.5H942c.87-3.4,1.73-6.8,2.62-10.25C947.33,70.67,950,74.06,952.64,77.5Z"/><path class="cls-2" d="M702.18,67.44l2.18-.19a4.93,4.93,0,0,0,.72,2.2,3.92,3.92,0,0,0,1.75,1.4,6.53,6.53,0,0,0,2.67.53,6.21,6.21,0,0,0,2.33-.41,3.15,3.15,0,0,0,1.51-1.1,2.6,2.6,0,0,0,.49-1.53,2.42,2.42,0,0,0-.47-1.48,3.57,3.57,0,0,0-1.57-1.06c-.47-.18-1.51-.47-3.11-.87a15.19,15.19,0,0,1-3.36-1.12,4.76,4.76,0,0,1-1.86-1.67,4.13,4.13,0,0,1-.61-2.23,4.66,4.66,0,0,1,2.93-4.32A8.08,8.08,0,0,1,709,55a8.52,8.52,0,0,1,3.42.64,4.9,4.9,0,0,1,2.28,1.89,5.53,5.53,0,0,1,.85,2.82l-2.21.17a3.71,3.71,0,0,0-1.21-2.57,4.56,4.56,0,0,0-3-.86,4.81,4.81,0,0,0-3.05.78,2.39,2.39,0,0,0-1,1.9,2.06,2.06,0,0,0,.68,1.59,9,9,0,0,0,3.48,1.28,23.32,23.32,0,0,1,3.85,1.14,5.25,5.25,0,0,1,2.25,1.83,4.58,4.58,0,0,1,.72,2.55,5,5,0,0,1-.79,2.69,5.28,5.28,0,0,1-2.29,2,7.74,7.74,0,0,1-3.36.7,9.78,9.78,0,0,1-4-.7,5.6,5.6,0,0,1-2.51-2.14A6.12,6.12,0,0,1,702.18,67.44Z"/><path class="cls-2" d="M727.57,69l2.21.28a5.55,5.55,0,0,1-1.93,3.09,6.44,6.44,0,0,1-8-.65,7,7,0,0,1-1.62-4.92,7.3,7.3,0,0,1,1.64-5.09,5.48,5.48,0,0,1,4.25-1.8,5.33,5.33,0,0,1,4.14,1.77,7.15,7.15,0,0,1,1.6,5c0,.14,0,.33,0,.59h-9.41a5.06,5.06,0,0,0,1.18,3.28,3.46,3.46,0,0,0,2.63,1.13,3.21,3.21,0,0,0,2-.63A4.18,4.18,0,0,0,727.57,69Zm-7-3.56h7.05a4.51,4.51,0,0,0-.81-2.45,3.25,3.25,0,0,0-2.65-1.28,3.33,3.33,0,0,0-2.48,1A4.07,4.07,0,0,0,720.55,65.46Z"/><path class="cls-2" d="M731.67,66.71q0-3.6,2-5.34a5.79,5.79,0,0,1,4-1.44,5.58,5.58,0,0,1,4.26,1.75,6.79,6.79,0,0,1,1.65,4.85,8.76,8.76,0,0,1-.73,3.94,5.33,5.33,0,0,1-2.13,2.23,6.06,6.06,0,0,1-3,.79,5.61,5.61,0,0,1-4.28-1.74A7.13,7.13,0,0,1,731.67,66.71Zm2.2,0a5.65,5.65,0,0,0,1.06,3.73,3.34,3.34,0,0,0,2.66,1.24,3.31,3.31,0,0,0,2.65-1.24,5.75,5.75,0,0,0,1.06-3.8A5.45,5.45,0,0,0,740.24,63a3.47,3.47,0,0,0-5.31,0A5.65,5.65,0,0,0,733.87,66.71Z"/><path class="cls-2" d="M754.28,73.2V71.29a4.58,4.58,0,0,1-4,2.2,4.9,4.9,0,0,1-2.09-.44,3.4,3.4,0,0,1-1.44-1.1,4.35,4.35,0,0,1-.66-1.64,11.15,11.15,0,0,1-.13-2v-8h2.14v7.2a12.89,12.89,0,0,0,.13,2.32,2.3,2.3,0,0,0,.86,1.36,2.58,2.58,0,0,0,1.61.5,3.42,3.42,0,0,0,1.81-.51,2.87,2.87,0,0,0,1.2-1.38,7.21,7.21,0,0,0,.35-2.54v-7h2.14v13Z"/><path class="cls-2" d="M759.5,73.2V55.28h2.14V73.2Z"/><path class="cls-2" d="M776,73.2V57.4h-5.74V55.28h13.81V57.4h-5.77V73.2Z"/><path class="cls-2" d="M792.09,69l2.21.28a5.5,5.5,0,0,1-1.93,3.09,6.44,6.44,0,0,1-8-.65,7,7,0,0,1-1.62-4.92,7.35,7.35,0,0,1,1.64-5.09,5.48,5.48,0,0,1,4.25-1.8,5.33,5.33,0,0,1,4.14,1.77,7.15,7.15,0,0,1,1.61,5c0,.14,0,.33,0,.59H785a5.06,5.06,0,0,0,1.18,3.28,3.46,3.46,0,0,0,2.64,1.13,3.21,3.21,0,0,0,2-.63A4.18,4.18,0,0,0,792.09,69Zm-7-3.56h7a4.51,4.51,0,0,0-.81-2.45,3.25,3.25,0,0,0-2.65-1.28,3.35,3.35,0,0,0-2.48,1A4.07,4.07,0,0,0,785.07,65.46Z"/><path class="cls-2" d="M805.23,68.44l2.1.29a5.71,5.71,0,0,1-1.76,3.5,5.08,5.08,0,0,1-3.49,1.26,5.35,5.35,0,0,1-4.17-1.74,7.18,7.18,0,0,1-1.57-5,9.12,9.12,0,0,1,.68-3.68,4.8,4.8,0,0,1,2.06-2.37,6,6,0,0,1,3-.78A5.09,5.09,0,0,1,805.45,61a4.9,4.9,0,0,1,1.68,3l-2.08.33a3.66,3.66,0,0,0-1-2,2.69,2.69,0,0,0-1.83-.66,3.26,3.26,0,0,0-2.62,1.2,5.72,5.72,0,0,0-1,3.77,6,6,0,0,0,1,3.8,3.14,3.14,0,0,0,2.55,1.18,2.93,2.93,0,0,0,2.1-.79A4,4,0,0,0,805.23,68.44Z"/><path class="cls-2" d="M809.16,73.2V55.28h2.14v6.43a4.73,4.73,0,0,1,3.78-1.78,5.08,5.08,0,0,1,2.44.56A3.35,3.35,0,0,1,819,62.06a7.38,7.38,0,0,1,.45,2.91V73.2h-2.14V65a3.47,3.47,0,0,0-.7-2.4,2.55,2.55,0,0,0-2-.75,3.4,3.4,0,0,0-1.79.51,2.88,2.88,0,0,0-1.19,1.37,6.45,6.45,0,0,0-.36,2.4v7.1Z"/><path class="cls-2" d="M1034.46,75.07V57.15h7.73a10.08,10.08,0,0,1,3.54.48,4,4,0,0,1,1.94,1.71,5.2,5.2,0,0,1,.72,2.7,4.57,4.57,0,0,1-1.2,3.21,6,6,0,0,1-3.71,1.67,5.87,5.87,0,0,1,1.39.89,12.22,12.22,0,0,1,1.92,2.38l3,4.88h-2.9l-2.31-3.73c-.67-1.07-1.23-1.9-1.66-2.47a5.57,5.57,0,0,0-1.17-1.2,3.67,3.67,0,0,0-1.06-.47,6.39,6.39,0,0,0-1.28-.09h-2.67v8Zm2.31-10h5a7.13,7.13,0,0,0,2.48-.34,2.64,2.64,0,0,0,1.35-1.07A3,3,0,0,0,1046,62a2.69,2.69,0,0,0-.89-2.09,4.12,4.12,0,0,0-2.84-.82h-5.51Z"/><path class="cls-2" d="M1060,75.07V73.16a4.59,4.59,0,0,1-4,2.2,4.9,4.9,0,0,1-2.09-.44,3.43,3.43,0,0,1-1.43-1.1,4,4,0,0,1-.66-1.64,11.15,11.15,0,0,1-.13-2.05v-8h2.13v7.2a14,14,0,0,0,.13,2.32,2.3,2.3,0,0,0,.86,1.36,2.63,2.63,0,0,0,1.62.5,3.41,3.41,0,0,0,1.8-.51,2.77,2.77,0,0,0,1.2-1.38,7.21,7.21,0,0,0,.35-2.54v-7h2.14v13Z"/><path class="cls-2" d="M1065.27,75.07v-13h1.93v1.84a4.49,4.49,0,0,1,4-2.13,5.15,5.15,0,0,1,2.1.42,3.28,3.28,0,0,1,1.43,1.1,4.35,4.35,0,0,1,.67,1.63,12.85,12.85,0,0,1,.12,2.14v8h-2.14v-7.9a6,6,0,0,0-.25-2,2.09,2.09,0,0,0-.89-1.06,2.79,2.79,0,0,0-1.49-.4,3.45,3.45,0,0,0-2.36.89q-1,.9-1,3.39v7.09Z"/><path class="cls-2" d="M1078.81,75.07v-13h1.93v1.84a4.49,4.49,0,0,1,4-2.13,5.18,5.18,0,0,1,2.1.42,3.28,3.28,0,0,1,1.43,1.1A4.35,4.35,0,0,1,1089,65a12.85,12.85,0,0,1,.12,2.14v8h-2.14v-7.9a6,6,0,0,0-.25-2,2.09,2.09,0,0,0-.89-1.06,2.79,2.79,0,0,0-1.49-.4,3.43,3.43,0,0,0-2.36.89q-1,.9-1,3.39v7.09Z"/><path class="cls-2" d="M1092.36,59.68V57.15h2.14v2.53Zm0,15.39v-13h2.14v13Z"/><path class="cls-2" d="M1097.76,75.07v-13h1.92v1.84a4.52,4.52,0,0,1,4-2.13,5.18,5.18,0,0,1,2.1.42,3.34,3.34,0,0,1,1.43,1.1,4.35,4.35,0,0,1,.67,1.63,12.85,12.85,0,0,1,.12,2.14v8h-2.14v-7.9a6.31,6.31,0,0,0-.25-2,2.14,2.14,0,0,0-.89-1.06,2.79,2.79,0,0,0-1.49-.4,3.43,3.43,0,0,0-2.36.89q-1,.9-1,3.39v7.09Z"/><path class="cls-2" d="M1110.91,76.14l2.08.32a2,2,0,0,0,.72,1.45,3.55,3.55,0,0,0,2.18.61,3.78,3.78,0,0,0,2.29-.61,3,3,0,0,0,1.09-1.72,14.13,14.13,0,0,0,.16-2.82,4.37,4.37,0,0,1-3.5,1.7,4.71,4.71,0,0,1-4-1.93,7.58,7.58,0,0,1-1.42-4.63,8.77,8.77,0,0,1,.65-3.43,5.37,5.37,0,0,1,1.9-2.43,5,5,0,0,1,2.92-.85,4.51,4.51,0,0,1,3.68,1.85V62.09h2V73.31a11,11,0,0,1-.6,4.3,4.4,4.4,0,0,1-1.9,2,6.44,6.44,0,0,1-3.2.74,5.88,5.88,0,0,1-3.65-1A3.53,3.53,0,0,1,1110.91,76.14Zm1.77-7.79a5.76,5.76,0,0,0,1,3.73,3.1,3.1,0,0,0,2.47,1.17,3.13,3.13,0,0,0,2.48-1.17,5.59,5.59,0,0,0,1-3.66,5.43,5.43,0,0,0-1-3.59,3.14,3.14,0,0,0-2.48-1.21,3.06,3.06,0,0,0-2.43,1.19A5.42,5.42,0,0,0,1112.68,68.35Z"/><path class="cls-2" d="M1144.31,68.79l2.3.6a8,8,0,0,1-2.61,4.45,7.06,7.06,0,0,1-4.6,1.54,8.12,8.12,0,0,1-4.58-1.18,7.32,7.32,0,0,1-2.69-3.42,12.36,12.36,0,0,1-.92-4.8,10.74,10.74,0,0,1,1-4.89,7.2,7.2,0,0,1,3-3.16,8.47,8.47,0,0,1,4.22-1.08,7,7,0,0,1,4.4,1.36,7.18,7.18,0,0,1,2.49,3.85l-2.27.55a5.62,5.62,0,0,0-1.76-2.84,4.58,4.58,0,0,0-2.9-.9,5.53,5.53,0,0,0-3.36,1,5.27,5.27,0,0,0-1.9,2.66,11.81,11.81,0,0,0,.1,7.43,4.92,4.92,0,0,0,2,2.55,5.56,5.56,0,0,0,3,.85,4.91,4.91,0,0,0,3.28-1.15A6,6,0,0,0,1144.31,68.79Z"/><path class="cls-2" d="M1149.16,75.07v-13h1.92v2a5.38,5.38,0,0,1,1.36-1.82,2.31,2.31,0,0,1,1.38-.44,4.12,4.12,0,0,1,2.2.7l-.74,2a3,3,0,0,0-1.57-.48,2,2,0,0,0-1.26.43,2.38,2.38,0,0,0-.8,1.21,9,9,0,0,0-.35,2.56v6.8Z"/><path class="cls-2" d="M1165.93,70.89l2.21.28a5.51,5.51,0,0,1-1.94,3.09,6.42,6.42,0,0,1-8-.65,7,7,0,0,1-1.63-4.92,7.35,7.35,0,0,1,1.64-5.09,5.52,5.52,0,0,1,4.26-1.8,5.33,5.33,0,0,1,4.14,1.77,7.15,7.15,0,0,1,1.6,5c0,.14,0,.33,0,.59h-9.42a5.11,5.11,0,0,0,1.18,3.28,3.49,3.49,0,0,0,2.64,1.13,3.23,3.23,0,0,0,2-.63A4.33,4.33,0,0,0,1165.93,70.89Zm-7-3.56h7a4.35,4.35,0,0,0-.81-2.45,3.24,3.24,0,0,0-2.65-1.28,3.31,3.31,0,0,0-2.47,1A4.12,4.12,0,0,0,1158.9,67.33Z"/><path class="cls-2" d="M1173.16,75.07l-3.87-13h2.21l2,7.49.75,2.79c0-.14.25-1,.65-2.68l2-7.6h2.2l1.89,7.53.63,2.48.73-2.51,2.16-7.5h2.08l-3.94,13h-2.23l-2-7.77-.48-2.22-2.56,10Z"/></g><path class="cls-2" d="M54,60.09V46.21h8V47.4H55.3v5.31h6.31v1.2H55.3v6.18Z"/><path class="cls-2" d="M69.64,51.06a3.23,3.23,0,0,0-1.21-.21,2.47,2.47,0,0,0-1.13.25,2.6,2.6,0,0,0-.86.69,3,3,0,0,0-.54,1.06,4.45,4.45,0,0,0-.19,1.35v5.89H64.44V49.71h1.25v1.83a5.46,5.46,0,0,1,.42-.73,3.22,3.22,0,0,1,.62-.66,3.17,3.17,0,0,1,.83-.46,3,3,0,0,1,1-.17,4.65,4.65,0,0,1,.78,0,3.11,3.11,0,0,1,.67.16Z"/><path class="cls-2" d="M75.5,49.52a4.07,4.07,0,0,1,3.17,1.23,5,5,0,0,1,1.12,3.49v1.29A5,5,0,0,1,78.67,59a4.69,4.69,0,0,1-6.33,0,5,5,0,0,1-1.12-3.48V54.24a5,5,0,0,1,1.12-3.5A4.09,4.09,0,0,1,75.5,49.52Zm0,9.57a2.78,2.78,0,0,0,2.2-.9,4,4,0,0,0,.8-2.74V54.31a4,4,0,0,0-.8-2.74,3.14,3.14,0,0,0-4.4,0,4,4,0,0,0-.79,2.74v1.14a4,4,0,0,0,.79,2.74A2.79,2.79,0,0,0,75.5,59.09Z"/><path class="cls-2" d="M86.67,49.52a3.55,3.55,0,0,1,2.68,1,3.59,3.59,0,0,1,1,2.61v7H89V53.43a4.38,4.38,0,0,0-.12-1,2.17,2.17,0,0,0-.4-.87,2,2,0,0,0-.79-.59,3.18,3.18,0,0,0-1.24-.21,2.78,2.78,0,0,0-1.17.24,2.85,2.85,0,0,0-.91.63,3,3,0,0,0-.59.85,2.18,2.18,0,0,0-.22.92v6.74H82.32V49.71h1.26v1.45a2.89,2.89,0,0,1,.45-.59A2.75,2.75,0,0,1,84.7,50a3.71,3.71,0,0,1,.88-.38A4.06,4.06,0,0,1,86.67,49.52Z"/><path class="cls-2" d="M94,50.83H92.28V49.71H94V47h1.27v2.68h2.79v1.12H95.28v6.31a2.52,2.52,0,0,0,.33,1.49,1.3,1.3,0,0,0,1.09.42,5.15,5.15,0,0,0,1.43-.19l.18,1.08a4.47,4.47,0,0,1-.79.18,7.86,7.86,0,0,1-.91.07A3.94,3.94,0,0,1,95.46,60a1.86,1.86,0,0,1-.82-.5,2.25,2.25,0,0,1-.48-.91A5.66,5.66,0,0,1,94,57.2Z"/><path class="cls-2" d="M150.71,52.77a5.79,5.79,0,0,1-1.11,3.78,4.3,4.3,0,0,1-6.24,0,5.79,5.79,0,0,1-1.11-3.78V50.94a5.73,5.73,0,0,1,1.11-3.76,4.29,4.29,0,0,1,6.24,0A5.76,5.76,0,0,1,150.71,51Zm-1.29-1.58a6.68,6.68,0,0,0-.22-1.86,3.49,3.49,0,0,0-.6-1.27,2.38,2.38,0,0,0-.92-.72,3.17,3.17,0,0,0-1.2-.23,3.09,3.09,0,0,0-1.2.23,2.49,2.49,0,0,0-.93.72,3.85,3.85,0,0,0-.6,1.27,7.11,7.11,0,0,0-.21,1.86v1.35a7.33,7.33,0,0,0,.21,1.88,3.85,3.85,0,0,0,.6,1.27,2.3,2.3,0,0,0,.93.72,2.92,2.92,0,0,0,1.2.23,3,3,0,0,0,1.2-.23,2.21,2.21,0,0,0,.92-.72,3.49,3.49,0,0,0,.6-1.27,6.88,6.88,0,0,0,.22-1.88Zm6,11H154.1V44.61h1.33Z"/><path class="cls-2" d="M162.38,50.4a1.68,1.68,0,0,1-.44.69q-.41.44-1,1c-.33.32-.74.7-1.25,1.14s-1,.88-1.55,1.3l-.82-1c.51-.38,1-.81,1.58-1.28A19.62,19.62,0,0,0,160.33,51a8.51,8.51,0,0,0,.71-.81,3,3,0,0,0,.39-.68,2.79,2.79,0,0,0,.18-.73c0-.26,0-.58,0-.94V45.4H163v2.37c0,.36,0,.66,0,.91a2.57,2.57,0,0,0,.18.7,2.88,2.88,0,0,0,.41.67,7.26,7.26,0,0,0,.74.76q.69.61,1.41,1.2c.47.39.91.74,1.33,1.05l-.79.94c-.5-.38-.95-.74-1.36-1.08s-.77-.65-1.09-.94a5.23,5.23,0,0,1-1.46-1.58Zm3.4,5a8.4,8.4,0,0,1,2,.23,6,6,0,0,1,1.62.66,3.44,3.44,0,0,1,1.1,1,2.5,2.5,0,0,1,.4,1.37v.73a2.49,2.49,0,0,1-.4,1.36,3.33,3.33,0,0,1-1.1,1,5.67,5.67,0,0,1-1.62.66,8.4,8.4,0,0,1-2,.23,8.31,8.31,0,0,1-2-.23,5.67,5.67,0,0,1-1.62-.66,3.33,3.33,0,0,1-1.1-1,2.41,2.41,0,0,1-.4-1.36v-.73a2.46,2.46,0,0,1,.4-1.39,3.44,3.44,0,0,1,1.1-1,5.66,5.66,0,0,1,1.62-.65A8.87,8.87,0,0,1,165.78,55.35Zm0,6.16a6.93,6.93,0,0,0,1.45-.15,4.91,4.91,0,0,0,1.21-.43,2.8,2.8,0,0,0,.85-.69,1.44,1.44,0,0,0,.31-.92V58.7a1.46,1.46,0,0,0-.31-.92,2.63,2.63,0,0,0-.85-.68,4.54,4.54,0,0,0-1.21-.44,6.93,6.93,0,0,0-1.45-.15,6.76,6.76,0,0,0-1.44.15,4.61,4.61,0,0,0-1.22.44,2.59,2.59,0,0,0-.84.68,1.47,1.47,0,0,0-.32.92v.62a1.45,1.45,0,0,0,.32.92,2.75,2.75,0,0,0,.84.69,5,5,0,0,0,1.22.43A6.76,6.76,0,0,0,165.78,61.51Zm5-12.45h2.63v1.19h-2.63V55h-1.31V44.61h1.31Z"/><path class="cls-2" d="M189.25,53.45V54.6h-7v3.78h-1.32V54.6h-7.39V53.45Zm-7.89-4.18a1.76,1.76,0,0,1-.74.67,14.64,14.64,0,0,1-1.48.73c-.54.24-1.1.46-1.67.68s-1.28.47-2.12.77l-.52-1.06c1.7-.58,3-1.07,3.91-1.48a7,7,0,0,0,1-.49,3.17,3.17,0,0,0,.6-.5,1.76,1.76,0,0,0,.32-.56,2.4,2.4,0,0,0,.09-.69v-.77h-5.13V45.42h11.61v1.15H182v.77a2.84,2.84,0,0,0,.08.69,1.56,1.56,0,0,0,.31.56,3.17,3.17,0,0,0,.6.5,7,7,0,0,0,1,.49q.69.3,1.71.69c.68.26,1.41.51,2.2.77l-.49,1.06c-.77-.26-1.48-.51-2.11-.75s-1.2-.48-1.69-.7a11.42,11.42,0,0,1-1.48-.72,1.87,1.87,0,0,1-.75-.66ZM177.17,60.8h10.11V62H175.84V56.66h1.33Z"/><path class="cls-2" d="M213.93,46.21a5.28,5.28,0,0,1,4,1.53,6.21,6.21,0,0,1,1.45,4.42v2A6.21,6.21,0,0,1,218,58.56a5.28,5.28,0,0,1-4,1.53h-4.21V46.21ZM211,58.9H214a4.8,4.8,0,0,0,1.67-.29,3.38,3.38,0,0,0,1.31-.9,4.41,4.41,0,0,0,.85-1.51,6.85,6.85,0,0,0,.31-2.16V52.25a6.85,6.85,0,0,0-.31-2.14,4.37,4.37,0,0,0-.85-1.52,3.28,3.28,0,0,0-1.31-.9A4.8,4.8,0,0,0,214,47.4H211Z"/><path class="cls-2" d="M229.64,59.07a7.43,7.43,0,0,1-1.5.81,5.83,5.83,0,0,1-2.17.36A4,4,0,0,1,222.82,59a5.05,5.05,0,0,1-1.12-3.51V54.2a5,5,0,0,1,1.1-3.45,3.81,3.81,0,0,1,3-1.23,3.72,3.72,0,0,1,3,1.26,5.29,5.29,0,0,1,1,3.46v1.07H223v.18a3.93,3.93,0,0,0,.81,2.66,2.75,2.75,0,0,0,2.21.94,4.68,4.68,0,0,0,1.78-.31,5.58,5.58,0,0,0,1.31-.71Zm-1-4.85V54a3.77,3.77,0,0,0-.73-2.5,2.85,2.85,0,0,0-4.15.05A3.81,3.81,0,0,0,223,54v.18Z"/><path class="cls-2" d="M235.58,59.07a3,3,0,0,0,1.87-.5,1.5,1.5,0,0,0,.64-1.18V57.2a1.32,1.32,0,0,0-.63-1.19,6.57,6.57,0,0,0-2.09-.7A10.59,10.59,0,0,1,234,55a3.45,3.45,0,0,1-1.05-.54,2.4,2.4,0,0,1-.68-.78,2.31,2.31,0,0,1-.24-1.09v-.27a2.58,2.58,0,0,1,.22-1.06,2.46,2.46,0,0,1,.68-.87,3.36,3.36,0,0,1,1.13-.6,5.25,5.25,0,0,1,1.62-.22,5.93,5.93,0,0,1,2,.3,5.26,5.26,0,0,1,1.47.78l-.59,1a5,5,0,0,0-1.29-.67,4.79,4.79,0,0,0-1.63-.24,2.73,2.73,0,0,0-1.74.48,1.4,1.4,0,0,0-.6,1.14v.21a1.17,1.17,0,0,0,.67,1.06,6.09,6.09,0,0,0,1.86.62,6.29,6.29,0,0,1,2.71,1,2.34,2.34,0,0,1,.83,1.92v.29a2.35,2.35,0,0,1-.28,1.14,2.76,2.76,0,0,1-.78.89,3.56,3.56,0,0,1-1.17.58,5,5,0,0,1-1.48.2,6.78,6.78,0,0,1-2.2-.33,6.14,6.14,0,0,1-1.67-.88l.61-1a7.05,7.05,0,0,0,1.49.78A4.79,4.79,0,0,0,235.58,59.07Z"/><path class="cls-2" d="M241.64,46.26H243v1.47h-1.39Zm.06,3.45H243V60.09H241.7Z"/><path class="cls-2" d="M252.58,58.53h0a2.63,2.63,0,0,1-1.26,1.16,4.32,4.32,0,0,1-1.72.36,4.23,4.23,0,0,1-1.61-.3,3.81,3.81,0,0,1-1.27-.86,4,4,0,0,1-.84-1.4,5.51,5.51,0,0,1-.3-1.89V54a5.51,5.51,0,0,1,.3-1.89,4,4,0,0,1,.83-1.4,3.57,3.57,0,0,1,1.27-.86,4.27,4.27,0,0,1,1.61-.3,3.76,3.76,0,0,1,1.88.44,3.62,3.62,0,0,1,1.15,1V49.71h1.25V59.92a4.58,4.58,0,0,1-1.11,3.34,4,4,0,0,1-3,1.12,5.62,5.62,0,0,1-1.9-.29,5,5,0,0,1-1.47-.79l.58-1a6,6,0,0,0,.68.42,4.37,4.37,0,0,0,.64.27,3.13,3.13,0,0,0,.69.14,6.24,6.24,0,0,0,.78,0,2.76,2.76,0,0,0,2.13-.78,3.45,3.45,0,0,0,.72-2.41Zm-5.75-3.12A3.88,3.88,0,0,0,247.6,58a2.55,2.55,0,0,0,2,.91,3.85,3.85,0,0,0,1.15-.17,2.46,2.46,0,0,0,.93-.5,2.48,2.48,0,0,0,.63-.85,3,3,0,0,0,.23-1.2V53.25a2.16,2.16,0,0,0-.21-.91,3,3,0,0,0-.61-.83,3.15,3.15,0,0,0-.94-.6,2.9,2.9,0,0,0-1.18-.24,2.53,2.53,0,0,0-2,.92,3.88,3.88,0,0,0-.76,2.57Z"/><path class="cls-2" d="M261.21,49.52a3.32,3.32,0,0,1,3.64,3.58v7h-1.28V53.43a4.39,4.39,0,0,0-.11-1,2.17,2.17,0,0,0-.4-.87,2.08,2.08,0,0,0-.79-.59,3.18,3.18,0,0,0-1.24-.21,2.78,2.78,0,0,0-1.17.24,2.85,2.85,0,0,0-.91.63,3,3,0,0,0-.59.85,2,2,0,0,0-.22.92v6.74h-1.27V49.71h1.25v1.45a3.85,3.85,0,0,1,.45-.59,3,3,0,0,1,.68-.53,3.71,3.71,0,0,1,.88-.38A4,4,0,0,1,261.21,49.52Z"/><path class="cls-2" d="M271.94,53.7c1-.43,1.84-.81,2.54-1.15s1.3-.66,1.78-.95a7,7,0,0,0,1.15-.86,3.19,3.19,0,0,0,.66-.86,3.31,3.31,0,0,0,.3-1,8.12,8.12,0,0,0,.07-1.16v-.89h-5.92V45.67h7.21v2.19a9.22,9.22,0,0,1-.1,1.46,3.81,3.81,0,0,1-.39,1.18,4.18,4.18,0,0,1-.8,1,8.08,8.08,0,0,1-1.32,1,21.06,21.06,0,0,1-2,1.06c-.77.37-1.67.79-2.71,1.25Zm2.83,1.77h10.47v6.7H274.77ZM276,61H284V56.68H276Zm9.2-6.53h-1.31V44.61h1.31Z"/><path class="cls-2" d="M303,54.72v1.17h-7.19v6.32h-1.33V55.89h-7.21V54.72ZM297.3,51a5,5,0,0,1-2.19-1.62h0A5.21,5.21,0,0,1,292.9,51c-.51.26-1.12.55-1.81.88s-1.42.64-2.18.95l-.58-1.08c.7-.27,1.41-.57,2.14-.9s1.4-.66,2-1a8.18,8.18,0,0,0,.91-.57,2.59,2.59,0,0,0,.61-.63,2.28,2.28,0,0,0,.34-.81,5,5,0,0,0,.1-1.1V45.22h1.33v1.54a5,5,0,0,0,.11,1.1,2.25,2.25,0,0,0,.32.81,2.54,2.54,0,0,0,.6.63,9.5,9.5,0,0,0,.92.57c.6.32,1.26.64,2,1s1.42.62,2.12.89l-.56,1.06c-.76-.31-1.48-.62-2.16-.94S297.81,51.24,297.3,51Z"/><path class="cls-2" d="M312.22,54h-7.71V45.71h7.71ZM311,46.9h-5.17v5.91H311Zm-2.62,13.9h9.59V62H307V56.24h1.33Zm9.16-3.6h-1.32V44.61h1.32Z"/><path class="cls-2" d="M54,69.31H58.3q4.28,0,4.28,3.39v.41a3.34,3.34,0,0,1-.11.89,2.32,2.32,0,0,1-.36.8,2.65,2.65,0,0,1-.68.65,3.41,3.41,0,0,1-1,.43,3.52,3.52,0,0,1,2,1,3,3,0,0,1,.78,2.22v.48a3.43,3.43,0,0,1-1.06,2.68,4.67,4.67,0,0,1-3.26,1H54Zm1.29,1.18v4.89h3a4,4,0,0,0,2.18-.5,2,2,0,0,0,.76-1.81v-.35A1.92,1.92,0,0,0,60.53,71a4.18,4.18,0,0,0-2.33-.5Zm0,11.51h3.48a3.69,3.69,0,0,0,2.35-.62,2.27,2.27,0,0,0,.76-1.86v-.43A3.16,3.16,0,0,0,61.7,78a1.72,1.72,0,0,0-.58-.81A2.7,2.7,0,0,0,60,76.68a7.22,7.22,0,0,0-1.69-.17H55.28Z"/><path class="cls-2" d="M68.18,83.35a3.4,3.4,0,0,1-2.34-.79,2.75,2.75,0,0,1-.9-2.18V80a2.61,2.61,0,0,1,.9-2.06,4,4,0,0,1,2.66-.79h2.85v-1a2.32,2.32,0,0,0-.61-1.74A2.41,2.41,0,0,0,69,73.8a4.18,4.18,0,0,0-1.57.3,6.85,6.85,0,0,0-1.41.76l-.61-1A7.73,7.73,0,0,1,66.94,73a5.29,5.29,0,0,1,2-.36,3.85,3.85,0,0,1,2.67.86,3.13,3.13,0,0,1,1,2.45V83.2H71.37V81.92h0a2.48,2.48,0,0,1-.44.52,3.63,3.63,0,0,1-.69.47A4.45,4.45,0,0,1,68.18,83.35Zm3.17-5.14H68.52a2.57,2.57,0,0,0-1.76.5A1.7,1.7,0,0,0,66.22,80v.31a1.84,1.84,0,0,0,.18.85,1.69,1.69,0,0,0,.5.59,2.22,2.22,0,0,0,.69.34,3,3,0,0,0,.78.1,3.73,3.73,0,0,0,1.09-.15,3.94,3.94,0,0,0,.93-.44,2.32,2.32,0,0,0,.69-.67,1.7,1.7,0,0,0,.27-1Z"/><path class="cls-2" d="M79.14,72.63a6.23,6.23,0,0,1,1.87.25,4.53,4.53,0,0,1,1.44.77l-.58,1A4.37,4.37,0,0,0,80.51,74a5.2,5.2,0,0,0-1.37-.18,2.61,2.61,0,0,0-2.12.91,3.87,3.87,0,0,0-.77,2.56v1.32A4,4,0,0,0,77,81.23a2.67,2.67,0,0,0,2.14.93,4.36,4.36,0,0,0,1.73-.3,5.85,5.85,0,0,0,1.22-.72l.6,1c-.18.14-.39.28-.61.42a3.93,3.93,0,0,1-.77.37,5.76,5.76,0,0,1-1,.27,6.32,6.32,0,0,1-1.21.11,3.89,3.89,0,0,1-3.09-1.24A5.11,5.11,0,0,1,75,78.59V77.3a6.24,6.24,0,0,1,.31-2,4.26,4.26,0,0,1,.85-1.46,3.74,3.74,0,0,1,1.31-.9A4.69,4.69,0,0,1,79.14,72.63Z"/><path class="cls-2" d="M88.48,76.8l4.4,6.4H91.33l-3.75-5.53L86,79.29V83.2H84.68V68.64H86v9.09l4.87-4.91h1.71Z"/><path class="cls-2" d="M102,82.18a6.87,6.87,0,0,1-1.49.8,5.68,5.68,0,0,1-2.18.37,4,4,0,0,1-3.14-1.24,5.06,5.06,0,0,1-1.13-3.52V77.3a5,5,0,0,1,1.1-3.44,3.81,3.81,0,0,1,3-1.23,3.69,3.69,0,0,1,3,1.26,5.28,5.28,0,0,1,1,3.45v1.08H95.34v.17a4,4,0,0,0,.8,2.67,2.78,2.78,0,0,0,2.21.93,4.84,4.84,0,0,0,1.78-.3,6,6,0,0,0,1.31-.72Zm-1-4.86v-.17a3.8,3.8,0,0,0-.72-2.5,2.86,2.86,0,0,0-4.15,0,3.76,3.76,0,0,0-.74,2.46v.17Z"/><path class="cls-2" d="M109.08,72.63a3.32,3.32,0,0,1,3.64,3.58v7h-1.28V76.53a4.45,4.45,0,0,0-.11-1,2.34,2.34,0,0,0-.4-.86,2,2,0,0,0-.79-.59,3.21,3.21,0,0,0-1.24-.21,2.78,2.78,0,0,0-1.17.24,3,3,0,0,0-1.5,1.47,2.11,2.11,0,0,0-.22.93V83.2h-1.27V72.82H106v1.44a3.7,3.7,0,0,1,.45-.59,3.41,3.41,0,0,1,.68-.53,4.16,4.16,0,0,1,.88-.37A3.62,3.62,0,0,1,109.08,72.63Z"/><path class="cls-2" d="M122.23,81.83h0A2.54,2.54,0,0,1,120.94,83a4.34,4.34,0,0,1-3.34.07,3.69,3.69,0,0,1-1.27-.87,3.86,3.86,0,0,1-.84-1.39,5.51,5.51,0,0,1-.3-1.89V77.07a5.49,5.49,0,0,1,.3-1.88,3.89,3.89,0,0,1,.83-1.4,3.6,3.6,0,0,1,1.27-.87,4.25,4.25,0,0,1,1.6-.29,3.61,3.61,0,0,1,1.88.44,3.36,3.36,0,0,1,1.14,1V68.64h1.27V83.2h-1.25Zm-5.77-3.12a3.88,3.88,0,0,0,.77,2.58,2.54,2.54,0,0,0,2,.9,3.85,3.85,0,0,0,1.15-.16,2.6,2.6,0,0,0,.93-.5,2.48,2.48,0,0,0,.63-.85,3,3,0,0,0,.23-1.2V76.36a2,2,0,0,0-.22-.91,2.66,2.66,0,0,0-.6-.83,3.38,3.38,0,0,0-.94-.61,3.06,3.06,0,0,0-1.18-.23,2.54,2.54,0,0,0-2,.91,3.91,3.91,0,0,0-.76,2.58Z"/><path class="cls-2" d="M148.83,81.66v-4h1.35v4h7.19v1.17H141.64V81.66Zm-5.22-12.37h11.8v1.18h-5.23v.67a7,7,0,0,0,.09,1.24,2.49,2.49,0,0,0,.31.88,3,3,0,0,0,.66.73c.28.23.65.5,1.1.81s1,.64,1.68,1,1.42.8,2.21,1.21l-.67,1c-.66-.34-1.35-.72-2.05-1.14s-1.34-.81-1.9-1.19a16.79,16.79,0,0,1-1.46-1,2.22,2.22,0,0,1-.62-.68h0a2.15,2.15,0,0,1-.61.68,16.11,16.11,0,0,1-1.47,1.07c-.56.38-1.2.77-1.91,1.2s-1.4.81-2.08,1.17l-.69-1.06c.78-.41,1.53-.82,2.23-1.22s1.26-.75,1.7-1,.81-.58,1.1-.81a2.74,2.74,0,0,0,.65-.73,2.5,2.5,0,0,0,.32-.88,7.13,7.13,0,0,0,.08-1.24v-.67h-5.22Z"/><path class="cls-2" d="M162.75,77.38A4.25,4.25,0,0,1,161,77a4.06,4.06,0,0,1-1.33-.88,4,4,0,0,1-.85-1.24,3.54,3.54,0,0,1-.3-1.41V72.36a3.5,3.5,0,0,1,.3-1.41,3.87,3.87,0,0,1,.85-1.24,4.08,4.08,0,0,1,1.33-.89,4.42,4.42,0,0,1,1.74-.33,4.49,4.49,0,0,1,1.74.33,4.19,4.19,0,0,1,1.33.89,4,4,0,0,1,.84,1.24,3.5,3.5,0,0,1,.3,1.41v1.15a3.54,3.54,0,0,1-.3,1.41,4.12,4.12,0,0,1-.84,1.24,4.17,4.17,0,0,1-1.33.88A4.32,4.32,0,0,1,162.75,77.38Zm0-7.68a3.09,3.09,0,0,0-1.2.23,3,3,0,0,0-.93.61,3.17,3.17,0,0,0-.6.89,2.65,2.65,0,0,0-.21,1v.93a2.64,2.64,0,0,0,.21,1,2.83,2.83,0,0,0,1.53,1.51,3.09,3.09,0,0,0,1.2.23,3.17,3.17,0,0,0,1.2-.23,2.87,2.87,0,0,0,.92-.62,2.69,2.69,0,0,0,.6-.89,2.48,2.48,0,0,0,.22-1v-.93a2.49,2.49,0,0,0-.22-1,2.8,2.8,0,0,0-.6-.89,2.84,2.84,0,0,0-.92-.61A3.17,3.17,0,0,0,162.75,69.7Zm0,14.21h9.57V85.1h-10.9V79.34h1.33Zm9.14-3.6h-1.32V67.71h1.32Z"/><path class="cls-2" d="M179.53,69.7h4.4v1.17H174V69.7h4.22V67.45h1.31Zm-.64,8.64a5.11,5.11,0,0,1-1.62-.24,4,4,0,0,1-1.23-.64,2.88,2.88,0,0,1-.77-.94A2.3,2.3,0,0,1,175,75.4v-.7a2.33,2.33,0,0,1,.28-1.12,2.88,2.88,0,0,1,.77-.94,4.2,4.2,0,0,1,1.23-.64,5.59,5.59,0,0,1,3.24,0,4.2,4.2,0,0,1,1.23.64,2.88,2.88,0,0,1,.77.94,2.43,2.43,0,0,1,.27,1.12v.7a2.4,2.4,0,0,1-.27,1.12,2.88,2.88,0,0,1-.77.94,4,4,0,0,1-1.23.64A5.11,5.11,0,0,1,178.89,78.34Zm0-5.45a3.61,3.61,0,0,0-1.08.15,2.67,2.67,0,0,0-.83.4,1.89,1.89,0,0,0-.54.6,1.41,1.41,0,0,0-.19.72v.58a1.39,1.39,0,0,0,.19.72,1.7,1.7,0,0,0,.54.6,2.67,2.67,0,0,0,.83.4,3.93,3.93,0,0,0,2.15,0,2.72,2.72,0,0,0,.84-.4,1.7,1.7,0,0,0,.54-.6,1.39,1.39,0,0,0,.19-.72v-.58a1.41,1.41,0,0,0-.19-.72,1.89,1.89,0,0,0-.54-.6A2.72,2.72,0,0,0,180,73,3.64,3.64,0,0,0,178.89,72.89Zm-1.84,6.8h11v5.78h-1.32V80.89h-9.7Zm9.72-7.59V67.71h1.3V78.65h-1.3v-2h-2.9V75.49h2.9V73.28h-2.9V72.1Z"/><path class="cls-2" d="M1615.66,72.66a4.67,4.67,0,0,0,1.41-.19,3.45,3.45,0,0,0,1.07-.53,2.3,2.3,0,0,0,.67-.77,1.93,1.93,0,0,0,.22-.9v-.4a2.41,2.41,0,0,0-.15-.87,1.75,1.75,0,0,0-.54-.7,3.85,3.85,0,0,0-1.08-.58,14.43,14.43,0,0,0-1.77-.51,11.53,11.53,0,0,1-2-.62,4.7,4.7,0,0,1-1.28-.81,2.75,2.75,0,0,1-.67-1,3.61,3.61,0,0,1-.2-1.21v-.44a3.12,3.12,0,0,1,.33-1.44,3.23,3.23,0,0,1,.92-1.1,4.31,4.31,0,0,1,1.4-.72,5.66,5.66,0,0,1,1.77-.26,7.33,7.33,0,0,1,2.34.33,6.68,6.68,0,0,1,1.67.84l-.62,1.1a5.29,5.29,0,0,0-1.5-.76,5.87,5.87,0,0,0-1.89-.28,4.6,4.6,0,0,0-1.18.15,3.27,3.27,0,0,0-1,.45,2.37,2.37,0,0,0-.68.73,1.91,1.91,0,0,0-.25,1v.38a2.09,2.09,0,0,0,.16.81,1.65,1.65,0,0,0,.53.66,4.17,4.17,0,0,0,1,.54,11,11,0,0,0,1.53.46,14.85,14.85,0,0,1,2.18.66,4.58,4.58,0,0,1,1.36.82,2.65,2.65,0,0,1,.72,1,4.18,4.18,0,0,1,.2,1.33v.44a3.24,3.24,0,0,1-.32,1.41,3.43,3.43,0,0,1-.91,1.15,4.17,4.17,0,0,1-1.46.79,6,6,0,0,1-2,.29,7.65,7.65,0,0,1-2.52-.41,7.13,7.13,0,0,1-2.07-1.13l.67-1.13a7.5,7.5,0,0,0,2,1.08A5.54,5.54,0,0,0,1615.66,72.66Z"/><path class="cls-2" d="M1631.67,59.82V61h-4.32V73.7H1626V61h-4.3V59.82Z"/><path class="cls-2" d="M1638.79,67.69a1.14,1.14,0,0,1-.26,0h-3.62v6h-1.31V59.82h4.66a5.23,5.23,0,0,1,1.8.28,3.81,3.81,0,0,1,1.34.79,3.2,3.2,0,0,1,.83,1.2,3.89,3.89,0,0,1,.28,1.5v.29a3.71,3.71,0,0,1-.65,2.19,3.81,3.81,0,0,1-1.78,1.33l2.71,6.3h-1.4ZM1634.91,61V66.5h3a3.8,3.8,0,0,0,2.54-.7,2.56,2.56,0,0,0,.77-2v-.19a2.49,2.49,0,0,0-.75-1.91,3.42,3.42,0,0,0-2.35-.69Z"/><path class="cls-2" d="M1650.25,59.61a7.33,7.33,0,0,1,2.39.35,6.26,6.26,0,0,1,1.88,1l-.68,1.06a5.67,5.67,0,0,0-1.74-.92,6.27,6.27,0,0,0-1.85-.25,3.79,3.79,0,0,0-1.66.35,3.44,3.44,0,0,0-1.21,1,4.79,4.79,0,0,0-.74,1.54,7.35,7.35,0,0,0-.25,2v1.77a5.8,5.8,0,0,0,1.06,3.83,3.63,3.63,0,0,0,2.93,1.25,5.17,5.17,0,0,0,2.16-.41,6.58,6.58,0,0,0,1.55-1l.76,1.06a6.19,6.19,0,0,1-4.49,1.65,4.78,4.78,0,0,1-4-1.67,7.38,7.38,0,0,1-1.34-4.7V65.82a7,7,0,0,1,1.36-4.59A4.71,4.71,0,0,1,1650.25,59.61Z"/><path class="cls-2" d="M1657,72.33h1.89v1.93H1657Z"/><path class="cls-2" d="M1671.39,66.48c.37-.45.67-.84.9-1.16a5.58,5.58,0,0,0,.51-.85,3.53,3.53,0,0,0,.25-.67,2.74,2.74,0,0,0,.06-.56v-.15a2.15,2.15,0,0,0-.66-1.65,2.76,2.76,0,0,0-1.9-.6,3.46,3.46,0,0,0-1.69.44,4.1,4.1,0,0,0-1.44,1.66l-1.05-.68a7.1,7.1,0,0,1,.6-.91,4.38,4.38,0,0,1,2-1.49,4.23,4.23,0,0,1,1.51-.25,4.94,4.94,0,0,1,1.63.25,3.36,3.36,0,0,1,1.23.7,3.13,3.13,0,0,1,.79,1.1,3.45,3.45,0,0,1,.28,1.41v.19a3.32,3.32,0,0,1-.18,1.09,5.15,5.15,0,0,1-.5,1,9.29,9.29,0,0,1-.72,1l-.84,1-4.2,5.07h6.93V73.7h-8.58V72.54Z"/><path class="cls-2" d="M1686.35,67.83a7.91,7.91,0,0,1-1.08,4.51,4.69,4.69,0,0,1-7,0,7.92,7.92,0,0,1-1.08-4.5V65.67a7.76,7.76,0,0,1,1.1-4.49,3.94,3.94,0,0,1,3.47-1.57,4,4,0,0,1,3.5,1.56,7.83,7.83,0,0,1,1.1,4.5ZM1685,65.65a6.53,6.53,0,0,0-.81-3.71,3.15,3.15,0,0,0-4.83,0,6.33,6.33,0,0,0-.84,3.7v2.2a6.33,6.33,0,0,0,.84,3.71,2.77,2.77,0,0,0,2.39,1.14,2.83,2.83,0,0,0,2.43-1.13,6.44,6.44,0,0,0,.82-3.72Z"/><path class="cls-2" d="M1693.86,66.48c.38-.45.67-.84.9-1.16a6.75,6.75,0,0,0,.52-.85,4.25,4.25,0,0,0,.24-.67,2.74,2.74,0,0,0,.06-.56v-.15a2.15,2.15,0,0,0-.66-1.65,2.74,2.74,0,0,0-1.9-.6,3.46,3.46,0,0,0-1.69.44,4.1,4.1,0,0,0-1.44,1.66l-1.05-.68a7.1,7.1,0,0,1,.6-.91,4.67,4.67,0,0,1,.86-.86,4.37,4.37,0,0,1,1.17-.63,4.23,4.23,0,0,1,1.51-.25,4.94,4.94,0,0,1,1.63.25,3.49,3.49,0,0,1,1.24.7,3.1,3.1,0,0,1,.78,1.1,3.45,3.45,0,0,1,.28,1.41v.19a3.32,3.32,0,0,1-.18,1.09,5.15,5.15,0,0,1-.5,1,9.29,9.29,0,0,1-.72,1l-.84,1-4.2,5.07h6.93V73.7h-8.58V72.54Z"/><path class="cls-2" d="M1704.44,73.7V61.51l-3.26,2-.6-1.08,4.18-2.65h1V73.7Z"/><path class="cls-2" d="M1726.44,73.7H1725l-1.5-4.31h-5.71l-1.54,4.31H1715l5-13.88h1.48Zm-8.2-5.49h4.89l-1.31-3.75c-.09-.23-.17-.46-.25-.68s-.15-.46-.24-.72-.18-.56-.28-.88-.22-.72-.35-1.17c-.13.45-.24.84-.34,1.17l-.28.88c-.09.26-.17.51-.25.72s-.15.45-.24.68Z"/><path class="cls-2" d="M1728.35,59.14h1.28V73.7h-1.28Z"/><path class="cls-2" d="M1732.62,59.14h1.28V73.7h-1.28Z"/><path class="cls-2" d="M1746.78,64.67a3.25,3.25,0,0,0-1.22-.21,2.46,2.46,0,0,0-1.12.25,2.62,2.62,0,0,0-.86.69,3,3,0,0,0-.54,1.06,4.45,4.45,0,0,0-.19,1.35V73.7h-1.28V63.32h1.26v1.83a4.55,4.55,0,0,1,.42-.73,3.22,3.22,0,0,1,.62-.66,3.28,3.28,0,0,1,.82-.46,3.11,3.11,0,0,1,1-.17,4.65,4.65,0,0,1,.78,0,2.89,2.89,0,0,1,.66.16Z"/><path class="cls-2" d="M1748.9,59.88h1.38v1.46h-1.38Zm0,3.44h1.28V73.7H1749Z"/><path class="cls-2" d="M1759.83,72.14h0a2.55,2.55,0,0,1-1.26,1.16,4.3,4.3,0,0,1-1.71.36,4.16,4.16,0,0,1-1.61-.3,3.7,3.7,0,0,1-1.28-.86,4,4,0,0,1-.84-1.4,5.51,5.51,0,0,1-.3-1.89V67.58a5.51,5.51,0,0,1,.3-1.89,4.13,4.13,0,0,1,.83-1.4,3.66,3.66,0,0,1,1.28-.86,4.18,4.18,0,0,1,1.6-.3,3.71,3.71,0,0,1,1.88.44,3.52,3.52,0,0,1,1.15,1V63.32h1.26V73.53a4.54,4.54,0,0,1-1.12,3.34,4,4,0,0,1-3,1.12,5.84,5.84,0,0,1-1.9-.28,5.16,5.16,0,0,1-1.47-.79l.58-1a5.18,5.18,0,0,0,.67.42,4.06,4.06,0,0,0,.65.27,3,3,0,0,0,.68.14,6.41,6.41,0,0,0,.79,0,2.75,2.75,0,0,0,2.12-.78,3.45,3.45,0,0,0,.72-2.41ZM1754.08,69a3.88,3.88,0,0,0,.77,2.58,2.55,2.55,0,0,0,2,.91,3.8,3.8,0,0,0,1.15-.17,2.46,2.46,0,0,0,.93-.5,2.39,2.39,0,0,0,.63-.85,2.79,2.79,0,0,0,.23-1.2V66.86a2.16,2.16,0,0,0-.21-.91,3,3,0,0,0-.61-.83,2.91,2.91,0,0,0-.94-.6,2.86,2.86,0,0,0-1.18-.24,2.53,2.53,0,0,0-2.05.92,4,4,0,0,0-.76,2.57Z"/><path class="cls-2" d="M1768.47,63.13a3.55,3.55,0,0,1,2.68,1,3.59,3.59,0,0,1,.95,2.61v7h-1.27V67a4.44,4.44,0,0,0-.12-1.05,2.17,2.17,0,0,0-.4-.87,1.94,1.94,0,0,0-.79-.59,3.18,3.18,0,0,0-1.24-.21,2.78,2.78,0,0,0-1.17.24,2.85,2.85,0,0,0-.91.63,3,3,0,0,0-.59.85,2.17,2.17,0,0,0-.21.92V73.7h-1.28V59.14h1.28v5.63a3.22,3.22,0,0,1,.44-.59,3,3,0,0,1,.67-.53,3.82,3.82,0,0,1,.87-.38A4.06,4.06,0,0,1,1768.47,63.13Z"/><path class="cls-2" d="M1775.81,64.44h-1.73V63.32h1.73V60.64h1.27v2.68h2.79v1.12h-2.79v6.31a2.52,2.52,0,0,0,.33,1.49,1.3,1.3,0,0,0,1.09.42,5.15,5.15,0,0,0,1.43-.19l.18,1.08a4.47,4.47,0,0,1-.79.18,7.86,7.86,0,0,1-.91.07,3.63,3.63,0,0,1-1.15-.16,1.86,1.86,0,0,1-.82-.5,2.12,2.12,0,0,1-.47-.91,5.19,5.19,0,0,1-.16-1.42Z"/><path class="cls-2" d="M1785.49,72.68a3,3,0,0,0,1.87-.5A1.5,1.5,0,0,0,1788,71v-.19a1.33,1.33,0,0,0-.63-1.19,6.48,6.48,0,0,0-2.09-.7,10.59,10.59,0,0,1-1.38-.36,3.45,3.45,0,0,1-1.05-.54,2.52,2.52,0,0,1-.68-.78,2.28,2.28,0,0,1-.24-1.09v-.27a2.44,2.44,0,0,1,.23-1.06,2.32,2.32,0,0,1,.67-.87,3.46,3.46,0,0,1,1.13-.6,5.25,5.25,0,0,1,1.62-.22,6,6,0,0,1,2,.3,5.34,5.34,0,0,1,1.46.78l-.58,1a5.19,5.19,0,0,0-1.3-.67,4.75,4.75,0,0,0-1.63-.24,2.73,2.73,0,0,0-1.74.48,1.4,1.4,0,0,0-.6,1.14v.21a1.17,1.17,0,0,0,.67,1.06,6.09,6.09,0,0,0,1.86.62,6.29,6.29,0,0,1,2.71,1,2.34,2.34,0,0,1,.83,1.92V71a2.35,2.35,0,0,1-.28,1.14,2.76,2.76,0,0,1-.78.89,3.56,3.56,0,0,1-1.17.58,5,5,0,0,1-1.48.2,6.83,6.83,0,0,1-2.2-.33,6.14,6.14,0,0,1-1.67-.88l.61-1a7.05,7.05,0,0,0,1.49.78A4.79,4.79,0,0,0,1785.49,72.68Z"/><path class="cls-2" d="M1801.44,64.67a3.23,3.23,0,0,0-1.21-.21,2.47,2.47,0,0,0-1.13.25,2.73,2.73,0,0,0-.86.69,3,3,0,0,0-.54,1.06,4.45,4.45,0,0,0-.19,1.35V73.7h-1.27V63.32h1.25v1.83a4.55,4.55,0,0,1,.42-.73,3.22,3.22,0,0,1,.62-.66,3.17,3.17,0,0,1,.83-.46,3,3,0,0,1,1-.17,4.65,4.65,0,0,1,.78,0,3.11,3.11,0,0,1,.67.16Z"/><path class="cls-2" d="M1811,72.68a7.43,7.43,0,0,1-1.5.81,5.87,5.87,0,0,1-2.17.36,4,4,0,0,1-3.15-1.24A5.05,5.05,0,0,1,1803,69.1V67.81a5,5,0,0,1,1.09-3.45,3.82,3.82,0,0,1,3-1.23,3.69,3.69,0,0,1,3,1.26,5.29,5.29,0,0,1,1,3.46v1.07h-6.89v.18a4,4,0,0,0,.8,2.66,2.76,2.76,0,0,0,2.21.94,4.64,4.64,0,0,0,1.78-.31,5.38,5.38,0,0,0,1.31-.71Zm-1-4.85v-.18a3.82,3.82,0,0,0-.73-2.5,2.85,2.85,0,0,0-4.15,0,3.81,3.81,0,0,0-.74,2.45v.18Z"/><path class="cls-2" d="M1816.89,72.68a3,3,0,0,0,1.88-.5,1.49,1.49,0,0,0,.63-1.18v-.19a1.33,1.33,0,0,0-.63-1.19,6.4,6.4,0,0,0-2.08-.7,10.35,10.35,0,0,1-1.39-.36,3.7,3.7,0,0,1-1-.54,2.37,2.37,0,0,1-.67-.78,2.28,2.28,0,0,1-.25-1.09v-.27a2.59,2.59,0,0,1,.23-1.06,2.43,2.43,0,0,1,.67-.87,3.41,3.41,0,0,1,1.14-.6,5.16,5.16,0,0,1,1.62-.22,6,6,0,0,1,2,.3,5.2,5.2,0,0,1,1.46.78l-.58,1a5.13,5.13,0,0,0-1.29-.67,4.79,4.79,0,0,0-1.63-.24,2.73,2.73,0,0,0-1.74.48,1.4,1.4,0,0,0-.6,1.14v.21a1.17,1.17,0,0,0,.66,1.06,6.27,6.27,0,0,0,1.87.62,6.24,6.24,0,0,1,2.7,1,2.32,2.32,0,0,1,.84,1.92V71a2.36,2.36,0,0,1-.29,1.14,2.61,2.61,0,0,1-.77.89,3.56,3.56,0,0,1-1.17.58,5,5,0,0,1-1.48.2,6.74,6.74,0,0,1-2.2-.33,6.21,6.21,0,0,1-1.68-.88l.62-1a6.82,6.82,0,0,0,1.49.78A4.73,4.73,0,0,0,1816.89,72.68Z"/><path class="cls-2" d="M1830.43,72.68a7.43,7.43,0,0,1-1.5.81,5.83,5.83,0,0,1-2.17.36,4,4,0,0,1-3.14-1.24,5.05,5.05,0,0,1-1.13-3.51V67.81a5,5,0,0,1,1.1-3.45,3.81,3.81,0,0,1,3-1.23,3.71,3.71,0,0,1,3,1.26,5.29,5.29,0,0,1,1,3.46v1.07h-6.89v.18a3.93,3.93,0,0,0,.8,2.66,2.75,2.75,0,0,0,2.21.94,4.68,4.68,0,0,0,1.78-.31,5.58,5.58,0,0,0,1.31-.71Zm-1-4.85v-.18a3.77,3.77,0,0,0-.73-2.5,2.85,2.85,0,0,0-4.15,0,3.8,3.8,0,0,0-.73,2.45v.18Z"/><path class="cls-2" d="M1838.37,64.67a3.23,3.23,0,0,0-1.21-.21,2.47,2.47,0,0,0-1.13.25,2.62,2.62,0,0,0-.86.69,3,3,0,0,0-.54,1.06,4.45,4.45,0,0,0-.19,1.35V73.7h-1.27V63.32h1.25v1.83a4.55,4.55,0,0,1,.42-.73,3.22,3.22,0,0,1,.62-.66,3.28,3.28,0,0,1,.82-.46,3.11,3.11,0,0,1,1-.17,4.65,4.65,0,0,1,.78,0,3.11,3.11,0,0,1,.67.16Z"/><path class="cls-2" d="M1843,73.7l-3.69-10.38h1.37l3,9,3-9h1.33l-3.63,10.38Z"/><path class="cls-2" d="M1857.25,72.68a7.43,7.43,0,0,1-1.5.81,5.83,5.83,0,0,1-2.17.36,4,4,0,0,1-3.15-1.24,5.05,5.05,0,0,1-1.12-3.51V67.81a5,5,0,0,1,1.09-3.45,3.83,3.83,0,0,1,3-1.23,3.69,3.69,0,0,1,3,1.26,5.23,5.23,0,0,1,1,3.46v1.07h-6.89v.18a3.93,3.93,0,0,0,.81,2.66,2.73,2.73,0,0,0,2.21.94,4.71,4.71,0,0,0,1.78-.31,5.78,5.78,0,0,0,1.31-.71Zm-1-4.85v-.18a3.77,3.77,0,0,0-.73-2.5,2.85,2.85,0,0,0-4.15,0,3.81,3.81,0,0,0-.74,2.45v.18Z"/><path class="cls-2" d="M1866.48,72.33h0a2.57,2.57,0,0,1-1.27,1.16,4.44,4.44,0,0,1-3.33.07,3.64,3.64,0,0,1-1.28-.87,4,4,0,0,1-.84-1.4,5.49,5.49,0,0,1-.3-1.88V67.58a5.51,5.51,0,0,1,.3-1.89,4.13,4.13,0,0,1,.83-1.4,3.66,3.66,0,0,1,1.28-.86,4.18,4.18,0,0,1,1.6-.3,3.67,3.67,0,0,1,1.87.44,3.58,3.58,0,0,1,1.14,1V59.14h1.28V73.7h-1.26Zm-5.77-3.12a3.88,3.88,0,0,0,.77,2.58,2.52,2.52,0,0,0,2,.91,4.2,4.2,0,0,0,1.15-.16,2.47,2.47,0,0,0,.93-.51,2.44,2.44,0,0,0,.63-.84,3,3,0,0,0,.23-1.21V66.86a2.16,2.16,0,0,0-.21-.91,2.92,2.92,0,0,0-1.55-1.43,2.86,2.86,0,0,0-1.18-.24,2.53,2.53,0,0,0-2,.92,4,4,0,0,0-.76,2.57Z"/></g></g></g></g></svg>