<svg xmlns="http://www.w3.org/2000/svg" viewBox="0 0 161.01 103.22"><defs><style>.cls-1{fill:#fff;}.cls-2{fill:#fbb03b;}</style></defs><g id="레이어_2" data-name="레이어 2"><g id="메인_홍보" data-name="메인 홍보"><g id="_1" data-name="1"><path class="cls-1" d="M100.39,51.61c0,28.51-22.47,51.61-50.2,51.61S0,80.12,0,51.61,22.47,0,50.19,0,100.39,23.11,100.39,51.61Z"/><path d="M120,57.25v-1a6.63,6.63,0,0,1-2.61-.58,1.51,1.51,0,0,1-1-1.37v-.37a1.27,1.27,0,0,1,.3-.84,2.2,2.2,0,0,1,.82-.61,4.8,4.8,0,0,1,1.29-.37,12,12,0,0,1,3.38,0,4.6,4.6,0,0,1,1.29.37,2.24,2.24,0,0,1,.83.61,1.32,1.32,0,0,1,.29.84v.37a1.49,1.49,0,0,1-1,1.37,6.54,6.54,0,0,1-2.6.58v1h5.78v.92H114.21v-.92Zm1.05-6.9h4.47v.92h-10v-.92H120V49H121Zm-.53,13.41a9.48,9.48,0,0,1-1.64-.13,5.45,5.45,0,0,1-1.36-.4,2.54,2.54,0,0,1-.92-.68,1.48,1.48,0,0,1-.34-1v-.48a1.45,1.45,0,0,1,.34-1,2.33,2.33,0,0,1,.92-.68,5.45,5.45,0,0,1,1.36-.4,10.59,10.59,0,0,1,1.64-.13,10.82,10.82,0,0,1,1.65.13,5.58,5.58,0,0,1,1.36.4,2.63,2.63,0,0,1,.92.68,1.54,1.54,0,0,1,.34,1v.47a1.54,1.54,0,0,1-.34,1,2.63,2.63,0,0,1-.92.68,5.58,5.58,0,0,1-1.36.4A9.68,9.68,0,0,1,120.51,63.76Zm0-3.91a9.46,9.46,0,0,0-1.21.08,5.54,5.54,0,0,0-1,.23,2.06,2.06,0,0,0-.72.41.8.8,0,0,0-.27.6v.34a.8.8,0,0,0,.27.6,2.23,2.23,0,0,0,.72.41,6.4,6.4,0,0,0,1,.24,9.49,9.49,0,0,0,1.21.07,9.65,9.65,0,0,0,1.22-.07,6.66,6.66,0,0,0,1-.24,2.23,2.23,0,0,0,.72-.41.8.8,0,0,0,.27-.6v-.34a.8.8,0,0,0-.27-.6,2.06,2.06,0,0,0-.72-.41,5.72,5.72,0,0,0-1-.23A9.62,9.62,0,0,0,120.51,59.85Zm0-7a9.54,9.54,0,0,0-1.24.07,4.69,4.69,0,0,0-1,.2,1.86,1.86,0,0,0-.63.35.63.63,0,0,0-.22.47v.25a.63.63,0,0,0,.22.47,1.86,1.86,0,0,0,.63.35,5.37,5.37,0,0,0,1,.21,11.84,11.84,0,0,0,1.24.06,12,12,0,0,0,1.25-.06,5.56,5.56,0,0,0,1-.21,1.86,1.86,0,0,0,.63-.35.63.63,0,0,0,.22-.47v-.25a.63.63,0,0,0-.22-.47,1.86,1.86,0,0,0-.63-.35,4.83,4.83,0,0,0-1-.2A9.7,9.7,0,0,0,120.51,52.85Z"/><path d="M128.53,55.82c.79-.3,1.47-.58,2-.84a13.6,13.6,0,0,0,1.43-.71,5.38,5.38,0,0,0,.92-.64,2.27,2.27,0,0,0,.53-.65,2.12,2.12,0,0,0,.23-.75,6.52,6.52,0,0,0,.05-.93v-.46H129v-1h5.78v1.48a8.11,8.11,0,0,1-.08,1.18,3,3,0,0,1-1,1.75,7.13,7.13,0,0,1-1.06.76,14.44,14.44,0,0,1-1.57.77c-.62.27-1.34.57-2.17.9Zm10.64,1.3v3.6h-7.35v1.76h7.71v.92h-8.75V59.81h7.36V58.06h-7.43v-.94Zm0-.83h-1v-7h1Z"/><path d="M147.31,56.21V54.44h-3.87V49.82h8.75v.93h-7.72v2.76h7.79v.93h-3.9v1.77h5.78v.93H141.53v-.93Zm.52,2a8.48,8.48,0,0,1,1.62.16,4.84,4.84,0,0,1,1.36.47,2.91,2.91,0,0,1,.94.78,1.73,1.73,0,0,1,.35,1.06v.53a1.73,1.73,0,0,1-.35,1.06,2.91,2.91,0,0,1-.94.78,4.84,4.84,0,0,1-1.36.47,8.23,8.23,0,0,1-3.23,0,4.84,4.84,0,0,1-1.36-.47,2.91,2.91,0,0,1-.94-.78,1.73,1.73,0,0,1-.35-1.06v-.53a1.77,1.77,0,0,1,.35-1.08,2.88,2.88,0,0,1,.94-.77,5.17,5.17,0,0,1,1.36-.46A8.45,8.45,0,0,1,147.83,58.26Zm0,4.54a5.86,5.86,0,0,0,1.19-.11,4.73,4.73,0,0,0,1-.3,2.31,2.31,0,0,0,.74-.51,1,1,0,0,0,.28-.68v-.4a1,1,0,0,0-.28-.69,2.14,2.14,0,0,0-.74-.5,4.24,4.24,0,0,0-1-.31,6.49,6.49,0,0,0-2.38,0,4.29,4.29,0,0,0-1,.31,2.14,2.14,0,0,0-.74.5,1,1,0,0,0-.28.69v.4a1,1,0,0,0,.28.68,2.31,2.31,0,0,0,.74.51,4.8,4.8,0,0,0,1,.3A5.86,5.86,0,0,0,147.83,62.8Z"/><path class="cls-2" d="M112.31,72.48v8.9h4.75v.84h-5.67V72.48Z"/><path class="cls-2" d="M124.77,72.48v.84H120V76.8h4.5v.84H120v3.74h4.87v.84h-5.79V72.48Z"/><path class="cls-2" d="M134.71,82.22h-1l-1.05-3h-4l-1.08,3h-1l3.53-9.74h1ZM129,78.37h3.43l-.92-2.63c-.07-.16-.12-.32-.18-.48s-.1-.32-.17-.5l-.19-.62c-.07-.23-.16-.51-.25-.82l-.24.82c-.07.23-.13.43-.2.62s-.11.35-.17.5-.11.32-.17.48Z"/><path class="cls-2" d="M139.7,72.48a3.69,3.69,0,0,1,2.82,1.08,4.32,4.32,0,0,1,1,3.1v1.39a4.34,4.34,0,0,1-1,3.1,3.72,3.72,0,0,1-2.82,1.07h-2.95V72.48Zm-2,8.9h2a3.16,3.16,0,0,0,1.17-.2,2.17,2.17,0,0,0,.92-.63,2.8,2.8,0,0,0,.6-1.06,4.54,4.54,0,0,0,.22-1.51V76.72a4.56,4.56,0,0,0-.22-1.5,2.85,2.85,0,0,0-.6-1.07,2.37,2.37,0,0,0-.92-.63,3.38,3.38,0,0,0-1.17-.2h-2Z"/><path class="cls-2" d="M151.88,72.48v.84H147.1V76.8h4.5v.84h-4.5v3.74H152v.84h-5.79V72.48Z"/><path class="cls-2" d="M158.2,78h-2.72v4.2h-.92V72.48h3.27a3.78,3.78,0,0,1,1.26.2,2.65,2.65,0,0,1,.94.55,2.26,2.26,0,0,1,.58.85,2.77,2.77,0,0,1,.2,1v.2a2.5,2.5,0,0,1-.46,1.53,2.58,2.58,0,0,1-1.25.94L161,82.22h-1Zm-2.72-4.68v3.84h2.07a2.6,2.6,0,0,0,1.78-.49,1.76,1.76,0,0,0,.55-1.39v-.13a1.73,1.73,0,0,0-.53-1.34,2.43,2.43,0,0,0-1.65-.49Z"/></g></g></g></svg>