<svg xmlns="http://www.w3.org/2000/svg" viewBox="0 0 1218.43 743.02"><defs><style>.cls-1{fill:#fff;}.cls-2,.cls-3{fill:none;stroke:#fff;stroke-miterlimit:10;}.cls-2{stroke-width:9.2px;}.cls-3{stroke-width:2.76px;}</style></defs><g id="레이어_2" data-name="레이어 2"><g id="메인_홍보" data-name="메인 홍보"><g id="_2page" data-name="2page"><polygon class="cls-1" points="296.78 86.85 292.15 88.27 295.11 92.2 290.55 90.52 290.71 95.47 287.95 91.39 285.22 95.47 285.38 90.52 280.84 92.2 283.73 88.27 279.16 86.85 283.73 85.46 280.84 81.51 285.38 83.18 285.22 78.26 287.95 82.32 290.71 78.26 290.55 83.18 295.11 81.51 292.15 85.46 296.78 86.85"/><path id="서울지도" class="cls-2" d="M806.17,6.81C677.7,45.21,659.42-82,614.82,155.86c-4,9.06-40.28,33.23-50.35,19.13s14.1-8.05,5-38.27-59.41-59.42-110.78-6c-36.25,63.45-14.1,92.65-18.12,127.9s-15.11-4-40.29,11.08c-35.25,38.27-36.25,14.1-59.42,34.24-4,9.07-15.1,20.14-31.22,7.05s-43.3-68.48-84.59-73.52S128.39,339.49,156.59,370s43.31,39.62,105.75,30.55c16.11,7.05-27.19,134-11.08,159.13s80.57,5,81.58-12.09,6-26.18,6-26.18,11.08-14.1,20.14,2,31.22,158.11,61.43,140c63.45-40.29,98.7,17.12,130.93,5s72.42-73.33,79.56-59.42c20,39,72-26.8,78.55-3-16.11,55.39,44.31,98,64.46,81.58,14.1-50.36,142-63.45,198.39-165.17,16.12-40.28-43.3-25.17-44.31-44.31s51.36-95.67,87.62-74.53,27.19-58.41-12.09-80.56-111.78,59.75-131.93,53.37S847.45,357,851.49,341.16s36.26-59.41,43.31-102.72S869.62-19.38,806.17,6.81Z"/><path class="cls-3" d="M452.42,140.56,424.18,87.2H287.83"/><polyline class="cls-3" points="8.87 482.06 148.9 482.06 242.55 402.99"/><polygon class="cls-1" points="17.61 482.5 12.98 483.91 15.95 487.85 11.38 486.16 11.54 491.12 8.79 487.03 6.06 491.12 6.22 486.16 1.68 487.85 4.57 483.91 0 482.5 4.57 481.11 1.68 477.16 6.22 478.83 6.06 473.9 8.79 477.97 11.54 473.9 11.38 478.83 15.95 477.16 12.98 481.11 17.61 482.5"/><polyline class="cls-3" points="545.92 734.32 730.61 734.32 755.27 691.16"/><polygon class="cls-1" points="554.88 734.4 550.25 735.81 553.22 739.75 548.65 738.06 548.81 743.02 546.06 738.93 543.33 743.02 543.49 738.06 538.94 739.75 541.83 735.81 537.27 734.4 541.83 733.01 538.94 729.06 543.49 730.73 543.33 725.8 546.06 729.87 548.81 725.8 548.65 730.73 553.22 729.06 550.25 733.01 554.88 734.4"/><polyline class="cls-3" points="1038.48 402.99 1078.22 450.47 1209.74 450.47"/><polygon class="cls-1" points="1218.43 450.65 1213.8 452.07 1216.77 456 1212.2 454.32 1212.36 459.28 1209.61 455.19 1206.88 459.28 1207.04 454.32 1202.49 456 1205.38 452.07 1200.82 450.65 1205.38 449.26 1202.49 445.32 1207.04 446.98 1206.88 442.06 1209.61 446.12 1212.36 442.06 1212.2 446.98 1216.77 445.32 1213.8 449.26 1218.43 450.65"/><g id="발자국"><path class="cls-1" d="M187.59,218.89c1.28,1,3.1,1.62,3.8,3.2.3,1.19-7.72-2.64-8.39-3.16C184.18,218.05,186.23,218.4,187.59,218.89Z"/><path class="cls-1" d="M156.71,243.28a.93.93,0,0,1,1.31.23c-.35.29.1.6,0,.92.47.12,0,.75-.32.39.1.38.14.63-.37.47C156.28,245.1,156.3,244.12,156.71,243.28Z"/><path class="cls-1" d="M172.1,244.94c1.9,1.2,3.09,1.39,1,3.4-.14.22-.3,0-.41-.1-.28-.31-2.65-2.34-2.06-1.15.36.84,2.68,1.42,1.69,2.36-1.15,1.12-1.21,1.13-2.45.11-.5-.69-2.39-1.31-1.83-2.27A5.14,5.14,0,0,1,172.1,244.94Z"/><path class="cls-1" d="M162.52,237.41c-.28-.85-2.16-1.35-1.14-2.23.84-.89.84-.89,1.77-.08.46.62,2.24,1.35,1.56,2.2-2.24,2.61-1.79,3.32-5,1-.69-.5.32-1.27.52-1.83C161,235.71,161.75,237.34,162.52,237.41Z"/><path class="cls-1" d="M168.62,252.27c-1.17-.92-5.08-1.84-3.77-3.7,1.71-2.08,3.22,1.48,4.79,2.25C170.6,251.29,169.2,252.48,168.62,252.27Z"/><path class="cls-1" d="M160.34,241.56c-.63-1-2.85-.78-1.85-2.17.61-1.45,1.74.76,2.73.86,1.65.57.08,1.88-.08,2.94-.1.33-.3.37-.59.25-1.13-.68-4.46-1-2.69-2.77C158.81,240.61,159.27,241.92,160.34,241.56Z"/><path class="cls-1" d="M166.19,234.22c-.16-.92-2-1.89-.84-2.4.31-.59.33-.59.71-.09.23.2.84.74.16.66.1.21.39.16.55.27.34.19-.07.29-.1.44a.79.79,0,0,1-.24.54c.17,0,.28-.26.48-.07s.15,0,.18-.11c.14-.45.32-.23.49,0,.63.73.62.72-.14,1.33-1.61,2.15-2.64.61-4.13-.74-.43-.37,0-.68.28-.92C164.63,232.09,165.14,233.85,166.19,234.22Z"/><path class="cls-1" d="M156.66,250.08c2.31,1.44,5.33,2.84,7.28,4.69C161.06,255.51,157.43,253.08,156.66,250.08Z"/><path class="cls-1" d="M163,244.94c.28-1.9,1.62-1,2.76-.58,2.89.55.2,1.86-.8,2.95-1.17.57-2.82-1.18-2-2.37Z"/><path class="cls-1" d="M187.78,226.94c-.49.32-.52,0-.55-.31-.41-2.24,2.48.13,3.46.31.51.23.52.34.19.77-.78,1.47-1.5.35-2.61,0-.21-.06-.4,0-.36.23,0,.5-.77.38-.64,1,.33-.06.69-.95.88-.32.06.16.21.07.31.11s.22.09.21-.05c0-.39.16-.18.28-.11.68.39.69.59.08,1.08-1.06,1.06-3.25-.92-2-2.08C187.15,227.11,187.75,227.46,187.78,226.94Z"/><path class="cls-1" d="M167.6,241.87c.51-2,3.94-1.76,4.35.27C172.52,245.46,166.58,245.19,167.6,241.87Zm2.67-.43c-1.67-.53-2.79,1.62-.9,2.24C170.8,244.21,171.89,242,170.27,241.44Z"/><path class="cls-1" d="M183.22,224.16a1.94,1.94,0,1,1-.81,3.8C179.39,227.49,180.22,223.08,183.22,224.16Zm-.3.71a1.18,1.18,0,1,0-.83,2.2C184.09,228,185,225.44,182.92,224.87Z"/><path class="cls-1" d="M183.77,230.68c1.32,1.72-.31.53-.35,1.47.51-.75,2.19.42,1.14.71-1.27,1.6-2.63-1.45-3.14-2.45-.16-.51,0-.65.48-.58.93.37,2.25-.29,3,.36.09.62-.64.74-1.05.42Z"/><path class="cls-1" d="M167,240.22c-1.26-.45-1.33-.73-.43-1.7.48-.32,1-1.45,1.6-1.16.33.52,2.51,2.12,1.35,2.34a2.3,2.3,0,0,0-1.78.48C167.57,240.38,167.3,240.31,167,240.22Z"/><path class="cls-1" d="M165.25,243.38c-.46-.23-1.64-.2-1.32-1,.46-.61.81-2.33,1.73-2.06,1.38.54.64,1.87,1,3,.2.86-1,.12-1.4.07Z"/><path class="cls-1" d="M178.31,226c-.82-.94-2.09-1.26-2.7-2.2.32-.42,1,0,1.17.39s.4,0,.59.23.4.19.62.35c0,.49.38.38.7.37,1.22.29-.05,1.76-.71,2.08-1.11-.21-2-1.55-3.08-2.1-.6-.33-.07-1,.44-.57C176.38,225.11,177.05,225.91,178.31,226Z"/><path class="cls-1" d="M179,222.07c.14.2,2.49.62,1.81,1.22-.65.18-1,1.27-1.73,1-.53-.51-2.88-.89-2.14-1.76A1.77,1.77,0,0,1,179,222.07Z"/><path class="cls-1" d="M161.86,248.38c-1.28-1.19,1.07-1.31,1.61-.51.58.59-.11,1.19,0,1.83s-.78-.24-1.07-.26c3.76,3-5.2-2.54-1-.81C160.37,247.93,161.1,247.75,161.86,248.38Z"/><path class="cls-1" d="M173.14,239.93c0,.19.19.6,0,.69-.55-.11-.22.26-.18.38.39.66.1,2.09,1.17,2,.45-.07.49.66,1.12.42,1,.05-.16,1.18-.17,1.66-.39.73-1.6-.8-2.11-1.09-.41-.89.42-2-.39-2.93C172.35,240.66,172.57,240.25,173.14,239.93Z"/><path class="cls-1" d="M160,245.2c-.15.28-.67.49-.45.78a.22.22,0,0,1,.05.35c-.2.2-.51-.08-.47-.32s.45-.38.41-.71c-.22,0-.23.28-.45.24-.15-.38.52-.75,0-1.06a.35.35,0,0,1-.07-.42c.7-.09,2.7.4,2.62,1.4.2,1.47-2.16,2.23-1.87.86A1,1,0,0,0,160,245.2Z"/><path class="cls-1" d="M170.13,236.23c.58.15.6.61.51,1.16.11-.07.19-.09.19-.13.16-.75,1.19.05.69.45-.35.25-.15,1.57-.73,1.1C166.85,235.38,171.4,235.4,170.13,236.23Z"/><path class="cls-1" d="M167.08,253.28c-.91-.19-10.67-6.43-10.94-7C159.87,248.51,163.52,250.82,167.08,253.28Z"/><path class="cls-1" d="M166.39,253.64A92.9,92.9,0,0,1,156.11,247,71,71,0,0,1,166.39,253.64Z"/><path class="cls-1" d="M156.18,247.75A83.12,83.12,0,0,1,166,254,103.31,103.31,0,0,1,156.18,247.75Z"/><path class="cls-1" d="M191,226c-.91-.67-4.1-1-3.74-2C187.62,223.33,193.31,225.94,191,226Z"/><path class="cls-1" d="M182.14,222.36c-.51-.42-3.8-.93-2.88-1.61C180.21,219.91,185.46,223.23,182.14,222.36Z"/><path class="cls-1" d="M156.34,248.34c3,2,6.22,3.74,9.11,6-3.19-1.74-6.21-3.75-9.23-5.75Z"/><path class="cls-1" d="M164.47,254.32a67.63,67.63,0,0,1-8-5A65.13,65.13,0,0,1,164.47,254.32Z"/><path class="cls-1" d="M184.77,231c.2-.33,1.79-.53,1.39.18.53-.38.53-.38.08-1.05,0,.39-.32.55-.51.44s.17-.32.12-.57c-.33.32-.74-.31-.43-.53s2.08,1.27,1.78,1.67C184.9,233.06,186.45,231.18,184.77,231Z"/><path class="cls-1" d="M163.36,240.16c.24-.49,2.56-3.92,2.49-2.3C165.35,238.12,163.19,241.88,163.36,240.16Z"/><path class="cls-1" d="M182.8,219.47c2.62.92,5,2,7.52,3.12A43.43,43.43,0,0,1,182.8,219.47Z"/><path class="cls-1" d="M184.34,220.61c2.11.83,4.2,1.7,6.23,2.69l-.07.18-6.25-2.67Z"/><path class="cls-1" d="M168.85,245.61c-.32.39-1.75,2.59-1.83,1.18C167.26,246.38,168.94,244.52,168.85,245.61Z"/><path class="cls-1" d="M185.06,222.56c.26.13,1.76.62,1,1C185.09,224.08,183,222,185.06,222.56Z"/><path class="cls-1" d="M178.72,228c.9-1.3,1.21.33,1.36,1.14C180.07,229.8,178.6,228.35,178.72,228Z"/><path class="cls-1" d="M166.46,236.49c.65-.57,1.48-1.57,2.34-1.65C168.9,235.18,166.31,237.68,166.46,236.49Z"/><path class="cls-1" d="M167.51,253c-4.66-2.36-4.26-3.51.08-.11Z"/><path class="cls-1" d="M162,243c.24-.5.37-1.47.93-1.61C163.35,241.94,161.31,245.67,162,243Z"/><path class="cls-1" d="M168.23,252.66a10.67,10.67,0,0,1-3.5-2.19A10.75,10.75,0,0,1,168.23,252.66Z"/><path class="cls-1" d="M184.85,228.72c-1,.46-2.76.81-3.6.09.19-.3.78,0,1.1,0C183.22,229.18,184,228.68,184.85,228.72Z"/><path class="cls-1" d="M180.05,220.26a7.32,7.32,0,0,1,2.66,1.06A5.88,5.88,0,0,1,180.05,220.26Z"/><path class="cls-1" d="M186,227.6a14.9,14.9,0,0,0-.07-2.6C186.83,225.21,186.22,226.94,186,227.6Z"/><path class="cls-1" d="M184.31,221.85a9.86,9.86,0,0,1,2.47,1A3.46,3.46,0,0,1,184.31,221.85Z"/><path class="cls-1" d="M169.83,242c.75.22.42,1.34-.29,1A.55.55,0,1,1,169.83,242Z"/><path class="cls-1" d="M177.58,308.14c-1.45-.57-1.55-.78-.85-2.2.61-.87,2.21.77,2.74,1.3.34,1.21.6,3.85-.78,4.22-1.36-.78-3.93-1.19-3-3.24.55-1.11,2,1.08,2.85.7,0-.37-.71-.52-1-.76Z"/><path class="cls-1" d="M189.25,312.51c1.09.94,2.55,1,1.21,2.55-.42.77-3.44-1.46-3.05-2.09.71-.65.6-2.51,1.48-2.63.88.5,2.4.7,2.79,1.66C191.75,314,190.4,312.8,189.25,312.51Z"/><path class="cls-1" d="M190.72,283.46c1.9,1.05,4.07,3,3.95,5.28C193.42,287.88,184.47,280.1,190.72,283.46Z"/><path class="cls-1" d="M179.32,312.82c1,.36.21,2.82-.86,2.12-1-1.2-4.37-1.93-3.24-4C176.6,311.18,178,312.3,179.32,312.82Z"/><path class="cls-1" d="M187,315.9c.17.94,1.54.94,1.73,1.83-.83,2-2.38-.88-3.36-1.48-.43-.57.76-1.12,1-1.69.56-.88,1.33.22,1.88.57.39.47,1.87.57,1.37,1.37s-.52.89-1.27.26A4,4,0,0,0,187,315.9Z"/><path class="cls-1" d="M182,321.9a6.76,6.76,0,0,1-6.78-4.57c2.39.87,4.47,3.22,6.83,4.44Z"/><path class="cls-1" d="M190.58,307.82c0-.21.31-.3.37-.56s.28.3.46.34c.07-.52.75,0,1.08.11s0,.41-.16.57c.23,1.09-1.46-.11-2.11.05.81.7,2.63,1,1.8,2.33-.88.1-3-.83-3.15-1.78.39-1,0-2.94,1.53-1.89,0,0,.07.13.06.14C190.06,307.47,190.65,307.65,190.58,307.82Z"/><path class="cls-1" d="M181.34,314.93c-.9-.55-.93-.62-.69-1.65.4-3.75,1.94-1.3,3.19.5C183.51,314.8,182.41,315.93,181.34,314.93Z"/><path class="cls-1" d="M185,287.49c.33.38,0,.67.05,1,.69-.05.07-.72.56-.91.25-.07.1-.28,0-.38-.69-.65-1.87-1.1-1.14-2.19.82-.9,2.18,1.57,3,2,.48.62-1.52.82-1.63,1.75-.83.59-2.71-.71-2-1.83.4-.88,1.28.64.86,1.07C184.91,288.31,184.88,287.73,185,287.49Z"/><path class="cls-1" d="M180.59,306.8c1.52-2.31,4.94,1.6,2.86,3.1C181.77,311.15,179.48,308.39,180.59,306.8Zm1.24,2.35c1.77,1,1.74-1.7.48-2.14S180.64,308.62,181.83,309.15Z"/><path class="cls-1" d="M188.78,293.07c-1.85-.85-1.78-4.2.64-3.52S191.72,294.61,188.78,293.07Zm.93-2.62c-2.13-1.2-1.93,1.87-.28,2.23S190.73,290.92,189.71,290.45Z"/><path class="cls-1" d="M185.25,292c-.41-.18-.63-.91-.07-1,.31.06,2.46,3.44,1.22,3-1.43-.11-4-.32-3.17-2.3.82.21,1,.41,1.08,1.14C184.7,292,183.56,291.89,185.25,292Z"/><path class="cls-1" d="M185.7,310.14c-.49-.38-1-.71-.83-1.53.31-.48-1.18-1.83-.14-1.67.68.29,2.13.33,2.29,1.13C186.76,308.7,186.71,310.84,185.7,310.14Z"/><path class="cls-1" d="M191.31,295.26c.51.92,1.63,1.26,2.42,2,1.41,1.68-3.66-1-3.27-1.6,0-.7.8-2.09,1.35-1a.46.46,0,0,0,.45.36c.7.28,1,.9,1.7,1.12.89,1.54-2.07-.73-2.57-.94Z"/><path class="cls-1" d="M185.32,312.24c-.84,2.09-1.61.15-2.57-.73-.19-.23-.19-.41.17-.45C184.2,310.45,186.87,310.07,185.32,312.24Z"/><path class="cls-1" d="M193.94,295.22c-.57-.68-2.08-1.1-1.86-2.15.26-.28-.09-1.49.45-1.19,1,.82,2.63,1.87,2,3.34C194.38,295.58,194.14,295.29,193.94,295.22Z"/><path class="cls-1" d="M181.2,316.94c.62.4.86,1,0,.51.16.31.56.39.71.73a5.91,5.91,0,0,1-3-1.94c.46,0,.72.38,1.14.5-1-.71-.9-.48-.09-1.22C181.05,314.53,182.85,317.49,181.2,316.94Z"/><path class="cls-1" d="M182.72,304.38c-.08.74-.22.87-.94.8-1-.34-1.53,1.1-2.38.61-.37-.41-2.13-.79-1.46-1.41.3-.38.81-1.48,1.2-.53.16.15.14.54.54.43.09,0,.14.17.19.28.39.91,1.46.17,2.19.29S181.65,304.43,182.72,304.38Z"/><path class="cls-1" d="M184.54,318.31c-.15-.18,0-.33-.08-.5-.25.18-.13.64-.51.65-.22,0-.43-.3-.2-.42.43-.22.43-.22.59-.62a.75.75,0,0,0-.73.5c-.18.36-.37.39-.63.07a1.22,1.22,0,0,1,.73-2c.44-.1,2.48,1.81,1.75,1.94C185,317.8,184.78,318,184.54,318.31Z"/><path class="cls-1" d="M175,314.1q5.18,3.33,10.15,6.95C184.62,321,175.39,314.72,175,314.1Z"/><path class="cls-1" d="M185.78,305.55c.62-.24.66-.24,1.11.05.06-.17-.13-.48.34-.16.79,2.06-1.59.95-2.6.55-.67-.3.43-.63.51-1s1.09,0,.65.42A.12.12,0,0,0,185.78,305.55Z"/><path class="cls-1" d="M175.08,314.77a87.31,87.31,0,0,1,9.52,6.54A69.35,69.35,0,0,1,175.08,314.77Z"/><path class="cls-1" d="M184,321.56a108.48,108.48,0,0,1-9-6.23c3.16,1.82,6,4.09,9.09,6Z"/><path class="cls-1" d="M186.24,283.88c.79,1,2.44,1.67,2.73,2.93C189.07,287.94,184,282.83,186.24,283.88Z"/><path class="cls-1" d="M192.69,289.94c.59.76,2.55,1.73,2.12,2.89-.19.12-.34-.19-.48-.33C193.83,292,190.27,288.9,192.69,289.94Z"/><path class="cls-1" d="M183.37,321.68c-2.88-1.8-5.7-3.69-8.42-5.73A59.91,59.91,0,0,1,183.37,321.68Z"/><path class="cls-1" d="M182.66,321.83c-2.55-1.54-5-3.29-7.44-5.11A46,46,0,0,1,182.66,321.83Z"/><path class="cls-1" d="M185.8,320c-.19-.12-.9-.74-.36-.8.17,0,.09-.11,0-.18-.14-.25.1-.48.28-.3a1.13,1.13,0,0,0,.85-.24A.87.87,0,1,1,185.8,320Z"/><path class="cls-1" d="M185,290c-.32.14-.26.55-.53.37a.3.3,0,0,1,.1-.54c-.43-.17-.77-.22-.78.41.54-.53.82.74.81,1.14-.41-.14-.41-.82-1-.53-.25.14-.37,0-.38-.24,0-.4-.13-1.57.51-1.39.5.36,1.71.39,1.69,1.13C185.3,290.61,184.65,290.41,185,290Z"/><path class="cls-1" d="M187.38,310c1.35-1.31-.21,2.64-.77,2.87C185.74,312.63,187.47,310.78,187.38,310Z"/><path class="cls-1" d="M194.22,289c-2-1.69-3.85-3.44-5.65-5.3A55.53,55.53,0,0,1,194.22,289Z"/><path class="cls-1" d="M192.67,288.28l-4.79-4.41.12-.12c1.66,1.39,3.25,2.87,4.79,4.4Z"/><path class="cls-1" d="M180.05,310.18c.88-1.38.43,2.14-.32,1.83C179.17,311.62,180,310.67,180.05,310.18Z"/><path class="cls-1" d="M190.19,287.52c.42.42,1.13.76,1.19,1.35C190.79,289.68,188.91,287,190.19,287.52Z"/><path class="cls-1" d="M188.31,306.51c.75-.63.07,1.77,0,2.22C187.36,309.55,188.23,306.91,188.31,306.51Z"/><path class="cls-1" d="M188.4,295.19c-1.21-.56.5-.67,1-.63s.25.37.23.6C189.63,295.91,188.68,295.26,188.4,295.19Z"/><path class="cls-1" d="M175.14,313.63l3.39,2.06C177.13,315.82,176.19,314.35,175.14,313.63Z"/><path class="cls-1" d="M184.49,315c1.56-2.19,2.33-1.5.3.24C184.54,315.47,184.25,315.24,184.49,315Z"/><path class="cls-1" d="M175,312.87c.49.34,3.93,2.33,2.88,2.24C177,314.31,175.58,313.86,175,312.87Z"/><path class="cls-1" d="M186.24,290.37a16.33,16.33,0,0,0,1.58,3.22C186.82,293.18,186.44,291.55,186.24,290.37Z"/><path class="cls-1" d="M189.56,305.39a7.56,7.56,0,0,1,3.14,1.08A8.76,8.76,0,0,1,189.56,305.39Z"/><path class="cls-1" d="M182,308.63c-.24-.2-.42-.43-.25-.74C182.5,306.93,183.22,309.2,182,308.63Z"/><path class="cls-1" d="M955,582.67c-1.12-1.19-2.84-2-3.3-3.7-.14-1.23,7.26,3.71,7.85,4.32C958.24,584,956.26,583.35,955,582.67Z"/><path class="cls-1" d="M989,562.91a.91.91,0,0,1-1.26-.41c.39-.24,0-.61.08-.92-.46-.18.12-.74.37-.34,0-.39-.05-.64.43-.41C989.69,561.17,989.53,562.14,989,562.91Z"/><path class="cls-1" d="M974,559.09c-1.71-1.46-2.86-1.82-.53-3.52.16-.2.29,0,.38.16.24.35,2.29,2.7,1.88,1.43-.24-.88-2.45-1.78-1.34-2.58,1.3-.94,1.36-.94,2.44.24.4.76,2.18,1.64,1.49,2.51A5.14,5.14,0,0,1,974,559.09Z"/><path class="cls-1" d="M982.42,567.9c.16.88,2,1.64.82,2.37-1,.76-1,.76-1.76-.17-.37-.68-2-1.65-1.24-2.4,2.59-2.27,2.25-3,5-.27.62.6-.5,1.21-.77,1.74C983.74,569.81,983.17,568.08,982.42,567.9Z"/><path class="cls-1" d="M978.5,552.32c1,1.08,4.77,2.54,3.21,4.2-2,1.82-3-1.92-4.43-2.91C976.4,553,978,552,978.5,552.32Z"/><path class="cls-1" d="M985.17,564.1c.49,1,2.71,1.18,1.52,2.41-.8,1.35-1.61-1-2.57-1.24-1.55-.8.19-1.87.5-2.89.14-.32.34-.33.61-.16,1,.82,4.28,1.59,2.27,3.11C986.55,565.26,986.28,563.9,985.17,564.1Z"/><path class="cls-1" d="M978.34,570.54c0,.93,1.73,2.15.49,2.49-.39.54-.41.54-.71,0-.2-.23-.73-.85-.06-.68-.08-.22-.37-.21-.52-.34s.11-.28.16-.43a.85.85,0,0,1,.32-.5c-.17,0-.31.22-.48,0s-.16,0-.2.08c-.2.43-.35.18-.49,0-.52-.81-.51-.8.33-1.3,1.9-1.89,2.7-.23,4,1.33.38.42,0,.67-.4.86C979.58,572.86,979.33,571.05,978.34,570.54Z"/><path class="cls-1" d="M990,556.19c-2.08-1.75-4.87-3.57-6.54-5.68C986.44,550.19,989.69,553.11,990,556.19Z"/><path class="cls-1" d="M983,560.37c-.55,1.84-1.74.74-2.82.19-2.77-1,.08-1.87,1.22-2.81,1.24-.4,2.62,1.56,1.6,2.62Z"/><path class="cls-1" d="M955.94,574.68c.52-.25.51.06.49.38.09,2.28-2.43-.48-3.38-.79-.46-.31-.46-.41-.08-.8,1-1.33,1.54-.13,2.59.39.19.08.39.09.39-.18.11-.49.81-.27.78-.95-.34,0-.82.84-.92.2,0-.17-.19-.11-.29-.16s-.2-.12-.21,0c0,.39-.18.15-.29.07-.62-.49-.61-.69.07-1.08,1.2-.9,3.09,1.37,1.7,2.34C956.59,574.6,956,574.17,955.94,574.68Z"/><path class="cls-1" d="M978,562.76c-.78,1.9-4.15,1.19-4.26-.88C973.67,558.51,979.51,559.62,978,562.76Zm-2.71,0c1.58.77,3-1.2,1.21-2.08C975.19,560,973.8,562.06,975.32,562.8Z"/><path class="cls-1" d="M960.05,578.08a2,2,0,1,1,1.34-3.65C964.32,575.33,962.87,579.57,960.05,578.08Zm.4-.67a1.18,1.18,0,1,0,1.13-2.06C959.74,574.14,958.48,576.56,960.45,577.41Z"/><path class="cls-1" d="M960.44,571.55c-1.07-1.89.37-.49.55-1.41-.61.67-2.11-.73-1-.86,1.48-1.41,2.39,1.8,2.76,2.87.08.52-.05.64-.56.5-.87-.49-2.27,0-2.88-.77,0-.63.74-.65,1.1-.27Z"/><path class="cls-1" d="M978.35,564.47c1.18.63,1.22.92.19,1.75-.53.25-1.19,1.29-1.76.93-.25-.57-2.17-2.46-1-2.52a2.3,2.3,0,0,0,1.83-.22C977.85,564.24,978.11,564.35,978.35,564.47Z"/><path class="cls-1" d="M980.57,561.61c.42.29,1.6.42,1.17,1.14-.54.54-1.13,2.19-2,1.8-1.29-.73-.37-1.95-.56-3.09-.08-.87,1,0,1.39.14Z"/><path class="cls-1" d="M965.17,577c.68,1,1.89,1.55,2.37,2.56-.38.37-1-.15-1.11-.54s-.4,0-.55-.32-.37-.25-.57-.44c0-.48-.31-.43-.63-.46-1.17-.46.29-1.73,1-2,1.07.37,1.79,1.82,2.75,2.52.56.41-.06,1-.52.5C967,578.1,966.41,577.22,965.17,577Z"/><path class="cls-1" d="M963.89,580.73c-.1-.21-2.37-1-1.61-1.45.66-.09,1.17-1.12,1.84-.7.46.58,2.72,1.29,1.87,2A1.77,1.77,0,0,1,963.89,580.73Z"/><path class="cls-1" d="M984.64,557.13c1.09,1.36-1.25,1.15-1.67.28-.49-.66.28-1.16.25-1.81s.74.35,1,.41c-3.29-3.5,4.8,3.25.89,1C986,557.8,985.3,557.87,984.64,557.13Z"/><path class="cls-1" d="M972.27,563.9c.05-.19-.1-.63.08-.69.53.19.25-.22.23-.35-.29-.71.2-2.09-.87-2.17-.45,0-.39-.72-1.05-.56-1-.21.33-1.15.4-1.63.5-.67,1.47,1,1.94,1.38.28.94-.7,1.93,0,3C973.16,563.29,972.88,563.66,972.27,563.9Z"/><path class="cls-1" d="M986.05,560.55c.18-.26.73-.39.55-.71a.22.22,0,0,1,0-.35c.23-.17.5.15.42.38s-.5.31-.51.64c.21.08.28-.24.48-.17.1.39-.62.67-.14,1,.11.08.1.3,0,.43-.7,0-2.61-.78-2.39-1.76,0-1.48,2.46-1.9,2-.58A1,1,0,0,0,986.05,560.55Z"/><path class="cls-1" d="M974.73,568c-.56-.23-.51-.68-.35-1.21-.11.05-.19.06-.2.1-.26.71-1.17-.23-.62-.54.38-.21.37-1.54.88-1C977.85,569.29,973.35,568.63,974.73,568Z"/><path class="cls-1" d="M980.17,551.54c.87.32,9.64,7.88,9.83,8.45C986.63,557.29,983.34,554.48,980.17,551.54Z"/><path class="cls-1" d="M980.9,551.29a91,91,0,0,1,9.23,8.05A72.53,72.53,0,0,1,980.9,551.29Z"/><path class="cls-1" d="M990.17,558.56a82.73,82.73,0,0,1-8.81-7.57A100.72,100.72,0,0,1,990.17,558.56Z"/><path class="cls-1" d="M952.65,575.2c.81.8,3.91,1.62,3.41,2.53C955.58,578.27,950.32,574.88,952.65,575.2Z"/><path class="cls-1" d="M960.87,580c.45.49,3.62,1.46,2.63,2C962.43,582.71,957.71,578.68,960.87,580Z"/><path class="cls-1" d="M990.09,558c-2.72-2.4-5.62-4.58-8.16-7.18,2.91,2.17,5.61,4.58,8.31,7Z"/><path class="cls-1" d="M982.9,550.89a66.62,66.62,0,0,1,7.21,6.1A63.53,63.53,0,0,1,982.9,550.89Z"/><path class="cls-1" d="M959.49,571.11c-.25.31-1.85.28-1.36-.37-.57.3-.57.3-.22,1,.06-.39.39-.5.57-.36s-.22.28-.21.54c.38-.27.7.42.36.58s-1.88-1.54-1.53-1.9C959.66,569,957.85,570.67,959.49,571.11Z"/><path class="cls-1" d="M982,565.05c-.31.46-3.1,3.52-2.8,1.93C979.72,566.79,982.4,563.37,982,565.05Z"/><path class="cls-1" d="M959.81,582.78a80.68,80.68,0,0,1-7-4.16A43.24,43.24,0,0,1,959.81,582.78Z"/><path class="cls-1" d="M958.45,581.43c-2-1.11-3.92-2.27-5.79-3.55l.1-.16,5.8,3.52Z"/><path class="cls-1" d="M977.32,558.88c.37-.34,2.1-2.31,2-.9C979,558.35,977.08,559.94,977.32,558.88Z"/><path class="cls-1" d="M958,579.4c-.24-.17-1.66-.86-.83-1.14C958.21,577.91,960,580.28,958,579.4Z"/><path class="cls-1" d="M965.05,574.94c-1.08,1.16-1.15-.49-1.19-1.32C964,573,965.22,574.58,965.05,574.94Z"/><path class="cls-1" d="M978.4,568.26c-.73.46-1.7,1.33-2.56,1.29C975.79,569.2,978.72,567.1,978.4,568.26Z"/><path class="cls-1" d="M979.69,551.79c4.28,3,3.73,4.08-.09.1Z"/><path class="cls-1" d="M983.69,562.46c-.3.46-.58,1.39-1.14,1.46C982.25,563.29,984.79,559.89,983.69,562.46Z"/><path class="cls-1" d="M978.94,552a10.5,10.5,0,0,1,3.15,2.65A10.79,10.79,0,0,1,978.94,552Z"/><path class="cls-1" d="M959.09,573.33c1-.32,2.84-.41,3.58.42-.23.28-.78-.12-1.09-.17C960.77,573.11,959.88,573.49,959.09,573.33Z"/><path class="cls-1" d="M962.64,582.38a7.06,7.06,0,0,1-2.48-1.42A6,6,0,0,1,962.64,582.38Z"/><path class="cls-1" d="M957.84,574.28a13.85,13.85,0,0,0-.31,2.59C956.63,576.52,957.48,574.9,957.84,574.28Z"/><path class="cls-1" d="M958.65,580.21a9.72,9.72,0,0,1-2.3-1.34A3.45,3.45,0,0,1,958.65,580.21Z"/><path class="cls-1" d="M975.84,562.29c-.71-.32-.22-1.37.44-1A.54.54,0,1,1,975.84,562.29Z"/></g></g></g></g></svg>