<svg xmlns="http://www.w3.org/2000/svg" viewBox="0 0 154.96 39.84"><defs><style>.cls-1{fill:#1c2a53;}.cls-2,.cls-3{fill:none;stroke:#1c2a53;stroke-miterlimit:10;}.cls-2{stroke-width:0.41px;}.cls-3{stroke-width:0.53px;}</style></defs><g id="레이어_2" data-name="레이어 2"><g id="main"><g id="_4page" data-name="4page"><g id="로고"><path class="cls-1" d="M54.27,16.41c.47-1.81.93-3.6,1.39-5.41h-11l.1-.46C45.61,7.24,46.45,4,47.29.67A1.19,1.19,0,0,0,47.36.4H45.2c-.87,3.45-1.77,6.91-2.66,10.38,0,.18-.13.24-.29.22H7.42a.43.43,0,0,1,0,.11L7.15,12h16c5.24,0,10.46,0,15.7,0a3.58,3.58,0,0,1,1.34.25A2.2,2.2,0,0,1,41.46,15c-.52,2.06-1,4.1-1.58,6.14-.12.45-.25.9-.35,1.36,0,.16-.1.25-.28.22a.65.65,0,0,0-.14,0H7.58a4.27,4.27,0,0,1-1-.09,2.2,2.2,0,0,1-1.71-1.76l-.27,1a5.38,5.38,0,0,0-.11,1.87H39.22c-.17.6-.31,1.18-.45,1.77-.51,1.89-1,3.78-1.46,5.68a4.24,4.24,0,0,1-4,3.17H1.39L0,39.75H35.53a6.92,6.92,0,0,0,6.54-5.17l1-4,1.19-4.68a.15.15,0,0,0,0-.07c.08-.29.15-.57.22-.9l.59-2.26c.38-1.43.74-2.87,1.09-4.31a5.31,5.31,0,0,0,.12-1.93Z"/><path class="cls-1" d="M78.42,16.41q2-7.87,4-15.75A.34.34,0,0,1,82.62.4H80.51q-1.32,5.1-2.62,10.22c-.08.28-.16.39-.48.39H67c-.24,0-.34.05-.41.31L63.51,23.4c-.9,3.52-1.8,7.06-2.71,10.58,0,.19-.06.33-.31.33-3.52,0-7,0-10.55,0L48.6,39.52l3.28.18H62.73a2.86,2.86,0,0,0,2.84-2.31l0-.15c.89-3.48,1.76-7,2.66-10.43l1.07-4.15q.8-3.12,1.6-6.26h7.48Z"/><path class="cls-1" d="M144.21,26.12c-.45,1.71-.88,3.43-1.34,5.13a4.13,4.13,0,0,1-3.31,3.11,3,3,0,0,1-.73.07H109a2.46,2.46,0,0,1,.06-.33c.1-.4.2-.8.31-1.2L99.78,20.65,98.92,24c2.73,3.47,5.4,6.9,8.11,10.37H96.26l-1.38,5.41H108v.07h33.14a5.83,5.83,0,0,0,1.3-.14,6.84,6.84,0,0,0,5.26-5c.33-1.22.63-2.44.94-3.65l1.84-7.22h-5.64C144.57,24.62,144.38,25.38,144.21,26.12Z"/><path class="cls-1" d="M104.61,16.39h9q2-7.63,3.91-15.26a.24.24,0,0,0-.09-.06A5.19,5.19,0,0,0,114.74.4H113a2.38,2.38,0,0,1,.9.29,2.17,2.17,0,0,1,1.08,2.36c-.26,1.27-.61,2.53-.94,3.8s-.65,2.51-1,3.78c-.07.27-.18.36-.45.36H91.29c-.34,0-.48.08-.55.41Q87.86,22.67,85,33.93c-.07.32-.19.4-.5.4-3.43,0-6.83,0-10.26,0h-.14L73.64,36a3.61,3.61,0,0,1-.08.38l-.7,3.38H86.72a3,3,0,0,0,3-2.41c.91-3.56,1.83-7.15,2.75-10.72l.12-.5c.82-3.24,1.67-6.49,2.48-9.73Z"/><path class="cls-1" d="M152.92,1.4a5.22,5.22,0,0,0-3.15-.94h-1.64a2.52,2.52,0,0,1,1.06.41,2.3,2.3,0,0,1,.84,2.5c-.63,2.48-1.27,5-1.91,7.45,0,.16-.1.26-.28.22H126.33c-.29,0-.4.1-.46.38q-1.53,6-3.05,11.94c0,.12-.07.27-.11.43h5.63c.63-2.44,1.25-4.88,1.88-7.33h19.93a2.85,2.85,0,0,0,2.74-2.23l.81-3.17c.38-1.43.73-2.86,1.09-4.29A5,5,0,0,0,152.92,1.4Z"/><line class="cls-2" x1="46.67" y1="2.85" x2="79.82" y2="2.85"/><line class="cls-2" x1="46.02" y1="5.53" x2="79.16" y2="5.53"/><line class="cls-2" x1="45.17" y1="8.2" x2="78.62" y2="8.2"/><line class="cls-2" x1="52.39" y1="34.43" x2="58.9" y2="8.04"/><line class="cls-2" x1="55.25" y1="34.29" x2="61.25" y2="9.96"/><line class="cls-2" x1="58.04" y1="34.43" x2="63.93" y2="10.58"/><path class="cls-2" d="M63.93,10.58s.65-2.38,2.84-2.38"/><path class="cls-2" d="M61.1,10.58s.84-5,5.45-5"/><line class="cls-2" x1="44.68" y1="10.88" x2="77.83" y2="10.88"/><path class="cls-2" d="M58.89,8.07s1.28-5.22,8.28-5.22"/><line class="cls-2" x1="54.26" y1="15.93" x2="56.85" y2="5.42"/><path class="cls-2" d="M56.82,5.55S58.29.24,68,.24"/><line class="cls-2" x1="47.37" y1="0.24" x2="44.67" y2="10.88"/><line class="cls-2" x1="50.31" y1="0.24" x2="47.61" y2="10.88"/><line class="cls-2" x1="80.51" y1="0.14" x2="77.81" y2="10.78"/><line class="cls-2" x1="77.57" y1="0.24" x2="74.86" y2="10.88"/><line class="cls-2" x1="81.14" y1="5.53" x2="114.28" y2="5.53"/><line class="cls-2" x1="80.29" y1="8.2" x2="113.74" y2="8.2"/><line class="cls-2" x1="79.8" y1="10.88" x2="112.94" y2="10.88"/><line class="cls-2" x1="76.7" y1="34.43" x2="83.21" y2="8.04"/><line class="cls-2" x1="79.54" y1="34.36" x2="85.56" y2="9.95"/><line class="cls-2" x1="82.36" y1="34.43" x2="88.23" y2="10.57"/><path class="cls-2" d="M88.23,10.57s.66-2.37,2.85-2.37"/><path class="cls-2" d="M85.41,10.57s.83-5.05,5.46-5.05"/><path class="cls-2" d="M83.21,8.06s1.27-5.21,8.27-5.21"/><path class="cls-2" d="M81.13,5.55S82.6.23,92.26.23"/><line class="cls-2" x1="97.77" y1="26.87" x2="103.57" y2="34.29"/><line class="cls-2" x1="96.92" y1="30.61" x2="99.91" y2="34.43"/><line class="cls-2" x1="112.66" y1="0.24" x2="109.96" y2="10.88"/><line class="cls-2" x1="117" y1="2.86" x2="150.15" y2="2.86"/><line class="cls-2" x1="116.35" y1="5.53" x2="149.49" y2="5.53"/><line class="cls-2" x1="115.5" y1="8.2" x2="148.95" y2="8.2"/><path class="cls-2" d="M112.31.21a2.91,2.91,0,0,1,2.07.66,2.08,2.08,0,0,1,.65,2H81.79"/><line class="cls-2" x1="121.55" y1="26.25" x2="139.66" y2="26.25"/><line class="cls-2" x1="120.85" y1="28.93" x2="139.04" y2="28.93"/><line class="cls-2" x1="119.15" y1="31.6" x2="138.37" y2="31.6"/><line class="cls-2" x1="121.05" y1="8.2" x2="117.25" y2="23.63"/><line class="cls-2" x1="118.48" y1="6.59" x2="113.93" y2="25.13"/><path class="cls-2" d="M121.71,26.25a1.67,1.67,0,0,1-1.51-2.33l3.31-13.69"/><path class="cls-2" d="M123.43,10.57s.29-2.37,3.37-2.37"/><path class="cls-2" d="M125.54,5.53A4.68,4.68,0,0,0,120.85,9"/><path class="cls-2" d="M121.05,28.93s-5.11,0-3.75-5.51"/><path class="cls-2" d="M118.48,6.59a6.58,6.58,0,0,1,6.13-3.73"/><path class="cls-2" d="M114.14,24.26s-1.91,7.34,5.72,7.34"/><line class="cls-2" x1="140.4" y1="23.61" x2="137.49" y2="34.28"/><path class="cls-1" d="M142.64,26.06a.09.09,0,0,1-.06.06h-.15l-.07,0a.15.15,0,0,1,0-.07.06.06,0,0,1,0-.07.41.41,0,0,0,0-.15.08.08,0,0,0-.07-.07l-.07,0,0,.17a.11.11,0,0,1-.08.08.14.14,0,0,1-.11,0,.17.17,0,0,1-.1-.06.11.11,0,0,1,0-.11l.05-.17-.84-.23a.1.1,0,0,1-.06-.05s0-.05,0-.07,0-.06,0-.09a.36.36,0,0,1,0-.09l.06-.05a.09.09,0,0,1,.07,0l.84.23,0-.12a.11.11,0,0,1,.07-.08.17.17,0,0,1,.12,0,.21.21,0,0,1,.1.06.12.12,0,0,1,0,.12l0,.11.12,0a.5.5,0,0,1,.19.11.3.3,0,0,1,.08.16.67.67,0,0,1,0,.2A1,1,0,0,1,142.64,26.06Z"/><path class="cls-1" d="M141.9,26.41l.07,0a.24.24,0,0,1,0,.08.28.28,0,0,1,0,.09l0,.08a.17.17,0,0,1-.06.06h-.07l-1-.28s-.05,0-.06,0a.24.24,0,0,1,0-.08.28.28,0,0,1,0-.09.2.2,0,0,1,0-.08.12.12,0,0,1,0-.05.08.08,0,0,1,.08,0Zm.48.11.07,0a.16.16,0,0,1,0,.07.17.17,0,0,1,0,.1v.06a.12.12,0,0,1,0,.08l-.07,0h-.12l-.08,0a.15.15,0,0,1,0-.06.17.17,0,0,1,0-.1l0-.06a.19.19,0,0,1,.05-.09l.06,0a.21.21,0,0,1,.08,0Z"/><path class="cls-1" d="M141.1,27.94h.09a.15.15,0,0,0,.09,0l.07-.05a.19.19,0,0,0,0-.09.2.2,0,0,0,0-.11.18.18,0,0,0,0-.1.6.6,0,0,0-.08-.08l-.1,0-.58-.16-.06,0a.24.24,0,0,1,0-.08.28.28,0,0,1,0-.09.2.2,0,0,1,0-.08s0,0,.06-.06h.07l1,.29a.1.1,0,0,1,.08.06.49.49,0,0,1,0,.12.36.36,0,0,1,0,.11.13.13,0,0,1-.08.07.61.61,0,0,1,0,.15,1.36,1.36,0,0,1,0,.2.54.54,0,0,1-.1.2.47.47,0,0,1-.14.14.34.34,0,0,1-.17,0,.41.41,0,0,1-.19,0l-.71-.19a.15.15,0,0,1-.06-.05.19.19,0,0,1,0-.08.25.25,0,0,1,0-.08.94.94,0,0,1,0-.09l.06,0a.11.11,0,0,1,.08,0Z"/><path class="cls-1" d="M141.27,28.85a.18.18,0,0,1,.07,0,.19.19,0,0,1,0,.08.34.34,0,0,1,0,.09l0,.08-.06.05a.06.06,0,0,1-.07,0l-1-.27-.06-.05a.19.19,0,0,1,0-.07.28.28,0,0,1,0-.09.25.25,0,0,1,0-.09.12.12,0,0,1,.05-.05.11.11,0,0,1,.08,0Zm.48.12.07,0s0,0,0,.06a.17.17,0,0,1,0,.1v.06a.19.19,0,0,1,0,.09.11.11,0,0,1-.07,0h-.12l-.08,0,0-.06a.17.17,0,0,1,0-.1l0-.07a.16.16,0,0,1,.05-.08l.06,0h.13Z"/><path class="cls-1" d="M140.26,29.38a.12.12,0,0,1,.1,0,.2.2,0,0,1,.06.07.28.28,0,0,1,0,.09.29.29,0,0,1,0,.09.18.18,0,0,1,0,.07l-.07,0a.17.17,0,0,0-.12,0,.75.75,0,0,0-.07.12s0,.06,0,.08a.11.11,0,0,0,0,.08.13.13,0,0,0,0,.06l0,0a.07.07,0,0,0,.06,0s0,0,.06-.06l.06-.1.06-.12.09-.15a.65.65,0,0,1,.11-.12.33.33,0,0,1,.13-.07.27.27,0,0,1,.15,0,.32.32,0,0,1,.18.1.28.28,0,0,1,.09.17.64.64,0,0,1,0,.2,1.55,1.55,0,0,1,0,.21,1.21,1.21,0,0,1-.05.14.5.5,0,0,1-.08.12.58.58,0,0,1-.12.1.34.34,0,0,1-.15.06.15.15,0,0,1-.1,0,.09.09,0,0,1-.06-.06.19.19,0,0,1,0-.08.2.2,0,0,1,0-.09s0-.05,0-.08l.07,0a.11.11,0,0,0,.09-.05.2.2,0,0,0,.05-.09.34.34,0,0,0,0-.14s0-.06-.05-.07,0,0,0,0,0,0-.05,0a.59.59,0,0,0,0,.08l0,.08a1.62,1.62,0,0,1-.1.18.49.49,0,0,1-.11.14.42.42,0,0,1-.14.09.3.3,0,0,1-.19,0,.32.32,0,0,1-.17-.1.34.34,0,0,1-.1-.16.53.53,0,0,1,0-.22,1.27,1.27,0,0,1,0-.26.77.77,0,0,1,.07-.16.38.38,0,0,1,.09-.13.41.41,0,0,1,.13-.1A.35.35,0,0,1,140.26,29.38Z"/><path class="cls-1" d="M140.09,31.85h.18a.2.2,0,0,0,.07-.06.19.19,0,0,0,0-.09.21.21,0,0,0,0-.11.31.31,0,0,0,0-.1.19.19,0,0,0-.08-.07.19.19,0,0,0-.1-.05l-.57-.16a.09.09,0,0,1-.06,0,.24.24,0,0,1,0-.08.14.14,0,0,1,0-.09.19.19,0,0,1,0-.08l.06-.06h.07l1.49.4s.05,0,.06,0,0,0,0,.07a.28.28,0,0,1,0,.09.2.2,0,0,1,0,.08.1.1,0,0,1-.05.06h-.08l-.4-.11a.34.34,0,0,1,0,.15.43.43,0,0,1,0,.19.67.67,0,0,1-.09.21.61.61,0,0,1-.15.13.49.49,0,0,1-.17.06.65.65,0,0,1-.19,0l-.7-.19s0,0-.06-.05a.11.11,0,0,1,0-.07.28.28,0,0,1,0-.09.36.36,0,0,1,0-.09.15.15,0,0,1,.06,0,.08.08,0,0,1,.07,0Z"/><line class="cls-2" x1="137.69" y1="23.6" x2="134.95" y2="34.29"/><polygon class="cls-1" points="137.17 31.6 136.35 31.85 136.87 32.55 136.06 32.25 136.09 33.13 135.6 32.41 135.12 33.13 135.15 32.25 134.34 32.55 134.85 31.85 134.04 31.6 134.85 31.36 134.34 30.66 135.15 30.95 135.12 30.06 135.6 30.79 136.09 30.06 136.06 30.95 136.87 30.66 136.35 31.36 137.17 31.6"/><polygon class="cls-1" points="67.06 5.42 66.24 5.66 66.76 6.36 65.95 6.07 65.97 6.95 65.49 6.22 65.01 6.95 65.03 6.07 64.23 6.36 64.74 5.66 63.93 5.42 64.74 5.17 64.23 4.47 65.03 4.77 65.01 3.89 65.49 4.61 65.97 3.89 65.95 4.77 66.76 4.47 66.24 5.17 67.06 5.42"/><polygon class="cls-1" points="120.71 5.46 119.89 5.71 120.42 6.41 119.61 6.11 119.63 6.99 119.14 6.26 118.66 6.99 118.69 6.11 117.88 6.41 118.39 5.71 117.58 5.46 118.39 5.21 117.88 4.51 118.69 4.81 118.66 3.93 119.14 4.65 119.63 3.93 119.61 4.81 120.42 4.51 119.89 5.21 120.71 5.46"/><path class="cls-2" d="M115.57,34.28a5.38,5.38,0,0,1-5-6.28c.76-2.91,6.18-23.93,6.18-23.93S118.68.42,124.61.41"/><line class="cls-2" x1="147.78" y1="0.31" x2="145.08" y2="11.04"/><line class="cls-2" x1="14.28" y1="2.86" x2="44.65" y2="2.86"/><line class="cls-2" x1="15.26" y1="5.53" x2="43.99" y2="5.53"/><line class="cls-2" x1="17.29" y1="8.2" x2="43.44" y2="8.2"/><line class="cls-2" x1="3.27" y1="26.19" x2="38.45" y2="26.19"/><line class="cls-2" x1="2.57" y1="28.87" x2="37.89" y2="28.87"/><line class="cls-2" x1="1.86" y1="31.54" x2="37.18" y2="31.54"/><line class="cls-2" x1="16.34" y1="14.51" x2="37.49" y2="14.51"/><line class="cls-2" x1="13.65" y1="17.19" x2="34.33" y2="17.19"/><line class="cls-2" x1="10.96" y1="19.87" x2="31.27" y2="19.87"/><line class="cls-2" x1="7.99" y1="17.34" x2="10.96" y2="5.89"/><line class="cls-2" x1="11.2" y1="15.35" x2="13.33" y2="7.12"/><path class="cls-2" d="M10.9,6.11s.38-3.26,3.53-3.26"/><path class="cls-2" d="M13.31,7.22a2,2,0,0,1,1.95-1.67"/><line class="cls-2" x1="42.26" y1="0.21" x2="39.46" y2="11.24"/><path class="cls-2" d="M15.4,9.56s0-1.36,1.89-1.36"/><path class="cls-2" d="M15.43,9.33l-.77,3.83s-.12,1.35,1.93,1.35"/><path class="cls-2" d="M11.5,14.2s-1.39,3,2.15,3"/><path class="cls-2" d="M8.12,16.84s-1.16,3,3.11,3"/><line class="cls-2" x1="30.65" y1="25.1" x2="31.83" y2="20.4"/><line class="cls-2" x1="32.77" y1="27.37" x2="35.12" y2="17.95"/><line class="cls-2" x1="34.77" y1="30.13" x2="38.45" y2="15.35"/><path class="cls-2" d="M37.49,14.51s1.19-.07.92,1"/><path class="cls-2" d="M34.33,17.19s1-.1.79.76"/><path class="cls-2" d="M31.19,19.87s.81-.11.63.53"/><path class="cls-2" d="M32.32,31.54s2,.19,2.48-1.53"/><path class="cls-2" d="M30.44,28.87a2.35,2.35,0,0,0,2.39-1.76"/><path class="cls-2" d="M29,26.19a1.37,1.37,0,0,0,1.64-1.09"/><line class="cls-2" x1="6.81" y1="23.71" x2="4" y2="34.74"/><path class="cls-1" d="M5.61,25.18v-.11a.1.1,0,0,1,0-.08.16.16,0,0,1,.09,0,.12.12,0,0,1,.09,0,.09.09,0,0,1,0,.08v.29a.14.14,0,0,1-.13.13l-1.19,0-.06,0,0-.06a.17.17,0,0,1,0-.07.19.19,0,0,1,0-.08.1.1,0,0,1,0,0,.09.09,0,0,1,.06,0Z"/><path class="cls-1" d="M3.64,27a.66.66,0,0,1,0-.11l.06-.05h.11a.15.15,0,0,1,.07,0l.06.07L4,27a.56.56,0,0,1,0,.08c0,.07.09.15.14.23a1.73,1.73,0,0,0,.14.2.36.36,0,0,0,.1.11.19.19,0,0,0,.11,0,.12.12,0,0,0,.09,0,.17.17,0,0,0,.06-.11.21.21,0,0,0,0-.11.32.32,0,0,0-.08-.09.12.12,0,0,1-.07-.13.22.22,0,0,1,0-.08.21.21,0,0,1,0-.06l.06,0a.16.16,0,0,1,.09,0,.43.43,0,0,1,.19.22.4.4,0,0,1,0,.15.76.76,0,0,1,0,.15.54.54,0,0,1-.08.19.36.36,0,0,1-.11.13.34.34,0,0,1-.15.07.3.3,0,0,1-.16,0,.56.56,0,0,1-.16-.07.46.46,0,0,1-.15-.16l-.09-.12A1,1,0,0,1,4,27.47a.57.57,0,0,1-.08-.13l-.07-.11-.1.46a.09.09,0,0,1-.06.07H3.6l-.08-.05a.09.09,0,0,1,0-.09Z"/><path class="cls-1" d="M3.47,30.35a.1.1,0,0,1,0-.05s0,0,.05,0h.07l.05,0a.1.1,0,0,1,0,.05.13.13,0,0,1,0,.06.3.3,0,0,0,0,.19.13.13,0,0,0,.1.1.12.12,0,0,0,.12,0A.32.32,0,0,0,4,30.55a.17.17,0,0,0,0-.1A.16.16,0,0,0,4,30.37a.19.19,0,0,1-.07-.08.2.2,0,0,1,0-.11l0-.06a.09.09,0,0,1,.05,0H4l.06,0a.4.4,0,0,1,.12.1.83.83,0,0,1,.07.13.68.68,0,0,1,0,.14.33.33,0,0,1,0,.14.59.59,0,0,1-.07.2.77.77,0,0,1-.12.13.34.34,0,0,1-.15.06.43.43,0,0,1-.16,0,.46.46,0,0,1-.17-.09.37.37,0,0,1-.08-.15l-.07.06-.09.05-.1,0H3.15A.35.35,0,0,1,3,30.81a.45.45,0,0,1-.11-.13.48.48,0,0,1-.05-.18.62.62,0,0,1,0-.23.66.66,0,0,1,.05-.15A.36.36,0,0,1,3,30a.44.44,0,0,1,.11-.09.33.33,0,0,1,.14,0,.11.11,0,0,1,.1,0,.13.13,0,0,1,0,.1.16.16,0,0,1,0,.12.1.1,0,0,1-.09.06.31.31,0,0,0-.1,0,.33.33,0,0,0-.05.12.28.28,0,0,0,0,.16.14.14,0,0,0,.1.08.11.11,0,0,0,.08,0l.07,0a.24.24,0,0,0,.06-.08A.36.36,0,0,0,3.47,30.35Z"/><path class="cls-1" d="M3.43,32.7l0,0,0,.06v.07l0,.07,0,.07-.05,0H3.3l-.78-.18v0s0,0,0,.06l-.06,0H2.36L2.3,33l0,0a.06.06,0,0,1,0-.06v0l-.12,0a.07.07,0,0,1,0,0s0,0,0-.06a.17.17,0,0,1,0-.07.09.09,0,0,1,0-.07l0,0h.06l.12,0,.09-.38a.28.28,0,0,1,0-.11s0,0,0-.05h.14l0,0,.06,0,.08.07Zm-.84-.12.43.1-.38-.35Z"/><path class="cls-3" d="M80.39.46q-1.33,5.13-2.63,10.26c-.08.28-.16.39-.48.39-3.47,0-6.93,0-10.4,0-.24,0-.34.06-.41.32-1,4-2.06,8.06-3.09,12.09-.91,3.53-1.8,7.06-2.71,10.59,0,.18-.07.32-.32.32-3.51,0-7.05,0-10.57,0h-.22c2-7.76,4-15.5,6-23.28h-11c0-.18.07-.32.11-.46Q45.9,5.7,47.15.77a1.58,1.58,0,0,0,.09-.31Z"/><path class="cls-3" d="M144.65,23.88c-.21.81-.39,1.58-.58,2.33-.44,1.72-.87,3.44-1.33,5.14a4.15,4.15,0,0,1-3.31,3.11,3,3,0,0,1-.73.07H108.83c0-.13,0-.23,0-.34q4.29-16.65,8.55-33.32c.07-.26.15-.36.45-.36h29.53a2.8,2.8,0,0,1,1.65.45,2.31,2.31,0,0,1,.84,2.49c-.63,2.49-1.28,5-1.91,7.46-.05.16-.1.26-.28.22H126.2c-.29,0-.4.1-.47.38q-1.52,6-3,11.94a3.83,3.83,0,0,0-.11.43Z"/><path class="cls-3" d="M45.08.46c-.88,3.46-1.78,6.93-2.67,10.42a.24.24,0,0,1-.3.22h-35c0-.12.05-.21.08-.31C7.73,8.41,8.34,6.06,9,3.7A4.19,4.19,0,0,1,12.31.52l.16-.06Z"/><path class="cls-3" d="M1,34.43,3.74,23.81H39.08c-.16.6-.3,1.18-.45,1.77q-.75,2.84-1.45,5.68a4.24,4.24,0,0,1-4,3.16H1Z"/><path class="cls-3" d="M23.06,12.13c5.24,0,10.46,0,15.7,0a3.66,3.66,0,0,1,1.34.25,2.19,2.19,0,0,1,1.22,2.66q-.76,3.07-1.58,6.14c-.11.45-.24.91-.34,1.36,0,.16-.11.25-.28.22H7.45a5,5,0,0,1-1-.09,2.23,2.23,0,0,1-1.66-2.81c.6-2.51,1.27-5,1.91-7.54,0-.2.16-.19.31-.19H23.06Z"/><path class="cls-3" d="M73.72,34.42c0-.15,0-.27.07-.38Q78.07,17.39,82.32.76c.06-.24.14-.31.36-.31h29.69a2.69,2.69,0,0,1,1.36.33,2.16,2.16,0,0,1,1.08,2.36c-.27,1.27-.62,2.53-.94,3.8s-.65,2.51-1,3.78c-.08.27-.18.36-.46.36H91.15c-.33,0-.47.08-.54.41C88.69,19,86.77,26.51,84.83,34c-.06.31-.18.38-.49.38-3.43,0-6.83,0-10.26,0Z"/><path class="cls-3" d="M106.89,34.46h-11c.91-3.52,1.8-7,2.72-10.61C101.39,27.39,104.12,30.91,106.89,34.46Z"/></g></g></g></g></svg>