<svg xmlns="http://www.w3.org/2000/svg" viewBox="0 0 161.39 55.56"><defs><style>.cls-1{fill:#fff;}.cls-2{fill:#ff894a;}</style></defs><g id="레이어_2" data-name="레이어 2"><g id="메인_홍보" data-name="메인 홍보"><g id="_7page" data-name="7page"><g id="좌측_네비" data-name="좌측 네비"><path class="cls-1" d="M70.62,13l3.94.25a8.6,8.6,0,0,1-2,5.3,6,6,0,0,1-4.74,2,6.21,6.21,0,0,1-5.47-2.74,13.2,13.2,0,0,1-1.88-7.54c0-3.24.62-5.76,1.87-7.59A6.25,6.25,0,0,1,67.87,0q6.07,0,6.62,7.73l-3.9.3q-.16-4.45-2.71-4.46A2.39,2.39,0,0,0,65.75,5C65.22,6,65,7.82,65,10.58a12,12,0,0,0,.73,5.07A2.34,2.34,0,0,0,67.87,17Q70.19,17,70.62,13Z"/><path class="cls-1" d="M90.49,10.3q0,10.31-7,10.31A6,6,0,0,1,78.15,18c-1.18-1.75-1.78-4.31-1.78-7.68q0-10.31,7-10.3a6,6,0,0,1,5.26,2.58Q90.5,5.16,90.49,10.3Zm-4.5,0a15.53,15.53,0,0,0-.61-5.39,2,2,0,0,0-2-1.34,2,2,0,0,0-1.93,1.35,15.18,15.18,0,0,0-.62,5.38,15.54,15.54,0,0,0,.61,5.34,2.07,2.07,0,0,0,3.89.06A15.2,15.2,0,0,0,86,10.3Z"/><path class="cls-1" d="M93.31.31h4.74l5,12.42V.31h3.3v20h-3.82L96.62,5.83V20.3H93.31Z"/><path class="cls-1" d="M107.69.31h12.12V4.06h-4V20.3h-4.27V4.06h-3.87Z"/><path class="cls-1" d="M124.34.31h4.3l5.56,20h-4.37l-1-4.13h-5.48l-.95,4.13H118.5Zm3.71,12.43-2-8.19-1.89,8.19Z"/><path class="cls-1" d="M145,13l3.94.25a8.6,8.6,0,0,1-2,5.3,6,6,0,0,1-4.74,2,6.21,6.21,0,0,1-5.47-2.74,13.2,13.2,0,0,1-1.88-7.54,13.37,13.37,0,0,1,1.86-7.59A6.28,6.28,0,0,1,142.25,0q6.08,0,6.62,7.73L145,8q-.16-4.45-2.71-4.46A2.39,2.39,0,0,0,140.13,5c-.53,1-.79,2.81-.79,5.57a12,12,0,0,0,.73,5.07A2.34,2.34,0,0,0,142.25,17Q144.58,17,145,13Z"/><path class="cls-1" d="M149.27.31h12.12V4.06h-4V20.3h-4.28V4.06h-3.87Z"/><g id="발자국"><path class="cls-2" d="M54.16,49c-.33.24-.67.47-1,.72s-.37.21-.56-.06a10.19,10.19,0,0,0-.79-.93c-.23-.27-.21-.5.08-.69a12.43,12.43,0,0,1,2-1.08.61.61,0,0,1,.35,0A5.25,5.25,0,0,1,57.7,49a.34.34,0,0,1-.08.51,31.6,31.6,0,0,1-2.73,1.89.53.53,0,0,1-.6,0,6.62,6.62,0,0,1-.94-.71c-.34-.3-.2-.52.1-.72a11.51,11.51,0,0,0,1.53-1c.14-.13.43-.27.32-.43s-.34.06-.5.14a5.76,5.76,0,0,0-.63.37Z"/><path class="cls-2" d="M63.47,40.69a7.31,7.31,0,0,0,1.45-.79c.54-.3.63-.29,1,.22l.42.7c.18.3.1.5-.19.67a26.07,26.07,0,0,1-2.48,1.24.41.41,0,0,1-.6-.19,9.22,9.22,0,0,0-1.62-2c-.2-.19-.22-.35,0-.53a19.12,19.12,0,0,1,2.29-1.7.44.44,0,0,1,.47,0c1,.58,1.09,1,.13,1.68A3.19,3.19,0,0,0,63.47,40.69Z"/><path class="cls-2" d="M38.46,25.84a9.41,9.41,0,0,1,3.48-1.47,6.68,6.68,0,0,1,2.74.23c.12,0,.31,0,.3.21s-.16.16-.27.2c-1.21.44-2.42.88-3.64,1.3s-2.46.85-3.69,1.26c-.22.07-.51.24-.67,0s.13-.4.25-.59A4.13,4.13,0,0,1,38.46,25.84Z"/><path class="cls-2" d="M59.11,49.63a.62.62,0,0,1,.89,0c.23.18.48.33.69.52a.78.78,0,0,1-.11,1.24c-1.27.5-2.38,1.34-3.67,1.77a1.4,1.4,0,0,1-1.34-.74c0-.19.1-.28.22-.36C56.89,51.23,58,50.43,59.11,49.63Z"/><path class="cls-2" d="M65.43,44.23A1.17,1.17,0,0,0,66.5,44a4,4,0,0,1,1.06-.49.27.27,0,0,1,.3.05,1.27,1.27,0,0,1,.38.9c0,.3-.28.37-.5.44-.91.33-1.84.62-2.75.94-.24.08-.38,0-.45-.21a10.54,10.54,0,0,0-.6-1.43c-.21-.46-.16-.66.31-.92s.72-.3,1.07-.48a5.58,5.58,0,0,0,1.15-.73.42.42,0,0,1,.71.16c.44.91.54.88-.37,1.25a6.58,6.58,0,0,0-1.22.6A1.8,1.8,0,0,0,65.43,44.23Z"/><path class="cls-2" d="M68.39,51.51a5,5,0,0,1-.51,1,6.76,6.76,0,0,1-2.95,2.33,11.75,11.75,0,0,1-3.1.66c-.23,0-.58.07-.65-.17s.28-.35.47-.46c1.73-.95,3.47-1.86,5.25-2.68.49-.23.93-.55,1.39-.82Z"/><path class="cls-2" d="M59.94,37.33c-.18-.08-.12-.41-.32-.58s.06-.15.16-.16a.57.57,0,0,0,.35-.1c0-.13-.17,0-.15-.12.09-.4.49-.54.75-.78s.37.09.4.33c0,0,0,.07,0,.08.8.24.13.53,0,.74a10.76,10.76,0,0,0-.93,1.15,5,5,0,0,0,1.32-.83,1,1,0,0,1,1.58.32.3.3,0,0,1-.12.4,17.1,17.1,0,0,1-2.38,1.65.45.45,0,0,1-.55-.09,11.5,11.5,0,0,0-1.59-1.27.22.22,0,0,1-.08-.35,8.17,8.17,0,0,1,.71-.61s.16,0,.16,0C59.39,37.63,59.82,37.2,59.94,37.33Z"/><path class="cls-2" d="M61.92,48.82c-.9.54-1,.53-1.78-.16a14.59,14.59,0,0,0-1.26-1.1.49.49,0,0,1-.25-.46c0-.22.22-.27.39-.33l1.52-.52a4.19,4.19,0,0,1,1.53-.17c.17,0,.26.14.31.29a7,7,0,0,1,.23.69C63,48.19,62.94,48.21,61.92,48.82Z"/><path class="cls-2" d="M39.35,32.8c.49-.12.61.29.89.41a.39.39,0,0,0-.3-.57c-.15,0-.29-.09-.24-.35s-.19-.21-.34-.15a8.07,8.07,0,0,0-1.17.5.71.71,0,0,1-1-.21l-.27-.31c-.25-.33-.23-.49.17-.65.62-.25,1.25-.46,1.88-.69l1.16-.38c.28-.09.45,0,.38.29a2.46,2.46,0,0,0,.41,2,.45.45,0,0,1-.17.63l-.65.5a1.12,1.12,0,0,1-1.75-.18c-.2-.2-.19-.35,0-.52S38.68,33,39,33s.58,0,.69.33c0,0,.09,0,.12,0s0-.12,0-.16Z"/><path class="cls-2" d="M54.38,45.69a1.39,1.39,0,0,1,.4-1.93,2.82,2.82,0,0,1,2.45-.47,1.54,1.54,0,0,1,1.22,1.31,1.49,1.49,0,0,1-.73,1.6,2.89,2.89,0,0,1-2.31.34A1.7,1.7,0,0,1,54.38,45.69Zm2.65,0c.73-.43.82-1.06.21-1.47a1.66,1.66,0,0,0-1.87.05.81.81,0,0,0-.12,1.26A1.36,1.36,0,0,0,57,45.69Z"/><path class="cls-2" d="M46.06,32a2.88,2.88,0,0,1-2,.37,1.48,1.48,0,0,1-1.24-1,1.42,1.42,0,0,1,.43-1.56,2.76,2.76,0,0,1,2.58-.66,1.44,1.44,0,0,1,1.16,1,1.48,1.48,0,0,1-.54,1.5C46.3,31.85,46.14,32,46.06,32Zm-1.88-2c-.58.33-.81.76-.7,1.18a1,1,0,0,0,1.18.64A2,2,0,0,0,46,31.28a.79.79,0,0,0,.22-.91.89.89,0,0,0-.77-.62A2.36,2.36,0,0,0,44.18,30Z"/><path class="cls-2" d="M43.47,34.67l-.34.13c-.23.1-.36,0-.51-.18a.26.26,0,0,1-.07-.36.44.44,0,0,1,.47-.21,9.72,9.72,0,0,0,2.35,0c.54-.06.66.1.42.57a7.48,7.48,0,0,1-2,2.27c-.39.32-.75,0-1.06-.2a1.72,1.72,0,0,0-.46-.34c.56-.63.83-.7,1.5-.43-.1-.24-.12-.29-.43-.28s-.38-.13-.2-.4A4.25,4.25,0,0,0,43.47,34.67Z"/><path class="cls-2" d="M59.72,42.73c-.56.25-1.09.55-1.74,0a2,2,0,0,0-1.32-.21c-.13,0-.29.06-.37-.09s.06-.25.14-.35A12.42,12.42,0,0,1,58,40.61a.35.35,0,0,1,.49,0A11.34,11.34,0,0,1,60,42.06C60.29,42.41,60,42.56,59.72,42.73Z"/><path class="cls-2" d="M49.18,30.83a3,3,0,0,0,1.35-.41,7.44,7.44,0,0,1,1.53-.82c.18-.08.45-.15.56.09s-.12.37-.28.46c-.9.5-1.75,1.07-2.6,1.65a.49.49,0,0,1-.63-.05,3.47,3.47,0,0,1-.77-.76.62.62,0,0,1,0-.68c.12-.23.33-.24.55-.22a.46.46,0,0,0,.53-.23,1,1,0,0,1,.74-.37c.36,0,.48-.24.7-.39a1.36,1.36,0,0,1,.34-.21c.19-.07.44-.11.55.07s-.15.29-.29.38c-.76.47-1.52.92-2.29,1.38Z"/><path class="cls-2" d="M61.4,44.05c.78,1.26.78,1.26-.66,1.64-.39.1-.79.2-1.19.28s-.45,0-.32-.35a3.46,3.46,0,0,0,.17-1.43c0-.43.82-1.18,1.24-1.12a.55.55,0,0,1,.32.24C61.11,43.55,61.25,43.8,61.4,44.05Z"/><path class="cls-2" d="M50.37,28.49l-1.91.8a.68.68,0,0,1-.86-.17,2.83,2.83,0,0,0-.84-.61c-.21-.11-.23-.24,0-.34a7.84,7.84,0,0,1,2.62-.82,1.53,1.53,0,0,1,1.25.63C50.89,28.26,50.52,28.34,50.37,28.49Z"/><path class="cls-2" d="M63.63,49.89l.53-.22c.11,0,.25-.1.32,0s-.08.17-.16.23a1.16,1.16,0,0,0-.25.2c.35,0,.61-.32,1-.28a5.92,5.92,0,0,1-3.11,1.73c.21-.4.67-.46,1-.77l-.72.37c-.1.05-.34.05-.29,0,.16-.32-.12-.54-.12-.81A1.25,1.25,0,0,1,63.3,49.1a1.11,1.11,0,0,1,.26.07C64.11,49.36,64.13,49.44,63.63,49.89Z"/><path class="cls-2" d="M53.23,42.67c.62.42.67.61.27,1.21a1.74,1.74,0,0,0-.25,1.56.63.63,0,0,1-.32.84l-1.44.86c-.28.17-.47.13-.49-.23a1,1,0,0,0-.28-.5.67.67,0,0,1-.11-.69c.1-.23.32-.07.48-.12s.55.13.64-.28c0-.1.21,0,.33,0a.7.7,0,0,0,.81-.57,5.57,5.57,0,0,1,.47-1.23c.06-.11.22-.32-.13-.23-.15,0-.13-.08-.1-.17S53.18,42.83,53.23,42.67Z"/><path class="cls-2" d="M66.4,47.57c-.23,0-.28-.17-.47-.16,0,.2.21.27.29.41a.32.32,0,0,1,0,.34.28.28,0,0,1-.25.17c-.12,0-.22,0-.22-.19,0-.48,0-.48-.27-.81a.77.77,0,0,0,.1.88c.24.33.17.51-.23.59a1.09,1.09,0,0,1-1.13-.29A1.56,1.56,0,0,1,64,47.22a.48.48,0,0,1,.37-.37c.62-.2,1.24-.38,1.87-.56.26-.07.46.1.28.29S66.28,47.23,66.4,47.57Z"/><path class="cls-2" d="M58.23,54q5.35-3,10.88-5.74C68.85,48.77,59,54,58.23,54Z"/><path class="cls-2" d="M55.69,40.52c.08-.66.1-.7.57-1,0-.15-.28,0-.23-.18a.3.3,0,0,1,.24-.19,1.51,1.51,0,0,1,1.06.53.34.34,0,0,1-.1.37,13.78,13.78,0,0,1-1.68,1.65c-.24.2-.38.15-.41-.16a1.9,1.9,0,0,0-.26-.77c-.11-.17-.2-.37.06-.49s.48-.31.61.11A.12.12,0,0,0,55.69,40.52Z"/><path class="cls-2" d="M58.86,54.29a1.51,1.51,0,0,1,.55-.4c2.43-1.34,4.85-2.67,7.34-3.88.64-.31,1.25-.68,1.88-1,.14-.07.34-.3.45-.08s-.18.28-.33.36L66,50.69c-.75.4-1.52.74-2.24,1.19a33.21,33.21,0,0,1-4.39,2.28A.81.81,0,0,1,58.86,54.29Z"/><path class="cls-2" d="M69,49.59c-3.17,1.79-6.36,3.55-9.7,5,3.09-1.94,6.43-3.41,9.58-5.23Z"/><path class="cls-2" d="M36.75,30l2.48-.89c.23-.09.45-.18.68-.25a.79.79,0,0,1,.7.09c.21.15.28.3,0,.41L36.93,30.6c-.2.07-.42.09-.51-.14S36.57,30.15,36.75,30Z"/><path class="cls-2" d="M45.12,27.12c.79-.3,1.71-.6,2.64-.86a.69.69,0,0,1,.32,0c.23.06.56.07.58.33s-.32.21-.51.27c-1,.33-2,.65-3,.95-.18.06-.46.24-.57,0s.16-.41.35-.56Z"/><path class="cls-2" d="M68.84,50.18c-2.94,1.71-5.92,3.32-9,4.77A59.65,59.65,0,0,1,68.84,50.18Z"/><path class="cls-2" d="M68.63,50.87c-2.55,1.55-5.22,2.87-8,4.2C60.92,54.6,67.74,51,68.63,50.87Z"/><path class="cls-2" d="M68.5,47.25a1.48,1.48,0,0,1-.65.19c-.16,0-.38,0-.23-.25,0,0,.09-.1,0-.12a.5.5,0,0,0-.13,0,.31.31,0,0,1-.29-.19c-.07-.15.15-.16.15-.21,0-.24.36-.41.18-.69a.15.15,0,0,1,0-.17,1.15,1.15,0,0,1,1.17-.15A1,1,0,0,1,68.5,47.25Z"/><path class="cls-2" d="M41.54,33.92c0,.35.37.49.09.64a.3.3,0,0,1-.43-.34c-.35.31-.56.58,0,.88-.11-.43.09-.46.44-.38s.66-.08.94.2a.4.4,0,0,1-.38.13c-.3,0-.52.11-.53.47s-.18.33-.4.23a4.64,4.64,0,0,1-1-.65.25.25,0,0,1,0-.45c.41-.34.82-.67,1.25-1a.38.38,0,0,1,.54,0c.11.11,0,.22,0,.33S41.75,34.27,41.54,33.92Z"/><path class="cls-2" d="M60.42,41.2c-.15-.23-.23-.39-.07-.53s.32,0,.44.1a12.36,12.36,0,0,1,1.69,2.06.89.89,0,0,1,.12.39c0,.2-.12.27-.31.18a.42.42,0,0,1-.18-.14A12.48,12.48,0,0,0,60.42,41.2Z"/><path class="cls-2" d="M45,25.34c-2.41.95-4.85,1.8-7.33,2.52A57.64,57.64,0,0,1,45,25.34Z"/><path class="cls-2" d="M43.64,26.37,37.5,28.54l0-.16c2-.82,4.06-1.53,6.13-2.19Z"/><path class="cls-2" d="M57.11,47.75c-.09-.2-.27-.34-.1-.5s.28,0,.4.1a6.13,6.13,0,0,1,1.15,1,.35.35,0,0,1,0,.53c-.2.2-.37.06-.5-.08C57.74,48.45,57.41,48.07,57.11,47.75Z"/><path class="cls-2" d="M41.81,28.2a7.12,7.12,0,0,1,1.41-.48c.11,0,.25,0,.33.06s0,.23,0,.34a1.88,1.88,0,0,1-1.86.51C41.36,28.38,41.71,28.31,41.81,28.2Z"/><path class="cls-2" d="M57.72,38.72c-.09-.13-.13-.2-.09-.27s.16-.05.24,0a11.31,11.31,0,0,1,1.84,1.3.24.24,0,0,1,.09.32.25.25,0,0,1-.36.08,3.17,3.17,0,0,1-.49-.32Z"/><path class="cls-2" d="M47.75,33.37l-.39.23c-.16.08-.24,0-.19-.16a4.31,4.31,0,0,1,.5-1.26c.23-.34.45,0,.64.08s.34.33.1.55S47.9,33.24,47.75,33.37Z"/><path class="cls-2" d="M57.88,53.7l3.4-2a.94.94,0,0,1-.45.69A18.23,18.23,0,0,1,57.88,53.7Z"/><path class="cls-2" d="M63.43,46.06l-.61-1.62c0-.13-.14-.32,0-.4s.27.09.34.22a5.89,5.89,0,0,1,.58,1.65c0,.13,0,.3-.11.35S63.51,46.11,63.43,46.06Z"/><path class="cls-2" d="M57.15,53.44c1.08-.66,2.15-1.2,3.21-1.73.09-.05.21-.14.28,0s-.08.19-.16.23c-.51.27-1,.54-1.54.79a12.3,12.3,0,0,0-1.24.66C57.56,53.48,57.4,53.62,57.15,53.44Z"/><path class="cls-2" d="M42.49,33c.16-.05.19-.08.21-.07a5.42,5.42,0,0,0,3,.11c.11,0,.28-.07.32.06s-.11.2-.22.22A5.74,5.74,0,0,1,42.49,33Z"/><path class="cls-2" d="M57.31,37.1a1,1,0,0,1,.39-.54c.56-.56,1.18-1,1.71-1.63.08-.09.21-.25.33-.1s-.07.21-.16.28c-.65.55-1.17,1.23-1.84,1.75A.85.85,0,0,1,57.31,37.1Z"/><path class="cls-2" d="M56.64,45.32c-.29.13-.58.18-.77-.12a.42.42,0,0,1,.22-.64.54.54,0,0,1,.76.16C57,45,56.84,45.16,56.64,45.32Z"/><path class="cls-2" d="M14.73,35.53,16,35.4c.27,0,.42-.08.38-.41s0-.81,0-1.22-.17-.51-.51-.46a12.13,12.13,0,0,0-2.22.52.6.6,0,0,0-.3.19,5.27,5.27,0,0,0-1.14,3.9c0,.25.17.34.4.33,1.1-.06,2.2-.23,3.29-.4.24,0,.35-.21.42-.43a6.35,6.35,0,0,0,.24-1.15c.05-.46-.2-.52-.55-.47a11.55,11.55,0,0,1-1.85.23c-.19,0-.5.08-.52-.11s.29-.19.46-.23a5.94,5.94,0,0,1,.71-.14Z"/><path class="cls-2" d="M2.27,35.5a7.6,7.6,0,0,1-1.61.38c-.6.12-.66.2-.57.79.05.26.11.53.15.8s.26.44.59.37a26.89,26.89,0,0,0,2.67-.71.42.42,0,0,0,.33-.55A8.87,8.87,0,0,1,3.71,34c0-.27-.07-.41-.34-.41a17.07,17.07,0,0,0-2.85.26.42.42,0,0,0-.34.31c-.4,1.13-.15,1.47,1,1.34A3.45,3.45,0,0,1,2.27,35.5Z"/><path class="cls-2" d="M11.13,7.8A9.55,9.55,0,0,0,7.55,9a6.68,6.68,0,0,0-1.9,2c-.06.11-.21.23-.09.36s.24,0,.35,0c1.19-.47,2.39-1,3.57-1.44s2.41-1,3.6-1.51c.21-.09.55-.15.51-.43s-.36-.21-.58-.27A4,4,0,0,0,11.13,7.8Z"/><path class="cls-2" d="M11.46,39.3a.62.62,0,0,0-.68.58,8.33,8.33,0,0,0-.17.84c-.06.48.46,1,.9.86,1.29-.47,2.67-.58,3.93-1.12a1.4,1.4,0,0,0,.5-1.44c-.09-.17-.26-.14-.4-.12Z"/><path class="cls-2" d="M3.15,39.46A1.21,1.21,0,0,1,2.2,40a3.75,3.75,0,0,0-1.13.34.27.27,0,0,0-.19.23,1.34,1.34,0,0,0,.31.93c.2.23.47.08.68,0l2.68-1.13c.23-.1.3-.23.19-.46a8.94,8.94,0,0,1-.49-1.46c-.15-.49-.33-.6-.85-.49s-.74.26-1.12.36a5.51,5.51,0,0,1-1.34.21.41.41,0,0,0-.42.59c.27,1,.17,1,1.1.69a6.7,6.7,0,0,1,1.31-.36A1,1,0,0,1,3.15,39.46Z"/><path class="cls-2" d="M5.77,46.86a4.85,4.85,0,0,0,1.06.44,6.78,6.78,0,0,0,3.76-.22,11.71,11.71,0,0,0,2.76-1.55c.18-.15.48-.34.37-.57s-.44-.07-.66,0c-1.92.43-3.83.9-5.71,1.47a13.79,13.79,0,0,1-1.58.31Z"/><path class="cls-2" d="M2.68,30.65c.08-.19-.18-.39-.15-.65,0-.08-.14-.07-.22,0a.64.64,0,0,1-.33.16c-.1-.09.1-.16,0-.2-.34-.23-.73-.08-1.09-.08s-.22.31-.08.51c0,0,0,.07,0,.08-.44.72.25.49.49.55a10.05,10.05,0,0,1,1.47.25,5.55,5.55,0,0,1-1.54.25,1,1,0,0,0-1,1.29c0,.2.2.22.35.22a16.42,16.42,0,0,0,2.88-.35.45.45,0,0,0,.35-.42,10.44,10.44,0,0,1,.35-2,.22.22,0,0,0-.17-.31,7.53,7.53,0,0,0-.95,0S3,30,3,30.05C3.29,30.5,2.68,30.47,2.68,30.65Z"/><path class="cls-2" d="M8.83,40.55c1-.19,1.08-.24,1.22-1.3a13.45,13.45,0,0,1,.21-1.66.47.47,0,0,0-.12-.5C10,37,9.8,37,9.63,37.1l-1.48.62a4.43,4.43,0,0,0-1.26.88.36.36,0,0,0,0,.43c.08.22.18.44.28.66C7.63,40.76,7.65,40.77,8.83,40.55Z"/><path class="cls-2" d="M15.08,13.59c-.44.24-.26.63-.39.91-.26-.17-.34-.35-.16-.63.08-.13.16-.26,0-.42s0-.29.15-.35a9,9,0,0,1,1.21-.39.71.71,0,0,0,.63-.84c0-.14,0-.27,0-.41,0-.42-.15-.52-.56-.38-.62.23-1.24.48-1.86.73l-1.12.49c-.27.11-.33.31-.1.47a2.38,2.38,0,0,1,1,1.74c.05.28.28.38.55.37l.82-.07c.87-.09,1.16-.42,1.19-1.29,0-.28-.1-.39-.37-.37s-.34.12-.52.37-.45.36-.29.7a.31.31,0,0,1-.12,0c-.08,0-.08-.08-.08-.14Z"/><path class="cls-2" d="M12.18,34.53a2.82,2.82,0,0,1-2,1.27,1.47,1.47,0,0,1-1.6-.7,1.53,1.53,0,0,1,0-1.79A2.8,2.8,0,0,1,10.81,32a1.36,1.36,0,0,1,1.57,1.18A1.71,1.71,0,0,1,12.18,34.53Zm-.55-.86a.82.82,0,0,0-.93-.87A1.68,1.68,0,0,0,9.27,34c-.18.71.3,1.12,1.13,1A1.36,1.36,0,0,0,11.63,33.67Z"/><path class="cls-2" d="M9.06,17.49a1.47,1.47,0,0,1-1.4-.77,1.42,1.42,0,0,1,.18-1.54A2.76,2.76,0,0,1,10.2,14a1.41,1.41,0,0,1,1.36.89,1.48,1.48,0,0,1-.26,1.57,2.85,2.85,0,0,1-1.74,1.06C9.45,17.48,9.25,17.5,9.06,17.49Zm-.58-2.12a.91.91,0,0,0-.17,1,.8.8,0,0,0,.77.53,2,2,0,0,0,1.38-.49,1,1,0,0,0,.45-1.27c-.19-.39-.65-.55-1.3-.42A2.34,2.34,0,0,0,8.48,15.37Z"/><path class="cls-2" d="M13.24,17.73l.34-.13c.23-.08.24-.27.26-.47a.26.26,0,0,0-.19-.32.45.45,0,0,0-.49.15,9.34,9.34,0,0,1-1.78,1.54c-.44.32-.43.51.07.71a7.45,7.45,0,0,0,3,.37c.5,0,.59-.46.65-.85a2.15,2.15,0,0,1,.12-.56c-.83-.1-1.08,0-1.4.68-.09-.25-.1-.3.13-.5s.2-.35-.12-.43A5.8,5.8,0,0,1,13.24,17.73Z"/><path class="cls-2" d="M6.43,34.53c.59-.17,1.18-.31,1.31-1.13.07-.42.49-.74.84-1,.1-.09.27-.15.23-.31s-.21-.16-.34-.18a12.22,12.22,0,0,0-2.18-.05.33.33,0,0,0-.37.31,11.14,11.14,0,0,0-.14,2.08C5.79,34.68,6.12,34.59,6.43,34.53Z"/><path class="cls-2" d="M6.42,18.64a2.91,2.91,0,0,1-1.28.59,8.12,8.12,0,0,0-1.69.4c-.19.06-.44.19-.36.45s.33.19.51.15c1-.22,2-.36,3-.49a.47.47,0,0,0,.44-.45,3.27,3.27,0,0,0,.07-1.08.64.64,0,0,0-.43-.54.48.48,0,0,0-.55.21.47.47,0,0,1-.55.18,1,1,0,0,0-.81.21c-.27.24-.51.14-.77.17a1.67,1.67,0,0,0-.4.07c-.19.08-.4.21-.36.42s.3.12.46.09c.88-.15,1.76-.32,2.63-.49Z"/><path class="cls-2" d="M6,36.64c.26,1.46.26,1.47,1.58.79.37-.19.73-.38,1.08-.58s.33-.31,0-.47a3.31,3.31,0,0,1-1.07-1,1.53,1.53,0,0,0-1.67,0,.45.45,0,0,0-.08.39C5.93,36.08,6,36.36,6,36.64Z"/><path class="cls-2" d="M4,17.68l2-.66a.71.71,0,0,0,.53-.7,3,3,0,0,1,.22-1c.09-.22,0-.33-.22-.26A8.13,8.13,0,0,0,4,16.17a1.56,1.56,0,0,0-.52,1.31C3.44,17.85,3.76,17.67,4,17.68Z"/><path class="cls-2" d="M8.25,42.49c-.25.09-.4.13-.54.19s-.25.09-.22.24.18.08.28.07a1.1,1.1,0,0,1,.32,0c-.26.23-.67.17-.92.44a5.92,5.92,0,0,0,3.47-.77c-.42-.16-.8.1-1.24.07.29-.07.54-.12.78-.19s.29-.19.19-.23c-.34-.14-.27-.49-.45-.7A1.26,1.26,0,0,0,8,41.68a1.76,1.76,0,0,0-.14.23C7.54,42.41,7.58,42.49,8.25,42.49Z"/><path class="cls-2" d="M11.24,30.19c-.18.73-.09.9.6,1.09a1.72,1.72,0,0,1,1.22,1,.64.64,0,0,0,.8.41l1.65-.31c.32-.06.43-.22.21-.5a1,1,0,0,1-.12-.56.66.66,0,0,0-.37-.59c-.23-.11-.29.16-.44.23s-.33.46-.66.21c-.08-.05-.2.11-.28.2a.68.68,0,0,1-1,.1,5.88,5.88,0,0,0-1.17-.6c-.12,0-.38-.09-.06-.26.14-.07,0-.14,0-.19S11.38,30.28,11.24,30.19Z"/><path class="cls-2" d="M4.64,42.6c.2-.12.09-.32.24-.44.14.16,0,.34.06.5a.33.33,0,0,0,.2.28.26.26,0,0,0,.29,0c.09-.08.13-.18,0-.28-.32-.36-.32-.36-.33-.79a.74.74,0,0,1,.5.72c0,.41.21.5.57.29a1.1,1.1,0,0,0,.66-1,1.65,1.65,0,0,0-.64-1.16.48.48,0,0,0-.53,0c-.59.26-1.18.54-1.77.82-.24.11-.28.38,0,.4C4.37,42,4.51,42.26,4.64,42.6Z"/><path class="cls-2" d="M15,42Q9,43.3,3.09,44.94C3.6,45.11,14.47,42.46,15,42Z"/><path class="cls-2" d="M8,30.21c-.49-.44-.53-.45-1-.34-.1-.11.22-.17,0-.28a.29.29,0,0,0-.3,0,1.55,1.55,0,0,0-.44,1.1c0,.15.18.19.32.21A13.29,13.29,0,0,0,8.9,31c.31,0,.38-.14.19-.39a1.84,1.84,0,0,1-.31-.75c0-.2-.1-.41-.38-.32s-.56.08-.38.49A.12.12,0,0,1,8,30.21Z"/><path class="cls-2" d="M14.74,42.62a1.63,1.63,0,0,0-.68.06c-2.7.61-5.4,1.23-8.07,2-.68.19-1.38.32-2.07.5-.15,0-.45,0-.39.23s.32.09.49,0c1-.25,2-.52,3-.76.82-.21,1.63-.46,2.47-.6a34.24,34.24,0,0,0,4.79-1.2A.91.91,0,0,0,14.74,42.62Z"/><path class="cls-2" d="M4,45.84c3.56-.77,7.11-1.56,10.58-2.68C11,43.76,7.54,44.87,4,45.6Z"/><path class="cls-2" d="M15.17,9.77l-2.45,1c-.22.09-.45.17-.67.27a.8.8,0,0,0-.47.53c-.06.25,0,.42.29.29l3.56-1.49c.19-.08.37-.22.3-.45S15.4,9.77,15.17,9.77Z"/><path class="cls-2" d="M7,13.17c-.79.3-1.68.69-2.54,1.12a.52.52,0,0,0-.23.21c-.14.19-.38.43-.22.63s.38-.05.56-.13c1-.43,1.94-.85,2.9-1.3.17-.08.5-.13.42-.39s-.4-.2-.64-.18Z"/><path class="cls-2" d="M4.55,46.16c3.33-.67,6.63-1.44,9.89-2.4A60.81,60.81,0,0,0,4.55,46.16Z"/><path class="cls-2" d="M5.16,46.55C8.09,46,11,45.23,13.92,44.39A45.82,45.82,0,0,0,5.16,46.55Z"/><path class="cls-2" d="M2.86,43.74a1.42,1.42,0,0,0,.61-.28c.12-.1.31-.22,0-.34,0,0-.13,0-.05-.1s.08,0,.11-.07a.28.28,0,0,0,.09-.33c0-.15-.21,0-.25,0s-.54-.07-.59-.4A.15.15,0,0,0,2.66,42a1.15,1.15,0,0,0-1,.67A1,1,0,0,0,2.86,43.74Z"/><path class="cls-2" d="M14.18,15.89c.25.25.05.61.37.54a.3.3,0,0,0,.09-.54c.47,0,.8.06.58.65-.2-.39-.38-.28-.58,0s-.54.38-.57.77a.39.39,0,0,0,.37-.15c.24-.18.47-.26.71,0s.35.13.45-.1a5.39,5.39,0,0,0,.31-1.13c0-.23-.08-.35-.31-.34-.52,0-1,.05-1.58.1-.21,0-.38.12-.39.36s.11.2.23.23S14.26,16.29,14.18,15.89Z"/><path class="cls-2" d="M4.89,33.86c0-.27-.09-.44-.3-.44s-.25.19-.26.36a11.94,11.94,0,0,0,.1,2.67.8.8,0,0,0,.17.36c.13.16.27.12.35-.06a.43.43,0,0,0,0-.22A12.79,12.79,0,0,1,4.89,33.86Z"/><path class="cls-2" d="M5.89,11.78c2.43-.89,4.82-1.87,7.15-3A55,55,0,0,0,5.89,11.78Z"/><path class="cls-2" d="M7.61,11.63l6-2.45L13.57,9c-2.05.71-4.05,1.54-6,2.43Z"/><path class="cls-2" d="M11.71,36.56c-.07-.2,0-.43-.25-.44s-.21.2-.25.34A7.11,7.11,0,0,0,11,38c0,.22.09.38.33.4s.32-.19.33-.39C11.7,37.5,11.7,37,11.71,36.56Z"/><path class="cls-2" d="M10.19,11.79a6.69,6.69,0,0,0-1.37.57c-.11.06-.22.13-.22.27s.14.19.25.23c.42.18,1.65-.4,1.72-.84S10.33,11.8,10.19,11.79Z"/><path class="cls-2" d="M5.26,30.22c0-.16,0-.25-.11-.27S5,30,5,30.1a10.25,10.25,0,0,0-.51,2.19.23.23,0,0,0,.14.3.25.25,0,0,0,.32-.18,3,3,0,0,0,.15-.57C5.14,31.28,5.2,30.71,5.26,30.22Z"/><path class="cls-2" d="M9.17,19.59c.23,0,.34-.05.44-.08s.18-.16,0-.25a4.59,4.59,0,0,0-1.21-.61c-.39-.1-.37.26-.42.49s0,.47.29.47S9,19.6,9.17,19.59Z"/><path class="cls-2" d="M15.08,41.53l-3.89.73a1,1,0,0,0,.79.22A18.23,18.23,0,0,0,15.08,41.53Z"/><path class="cls-2" d="M5.86,39.5c-.21-.56-.41-1.09-.62-1.62,0-.13-.1-.34-.29-.28s-.15.25-.11.39a6.32,6.32,0,0,0,.65,1.62c.08.11.17.26.32.19S5.83,39.59,5.86,39.5Z"/><path class="cls-2" d="M15.46,40.85c-1.25.22-2.41.53-3.56.83-.09,0-.25,0-.2.19s.18.09.27.07l1.67-.43A13.69,13.69,0,0,1,15,41.17C15.17,41.15,15.38,41.15,15.46,40.85Z"/><path class="cls-2" d="M12.88,15.85c-.15.07-.19.07-.2.09A5.4,5.4,0,0,1,10.48,18c-.1.06-.26.14-.2.27s.22.07.31,0A5.76,5.76,0,0,0,12.88,15.85Z"/><path class="cls-2" d="M4.49,28.73a1,1,0,0,0-.65-.15c-.78,0-1.57,0-2.35-.08-.12,0-.33-.05-.32.14s.19.11.31.11c.84,0,1.69.14,2.53.08A.79.79,0,0,0,4.49,28.73Z"/><path class="cls-2" d="M10.45,34.44c.3-.1.55-.26.5-.61s-.31-.4-.59-.33a.55.55,0,0,0-.47.63C9.93,34.45,10.2,34.45,10.45,34.44Z"/></g></g></g></g></g></svg>