<svg xmlns="http://www.w3.org/2000/svg" viewBox="0 0 147.48 37.79"><defs><style>.cls-1,.cls-3,.cls-4,.cls-5{fill:#fff;}.cls-2,.cls-6{fill:none;stroke:#fff;stroke-miterlimit:10;}.cls-2{stroke-width:0.05px;}.cls-3{font-size:1.92px;letter-spacing:0.03em;}.cls-3,.cls-4,.cls-5{font-family:TechniqueBRK, Technique BRK;}.cls-4{font-size:1.91px;letter-spacing:0.03em;}.cls-5{font-size:1.91px;letter-spacing:0.03em;}.cls-6{stroke-width:0.5px;}</style></defs><g id="레이어_2" data-name="레이어 2"><g id="메인_홍보" data-name="메인 홍보"><g id="_2page" data-name="2page"><g id="로고"><path class="cls-1" d="M51.66,15.49c.44-1.72.87-3.43,1.32-5.15H42.51l.1-.43L45,.51a1.11,1.11,0,0,0,.07-.26H43q-1.25,4.94-2.53,9.88c0,.17-.12.24-.28.21H7.07l0,.11-.23.87H22.07c5,0,10,0,15,0a3.29,3.29,0,0,1,1.27.24,2.1,2.1,0,0,1,1.17,2.54C39,16.06,38.47,18,38,20c-.11.43-.23.86-.32,1.29,0,.15-.1.23-.27.21H7.21a3.91,3.91,0,0,1-1-.09,2.1,2.1,0,0,1-1.63-1.67c-.08.32-.16.64-.25,1a5.18,5.18,0,0,0-.1,1.79H37.33c-.16.57-.3,1.13-.43,1.68q-.72,2.7-1.39,5.41a4,4,0,0,1-3.82,3H1.32L0,37.7H33.81A6.58,6.58,0,0,0,40,32.77c.32-1.26.65-2.54,1-3.81l1.13-4.45a.19.19,0,0,0,0-.07c.08-.28.14-.55.21-.86L43,21.43c.35-1.36.7-2.73,1-4.1a5.28,5.28,0,0,0,.12-1.84Z"/><path class="cls-1" d="M74.64,15.49,78.48.5a.34.34,0,0,1,.15-.25h-2Q75.37,5.11,74.13,10c-.07.26-.15.37-.46.37H63.78c-.23,0-.32.05-.4.3-1,3.84-2,7.67-2.93,11.5L57.87,32.22c0,.18-.06.31-.3.31-3.35,0-6.7,0-10,0l-1.27,5,3.11.16H59.7a2.74,2.74,0,0,0,2.71-2.2l0-.15C63.29,32,64.12,28.7,65,25.4l1-3.95c.5-2,1-4,1.52-6h7.12Z"/><path class="cls-1" d="M137.25,24.73c-.42,1.63-.84,3.27-1.27,4.88a4,4,0,0,1-3.15,3,3.31,3.31,0,0,1-.7.06H103.7a2.61,2.61,0,0,1,.06-.32c.1-.37.19-.76.29-1.14L95,19.52l-.81,3.19c2.59,3.3,5.13,6.56,7.71,9.87H91.62L90.3,37.72h12.44v.07h31.54a4.8,4.8,0,0,0,1.24-.14,6.49,6.49,0,0,0,5-4.76c.31-1.15.59-2.31.89-3.46l1.75-6.88h-5.37C137.59,23.31,137.42,24,137.25,24.73Z"/><path class="cls-1" d="M99.57,15.47h8.52Q110,8.22,111.8,1a.19.19,0,0,0-.09,0A5,5,0,0,0,109.2.25h-1.69a2.23,2.23,0,0,1,.86.28,2.06,2.06,0,0,1,1,2.25c-.26,1.2-.59,2.4-.9,3.61s-.62,2.39-.91,3.6c-.06.26-.16.34-.43.34H86.88c-.32,0-.45.08-.52.39L80.87,32.17c-.07.3-.18.37-.47.37H70.5l-.41,1.57a3,3,0,0,1-.08.35l-.67,3.23H82.53a2.89,2.89,0,0,0,2.88-2.28Q86.72,30.31,88,25.2l.11-.48c.79-3.08,1.59-6.17,2.37-9.26Z"/><path class="cls-1" d="M145.54,1.2a5,5,0,0,0-3-.89H141a2.42,2.42,0,0,1,1,.39,2.21,2.21,0,0,1,.8,2.38c-.59,2.36-1.21,4.73-1.81,7.09,0,.15-.1.25-.27.21a1.2,1.2,0,0,0-.19,0H120.24c-.28,0-.38.09-.45.36q-1.44,5.68-2.89,11.36a2.22,2.22,0,0,0-.11.41h5.35q.9-3.46,1.8-7h19a2.71,2.71,0,0,0,2.61-2.13l.77-3c.36-1.36.7-2.72,1-4.08A4.78,4.78,0,0,0,145.54,1.2Z"/><line class="cls-2" x1="44.42" y1="2.59" x2="75.96" y2="2.59"/><line class="cls-2" x1="43.8" y1="5.13" x2="75.34" y2="5.13"/><line class="cls-2" x1="42.99" y1="7.68" x2="74.83" y2="7.68"/><line class="cls-2" x1="49.86" y1="32.64" x2="56.05" y2="7.53"/><line class="cls-2" x1="52.59" y1="32.51" x2="58.3" y2="9.35"/><line class="cls-2" x1="55.24" y1="32.64" x2="60.84" y2="9.94"/><path class="cls-2" d="M60.84,9.94s.62-2.26,2.71-2.26"/><path class="cls-2" d="M58.15,9.94s.8-4.81,5.19-4.81"/><line class="cls-2" x1="42.53" y1="10.23" x2="74.07" y2="10.23"/><path class="cls-2" d="M56.05,7.55s1.22-5,7.88-5"/><line class="cls-2" x1="51.64" y1="15.04" x2="54.11" y2="5.03"/><path class="cls-2" d="M54.08,5.16S55.48.1,64.68.1"/><line class="cls-2" x1="45.08" y1="0.1" x2="42.51" y2="10.22"/><line class="cls-2" x1="47.89" y1="0.1" x2="45.31" y2="10.22"/><line class="cls-2" x1="76.63" y1="0.01" x2="74.05" y2="10.13"/><line class="cls-2" x1="73.83" y1="0.1" x2="71.25" y2="10.22"/><line class="cls-2" x1="77.23" y1="5.13" x2="108.77" y2="5.13"/><line class="cls-2" x1="76.41" y1="7.68" x2="108.25" y2="7.68"/><line class="cls-2" x1="75.95" y1="10.23" x2="107.49" y2="10.23"/><line class="cls-2" x1="73" y1="32.64" x2="79.19" y2="7.52"/><line class="cls-2" x1="75.7" y1="32.57" x2="81.43" y2="9.34"/><line class="cls-2" x1="78.38" y1="32.64" x2="83.98" y2="9.93"/><path class="cls-2" d="M84,9.93s.62-2.26,2.7-2.26"/><path class="cls-2" d="M81.29,9.93s.79-4.8,5.19-4.8"/><path class="cls-2" d="M79.19,7.54s1.21-5,7.88-5"/><path class="cls-2" d="M77.21,5.15S78.61.09,87.81.09"/><line class="cls-2" x1="93.05" y1="25.45" x2="98.57" y2="32.51"/><line class="cls-2" x1="92.25" y1="29.01" x2="95.09" y2="32.64"/><line class="cls-2" x1="107.22" y1="0.1" x2="104.65" y2="10.22"/><line class="cls-2" x1="111.36" y1="2.59" x2="142.9" y2="2.59"/><line class="cls-2" x1="110.74" y1="5.13" x2="142.28" y2="5.13"/><line class="cls-2" x1="109.92" y1="7.68" x2="141.76" y2="7.68"/><path class="cls-2" d="M106.89.08a2.76,2.76,0,0,1,2,.62,2,2,0,0,1,.62,1.89H77.85"/><line class="cls-2" x1="115.69" y1="24.86" x2="132.92" y2="24.86"/><line class="cls-2" x1="115.02" y1="27.4" x2="132.33" y2="27.4"/><line class="cls-2" x1="113.4" y1="29.95" x2="131.69" y2="29.95"/><line class="cls-2" x1="115.21" y1="7.68" x2="111.6" y2="22.36"/><line class="cls-2" x1="112.76" y1="6.15" x2="108.43" y2="23.79"/><path class="cls-2" d="M115.84,24.86a1.59,1.59,0,0,1-1.44-2.22l3.16-13"/><path class="cls-2" d="M117.48,9.93s.27-2.25,3.21-2.25"/><path class="cls-2" d="M119.48,5.13A4.46,4.46,0,0,0,115,8.45"/><path class="cls-2" d="M115.21,27.4s-4.86,0-3.57-5.24"/><path class="cls-2" d="M112.76,6.15a6.27,6.27,0,0,1,5.83-3.56"/><path class="cls-2" d="M108.64,23s-1.83,7,5.44,7"/><line class="cls-2" x1="133.62" y1="22.34" x2="130.86" y2="32.5"/><text class="cls-3" transform="matrix(-0.26, 0.99, -0.97, -0.26, 134.54, 25.03)">finish</text><line class="cls-2" x1="131.05" y1="22.34" x2="128.44" y2="32.51"/><polygon class="cls-1" points="130.56 29.95 129.77 30.19 130.27 30.85 129.5 30.57 129.52 31.4 129.06 30.71 128.6 31.4 128.63 30.57 127.86 30.85 128.35 30.19 127.57 29.95 128.35 29.71 127.86 29.05 128.63 29.32 128.6 28.48 129.06 29.18 129.52 28.48 129.5 29.32 130.27 29.05 129.77 29.71 130.56 29.95"/><polygon class="cls-1" points="63.83 5.03 63.04 5.26 63.54 5.93 62.77 5.65 62.79 6.49 62.33 5.79 61.87 6.49 61.9 5.65 61.13 5.93 61.62 5.26 60.84 5.03 61.62 4.79 61.13 4.13 61.9 4.41 61.87 3.57 62.33 4.26 62.79 3.57 62.77 4.41 63.54 4.13 63.04 4.79 63.83 5.03"/><polygon class="cls-1" points="114.89 5.07 114.11 5.31 114.61 5.97 113.83 5.69 113.86 6.53 113.4 5.83 112.93 6.53 112.96 5.69 112.19 5.97 112.68 5.31 111.91 5.07 112.68 4.83 112.19 4.17 112.96 4.45 112.93 3.62 113.4 4.3 113.86 3.62 113.83 4.45 114.61 4.17 114.11 4.83 114.89 5.07"/><path class="cls-2" d="M110,32.5a5.11,5.11,0,0,1-4.74-6c.72-2.77,5.87-22.78,5.87-22.78S113,.27,118.59.26"/><line class="cls-2" x1="140.65" y1="0.17" x2="138.08" y2="10.38"/><line class="cls-2" x1="13.6" y1="2.59" x2="42.5" y2="2.59"/><line class="cls-2" x1="14.53" y1="5.13" x2="41.87" y2="5.13"/><line class="cls-2" x1="16.46" y1="7.68" x2="41.35" y2="7.68"/><line class="cls-2" x1="3.11" y1="24.8" x2="36.6" y2="24.8"/><line class="cls-2" x1="2.44" y1="27.35" x2="36.06" y2="27.35"/><line class="cls-2" x1="1.77" y1="29.89" x2="35.39" y2="29.89"/><line class="cls-2" x1="15.55" y1="13.68" x2="35.68" y2="13.68"/><line class="cls-2" x1="12.99" y1="16.23" x2="32.67" y2="16.23"/><line class="cls-2" x1="10.43" y1="18.78" x2="29.76" y2="18.78"/><line class="cls-2" x1="7.61" y1="16.37" x2="10.43" y2="5.48"/><line class="cls-2" x1="10.66" y1="14.49" x2="12.69" y2="6.65"/><path class="cls-2" d="M10.37,5.69s.36-3.1,3.37-3.1"/><path class="cls-2" d="M12.66,6.74a1.94,1.94,0,0,1,1.87-1.58"/><line class="cls-2" x1="40.22" y1="0.08" x2="37.56" y2="10.57"/><path class="cls-2" d="M14.65,9s0-1.29,1.81-1.29"/><path class="cls-2" d="M14.69,8.75,14,12.4s-.11,1.28,1.84,1.28"/><path class="cls-2" d="M10.94,13.39S9.62,16.23,13,16.23"/><path class="cls-2" d="M7.73,15.9s-1.11,2.88,3,2.88"/><line class="cls-2" x1="29.17" y1="23.76" x2="30.29" y2="19.29"/><line class="cls-2" x1="31.19" y1="25.92" x2="33.42" y2="16.96"/><line class="cls-2" x1="33.09" y1="28.55" x2="36.6" y2="14.49"/><path class="cls-2" d="M35.68,13.68s1.13-.06.88,1"/><path class="cls-2" d="M32.67,16.23s1-.09.75.73"/><path class="cls-2" d="M29.69,18.78s.77-.1.59.51"/><path class="cls-2" d="M30.76,29.89s1.95.18,2.36-1.46"/><path class="cls-2" d="M29,27.35a2.25,2.25,0,0,0,2.28-1.68"/><path class="cls-2" d="M27.61,24.8a1.3,1.3,0,0,0,1.56-1"/><line class="cls-2" x1="6.48" y1="22.44" x2="3.81" y2="32.93"/><text class="cls-4" transform="matrix(-0.01, 1.03, -1, -0.01, 4.46, 22.8)">1</text><text class="cls-5" transform="matrix(-0.22, 1, -0.97, -0.23, 3.71, 24.57)">2</text><text class="cls-5" transform="matrix(-0.22, 1, -0.97, -0.23, 3.03, 27.46)">3</text><text class="cls-5" transform="matrix(-0.22, 1, -0.97, -0.23, 2.32, 30.24)">4</text><path class="cls-6" d="M76.51.31Q75.25,5.19,74,10.07c-.08.27-.16.38-.46.38-3.3,0-6.6,0-9.89,0-.23,0-.33.05-.4.31-1,3.83-2,7.67-2.94,11.5-.86,3.35-1.71,6.72-2.58,10.07,0,.18-.06.31-.3.31H47.17c1.9-7.39,3.77-14.76,5.68-22.16H42.38c0-.17.07-.31.1-.44L44.88.61A1.67,1.67,0,0,0,45,.31Z"/><path class="cls-6" d="M137.68,22.6c-.21.77-.38,1.51-.56,2.22-.42,1.64-.83,3.27-1.27,4.89a3.94,3.94,0,0,1-3.15,3,2.65,2.65,0,0,1-.69.06H103.58c0-.12,0-.21,0-.31Q107.71,16.55,111.77.7c.06-.25.14-.34.42-.34q14,0,28.11,0a2.59,2.59,0,0,1,1.56.44,2.19,2.19,0,0,1,.81,2.37c-.6,2.37-1.22,4.74-1.82,7.1,0,.15-.09.24-.27.21H120.11a.37.37,0,0,0-.44.35c-1,3.79-1.92,7.59-2.9,11.37,0,.12-.07.26-.11.41Z"/><path class="cls-6" d="M42.9.31c-.83,3.3-1.69,6.6-2.54,9.91,0,.17-.12.24-.28.22H6.72c0-.11,0-.21.08-.3.56-2.25,1.13-4.49,1.72-6.74a4,4,0,0,1,3.2-3l.14,0Z"/><path class="cls-6" d="M1,32.65c.88-3.41,1.74-6.76,2.61-10.11H37.2c-.16.57-.29,1.12-.43,1.68-.48,1.8-.93,3.6-1.38,5.4a4,4,0,0,1-3.83,3H1Z"/><path class="cls-6" d="M22,11.42H36.89a3.45,3.45,0,0,1,1.27.24,2.1,2.1,0,0,1,1.17,2.54Q38.6,17.13,37.82,20c-.11.43-.22.86-.32,1.29,0,.16-.1.24-.27.21H7.09a4.55,4.55,0,0,1-1-.09,2.12,2.12,0,0,1-1.58-2.67C5.12,16.39,5.75,14,6.36,11.6c0-.2.15-.18.29-.18H22Z"/><path class="cls-6" d="M70.16,32.63c0-.14,0-.25.07-.36Q74.29,16.43,78.35.59c.06-.22.13-.29.34-.29H107a2.57,2.57,0,0,1,1.3.31,2.08,2.08,0,0,1,1,2.25c-.25,1.21-.59,2.41-.9,3.62s-.62,2.39-.9,3.59c-.07.26-.17.34-.43.34H86.76c-.32,0-.46.07-.53.39Q83.5,21.55,80.74,32.27c-.06.3-.18.37-.47.37-3.26,0-6.5,0-9.77,0Z"/><path class="cls-6" d="M101.74,32.67H91.25c.87-3.35,1.71-6.69,2.59-10.1C96.5,25.94,99.1,29.29,101.74,32.67Z"/></g></g></g></g></svg>