<svg xmlns="http://www.w3.org/2000/svg" viewBox="0 0 163.91 1083.5"><defs><style>.cls-1{fill:none;stroke:#fff;stroke-miterlimit:10;stroke-width:3px;}.cls-2{font-size:30px;fill:#fff;font-family:FranklinGothic-DemiCond, FranklinGothic DemiCond;font-weight:300;}.cls-3{fill:#ff894a;}</style></defs><g id="레이어_2" data-name="레이어 2"><g id="메인_홍보" data-name="메인 홍보"><g id="_3page" data-name="3page"><g id="좌측_네비" data-name="좌측 네비"><path id="지도" class="cls-1" d="M81.53.63s17.36,37.18-4,73.42S30,132,38.54,178.72,79.46,241.1,86,273.85,97.25,371.62,71.63,384.1,29.75,409.45,26.94,451-12,597,7,602.64s1.16,74.09,28.69,80.22,89.06-4.38,98.59,23.9-9.31,68.89,0,101.78,15.05,28.59,26.09,80.08-26.14,72.6-31.66,72.3-30.14-6.28-39.94,20.94S86.26,1028,86,1083.5"/><text class="cls-2" transform="translate(71.88 180.08) scale(0.97 1)">ABOUT</text><g id="발자국"><path class="cls-3" d="M66.72,208.76c-.33.24-.67.47-1,.71s-.37.21-.56-.06-.53-.62-.79-.93a.4.4,0,0,1,.08-.68,12.48,12.48,0,0,1,2-1.09.71.71,0,0,1,.35-.05,5.31,5.31,0,0,1,3.45,2.16.33.33,0,0,1-.08.51c-.87.69-1.8,1.29-2.73,1.89a.55.55,0,0,1-.6,0,6.62,6.62,0,0,1-.94-.71c-.34-.31-.2-.52.1-.72a11.51,11.51,0,0,0,1.53-1.05c.14-.13.43-.27.32-.43s-.34,0-.5.13-.42.25-.63.37Z"/><path class="cls-3" d="M76,200.47a7.31,7.31,0,0,0,1.45-.79c.54-.3.63-.29,1,.22l.42.7c.18.29.1.5-.19.67-.8.46-1.64.85-2.48,1.23a.4.4,0,0,1-.6-.18,9,9,0,0,0-1.62-2c-.2-.19-.22-.35,0-.53a17.19,17.19,0,0,1,2.29-1.7.42.42,0,0,1,.47,0c1.05.58,1.09,1,.13,1.68A3.19,3.19,0,0,0,76,200.47Z"/><path class="cls-3" d="M51,185.62a9.6,9.6,0,0,1,3.48-1.48,6.69,6.69,0,0,1,2.74.24c.12,0,.31,0,.3.2s-.16.17-.27.21l-3.64,1.3c-1.22.43-2.46.84-3.69,1.25-.22.08-.51.25-.67,0s.13-.4.25-.59A4,4,0,0,1,51,185.62Z"/><path class="cls-3" d="M71.67,209.4a.62.62,0,0,1,.89,0c.23.17.48.33.69.51a.79.79,0,0,1-.11,1.25c-1.27.5-2.38,1.33-3.67,1.77a1.4,1.4,0,0,1-1.34-.75c0-.18.11-.27.22-.36Z"/><path class="cls-3" d="M78,204a1.23,1.23,0,0,0,1.07-.23,3.68,3.68,0,0,1,1.06-.49.26.26,0,0,1,.3.05,1.27,1.27,0,0,1,.38.89c0,.31-.28.38-.5.45-.91.32-1.84.62-2.75.93-.24.09-.38,0-.45-.21a11,11,0,0,0-.6-1.42c-.21-.46-.16-.66.31-.92s.72-.3,1.07-.48a6,6,0,0,0,1.15-.73.42.42,0,0,1,.71.16c.44.91.54.87-.37,1.24a6.62,6.62,0,0,0-1.22.61A1,1,0,0,0,78,204Z"/><path class="cls-3" d="M81,211.29a4.71,4.71,0,0,1-.51,1,6.78,6.78,0,0,1-3,2.34,12.16,12.16,0,0,1-3.1.66c-.23,0-.58.07-.65-.17s.28-.35.47-.46c1.73-.95,3.47-1.86,5.25-2.69a13,13,0,0,0,1.39-.82Z"/><path class="cls-3" d="M72.5,197.11c-.18-.09-.12-.42-.32-.58s.06-.15.16-.16a.64.64,0,0,0,.35-.1c0-.13-.17-.05-.15-.12.09-.4.49-.55.75-.78s.37.08.4.33c0,0,0,.07,0,.07.8.25.13.54,0,.74a10,10,0,0,0-.93,1.16,5.32,5.32,0,0,0,1.32-.83,1,1,0,0,1,1.58.32.29.29,0,0,1-.12.39,15.54,15.54,0,0,1-2.38,1.65.45.45,0,0,1-.55-.08,10.8,10.8,0,0,0-1.59-1.27.22.22,0,0,1-.08-.35c.22-.22.47-.42.71-.62,0,0,.16,0,.16,0C72,197.41,72.38,197,72.5,197.11Z"/><path class="cls-3" d="M74.48,208.6c-.9.54-1,.53-1.78-.16a14.71,14.71,0,0,0-1.26-1.11.47.47,0,0,1-.25-.45c0-.22.22-.28.39-.33L73.1,206a4.41,4.41,0,0,1,1.53-.18.37.37,0,0,1,.31.29c.09.23.16.46.23.69C75.51,208,75.5,208,74.48,208.6Z"/><path class="cls-3" d="M51.91,192.57c.49-.11.61.3.89.42.09-.3,0-.49-.3-.57-.15,0-.29-.09-.24-.35s-.19-.21-.34-.16a9.4,9.4,0,0,0-1.17.51.73.73,0,0,1-1-.21l-.27-.31c-.25-.33-.23-.49.17-.65.62-.25,1.25-.47,1.88-.69.38-.14.77-.25,1.16-.38s.45,0,.38.29a2.43,2.43,0,0,0,.41,2,.47.47,0,0,1-.17.64l-.65.5a1.12,1.12,0,0,1-1.75-.18c-.2-.2-.19-.36,0-.52s.33-.14.63-.07.58,0,.69.33a.26.26,0,0,0,.12,0c0-.05,0-.11,0-.15Z"/><path class="cls-3" d="M66.94,205.47a1.39,1.39,0,0,1,.4-1.93,2.79,2.79,0,0,1,2.45-.47A1.54,1.54,0,0,1,71,204.38a1.48,1.48,0,0,1-.73,1.59,2.85,2.85,0,0,1-2.31.35A1.74,1.74,0,0,1,66.94,205.47Zm2.65,0c.73-.43.82-1.06.21-1.47a1.68,1.68,0,0,0-1.87,0,.82.82,0,0,0-.12,1.27A1.37,1.37,0,0,0,69.59,205.47Z"/><path class="cls-3" d="M58.62,191.82a2.88,2.88,0,0,1-2,.37,1.51,1.51,0,0,1-1.24-1,1.42,1.42,0,0,1,.44-1.57,2.73,2.73,0,0,1,2.57-.65,1.43,1.43,0,0,1,1.16,1,1.48,1.48,0,0,1-.54,1.5C58.86,191.63,58.7,191.75,58.62,191.82Zm-1.88-2c-.58.34-.81.76-.7,1.19a1,1,0,0,0,1.18.64,2,2,0,0,0,1.36-.54.8.8,0,0,0,.22-.91.92.92,0,0,0-.77-.63A2.36,2.36,0,0,0,56.74,189.77Z"/><path class="cls-3" d="M56,194.44l-.34.14c-.23.1-.36,0-.51-.18a.26.26,0,0,1-.07-.36.46.46,0,0,1,.47-.22,10.26,10.26,0,0,0,2.35,0c.54-.06.66.09.42.57a7.6,7.6,0,0,1-2,2.27c-.39.32-.75,0-1.06-.21a2.29,2.29,0,0,0-.46-.34c.56-.62.83-.7,1.5-.42-.1-.24-.12-.29-.43-.28s-.38-.13-.2-.41A3.2,3.2,0,0,0,56,194.44Z"/><path class="cls-3" d="M72.28,202.5c-.56.26-1.09.56-1.74,0a2.06,2.06,0,0,0-1.32-.22c-.13,0-.29.07-.37-.08s.06-.26.14-.36a13.09,13.09,0,0,1,1.59-1.48.35.35,0,0,1,.49,0,11.34,11.34,0,0,1,1.48,1.46C72.85,202.19,72.55,202.34,72.28,202.5Z"/><path class="cls-3" d="M61.74,190.6a3,3,0,0,0,1.35-.4,7.44,7.44,0,0,1,1.53-.82c.18-.08.45-.15.56.09s-.12.37-.28.46a30.77,30.77,0,0,0-2.6,1.65.47.47,0,0,1-.62-.05,3.31,3.31,0,0,1-.78-.76.64.64,0,0,1,0-.69.48.48,0,0,1,.55-.21.46.46,0,0,0,.53-.23,1,1,0,0,1,.74-.38c.36,0,.48-.23.7-.38a1.79,1.79,0,0,1,.34-.22c.19-.06.44-.1.55.08s-.15.29-.29.38c-.76.46-1.52.92-2.29,1.37Z"/><path class="cls-3" d="M74,203.83c.78,1.26.78,1.26-.66,1.63l-1.19.29c-.29.06-.45,0-.32-.35A3.53,3.53,0,0,0,72,204c0-.42.82-1.17,1.24-1.11a.48.48,0,0,1,.32.24C73.67,203.33,73.81,203.58,74,203.83Z"/><path class="cls-3" d="M62.93,188.26l-1.91.81a.69.69,0,0,1-.86-.17,2.67,2.67,0,0,0-.84-.61c-.21-.11-.23-.24,0-.35a8.06,8.06,0,0,1,2.62-.81,1.53,1.53,0,0,1,1.25.63C63.45,188,63.08,188.11,62.93,188.26Z"/><path class="cls-3" d="M76.19,209.67l.53-.22c.11,0,.25-.1.32,0s-.08.18-.16.24a1.46,1.46,0,0,0-.25.2c.35,0,.61-.32,1-.29a5.85,5.85,0,0,1-3.11,1.73c.21-.4.67-.45,1-.77-.27.14-.49.27-.72.38s-.34.05-.29-.05c.16-.33-.12-.54-.12-.82a1.26,1.26,0,0,1,1.51-1.23l.26.08C76.67,209.14,76.69,209.22,76.19,209.67Z"/><path class="cls-3" d="M65.79,202.45c.62.42.67.61.27,1.21a1.77,1.77,0,0,0-.25,1.56.64.64,0,0,1-.32.84l-1.44.86c-.28.16-.47.12-.49-.24a1.08,1.08,0,0,0-.28-.5.65.65,0,0,1-.11-.68c.1-.23.32-.07.48-.12s.55.13.64-.28c0-.1.21,0,.33,0a.7.7,0,0,0,.81-.57,5,5,0,0,1,.48-1.23c0-.11.21-.32-.14-.23-.15,0-.13-.08-.1-.17S65.74,202.6,65.79,202.45Z"/><path class="cls-3" d="M79,207.35c-.24.05-.29-.18-.48-.17,0,.21.21.28.29.42a.32.32,0,0,1,0,.34.26.26,0,0,1-.25.16c-.12,0-.22,0-.22-.18,0-.48,0-.48-.27-.81a.75.75,0,0,0,.1.87c.24.33.17.51-.23.6a1.09,1.09,0,0,1-1.13-.29,1.56,1.56,0,0,1-.29-1.29.47.47,0,0,1,.37-.37c.62-.2,1.24-.39,1.87-.56.26-.08.46.09.28.29S78.84,207,79,207.35Z"/><path class="cls-3" d="M70.79,213.81c3.57-2,7.2-3.93,10.88-5.73C81.41,208.54,71.52,213.77,70.79,213.81Z"/><path class="cls-3" d="M68.25,200.29c.08-.65.1-.69.57-.95,0-.15-.28,0-.23-.18a.31.31,0,0,1,.24-.2,1.55,1.55,0,0,1,1.06.53.36.36,0,0,1-.1.38,13.78,13.78,0,0,1-1.68,1.65c-.24.2-.38.15-.41-.16a1.9,1.9,0,0,0-.26-.77c-.11-.17-.2-.38.06-.49s.48-.31.61.11A.12.12,0,0,0,68.25,200.29Z"/><path class="cls-3" d="M71.42,214.07a1.51,1.51,0,0,1,.55-.4c2.43-1.34,4.85-2.67,7.34-3.88.64-.31,1.25-.68,1.88-1,.14-.07.34-.3.45-.08s-.18.28-.33.36c-.92.47-1.84.93-2.75,1.41-.75.39-1.52.74-2.24,1.19a32.6,32.6,0,0,1-4.39,2.28A.81.81,0,0,1,71.42,214.07Z"/><path class="cls-3" d="M81.57,209.37a105.79,105.79,0,0,1-9.7,5c3.09-1.93,6.43-3.4,9.58-5.22Z"/><path class="cls-3" d="M49.31,189.78l2.48-.9c.23-.08.45-.17.68-.24a.79.79,0,0,1,.7.09c.21.15.28.3,0,.41l-3.66,1.24c-.2.07-.42.09-.51-.14S49.13,189.93,49.31,189.78Z"/><path class="cls-3" d="M57.68,186.9a25.59,25.59,0,0,1,2.64-.86.69.69,0,0,1,.32,0c.23.06.56.08.58.33s-.32.22-.51.28c-1,.32-2,.65-3,.95-.18.06-.46.23-.57,0s.16-.42.35-.56Z"/><path class="cls-3" d="M81.4,210c-2.94,1.7-5.92,3.32-9,4.77A59.65,59.65,0,0,1,81.4,210Z"/><path class="cls-3" d="M81.19,210.65c-2.55,1.54-5.22,2.87-8,4.2A46.4,46.4,0,0,1,81.19,210.65Z"/><path class="cls-3" d="M81.06,207a1.37,1.37,0,0,1-.65.2c-.16,0-.38,0-.23-.25,0-.05.09-.11,0-.12l-.13,0a.29.29,0,0,1-.29-.18c-.07-.15.15-.16.15-.21,0-.24.36-.41.18-.7a.13.13,0,0,1,0-.16,1.12,1.12,0,0,1,1.17-.15A1,1,0,0,1,81.06,207Z"/><path class="cls-3" d="M54.1,193.7c0,.35.37.48.09.64a.3.3,0,0,1-.43-.34c-.35.31-.56.58,0,.88-.11-.44.09-.47.44-.39s.66-.07.94.2c-.11.16-.26.13-.38.14-.3,0-.52.11-.53.47s-.18.33-.4.22a4.59,4.59,0,0,1-1-.64c-.19-.15-.18-.31,0-.46.41-.33.82-.66,1.25-1a.38.38,0,0,1,.54,0c.11.11,0,.22,0,.32S54.31,194.05,54.1,193.7Z"/><path class="cls-3" d="M73,201c-.15-.23-.23-.39-.07-.53s.32,0,.44.09A12.43,12.43,0,0,1,75,202.61a.89.89,0,0,1,.12.39c0,.2-.12.26-.31.18a.49.49,0,0,1-.18-.14A12.08,12.08,0,0,0,73,201Z"/><path class="cls-3" d="M57.58,185.12c-2.41.95-4.85,1.8-7.33,2.52A56.12,56.12,0,0,1,57.58,185.12Z"/><path class="cls-3" d="M56.2,186.14l-6.14,2.17-.05-.15c2-.82,4.06-1.54,6.13-2.19Z"/><path class="cls-3" d="M69.67,207.53c-.09-.2-.27-.35-.1-.5s.28,0,.4.09a6.56,6.56,0,0,1,1.15,1,.34.34,0,0,1,0,.52c-.2.2-.37.07-.5-.08Z"/><path class="cls-3" d="M54.37,188a7.12,7.12,0,0,1,1.41-.48.29.29,0,0,1,.33.06c.09.11,0,.23,0,.34a1.88,1.88,0,0,1-1.86.51C53.92,188.16,54.27,188.09,54.37,188Z"/><path class="cls-3" d="M70.29,198.5c-.1-.13-.14-.2-.1-.27s.16-.06.24,0a11.31,11.31,0,0,1,1.84,1.3.24.24,0,0,1,.09.32.24.24,0,0,1-.36.07,2.58,2.58,0,0,1-.49-.32C71.08,199.21,70.65,198.83,70.29,198.5Z"/><path class="cls-3" d="M60.31,193.14a2.44,2.44,0,0,1-.39.23c-.16.08-.23,0-.19-.16a4.36,4.36,0,0,1,.5-1.25c.23-.34.45-.05.64.08s.34.33.1.55S60.46,193,60.31,193.14Z"/><path class="cls-3" d="M70.44,213.48l3.4-2a1,1,0,0,1-.45.69A18.23,18.23,0,0,1,70.44,213.48Z"/><path class="cls-3" d="M76,205.84l-.61-1.62c0-.14-.14-.32,0-.4s.27.08.34.22a5.89,5.89,0,0,1,.58,1.65c0,.12,0,.29-.11.35S76.07,205.89,76,205.84Z"/><path class="cls-3" d="M69.71,213.22c1.08-.67,2.15-1.2,3.21-1.74.09,0,.21-.13.28,0s-.08.19-.16.23c-.51.27-1,.54-1.54.79a12.3,12.3,0,0,0-1.24.66C70.12,213.25,70,213.4,69.71,213.22Z"/><path class="cls-3" d="M55.05,192.8c.16,0,.19-.07.22-.06a5.3,5.3,0,0,0,3,.1c.11,0,.28-.06.32.07s-.11.2-.22.22A5.74,5.74,0,0,1,55.05,192.8Z"/><path class="cls-3" d="M69.87,196.88a1,1,0,0,1,.39-.55c.56-.55,1.18-1,1.71-1.62.08-.09.21-.25.33-.1s-.07.21-.16.28c-.65.55-1.17,1.22-1.84,1.75A.85.85,0,0,1,69.87,196.88Z"/><path class="cls-3" d="M69.2,205.1c-.29.13-.58.18-.77-.12a.43.43,0,0,1,.22-.65.55.55,0,0,1,.76.17C69.6,204.76,69.4,204.94,69.2,205.1Z"/><path class="cls-3" d="M27.29,195.31c.41-.05.81-.1,1.22-.13s.42-.08.38-.41,0-.82,0-1.23-.17-.5-.51-.45a13,13,0,0,0-2.22.51.69.69,0,0,0-.3.2,5.27,5.27,0,0,0-1.14,3.9c0,.25.17.34.4.33,1.1-.06,2.2-.23,3.29-.4.24,0,.35-.21.42-.43a6.53,6.53,0,0,0,.24-1.15c.05-.46-.2-.52-.55-.47a12.81,12.81,0,0,1-1.85.23c-.19,0-.5.07-.52-.11s.29-.19.46-.24.48-.09.71-.13Z"/><path class="cls-3" d="M14.83,195.28a8.26,8.26,0,0,1-1.61.38c-.6.12-.66.19-.57.78,0,.27.11.54.15.81s.26.44.59.37a24.45,24.45,0,0,0,2.67-.72.41.41,0,0,0,.33-.54,8.87,8.87,0,0,1-.12-2.57c0-.28-.07-.41-.34-.41a18.18,18.18,0,0,0-2.85.25.44.44,0,0,0-.34.32c-.4,1.13-.15,1.47,1,1.34A3.45,3.45,0,0,1,14.83,195.28Z"/><path class="cls-3" d="M23.69,167.58a9.37,9.37,0,0,0-3.58,1.2,6.68,6.68,0,0,0-1.9,2c-.06.11-.21.22-.08.36s.23,0,.34,0c1.19-.48,2.39-.95,3.57-1.44s2.41-1,3.6-1.51c.21-.09.55-.15.51-.43s-.36-.22-.58-.27A3.75,3.75,0,0,0,23.69,167.58Z"/><path class="cls-3" d="M24,199.07a.62.62,0,0,0-.68.58,8.52,8.52,0,0,0-.17.85c-.06.48.46,1,.9.86,1.29-.47,2.67-.58,3.93-1.12a1.4,1.4,0,0,0,.5-1.44c-.09-.17-.25-.14-.4-.12Z"/><path class="cls-3" d="M15.71,199.23a1.21,1.21,0,0,1-1,.54,4,4,0,0,0-1.13.33.3.3,0,0,0-.19.24,1.3,1.3,0,0,0,.31.92c.2.24.47.09.68,0,.89-.36,1.78-.75,2.68-1.12.23-.1.3-.23.19-.46a9.63,9.63,0,0,1-.49-1.46c-.15-.49-.33-.6-.85-.49s-.74.26-1.12.35a5.44,5.44,0,0,1-1.34.22c-.36,0-.52.25-.42.59.27,1,.17,1,1.1.69a6.7,6.7,0,0,1,1.31-.36A2,2,0,0,1,15.71,199.23Z"/><path class="cls-3" d="M18.33,206.64a4.85,4.85,0,0,0,1.06.44,6.78,6.78,0,0,0,3.76-.22,11.4,11.4,0,0,0,2.76-1.56c.18-.14.48-.33.37-.56s-.44-.07-.66,0c-1.92.43-3.83.9-5.71,1.47-.51.15-1.05.2-1.58.3Z"/><path class="cls-3" d="M15.24,190.42c.08-.18-.18-.39-.15-.64,0-.09-.14-.08-.22,0a.57.57,0,0,1-.33.16c-.1-.08.1-.15,0-.19-.34-.24-.73-.08-1.09-.08s-.22.3-.08.51c0,0,0,.06,0,.08-.44.71.25.48.49.55a11.46,11.46,0,0,1,1.47.24,5.23,5.23,0,0,1-1.54.26,1,1,0,0,0-1,1.29c0,.2.2.22.35.21a15.51,15.51,0,0,0,2.88-.34.46.46,0,0,0,.35-.43,10.47,10.47,0,0,1,.35-2,.23.23,0,0,0-.17-.32c-.32,0-.63,0-.95,0,0,0-.11.1-.11.12C15.85,190.28,15.24,190.24,15.24,190.42Z"/><path class="cls-3" d="M21.39,200.33c1-.19,1.08-.25,1.22-1.3a13.45,13.45,0,0,1,.21-1.66.47.47,0,0,0-.12-.5c-.17-.15-.34-.07-.51,0-.49.21-1,.42-1.48.61a4.48,4.48,0,0,0-1.26.89c-.13.11-.1.28,0,.43s.18.44.28.66C20.19,200.54,20.21,200.55,21.39,200.33Z"/><path class="cls-3" d="M27.64,173.37c-.44.24-.26.62-.39.91-.26-.17-.34-.36-.16-.64.08-.12.16-.25-.05-.41s0-.29.15-.35a9,9,0,0,1,1.21-.4.71.71,0,0,0,.63-.83c0-.14,0-.28,0-.41,0-.42-.15-.52-.56-.38-.62.22-1.24.48-1.86.73-.38.15-.75.33-1.12.49s-.33.31-.09.47a2.39,2.39,0,0,1,1,1.74.46.46,0,0,0,.55.36c.27,0,.55,0,.82-.06.87-.1,1.16-.42,1.19-1.29,0-.28-.1-.39-.37-.37s-.34.11-.52.37-.45.35-.29.7c0,0-.08.05-.12,0s-.08-.08-.08-.14S27.61,173.61,27.64,173.37Z"/><path class="cls-3" d="M24.74,194.31a2.87,2.87,0,0,1-2,1.27,1.5,1.5,0,0,1-1.6-.7,1.55,1.55,0,0,1,0-1.8,2.8,2.8,0,0,1,2.15-1.27A1.38,1.38,0,0,1,24.94,193,1.73,1.73,0,0,1,24.74,194.31Zm-.55-.86a.81.81,0,0,0-.93-.87,1.68,1.68,0,0,0-1.43,1.21c-.18.7.3,1.12,1.13,1A1.37,1.37,0,0,0,24.19,193.45Z"/><path class="cls-3" d="M21.62,177.27a1.48,1.48,0,0,1-1.4-.77A1.45,1.45,0,0,1,20.4,175a2.73,2.73,0,0,1,2.36-1.21,1.41,1.41,0,0,1,1.36.88,1.5,1.5,0,0,1-.26,1.58,2.84,2.84,0,0,1-1.74,1.05A3.55,3.55,0,0,1,21.62,177.27ZM21,175.15a.89.89,0,0,0-.17,1,.81.81,0,0,0,.77.54,2,2,0,0,0,1.38-.5,1,1,0,0,0,.45-1.26c-.19-.39-.65-.55-1.3-.42A2.26,2.26,0,0,0,21,175.15Z"/><path class="cls-3" d="M25.8,177.5a3.4,3.4,0,0,1,.34-.12c.23-.08.24-.28.26-.48a.25.25,0,0,0-.19-.31.44.44,0,0,0-.49.15,9.34,9.34,0,0,1-1.78,1.54c-.44.31-.43.51.07.7a7.46,7.46,0,0,0,3,.38c.5,0,.59-.46.65-.85a2.15,2.15,0,0,1,.12-.56c-.83-.1-1.08,0-1.4.68-.09-.25-.1-.3.13-.5s.2-.35-.12-.44A4.06,4.06,0,0,1,25.8,177.5Z"/><path class="cls-3" d="M19,194.31c.59-.18,1.18-.31,1.31-1.13.07-.42.49-.74.84-1,.1-.08.27-.15.23-.31s-.21-.15-.34-.17a13.24,13.24,0,0,0-2.18-.06.35.35,0,0,0-.37.32,11.14,11.14,0,0,0-.14,2.08C18.35,194.46,18.68,194.37,19,194.31Z"/><path class="cls-3" d="M19,178.42a2.9,2.9,0,0,1-1.28.58,8.15,8.15,0,0,0-1.69.41c-.19.06-.44.18-.36.44s.33.2.51.16c1-.23,2-.36,3-.49a.48.48,0,0,0,.44-.45,3.28,3.28,0,0,0,.07-1.08.63.63,0,0,0-.43-.54.47.47,0,0,0-.55.21.46.46,0,0,1-.55.17,1,1,0,0,0-.81.22c-.27.23-.51.14-.77.17a1.67,1.67,0,0,0-.4.07c-.19.08-.4.21-.36.42s.3.12.46.09c.88-.15,1.76-.33,2.63-.49Z"/><path class="cls-3" d="M18.6,196.42c.26,1.46.26,1.46,1.58.79.37-.19.73-.38,1.08-.58s.33-.31,0-.48a3.28,3.28,0,0,1-1.07-1,1.53,1.53,0,0,0-1.67,0,.46.46,0,0,0-.08.39C18.49,195.86,18.55,196.14,18.6,196.42Z"/><path class="cls-3" d="M16.53,177.46l2-.67a.69.69,0,0,0,.53-.7,2.9,2.9,0,0,1,.22-1c.09-.22,0-.33-.22-.26A8.13,8.13,0,0,0,16.52,176a1.54,1.54,0,0,0-.52,1.3C16,177.63,16.32,177.45,16.53,177.46Z"/><path class="cls-3" d="M20.81,202.27c-.25.09-.4.13-.54.19s-.25.08-.22.23.18.09.28.08a1.1,1.1,0,0,1,.32,0c-.26.23-.67.17-.92.43a5.77,5.77,0,0,0,3.47-.77c-.42-.16-.8.11-1.24.08l.78-.2c.12,0,.29-.18.19-.23-.34-.13-.27-.48-.45-.69a1.26,1.26,0,0,0-1.95.09,1.76,1.76,0,0,0-.14.23C20.1,202.19,20.14,202.26,20.81,202.27Z"/><path class="cls-3" d="M23.8,190c-.18.73-.09.9.6,1.08a1.74,1.74,0,0,1,1.22,1,.64.64,0,0,0,.8.42l1.65-.31c.32-.06.43-.22.21-.5a1,1,0,0,1-.12-.57.65.65,0,0,0-.37-.58c-.23-.11-.29.16-.44.23s-.33.46-.66.21c-.08-.06-.2.11-.28.2a.7.7,0,0,1-1,.1,5.88,5.88,0,0,0-1.17-.6c-.12-.05-.38-.1-.06-.26.14-.07.05-.14,0-.2Z"/><path class="cls-3" d="M17.2,202.37c.2-.11.09-.32.24-.44.14.16,0,.35.06.51a.33.33,0,0,0,.2.28.24.24,0,0,0,.29-.05.17.17,0,0,0,0-.27c-.32-.36-.32-.36-.33-.79a.74.74,0,0,1,.5.72c0,.41.21.5.57.29a1.12,1.12,0,0,0,.66-1,1.67,1.67,0,0,0-.64-1.16.53.53,0,0,0-.53,0l-1.77.82c-.24.12-.28.39,0,.41C16.93,201.73,17.07,202,17.2,202.37Z"/><path class="cls-3" d="M27.6,201.79q-6,1.29-12,2.93C16.16,204.89,27,202.24,27.6,201.79Z"/><path class="cls-3" d="M20.53,190c-.49-.44-.53-.46-1.05-.34-.1-.11.22-.17,0-.29a.32.32,0,0,0-.3,0,1.53,1.53,0,0,0-.44,1.09.35.35,0,0,0,.32.22,13.29,13.29,0,0,0,2.36.12c.31,0,.38-.14.19-.4a1.74,1.74,0,0,1-.31-.74c0-.2-.1-.41-.38-.33s-.56.09-.38.49A.13.13,0,0,1,20.53,190Z"/><path class="cls-3" d="M27.3,202.39a1.8,1.8,0,0,0-.68.07c-2.7.61-5.4,1.23-8.07,2-.68.19-1.38.32-2.07.49-.15,0-.45,0-.39.24s.32.09.49.05l3-.77c.82-.2,1.63-.46,2.47-.6a31.66,31.66,0,0,0,4.79-1.2A.84.84,0,0,0,27.3,202.39Z"/><path class="cls-3" d="M16.59,205.62c3.56-.77,7.11-1.57,10.58-2.69-3.6.6-7.07,1.72-10.63,2.45Z"/><path class="cls-3" d="M27.73,169.55l-2.45,1c-.22.09-.45.17-.67.27a.78.78,0,0,0-.47.53c-.06.25,0,.41.29.29,1.19-.49,2.38-1,3.56-1.5.2-.08.37-.21.3-.44S28,169.55,27.73,169.55Z"/><path class="cls-3" d="M19.55,173c-.79.3-1.68.68-2.54,1.11a.61.61,0,0,0-.23.22c-.13.19-.38.43-.22.63s.38-.06.56-.14c1-.42,1.94-.85,2.9-1.29.17-.08.5-.13.42-.39s-.4-.2-.64-.19Z"/><path class="cls-3" d="M17.11,205.94c3.33-.67,6.63-1.44,9.89-2.4A59.79,59.79,0,0,0,17.11,205.94Z"/><path class="cls-3" d="M17.72,206.32c2.93-.54,5.81-1.32,8.76-2.15C26,204,18.48,205.83,17.72,206.32Z"/><path class="cls-3" d="M15.42,203.52a1.54,1.54,0,0,0,.61-.28c.12-.1.31-.22,0-.34,0,0-.13,0-.05-.11s.08,0,.11-.06a.28.28,0,0,0,.09-.33c0-.15-.21,0-.25-.05s-.54-.07-.59-.41a.15.15,0,0,0-.12-.12c-.26-.09-.94.38-1,.67A1,1,0,0,0,15.42,203.52Z"/><path class="cls-3" d="M26.74,175.67c.25.25.05.6.37.53a.3.3,0,0,0,.09-.53c.47,0,.8.06.58.65-.2-.4-.38-.28-.58,0s-.54.39-.57.78c.18,0,.28-.08.37-.15s.47-.27.71,0,.35.12.45-.1a5.39,5.39,0,0,0,.31-1.13c0-.23-.08-.35-.31-.34l-1.58.09a.38.38,0,0,0-.39.37c0,.16.11.2.23.22S26.82,176.06,26.74,175.67Z"/><path class="cls-3" d="M17.45,193.63c0-.26-.09-.44-.3-.44s-.25.2-.26.37a11.94,11.94,0,0,0,.1,2.67.85.85,0,0,0,.17.36c.13.15.27.12.35-.07a.41.41,0,0,0,0-.22A12.74,12.74,0,0,1,17.45,193.63Z"/><path class="cls-3" d="M18.45,171.55c2.43-.89,4.82-1.86,7.15-3A56.41,56.41,0,0,0,18.45,171.55Z"/><path class="cls-3" d="M20.17,171.4l6-2.44-.06-.15c-2.05.71-4.05,1.54-6,2.42Z"/><path class="cls-3" d="M24.27,196.34c-.07-.21,0-.44-.25-.44s-.21.2-.25.34a7.09,7.09,0,0,0-.18,1.52c0,.22.09.39.33.41s.32-.2.33-.4C24.26,197.28,24.26,196.78,24.27,196.34Z"/><path class="cls-3" d="M22.75,171.56a6.72,6.72,0,0,0-1.37.58c-.11.06-.22.12-.22.27s.14.19.25.23c.42.18,1.65-.4,1.72-.85S22.89,171.58,22.75,171.56Z"/><path class="cls-3" d="M17.82,190c0-.16,0-.25-.11-.27s-.16.06-.19.14a10.48,10.48,0,0,0-.51,2.2.23.23,0,0,0,.14.3.25.25,0,0,0,.32-.19,2.73,2.73,0,0,0,.15-.56C17.7,191.05,17.76,190.48,17.82,190Z"/><path class="cls-3" d="M21.73,179.37l.44-.08c.18-.06.18-.16,0-.25a4.12,4.12,0,0,0-1.2-.61c-.4-.1-.37.26-.43.48s0,.48.29.48S21.53,179.38,21.73,179.37Z"/><path class="cls-3" d="M27.64,201.3l-3.89.74a1,1,0,0,0,.79.21A17.37,17.37,0,0,0,27.64,201.3Z"/><path class="cls-3" d="M18.42,199.27c-.21-.55-.41-1.09-.62-1.62-.05-.13-.1-.33-.29-.27s-.15.24-.11.39a6,6,0,0,0,.66,1.62c.07.11.16.25.31.19S18.39,199.36,18.42,199.27Z"/><path class="cls-3" d="M28,200.63c-1.25.21-2.41.53-3.56.83-.09,0-.25,0-.2.19s.18.09.27.06c.56-.13,1.12-.27,1.67-.43a13.63,13.63,0,0,1,1.37-.33C27.73,200.92,27.94,200.93,28,200.63Z"/><path class="cls-3" d="M25.44,175.62c-.15.08-.19.08-.2.1a5.4,5.4,0,0,1-2.2,2.09c-.1.06-.26.14-.2.27s.22.07.31,0A5.73,5.73,0,0,0,25.44,175.62Z"/><path class="cls-3" d="M17.05,188.51a1,1,0,0,0-.65-.15c-.78-.05-1.57,0-2.35-.08-.12,0-.33-.05-.32.14s.19.11.31.11c.84,0,1.69.13,2.53.08A.79.79,0,0,0,17.05,188.51Z"/><path class="cls-3" d="M23,194.21c.3-.09.55-.25.5-.6s-.31-.4-.59-.34a.56.56,0,0,0-.47.63C22.49,194.22,22.76,194.23,23,194.21Z"/></g></g></g></g></g></svg>