<svg xmlns="http://www.w3.org/2000/svg" viewBox="0 0 693.54 318.41"><defs><style>.cls-1{fill:#fff;}</style></defs><g id="레이어_2" data-name="레이어 2"><g id="레이어_1-2" data-name="레이어 1"><g id="_3page" data-name="3page"><path class="cls-1" d="M37.8,35.07a14.65,14.65,0,0,1-2.22,8,14.87,14.87,0,0,1-6.51,5.54,23.72,23.72,0,0,1-10.15,2q-7,0-11.62-2.74A15.66,15.66,0,0,1,2,42.59,12.18,12.18,0,0,1,0,36.2a4.35,4.35,0,0,1,1.22-3.09,4.06,4.06,0,0,1,3.1-1.28,3.59,3.59,0,0,1,2.58,1,8,8,0,0,1,1.8,3,20.18,20.18,0,0,0,2,3.9,8,8,0,0,0,3,2.59,10.7,10.7,0,0,0,5,1,11.13,11.13,0,0,0,7-2.05,6.23,6.23,0,0,0,2.68-5.12,5.5,5.5,0,0,0-1.44-4,9.37,9.37,0,0,0-3.73-2.32A60.14,60.14,0,0,0,17,28.17a43.7,43.7,0,0,1-8.58-2.89A14,14,0,0,1,3,20.78a11.93,11.93,0,0,1-2-7.09A12.39,12.39,0,0,1,3.06,6.52,13.52,13.52,0,0,1,9.26,1.7,24.79,24.79,0,0,1,18.8,0a22.93,22.93,0,0,1,7.58,1.12,15.8,15.8,0,0,1,5.3,3A12.22,12.22,0,0,1,34.76,8a9.16,9.16,0,0,1,1,4,4.79,4.79,0,0,1-1.22,3.19,3.82,3.82,0,0,1-3,1.42A3.41,3.41,0,0,1,29,15.73a11.64,11.64,0,0,1-1.87-2.79A12.6,12.6,0,0,0,24,8.62q-1.81-1.54-5.84-1.55a9.94,9.94,0,0,0-6,1.68A4.93,4.93,0,0,0,9.84,12.8a4.21,4.21,0,0,0,.78,2.54,6.58,6.58,0,0,0,2.14,1.83,14.43,14.43,0,0,0,2.76,1.2c.93.29,2.47.71,4.61,1.27a71.37,71.37,0,0,1,7.28,2.14A21.86,21.86,0,0,1,33,24.62a11.67,11.67,0,0,1,3.57,4.22A13.65,13.65,0,0,1,37.8,35.07Z"/><path class="cls-1" d="M76.86,9H66.35V44.54A6.63,6.63,0,0,1,65,49.09a4.4,4.4,0,0,1-3.44,1.48,4.47,4.47,0,0,1-3.49-1.5,6.6,6.6,0,0,1-1.35-4.54V9H46.23a5.22,5.22,0,0,1-3.67-1.12,3.84,3.84,0,0,1-1.2-2.95,3.79,3.79,0,0,1,1.25-3A5.33,5.33,0,0,1,46.23.84H76.86A5.29,5.29,0,0,1,80.57,2a3.89,3.89,0,0,1,1.22,3,3.79,3.79,0,0,1-1.23,2.95A5.33,5.33,0,0,1,76.86,9Z"/><path class="cls-1" d="M100.45,28.83H97.08V44.54a6.64,6.64,0,0,1-1.33,4.57,4.46,4.46,0,0,1-3.47,1.47,4.36,4.36,0,0,1-3.57-1.53,6.94,6.94,0,0,1-1.27-4.5V6.91c0-2.14.46-3.68,1.4-4.64S91.27.84,93.35.84H109a46.3,46.3,0,0,1,5.55.28,13.55,13.55,0,0,1,4.15,1.15,12.18,12.18,0,0,1,4,2.77,12,12,0,0,1,2.61,4.19,14.39,14.39,0,0,1,.89,5,12.42,12.42,0,0,1-3,8.74q-3,3.27-9.1,4.64A17.59,17.59,0,0,1,119,31.8a41.14,41.14,0,0,1,4.17,5.82A43.54,43.54,0,0,1,126,43.19a11.3,11.3,0,0,1,1,3.42,3.57,3.57,0,0,1-.6,1.92,4.32,4.32,0,0,1-1.64,1.5,5,5,0,0,1-2.4.55,4.63,4.63,0,0,1-2.73-.78,7.33,7.33,0,0,1-1.9-2q-.8-1.2-2.16-3.54l-3.86-6.61A36.64,36.64,0,0,0,108,32.13a9,9,0,0,0-3.33-2.6A11,11,0,0,0,100.45,28.83ZM106,8.28H97.07V21.72h8.63a23.63,23.63,0,0,0,5.84-.62,6.83,6.83,0,0,0,3.62-2.1,6.17,6.17,0,0,0,1.25-4.09,6.47,6.47,0,0,0-1-3.59A6.13,6.13,0,0,0,112.61,9C111.49,8.53,109.27,8.28,106,8.28Z"/><path class="cls-1" d="M174.94,34.3a13.24,13.24,0,0,1-1.12,5.05,18.45,18.45,0,0,1-3.52,5.34,17.85,17.85,0,0,1-6.13,4.25,21.52,21.52,0,0,1-8.69,1.63,30.17,30.17,0,0,1-6.85-.73,18.25,18.25,0,0,1-10.22-6.38,24.17,24.17,0,0,1-3.21-5.15,27.53,27.53,0,0,1-2-6.09,34.36,34.36,0,0,1-.67-6.87,31.4,31.4,0,0,1,1.67-10.58,22.58,22.58,0,0,1,4.79-8,20.83,20.83,0,0,1,7.3-5.05A23,23,0,0,1,155.21,0,21.81,21.81,0,0,1,165.5,2.37a18.75,18.75,0,0,1,6.91,5.85,11.75,11.75,0,0,1,2.4,6.59,4.36,4.36,0,0,1-1.17,3,3.65,3.65,0,0,1-2.82,1.3,3.82,3.82,0,0,1-2.77-.9,12.4,12.4,0,0,1-2.06-3.1,14.8,14.8,0,0,0-4.43-5.44,10.61,10.61,0,0,0-6.28-1.8,11.28,11.28,0,0,0-9.46,4.64q-3.52,4.64-3.52,13.18a25,25,0,0,0,1.56,9.49A11.29,11.29,0,0,0,155,42.7a11.49,11.49,0,0,0,7-2.12,12.8,12.8,0,0,0,4.33-6.22,10.75,10.75,0,0,1,1.52-3.15A3.4,3.4,0,0,1,170.74,30a4,4,0,0,1,2.95,1.23A4.17,4.17,0,0,1,174.94,34.3Z"/><path class="cls-1" d="M24,114.66a8.18,8.18,0,0,1-1.23,4.43,8.33,8.33,0,0,1-3.61,3.08,13.26,13.26,0,0,1-5.64,1.11,12.42,12.42,0,0,1-6.45-1.52,8.71,8.71,0,0,1-2.93-2.92A6.78,6.78,0,0,1,3,115.29a2.39,2.39,0,0,1,.68-1.71,2.28,2.28,0,0,1,1.72-.71,2,2,0,0,1,1.43.56,4.43,4.43,0,0,1,1,1.65,11.22,11.22,0,0,0,1.09,2.17,4.49,4.49,0,0,0,1.65,1.44,5.91,5.91,0,0,0,2.79.56,6.18,6.18,0,0,0,3.87-1.14,3.46,3.46,0,0,0,1.49-2.84,3.1,3.1,0,0,0-.8-2.2,5.22,5.22,0,0,0-2.07-1.29,34.84,34.84,0,0,0-3.4-1,24.76,24.76,0,0,1-4.77-1.6,7.79,7.79,0,0,1-3.05-2.5,6.65,6.65,0,0,1-1.13-3.94,6.89,6.89,0,0,1,1.19-4,7.57,7.57,0,0,1,3.44-2.68,13.82,13.82,0,0,1,5.3-.94,12.93,12.93,0,0,1,4.21.62,8.73,8.73,0,0,1,3,1.65,7,7,0,0,1,1.71,2.16,5.09,5.09,0,0,1,.54,2.21,2.64,2.64,0,0,1-.68,1.77,2.12,2.12,0,0,1-1.69.79,1.94,1.94,0,0,1-1.4-.47,6.39,6.39,0,0,1-1-1.55,7,7,0,0,0-1.73-2.4,5,5,0,0,0-3.24-.86,5.44,5.44,0,0,0-3.34.94,2.73,2.73,0,0,0-1.27,2.25,2.33,2.33,0,0,0,.43,1.41,3.53,3.53,0,0,0,1.19,1,8.18,8.18,0,0,0,1.53.67c.52.16,1.37.4,2.56.7a38.11,38.11,0,0,1,4,1.19,12,12,0,0,1,3.08,1.58,6.4,6.4,0,0,1,2,2.34A7.44,7.44,0,0,1,24,114.66Z"/><path class="cls-1" d="M46,99.89H33.9v6.67H45a2.57,2.57,0,0,1,1.83.57,2,2,0,0,1,.6,1.49,2,2,0,0,1-.6,1.51,2.54,2.54,0,0,1-1.84.58H33.89v7.73H46.36a2.69,2.69,0,0,1,1.9.6,2.09,2.09,0,0,1,.64,1.6,2.07,2.07,0,0,1-.64,1.57,2.69,2.69,0,0,1-1.9.6H31.81a3.36,3.36,0,0,1-2.51-.8,3.63,3.63,0,0,1-.77-2.58V99a4.69,4.69,0,0,1,.34-1.94A2.18,2.18,0,0,1,29.94,96a4.37,4.37,0,0,1,1.87-.34H45.94a2.68,2.68,0,0,1,1.9.58,2,2,0,0,1,.62,1.53,2,2,0,0,1-.62,1.55A2.63,2.63,0,0,1,46,99.89Z"/><path class="cls-1" d="M64.79,95.18a13.85,13.85,0,0,1,7.06,1.71,11,11,0,0,1,4.46,4.87,17,17,0,0,1,1.51,7.42,18.75,18.75,0,0,1-.83,5.73,12.37,12.37,0,0,1-2.49,4.47,10.92,10.92,0,0,1-4.07,2.89,14.28,14.28,0,0,1-5.53,1,14.12,14.12,0,0,1-5.55-1,11,11,0,0,1-4.09-2.9,12.6,12.6,0,0,1-2.48-4.5,18.59,18.59,0,0,1-.84-5.69,18.15,18.15,0,0,1,.87-5.75A12.53,12.53,0,0,1,55.34,99a11,11,0,0,1,4-2.81A14.57,14.57,0,0,1,64.79,95.18Zm7.61,14a13,13,0,0,0-.94-5.17,7.27,7.27,0,0,0-9.63-3.81A6.43,6.43,0,0,0,59.49,102a8.64,8.64,0,0,0-1.55,3,14,14,0,0,0-.57,4.14,14.39,14.39,0,0,0,.57,4.19,8.65,8.65,0,0,0,1.6,3.1,6.63,6.63,0,0,0,2.38,1.84,7.18,7.18,0,0,0,3,.61,7.05,7.05,0,0,0,3.78-1.06,7.21,7.21,0,0,0,2.74-3.26A13,13,0,0,0,72.4,109.16Z"/><path class="cls-1" d="M82.44,111.59V98.52a3.68,3.68,0,0,1,.73-2.5,2.42,2.42,0,0,1,1.92-.83,2.49,2.49,0,0,1,2,.83,3.69,3.69,0,0,1,.73,2.5v13.36a12.52,12.52,0,0,0,.5,3.81,4.38,4.38,0,0,0,1.76,2.37,6.33,6.33,0,0,0,3.53.84q3.14,0,4.43-1.71a8.55,8.55,0,0,0,1.3-5.2V98.52A3.74,3.74,0,0,1,100,96a2.42,2.42,0,0,1,1.93-.82,2.52,2.52,0,0,1,2,.82,3.64,3.64,0,0,1,.75,2.51v13.07a20,20,0,0,1-.6,5.32,8.17,8.17,0,0,1-2.28,3.74,8.86,8.86,0,0,1-3.35,2,14.27,14.27,0,0,1-4.47.63,18,18,0,0,1-5.25-.68,8.39,8.39,0,0,1-3.59-2.09,8.53,8.53,0,0,1-2-3.63A18.66,18.66,0,0,1,82.44,111.59Z"/><path class="cls-1" d="M115.69,98.52V118.3h10.85a2.8,2.8,0,0,1,2,.65,2.15,2.15,0,0,1,.69,1.63,2.07,2.07,0,0,1-.69,1.62,2.9,2.9,0,0,1-2,.62H113.61a3.36,3.36,0,0,1-2.51-.8,3.63,3.63,0,0,1-.77-2.58V98.52a3.68,3.68,0,0,1,.73-2.5,2.42,2.42,0,0,1,1.92-.83,2.52,2.52,0,0,1,2,.82A3.64,3.64,0,0,1,115.69,98.52Z"/><path class="cls-1" d="M159.13,100.19h-5.84v19.74a3.71,3.71,0,0,1-.74,2.53,2.44,2.44,0,0,1-1.91.82,2.51,2.51,0,0,1-1.94-.83,3.68,3.68,0,0,1-.75-2.52V100.19h-5.84a3,3,0,0,1-2-.62,2.35,2.35,0,0,1,0-3.31,2.93,2.93,0,0,1,2-.61h17a2.92,2.92,0,0,1,2.06.63,2.16,2.16,0,0,1,.68,1.65,2.09,2.09,0,0,1-.69,1.64A2.91,2.91,0,0,1,159.13,100.19Z"/><path class="cls-1" d="M182.46,99.89H170.4v6.67h11.1a2.57,2.57,0,0,1,1.83.57,2,2,0,0,1,.6,1.49,2,2,0,0,1-.6,1.51,2.54,2.54,0,0,1-1.84.58h-11.1v7.73h12.47a2.69,2.69,0,0,1,1.9.6,2.09,2.09,0,0,1,.64,1.6,2.07,2.07,0,0,1-.64,1.57,2.69,2.69,0,0,1-1.9.6H168.31a3.36,3.36,0,0,1-2.51-.8,3.63,3.63,0,0,1-.77-2.58V99a4.69,4.69,0,0,1,.34-1.94A2.18,2.18,0,0,1,166.44,96a4.37,4.37,0,0,1,1.87-.34h14.13a2.68,2.68,0,0,1,1.9.58,2,2,0,0,1,.62,1.53,2,2,0,0,1-.62,1.55A2.63,2.63,0,0,1,182.46,99.89Z"/><path class="cls-1" d="M212.18,114.24a7.5,7.5,0,0,1-.62,2.81,10,10,0,0,1-2,3,9.83,9.83,0,0,1-3.41,2.36,11.86,11.86,0,0,1-4.83.91,16.52,16.52,0,0,1-3.8-.41,10.6,10.6,0,0,1-3.11-1.27,10.47,10.47,0,0,1-2.57-2.27,13.37,13.37,0,0,1-1.78-2.86A15.58,15.58,0,0,1,189,113.1a18.69,18.69,0,0,1-.37-3.82,17.36,17.36,0,0,1,.93-5.88A12.68,12.68,0,0,1,192.21,99a11.53,11.53,0,0,1,4.06-2.81,12.85,12.85,0,0,1,5-1,12.05,12.05,0,0,1,5.71,1.32,10.46,10.46,0,0,1,3.84,3.25,6.51,6.51,0,0,1,1.33,3.66,2.44,2.44,0,0,1-.65,1.67,2,2,0,0,1-1.57.72,2.13,2.13,0,0,1-1.54-.5,7,7,0,0,1-1.14-1.72,8.29,8.29,0,0,0-2.46-3,5.87,5.87,0,0,0-3.49-1,6.24,6.24,0,0,0-5.25,2.58c-1.3,1.72-2,4.16-2,7.32a13.86,13.86,0,0,0,.87,5.27,6.28,6.28,0,0,0,6.16,4.18,6.34,6.34,0,0,0,3.9-1.18,7.16,7.16,0,0,0,2.41-3.46,5.82,5.82,0,0,1,.85-1.75,1.9,1.9,0,0,1,1.62-.68,2.23,2.23,0,0,1,1.64.69A2.31,2.31,0,0,1,212.18,114.24Z"/><path class="cls-1" d="M222.38,98.52v7.78h11.55V98.52a3.68,3.68,0,0,1,.73-2.5,2.42,2.42,0,0,1,1.92-.83,2.52,2.52,0,0,1,2,.82,3.64,3.64,0,0,1,.75,2.51v21.41a3.63,3.63,0,0,1-.76,2.52,2.5,2.5,0,0,1-1.95.83,2.41,2.41,0,0,1-1.93-.84,3.78,3.78,0,0,1-.72-2.51v-9.14H222.38v9.14a3.63,3.63,0,0,1-.76,2.52,2.48,2.48,0,0,1-2,.83,2.41,2.41,0,0,1-1.93-.84,3.78,3.78,0,0,1-.72-2.51V98.52a3.79,3.79,0,0,1,.71-2.5,2.39,2.39,0,0,1,1.94-.83,2.53,2.53,0,0,1,2,.82A3.64,3.64,0,0,1,222.38,98.52Z"/><path class="cls-1" d="M261.46,111.2h-1.87v8.73a3.7,3.7,0,0,1-.74,2.54,2.5,2.5,0,0,1-1.93.82,2.42,2.42,0,0,1-2-.85,3.84,3.84,0,0,1-.7-2.5V99a3.6,3.6,0,0,1,.78-2.58,3.39,3.39,0,0,1,2.51-.8h8.71a24.62,24.62,0,0,1,3.08.16,7.56,7.56,0,0,1,2.31.64,6.78,6.78,0,0,1,3.65,3.87,8,8,0,0,1,.5,2.81,6.91,6.91,0,0,1-1.67,4.86,9.52,9.52,0,0,1-5.06,2.58,9.84,9.84,0,0,1,2.72,2.3,23,23,0,0,1,2.32,3.23,23.57,23.57,0,0,1,1.59,3.1,6.27,6.27,0,0,1,.57,1.9,2,2,0,0,1-.33,1.07,2.35,2.35,0,0,1-.91.83,2.84,2.84,0,0,1-1.33.31,2.52,2.52,0,0,1-1.51-.44,4.08,4.08,0,0,1-1.05-1.1c-.29-.44-.69-1.1-1.2-2l-2.15-3.67a21,21,0,0,0-2.06-3.08,5.17,5.17,0,0,0-1.85-1.45A6.15,6.15,0,0,0,261.46,111.2Zm3.06-11.42h-4.94v7.47h4.79a12.92,12.92,0,0,0,3.24-.34,3.77,3.77,0,0,0,2-1.17,3.44,3.44,0,0,0,.69-2.27,3.59,3.59,0,0,0-.56-2,3.46,3.46,0,0,0-1.55-1.29A10.72,10.72,0,0,0,264.52,99.78Z"/><path class="cls-1" d="M279.93,111.59V98.52a3.68,3.68,0,0,1,.73-2.5,2.42,2.42,0,0,1,1.92-.83,2.49,2.49,0,0,1,2,.83,3.69,3.69,0,0,1,.73,2.5v13.36a12.52,12.52,0,0,0,.5,3.81,4.38,4.38,0,0,0,1.76,2.37,6.33,6.33,0,0,0,3.53.84q3.14,0,4.43-1.71a8.55,8.55,0,0,0,1.3-5.2V98.52a3.74,3.74,0,0,1,.72-2.51,2.42,2.42,0,0,1,1.93-.82,2.52,2.52,0,0,1,2,.82,3.64,3.64,0,0,1,.75,2.51v13.07a20,20,0,0,1-.6,5.32,8.17,8.17,0,0,1-2.28,3.74,8.86,8.86,0,0,1-3.35,2,14.27,14.27,0,0,1-4.47.63,18,18,0,0,1-5.25-.68,8.39,8.39,0,0,1-3.59-2.09,8.53,8.53,0,0,1-2-3.63A18.66,18.66,0,0,1,279.93,111.59Z"/><path class="cls-1" d="M314.92,98.48l10.29,16V98.33a3.59,3.59,0,0,1,.66-2.36,2.21,2.21,0,0,1,1.78-.79,2.24,2.24,0,0,1,1.82.79,3.61,3.61,0,0,1,.67,2.36V119.7c0,2.38-1,3.58-2.88,3.58a3.81,3.81,0,0,1-1.3-.21,3.21,3.21,0,0,1-1.08-.68,6.63,6.63,0,0,1-.94-1.08c-.29-.41-.58-.84-.87-1.27l-10-15.83v15.92a3.44,3.44,0,0,1-.7,2.35,2.3,2.3,0,0,1-1.8.8,2.26,2.26,0,0,1-1.82-.81,3.51,3.51,0,0,1-.69-2.34v-21a6.08,6.08,0,0,1,.29-2.09,3,3,0,0,1,1.14-1.36,3.05,3.05,0,0,1,1.71-.53,2.87,2.87,0,0,1,1.23.24,3,3,0,0,1,.9.65,6.2,6.2,0,0,1,.79,1.06C314.35,97.56,314.63,98,314.92,98.48Z"/><path class="cls-1" d="M343,98.48l10.29,16V98.33a3.59,3.59,0,0,1,.66-2.36,2.21,2.21,0,0,1,1.78-.79,2.24,2.24,0,0,1,1.82.79,3.61,3.61,0,0,1,.67,2.36V119.7c0,2.38-1,3.58-2.88,3.58a3.81,3.81,0,0,1-1.3-.21,3.21,3.21,0,0,1-1.08-.68,6.63,6.63,0,0,1-.94-1.08c-.29-.41-.58-.84-.87-1.27l-10-15.83v15.92a3.44,3.44,0,0,1-.7,2.35,2.3,2.3,0,0,1-1.8.8,2.26,2.26,0,0,1-1.82-.81,3.51,3.51,0,0,1-.69-2.34v-21a6.08,6.08,0,0,1,.29-2.09,3,3,0,0,1,1.14-1.36,3.05,3.05,0,0,1,1.71-.53,2.87,2.87,0,0,1,1.23.24,3,3,0,0,1,.9.65,6.2,6.2,0,0,1,.79,1.06C342.4,97.56,342.68,98,343,98.48Z"/><path class="cls-1" d="M364.25,119.93V98.52A3.68,3.68,0,0,1,365,96a2.42,2.42,0,0,1,1.91-.83,2.53,2.53,0,0,1,2,.82,3.64,3.64,0,0,1,.75,2.51v21.41a3.68,3.68,0,0,1-.75,2.52,2.49,2.49,0,0,1-2,.83,2.43,2.43,0,0,1-1.9-.84A3.67,3.67,0,0,1,364.25,119.93Z"/><path class="cls-1" d="M382.57,98.48l10.29,16V98.33a3.59,3.59,0,0,1,.66-2.36,2.21,2.21,0,0,1,1.78-.79,2.24,2.24,0,0,1,1.82.79,3.61,3.61,0,0,1,.67,2.36V119.7c0,2.38-1,3.58-2.88,3.58a3.81,3.81,0,0,1-1.3-.21,3.21,3.21,0,0,1-1.08-.68,6.63,6.63,0,0,1-.94-1.08c-.29-.41-.58-.84-.87-1.27l-10-15.83v15.92a3.44,3.44,0,0,1-.7,2.35,2.3,2.3,0,0,1-1.8.8,2.26,2.26,0,0,1-1.82-.81,3.51,3.51,0,0,1-.69-2.34v-21a6.08,6.08,0,0,1,.29-2.09,3,3,0,0,1,1.14-1.36,3.05,3.05,0,0,1,1.71-.53,2.87,2.87,0,0,1,1.23.24,3,3,0,0,1,.9.65,6.2,6.2,0,0,1,.79,1.06C382,97.56,382.28,98,382.57,98.48Z"/><path class="cls-1" d="M427.77,111.77V117a5.73,5.73,0,0,1-.2,1.66,2.65,2.65,0,0,1-.73,1.12,6.6,6.6,0,0,1-1.36,1,21.36,21.36,0,0,1-4.61,2,18,18,0,0,1-4.83.61,15.4,15.4,0,0,1-5.55-1,11.67,11.67,0,0,1-4.27-2.8,12.36,12.36,0,0,1-2.71-4.45,17.07,17.07,0,0,1-.95-5.84,17.55,17.55,0,0,1,.92-5.8,11.57,11.57,0,0,1,7-7.28,16.22,16.22,0,0,1,5.8-1,14,14,0,0,1,4.72.73,10.3,10.3,0,0,1,3.33,1.84,8.26,8.26,0,0,1,1.93,2.35,4.91,4.91,0,0,1,.65,2.21,2.39,2.39,0,0,1-.75,1.77,2.47,2.47,0,0,1-1.79.73,2.34,2.34,0,0,1-1.11-.28,2.55,2.55,0,0,1-.89-.78,21.2,21.2,0,0,0-1.68-2.41,5.45,5.45,0,0,0-1.85-1.37,6.85,6.85,0,0,0-3-.56,8,8,0,0,0-3.32.66,7,7,0,0,0-2.5,1.91,8.75,8.75,0,0,0-1.59,3.07,13.71,13.71,0,0,0-.55,4q0,4.79,2.14,7.36a7.32,7.32,0,0,0,6,2.58,12,12,0,0,0,3.49-.5,17.07,17.07,0,0,0,3.31-1.43v-4.41h-4.15a4.41,4.41,0,0,1-2.26-.46,1.7,1.7,0,0,1-.77-1.58,1.94,1.94,0,0,1,.64-1.5,2.45,2.45,0,0,1,1.74-.59h6.07a7.82,7.82,0,0,1,1.89.2,2.14,2.14,0,0,1,1.25.91A3.79,3.79,0,0,1,427.77,111.77Z"/><path class="cls-1" d="M464.61,114.24a7.5,7.5,0,0,1-.62,2.81,10,10,0,0,1-2,3,9.83,9.83,0,0,1-3.41,2.36,11.86,11.86,0,0,1-4.83.91,16.52,16.52,0,0,1-3.8-.41,10.6,10.6,0,0,1-3.11-1.27,10.47,10.47,0,0,1-2.57-2.27,13.37,13.37,0,0,1-1.78-2.86,15.58,15.58,0,0,1-1.11-3.38,18.69,18.69,0,0,1-.37-3.82,17.36,17.36,0,0,1,.93-5.88A12.68,12.68,0,0,1,444.64,99a11.53,11.53,0,0,1,4.06-2.81,12.85,12.85,0,0,1,5-1,12.05,12.05,0,0,1,5.71,1.32,10.46,10.46,0,0,1,3.84,3.25,6.51,6.51,0,0,1,1.33,3.66,2.44,2.44,0,0,1-.65,1.67,2,2,0,0,1-1.57.72,2.13,2.13,0,0,1-1.54-.5,7,7,0,0,1-1.14-1.72,8.29,8.29,0,0,0-2.46-3,5.87,5.87,0,0,0-3.49-1,6.24,6.24,0,0,0-5.25,2.58c-1.3,1.72-2,4.16-2,7.32a13.86,13.86,0,0,0,.87,5.27,6.28,6.28,0,0,0,6.16,4.18,6.34,6.34,0,0,0,3.9-1.18,7.16,7.16,0,0,0,2.41-3.46,5.82,5.82,0,0,1,.85-1.75,1.9,1.9,0,0,1,1.62-.68,2.23,2.23,0,0,1,1.64.69A2.31,2.31,0,0,1,464.61,114.24Z"/><path class="cls-1" d="M476.62,111.2h-1.87v8.73a3.7,3.7,0,0,1-.74,2.54,2.5,2.5,0,0,1-1.93.82,2.42,2.42,0,0,1-2-.85,3.84,3.84,0,0,1-.7-2.5V99a3.6,3.6,0,0,1,.78-2.58,3.39,3.39,0,0,1,2.51-.8h8.71a24.62,24.62,0,0,1,3.08.16,7.56,7.56,0,0,1,2.31.64,6.78,6.78,0,0,1,3.65,3.87,8,8,0,0,1,.5,2.81,6.91,6.91,0,0,1-1.67,4.86,9.52,9.52,0,0,1-5.06,2.58,9.84,9.84,0,0,1,2.72,2.3,23,23,0,0,1,2.32,3.23,23.57,23.57,0,0,1,1.59,3.1,6.27,6.27,0,0,1,.57,1.9,2,2,0,0,1-.33,1.07,2.35,2.35,0,0,1-.91.83,2.84,2.84,0,0,1-1.33.31,2.52,2.52,0,0,1-1.51-.44,4.08,4.08,0,0,1-1.05-1.1c-.29-.44-.69-1.1-1.2-2l-2.15-3.67a21,21,0,0,0-2.06-3.08,5.17,5.17,0,0,0-1.85-1.45A6.15,6.15,0,0,0,476.62,111.2Zm3.06-11.42h-4.94v7.47h4.79a12.92,12.92,0,0,0,3.24-.34,3.77,3.77,0,0,0,2-1.17,3.44,3.44,0,0,0,.69-2.27,3.59,3.59,0,0,0-.56-2,3.46,3.46,0,0,0-1.55-1.29A10.72,10.72,0,0,0,479.68,99.78Z"/><path class="cls-1" d="M513.39,99.89H501.33v6.67h11.1a2.57,2.57,0,0,1,1.83.57,2,2,0,0,1,.6,1.49,2,2,0,0,1-.6,1.51,2.54,2.54,0,0,1-1.84.58h-11.1v7.73h12.47a2.69,2.69,0,0,1,1.9.6,2.09,2.09,0,0,1,.64,1.6,2.07,2.07,0,0,1-.64,1.57,2.69,2.69,0,0,1-1.9.6H499.24a3.36,3.36,0,0,1-2.51-.8,3.63,3.63,0,0,1-.77-2.58V99a4.69,4.69,0,0,1,.34-1.94A2.18,2.18,0,0,1,497.37,96a4.37,4.37,0,0,1,1.87-.34h14.13a2.68,2.68,0,0,1,1.9.58,2,2,0,0,1,.62,1.53,2,2,0,0,1-.62,1.55A2.63,2.63,0,0,1,513.39,99.89Z"/><path class="cls-1" d="M539.31,118.54,535,102.25l-4.33,16.29c-.34,1.24-.6,2.12-.8,2.66a3.5,3.5,0,0,1-1,1.45,2.89,2.89,0,0,1-2,.64,3.2,3.2,0,0,1-1.63-.38,2.85,2.85,0,0,1-1-1.08,7,7,0,0,1-.65-1.65q-.26-1-.45-1.77l-4.4-18.29a11.26,11.26,0,0,1-.4-2.43,2.46,2.46,0,0,1,2.5-2.5,2,2,0,0,1,2,1,10.9,10.9,0,0,1,.88,2.8l3.46,15.86L531,100a26.54,26.54,0,0,1,.77-2.59,3.74,3.74,0,0,1,1.12-1.54,3.21,3.21,0,0,1,2.11-.65,3,3,0,0,1,2.1.68,3.76,3.76,0,0,1,1,1.47c.19.53.45,1.41.77,2.63l3.91,14.85L546.3,99a19.84,19.84,0,0,1,.48-2,3.1,3.1,0,0,1,.78-1.26,2.16,2.16,0,0,1,1.6-.56,2.48,2.48,0,0,1,1.78.71,2.39,2.39,0,0,1,.73,1.79,11.55,11.55,0,0,1-.4,2.43l-4.4,18.29c-.3,1.24-.55,2.14-.75,2.72a3.7,3.7,0,0,1-1,1.51,3.4,3.4,0,0,1-4,0,3.39,3.39,0,0,1-1-1.42C539.93,120.71,539.66,119.81,539.31,118.54Z"/><path class="cls-1" d="M9.05,206.14V199.2h2.29V206c0,2.48.19,3.55,1.88,5.55a68.71,68.71,0,0,0,5.46,5.61l-1.44,1.55c-2-1.94-3.73-3.71-5-5.1a14.39,14.39,0,0,1-2-2.52h0a14.92,14.92,0,0,1-2.23,3c-1.1,1.23-3.17,3.39-5,5.06l-1.47-1.58a59.43,59.43,0,0,0,5.27-5.29A7.65,7.65,0,0,0,9.05,206.14Zm16.28,20.39h-2.2V208.47H16.32v-2.06h6.81v-9.35h2.2Z"/><path class="cls-1" d="M54.92,209.76v1.94H42.84v3.19H51v6.81H34.66v3.06H51.85v1.9H32.49v-6.84H48.83v-3H32.33v-1.9h8.31V211.7H28.56v-1.94Zm-4.2-6.84c0,2.9-3.92,4.74-9,4.74s-9-1.84-9-4.74V202c0-2.94,3.92-4.74,9-4.74s9,1.84,9,4.74Zm-15.78-.13c0,1.68,3,3,6.81,3s6.81-1.29,6.81-3v-.65c0-1.68-3-3-6.81-3s-6.81,1.29-6.81,3Z"/><path class="cls-1" d="M74.19,219a153.26,153.26,0,0,1-18.54.74v-2c2.29,0,4.27,0,6.06,0v-9.39h2.23v9.35c4-.1,7-.29,10.07-.65ZM71.4,199.89v3.58a54.38,54.38,0,0,1-.75,9.68l-2.23-.29a47.19,47.19,0,0,0,.75-8.94v-2H57.09v-2Zm7,8.38H83v2H78.42v16.23H76.19V197.05h2.23Z"/><path class="cls-1" d="M92.2,200.37h7.18v2H82.88v-2H90v-3.74h2.2Zm-7.65,9.55v-1.16c0-2.65,2.54-4.94,6.56-4.94s6.56,2.29,6.56,4.94v1.16c0,2.65-2.54,4.94-6.56,4.94S84.55,212.56,84.55,209.92Zm2.1-1.07v1c0,1.71,1.82,3.13,4.46,3.13s4.45-1.42,4.45-3.13v-1c0-1.71-1.82-3.13-4.45-3.13S86.65,207.14,86.65,208.85Zm.47,8.26h18v9.68h-2.2v-7.68H87.12Zm18-12h4.39v2h-4.39v8.26h-2.2V197.05h2.2Z"/><path class="cls-1" d="M111,218c9.63-5.68,10.73-7.58,10.73-12.39v-3.71H111.31v-2.06h12.58v5.81c0,5.87-1.54,8.06-11.73,14.19Zm22.11,8.55h-2.23V197.05h2.23Z"/><path class="cls-1" d="M162.86,209.47v1.94H150.78v3.42h8.16v6.84H142.6v3.1h17.19v1.9H140.43V219.8h16.34v-3.06h-16.5v-1.9h8.31v-3.42H136.5v-1.94h26.36ZM146,205.05c-1.63.74-3.61,1.61-6.49,2.71l-.88-1.87c2.48-.9,5.15-2,6.68-2.71,2.54-1.16,3.33-2.1,3.33-3.74v-2.16h2.23v2.16c0,1.65.75,2.58,3.29,3.74,1.54.71,4.11,1.77,6.65,2.71l-.78,1.84c-2.7-1-4.89-2-6.53-2.71-1.91-.84-3.39-1.71-3.73-2.39h0C149.4,203.31,147.86,204.21,146,205.05Z"/><path class="cls-1" d="M175.66,199.85v2.06h-8.6v14.52h1.32a46.59,46.59,0,0,0,8.82-.65l.25,2a49.91,49.91,0,0,1-8.88.68h-3.73V199.85Zm6,7.81h4.17V197.05H188v29.48h-2.2V209.69h-4.17v15.39h-2.2V197.66h2.2Z"/><path class="cls-1" d="M200.14,200.37h7.18v2h-16.5v-2h7.12v-3.74h2.2Zm-7.66,9.55v-1.16c0-2.65,2.54-4.94,6.56-4.94s6.56,2.29,6.56,4.94v1.16c0,2.65-2.54,4.94-6.56,4.94S192.48,212.56,192.48,209.92Zm2.1-1.07v1c0,1.71,1.82,3.13,4.46,3.13s4.45-1.42,4.45-3.13v-1c0-1.71-1.82-3.13-4.45-3.13S194.58,207.14,194.58,208.85Zm.47,8.26h18v9.68h-2.2v-7.68H195.05Zm18-12h4.39v2H213v8.26h-2.2V197.05H213v8.06Z"/><path class="cls-1" d="M223.79,220.4V209.59H226V220.4h4.86V209.59h2.23V220.4h10.7v2H217.46v-2Zm13.12-4.09a61.79,61.79,0,0,0,1-11.84v-2.68h-17.1v-2h19.36v3.48a72.91,72.91,0,0,1-1,13.29Z"/><path class="cls-1" d="M262,200.37h7.18v2h-16.5v-2h7.12v-3.74H262Zm-7.66,9.55v-1.16c0-2.65,2.54-4.94,6.56-4.94s6.56,2.29,6.56,4.94v1.16c0,2.65-2.54,4.94-6.56,4.94S254.29,212.56,254.29,209.92Zm2.1-1.07v1c0,1.71,1.82,3.13,4.46,3.13s4.45-1.42,4.45-3.13v-1c0-1.71-1.82-3.13-4.45-3.13S256.39,207.14,256.39,208.85Zm.48,8.26h18v9.68h-2.2v-7.68H256.87v-2Zm18-12h4.39v2h-4.39v8.26h-2.2V197.05h2.2Z"/><path class="cls-1" d="M291.79,212.92c-1.19-1-2.51-2.29-3.45-3.26a9.54,9.54,0,0,1-1.91-2.29h0a7.31,7.31,0,0,1-1.51,2.16,48.53,48.53,0,0,1-4.45,4.32L279,212.33a37.76,37.76,0,0,0,4.42-4.32,6.68,6.68,0,0,0,1.82-5.32v-4.13h2.2v4.1c0,2.42.22,3.35,1.85,5.13a45.9,45.9,0,0,0,3.86,3.65Zm-5.84,9v-1.16c0-3.42,4.14-5.39,8.85-5.39s8.85,2,8.85,5.39v1.16c0,3.39-4.14,5.39-8.85,5.39S286,225.3,286,221.92Zm2.13-1.07v1c0,2.29,3.36,3.55,6.71,3.55s6.71-1.26,6.71-3.55v-1c0-2.29-3.36-3.55-6.71-3.55S288.08,218.56,288.08,220.85Zm9-16.58h4.2V197h2.17v17.68h-2.17V206.3h-4.2v7.26H295V197.43h2.16Z"/><path class="cls-1" d="M332.61,209.89v1.94H306.26v-1.94Zm-3.93,4.8v6.9H312.34v3.16h17.19v1.9H310.17v-6.94h16.34v-3.13H310v-1.9h18.67Zm-.15-14.77H312.4v5.19h16.28v1.94H310.23V198h18.29v1.93Z"/><path class="cls-1" d="M349,210.72c0,5.39-2.64,8.58-7.09,8.58s-7.09-3.19-7.09-8.58v-3.06c0-5.39,2.64-8.55,7.09-8.55s7.09,3.19,7.09,8.58Zm-2.17-2.64c0-4.9-2-6.84-4.93-6.84s-4.93,1.94-4.93,6.84v2.26c0,4.9,2,6.87,4.93,6.87s4.93-2,4.93-6.87Zm10.07,18.45h-2.23V197.05h2.23Z"/><path class="cls-1" d="M390.5,199.6v13.48h-8.16v7.32h12.08v2H368.07v-2h12.08v-7.32H372V199.6Zm-16.32,11.48H388.3V201.6H374.18Z"/><path class="cls-1" d="M418.83,226.56h-2.16V214.17h-6.93a6.41,6.41,0,0,1-6.59,5.06c-4.42,0-7.06-3.16-7.06-8.55v-3c0-5.35,2.64-8.52,7.06-8.52a6.5,6.5,0,0,1,6.59,5h6.93V197h2.16ZM408,208.08c0-4.9-2-6.81-4.89-6.81s-4.89,1.9-4.89,6.81v2.23c0,4.9,1.95,6.84,4.89,6.84s4.89-1.94,4.89-6.84Zm2.16,2.61c0,.48,0,1-.06,1.42h6.53v-5.87h-6.53c0,.48.06,1,.06,1.45Z"/><path class="cls-1" d="M444.09,212.79h-12.8v-13.9h12.8ZM442,200.89h-8.53v9.9H442Zm-4.49,23.29h15.81v2h-18v-9.71h2.23Zm14.93-18.52h4.39v2H452.4v10.48h-2.2V197h2.2Z"/><path class="cls-1" d="M483.21,212.63v2H456.86v-2ZM463,224.18h16.91v2H460.75v-8.61H463v6.61Zm16.16-23.75H463V207h16.28v2H460.84V198.47h18.29v2Z"/><path class="cls-1" d="M495.8,217.18H500a60,60,0,0,0,9.51-.65l.25,2a64.39,64.39,0,0,1-10.32.71h-5.8V207.92h9.79v-6.48h-9.79v-2h12v10.48H495.8Zm17.57-9.71V197.05h2.2v29.48h-2.2v-17h-5.55v-2.06Z"/><path class="cls-1" d="M523,198.76V209.5a91.07,91.07,0,0,0,13.93-.77l.25,2c-5,.68-7.84.81-16.41.81V198.76Zm19.42,23c0,3.23-3.61,5.55-8.72,5.55S525,225,525,221.76v-1.29c0-3.23,3.61-5.55,8.72-5.55s8.72,2.32,8.72,5.55Zm-2.13-.16v-1c0-2-2.79-3.77-6.59-3.77s-6.59,1.74-6.59,3.77v1c0,2,2.79,3.77,6.59,3.77S540.32,223.63,540.32,221.6Zm2-7.33h-2.2V197h2.2Z"/><path class="cls-1" d="M579.85,220.4v2H553.5v-2Zm-6.14-12.13c0-.87.06-1.74.06-2.68v-3.87H557v-2h19.07v4.68a69.61,69.61,0,0,1-1.13,13.32l-2.29-.26c.44-2.48.78-4.81,1-7.26l-17,.32-.06-2Z"/><path class="cls-1" d="M606.84,215v2H594.79v9.58h-2.23V217H580.48v-2Zm-4-16.35v7.48H586.54v3.61h17v2H584.37v-7.52h16.31v-3.58H584.27v-2h18.58Z"/><path class="cls-1" d="M608.82,204c0-3,2.82-5.87,7-5.87s7,2.9,7,5.87v1.55c0,3-2.82,5.87-7,5.87s-7-2.9-7-5.87Zm11.86.22c0-2.13-2.07-4.06-4.86-4.06s-4.86,1.94-4.86,4.06v1.1c0,2.13,2.07,4.06,4.86,4.06s4.86-1.94,4.86-4.06Zm10.48,9.61v12.64H613.65V213.85h2.16v4.06H629v-4.06ZM629,224.47v-4.55H615.81v4.55Zm2.17-12.36H629V197.05h2.2Z"/><path class="cls-1" d="M639.16,216.37h4.11a52.76,52.76,0,0,0,9.57-.81l.28,2a59.11,59.11,0,0,1-10.07.84h-6.12v-19h2.23Zm19,10.16h-2.23V197.05h2.23Z"/><path class="cls-1" d="M663,199.73h13.05v2.06H665.27V216.6H669a54.13,54.13,0,0,0,9.76-.81l.28,2a60.67,60.67,0,0,1-10.6.84h-5.36V199.73ZM683.68,208h4.77v2h-4.77v16.52h-2.23V197.05h2.23Z"/><path class="cls-1" d="M690.37,220.69h3.17v3.23h-3.17Z"/><path class="cls-1" d="M3.88,245.27H11.1c4.8,0,7.18,1.87,7.18,5.68v.68a4.47,4.47,0,0,1-3.64,4.65c2.76.42,4.67,2.1,4.67,5.32v.81c0,3.81-2.35,6.13-7.25,6.13H3.87V245.27Zm2.16,2v8.19h5.11c3.14,0,4.93-1,4.93-3.87V251c0-2.74-1.6-3.74-5.15-3.74Zm0,19.29h5.83c3.55,0,5.21-1.42,5.21-4.16v-.71c0-2.84-1.38-4.32-5.9-4.32H6v9.19Z"/><path class="cls-1" d="M35.6,266.82a10.13,10.13,0,0,1-6.15,2c-4.49,0-7.15-2.9-7.15-8v-2.16c0-4.94,2.64-7.84,6.87-7.84,4.39,0,6.81,3,6.81,7.9v1.81H24.44v.29c0,3.84,1.94,6,5,6a8.57,8.57,0,0,0,5.18-1.71Zm-1.76-8.13v-.29c0-3.61-1.73-5.65-4.67-5.65s-4.74,2.23-4.74,5.65v.29Z"/><path class="cls-1" d="M60.63,262.79v-.68c0-2.19-1.1-3.32-5.93-4.45-5.27-1.23-6.9-3.16-6.9-6.1v-.74c0-3.52,3.11-5.9,7.4-5.9a10.93,10.93,0,0,1,6.71,2l-1,1.84A9.45,9.45,0,0,0,55.19,247c-2.79,0-5.18,1.42-5.18,3.84v.65c0,2,1.25,3.16,5.36,4.13,5.83,1.35,7.47,3.13,7.47,6.45v.74c0,3.32-2.89,6.1-7.78,6.1a12.46,12.46,0,0,1-7.69-2.58l1.13-1.9A10.69,10.69,0,0,0,55,266.81C58.53,266.79,60.63,264.89,60.63,262.79Z"/><path class="cls-1" d="M68.35,253H65.46v-1.87h2.89v-4.48h2.13v4.48h4.67V253H70.48v10.58c0,2.35.69,3.19,2.38,3.19a8.5,8.5,0,0,0,2.38-.32l.31,1.81a9.5,9.5,0,0,1-2.85.42c-3,0-4.36-1.23-4.36-5V253Z"/><path class="cls-1" d="M87.93,253.4a5.29,5.29,0,0,0-2-.35c-2.79,0-4.55,2.35-4.55,5.61v9.87H79.21V251.14h2.1v3.06a5.24,5.24,0,0,1,4.86-3.39,7.06,7.06,0,0,1,2.42.35Z"/><path class="cls-1" d="M104.94,258.72v2.16c0,5-2.67,7.9-7.18,7.9s-7.18-2.9-7.18-7.9v-2.16c0-5,2.67-7.9,7.18-7.9S104.94,253.72,104.94,258.72Zm-2.17,2v-1.9c0-4.1-1.91-6.1-5-6.1s-5,2-5,6.1v1.9c0,4.1,1.91,6.1,5,6.1S102.77,264.85,102.77,260.76Z"/><path class="cls-1" d="M122.54,256.82v11.71h-2.13V257.37c0-2.48-.91-4.55-4.27-4.55a4.8,4.8,0,0,0-4.83,4.42v11.29h-2.13V251.14h2.1v2.42a5.88,5.88,0,0,1,5.18-2.74C120.31,250.82,122.54,253.21,122.54,256.82Z"/><path class="cls-1" d="M138.42,265.92h0a5.59,5.59,0,0,1-5,2.55c-3.89,0-6.75-2.71-6.75-7.45v-2.74c0-4.74,2.85-7.45,6.71-7.45a6,6,0,0,1,5.08,2.45v-2.13h2.1v17.1c0,4.94-2.7,7.48-6.9,7.48a8.77,8.77,0,0,1-5.65-1.81l1-1.71a7,7,0,0,0,4.67,1.45c3.11,0,4.77-1.71,4.77-5.35v-2.39Zm-9.63-5.23c0,3.71,1.88,5.84,4.71,5.84s4.93-1.48,4.93-4.55v-4.9a4.79,4.79,0,0,0-4.93-4.32c-2.85,0-4.71,2.16-4.71,5.84Z"/><path class="cls-1" d="M151.88,245.27h2.35l5.08,20.84h0l5.4-20.84h2.48l5.4,20.84h0l5.11-20.84h2.29l-6.24,23.26H171.3l-5.36-20.64-5.36,20.64h-2.51Z"/><path class="cls-1" d="M183.51,245.37h2.32v2.45h-2.32Zm.09,5.77h2.13v17.39H183.6Z"/><path class="cls-1" d="M192.17,253h-2.89v-1.87h2.89v-4.48h2.13v4.48H199V253H194.3v10.58c0,2.35.69,3.19,2.38,3.19a8.5,8.5,0,0,0,2.38-.32l.31,1.81a9.5,9.5,0,0,1-2.85.42c-3,0-4.36-1.23-4.36-5V253Z"/><path class="cls-1" d="M216.39,256.82v11.71h-2.13V257.37c0-2.48-.91-4.55-4.27-4.55a4.8,4.8,0,0,0-4.83,4.42v11.29H203V244.14h2.13v9.42a5.82,5.82,0,0,1,5.15-2.74C214.16,250.82,216.39,253.21,216.39,256.82Z"/><path class="cls-1" d="M241.74,262.79v-.68c0-2.19-1.1-3.32-5.93-4.45-5.27-1.23-6.9-3.16-6.9-6.1v-.74c0-3.52,3.11-5.9,7.4-5.9a10.93,10.93,0,0,1,6.71,2l-1,1.84A9.45,9.45,0,0,0,236.3,247c-2.79,0-5.18,1.42-5.18,3.84v.65c0,2,1.25,3.16,5.36,4.13,5.83,1.35,7.47,3.13,7.47,6.45v.74c0,3.32-2.89,6.1-7.78,6.1a12.46,12.46,0,0,1-7.69-2.58l1.13-1.9a10.69,10.69,0,0,0,6.46,2.39C239.64,266.79,241.74,264.89,241.74,262.79Z"/><path class="cls-1" d="M262.92,245.27v2h-7.25v21.26h-2.2V247.27h-7.22v-2Z"/><path class="cls-1" d="M274.84,258.47a8,8,0,0,1-.85,0h-5.65v10h-2.2V245.27H274c4.52,0,7.12,2.68,7.12,6.32v.48A6.06,6.06,0,0,1,277,258l4.55,10.55h-2.35Zm-6.49-11.17v9.16h5c3.92,0,5.55-1.68,5.55-4.48v-.32c0-2.71-1.69-4.35-5.21-4.35h-5.3Z"/><path class="cls-1" d="M301.2,247.24,300.07,249a9.28,9.28,0,0,0-6-2c-4.17,0-6.46,3.32-6.46,8.19v3c0,5.71,2.51,8.52,6.68,8.52a8.81,8.81,0,0,0,6.21-2.39l1.29,1.77a10.4,10.4,0,0,1-7.53,2.77c-5.87,0-8.88-3.94-8.88-10.68v-2.87c0-6.58,3.2-10.42,8.69-10.42A11.14,11.14,0,0,1,301.2,247.24Z"/><path class="cls-1" d="M315,262.72h4a60,60,0,0,0,9.51-.65l.25,2a64.39,64.39,0,0,1-10.32.71h-5.68V253.46h10.42V247H312.85v-2h12.61v10.48H315Zm18.51-9.09h4.77v2h-4.77v16.42h-2.23V242.6h2.23Z"/><path class="cls-1" d="M364.58,257.85v2H338.23v-2Zm-20.24,11.87h16.91v2H342.11v-8.81h2.23v6.81Zm.13-18h16.38v2h-18.6v-10h2.23v8Z"/><path class="cls-1" d="M399.41,255.3v1.94H373.06V255.3Zm-16.91-4.54c-1.63.74-3.8,1.68-6.49,2.71l-.88-1.87c2.45-.9,5.15-2,6.68-2.71,2.54-1.16,3.33-2.1,3.33-3.74v-2.26h2.23v2.26c0,1.65.75,2.61,3.29,3.74,1.6.71,4.14,1.77,6.65,2.71l-.78,1.84c-2.7-1-4.89-2-6.53-2.71-1.91-.84-3.39-1.71-3.73-2.39h0C385.89,249.05,384.41,249.92,382.5,250.76Zm13,9.42v6.94H379.15v3.19h17.19v1.9H377v-7h16.34v-3.16h-16.5v-1.9Z"/><path class="cls-1" d="M422.41,244.92v8.74H406.1v4.77h17v2h-8.75V266H426.4v2H400.05v-2h12.08V260.4h-8.19v-8.68h16.31v-4.84H403.84v-2h18.57Z"/><path class="cls-1" d="M428.21,258.85c10-4.48,10.89-5.81,10.89-10.06v-2.26h-9.91v-2h12.08v4.39a16.86,16.86,0,0,1-.09,1.81h7.44V242.6h2.2v21.1h-2.2v-11h-7.87c-1.07,2.71-4,4.61-11.61,8Zm7.25,10.87h16.06v2H433.23v-9.61h2.23Z"/><path class="cls-1" d="M480.36,266v2H454v-2Zm-22.65-14.48c0-4.26,4.27-7,9.47-7s9.47,2.74,9.47,7v1.58c0,4.26-4.3,7-9.47,7s-9.47-2.74-9.47-7Zm2.19.09V253c0,2.94,3.17,5,7.28,5s7.28-2.06,7.28-5v-1.39c0-2.94-3.2-5-7.28-5S459.9,248.63,459.9,251.56Z"/><path class="cls-1" d="M503.36,244.92v8.74H487.05v4.77h17v2h-8.75V266h12.08v2H481v-2h12.08V260.4h-8.19v-8.68H501.2v-4.84H484.79v-2h18.57Z"/><path class="cls-1" d="M11.25,291.47h7.18v2H1.93v-2H9.05v-3.74h2.2Zm5.46,8.19v1c0,2.35-2.2,4.74-6.56,4.74S3.59,303,3.59,300.69v-1c0-2.35,2.2-4.74,6.56-4.74S16.71,297.3,16.71,299.66Zm-2.11.9v-.77c0-1.42-1.47-3-4.45-3s-4.46,1.52-4.46,3v.77c0,1.42,1.47,3,4.46,3S14.6,302,14.6,300.56Zm-7.68,7.07H24.14v10H6.92Zm2.13,7.93H22v-5.9h-13Zm15.09-19.48h4.39v2H24.14v7.81h-2.2V288.15h2.2Z"/><path class="cls-1" d="M28,307.82c5.24-5.94,5.52-7.42,5.52-11.58v-3.13h-4.2v-2H35.7v5.26c0,5-.6,6.42-6.09,12.87Zm6.58,2.52c5.08-6.45,5.55-7.87,5.55-12v-5.19H36.91v-2h5.4v8.19h3.83V288.76h2.13v27.42H46.14v-14.9h-4c-.38,3-1.66,5.1-5.9,10.42Zm19,7.29H51.44V288.15H53.6Z"/><path class="cls-1" d="M83.38,305.53c-2.82.29-5.58.48-9.13.61v10.55H72V306.24c-2.32.06-5,.06-8.16.06v-2a174.16,174.16,0,0,0,19.36-.74Zm-10.54-5.74a50.42,50.42,0,0,1-6.65.42H64.9V289.63h7.18v2h-5v6.58a41.5,41.5,0,0,0,5.58-.35Zm9,.42h-8V289.63h7.66v2H76v6.58h5.87v2Zm5.56,17.42H85.17V288.15H87.4Z"/><path class="cls-1" d="M116.73,303.4v2H90.38v-2ZM96.5,315.27h16.91v2H94.27v-8.81H96.5v6.81Zm.12-18H113v2H94.4v-10h2.23v8Z"/><path class="cls-1" d="M129.32,308.27h4.17a60,60,0,0,0,9.51-.65l.25,2a64.39,64.39,0,0,1-10.32.71h-5.8V299h9.79v-6.48h-9.79v-2h12V301h-9.79v7.26Zm17.57-9.71V288.14h2.2v29.48h-2.2v-17h-5.55v-2.06Z"/><path class="cls-1" d="M156.55,289.85v10.74a91.07,91.07,0,0,0,13.93-.77l.25,2c-5,.68-7.84.81-16.41.81V289.85Zm19.42,23c0,3.23-3.61,5.55-8.72,5.55s-8.72-2.32-8.72-5.55v-1.29c0-3.23,3.61-5.55,8.72-5.55s8.72,2.32,8.72,5.55Zm-2.13-.16v-1c0-2-2.79-3.77-6.59-3.77s-6.59,1.74-6.59,3.77v1c0,2,2.79,3.77,6.59,3.77S173.84,314.72,173.84,312.69Zm2-7.32h-2.2V288.14h2.2Z"/><path class="cls-1" d="M197.81,310.05a153.26,153.26,0,0,1-18.54.74v-2c2.29,0,4.27,0,6,0v-9.39h2.23v9.35c4-.1,7-.29,10.07-.65ZM195,291v3.58a54.38,54.38,0,0,1-.75,9.68L192,304a47.19,47.19,0,0,0,.75-8.94v-2H180.71v-2Zm7,8.39h4.55v2h-4.55v16.23h-2.23V288.15h2.23Z"/><path class="cls-1" d="M215.2,304.4c10-4.48,10.89-5.81,10.89-10.06v-2.26h-9.91v-2h12.08v4.39a16.86,16.86,0,0,1-.09,1.81h7.44v-8.13h2.2v21.1h-2.2v-11h-7.87c-1.07,2.71-4,4.61-11.61,8Zm7.24,10.87H238.5v2H220.21v-9.61h2.23Z"/><path class="cls-1" d="M241.77,303.6c9.94-4.29,10.82-5.58,10.82-9.94V292h-9.85v-2h12v3.84c0,5.42-1.6,7-12.08,11.58Zm21.84,8.06v1.23c0,3.39-3.83,5.52-8.53,5.52s-8.53-2.13-8.53-5.52v-1.23c0-3.45,3.83-5.52,8.53-5.52S263.61,308.27,263.61,311.66Zm-2.13,1.13v-1c0-2.29-3-3.68-6.4-3.68s-6.4,1.39-6.4,3.68v1c0,2.29,3,3.68,6.4,3.68S261.48,315.08,261.48,312.79Zm2-17.61h4.39v2h-4.39v8.32h-2.2V288.15h2.2Z"/><path class="cls-1" d="M277.64,291.63h7.18v2h-16.5v-2h7.12v-3.77h2.2Zm5.49,10c0,2.68-2.51,5.19-6.59,5.19S270,304.27,270,301.6v-1.23c0-2.68,2.51-5.19,6.59-5.19s6.59,2.52,6.59,5.19Zm-2.11-.1v-1c0-1.58-1.69-3.35-4.49-3.35s-4.49,1.77-4.49,3.35v1c0,1.58,1.69,3.35,4.49,3.35S281,303.08,281,301.5Zm-5.36,13.77h15.75v2h-18v-8.16h2.23Zm14.87-18.13h4.39v2h-4.39v10.45h-2.2V288.14h2.2Z"/><path class="cls-1" d="M306.91,308.27h4.17a60,60,0,0,0,9.51-.65l.25,2a64.39,64.39,0,0,1-10.32.71h-5.8V299h9.79v-6.48h-9.79v-2h12V301h-9.79Zm17.57-9.71V288.14h2.2v29.48h-2.2v-17h-5.55v-2.06Z"/><path class="cls-1" d="M334.15,289.85v10.74a91.07,91.07,0,0,0,13.93-.77l.25,2c-5,.68-7.84.81-16.41.81V289.85Zm19.42,23c0,3.23-3.61,5.55-8.72,5.55s-8.72-2.32-8.72-5.55v-1.29c0-3.23,3.61-5.55,8.72-5.55s8.72,2.32,8.72,5.55Zm-2.14-.16v-1c0-2-2.79-3.77-6.59-3.77s-6.59,1.74-6.59,3.77v1c0,2,2.79,3.77,6.59,3.77S351.43,314.72,351.43,312.69Zm2-7.32h-2.2V288.14h2.2Z"/><path class="cls-1" d="M391,303.18v1.94H379.2v6.23H377v-6.23H364.61v-1.94Zm-20.24,12.09h16.94v2H368.5V308.5h2.23ZM387,289.43v10.39H368.56V289.43Zm-16.28,8.42h14.12v-6.48H370.73Z"/><path class="cls-1" d="M410.26,311.27a153.83,153.83,0,0,1-18.57.74v-2c3.17,0,5.77,0,8-.06v-3.68c-3.48-.32-5.87-2.52-5.87-4.9v-1.23c0-2.65,2.82-4.94,6.81-4.94s6.81,2.32,6.81,4.94v1.23c0,2.29-2.23,4.42-5.52,4.87v3.65c3.07-.1,5.55-.29,8.13-.58Zm-8.5-19.71h7v2H392.29v-2h7.28v-3.68h2.2v3.68ZM396,300.3v.9c0,1.58,1.88,3.19,4.71,3.19s4.71-1.61,4.71-3.19v-.9c0-1.58-1.88-3.16-4.71-3.16S396,298.72,396,300.3Zm18.51,0H419v2h-4.55v15.29h-2.23V288.14h2.23Z"/><path class="cls-1" d="M444.93,302.21v1.94H418.58v-1.94ZM441,306.69v6.48H424.67v2.71h17.19v1.9H422.5V311.3h16.34v-2.71h-16.5v-1.9Zm-18.57-17.77h18.42v6.35H424.64v2.58h16.85v1.9H422.54V293.4h16.22v-2.58H422.45v-1.9Z"/><path class="cls-1" d="M479.76,305.5v2H467.71v10.16h-2.23V307.47H453.4v-2Zm-3.07-3c-2.38-.9-4.71-1.84-6.37-2.58-1.94-.87-3.26-1.71-3.73-2.48h0c-.47.84-1.79,1.65-3.73,2.52-1.66.74-3.92,1.65-6.43,2.61l-.85-1.71c2.23-.84,5.08-2,6.59-2.71,2.48-1.16,3.33-2.23,3.33-4v-.77h-8.69v-1.94h8.69V288h2.23v3.45h8.72v1.94H467.7v.77c0,1.77.78,2.84,3.33,4,1.54.71,3.89,1.68,6.46,2.68Z"/><path class="cls-1" d="M499.41,303.6a46.93,46.93,0,0,0,1-9.26v-2.29H483.85v-2h18.79v3.52a53.25,53.25,0,0,1-.94,10h5.05v2H494.67v12.06h-2.23V305.57H480.39v-2Z"/><path class="cls-1" d="M517,291.43h7.18v2h-16.5v-2h7.12v-3.71H517Zm-7.65,8.91v-1c0-2.26,2.13-4.58,6.56-4.58s6.56,2.32,6.56,4.58v1c0,2.26-2.13,4.58-6.56,4.58S509.39,302.6,509.39,300.34Zm2.13-.84v.71c0,1.29,1.41,2.81,4.42,2.81s4.42-1.52,4.42-2.81v-.71c0-1.29-1.41-2.81-4.42-2.81S511.52,298.21,511.52,299.5Zm18.41,7v11.16H512.74V306.47h2.16v3.45h12.86v-3.45Zm-2.16,9.13v-3.68H514.91v3.68Zm2.16-20.13h4.39v2h-4.39v7.26h-2.2V288.15h2.2Z"/><path class="cls-1" d="M539.07,307.47h4.11a52.76,52.76,0,0,0,9.57-.81l.28,2a59.11,59.11,0,0,1-10.07.84h-6.12v-19h2.23Zm19,10.16h-2.23V288.15h2.23Z"/><path class="cls-1" d="M563,290.82h13v2.06H565.18v14.81h3.7a54.13,54.13,0,0,0,9.76-.81l.28,2a60.67,60.67,0,0,1-10.6.84H563V290.82Zm20.64,8.26h4.77v2h-4.77v16.52h-2.23V288.15h2.23Z"/><path class="cls-1" d="M590.28,311.79h3.17V315h-3.17Z"/></g></g></g></svg>