<svg xmlns="http://www.w3.org/2000/svg" viewBox="0 0 355.41 38.51"><defs><style>.cls-1{fill:#f15a24;}</style></defs><g id="레이어_2" data-name="레이어 2"><g id="메인_홍보" data-name="메인 홍보"><g id="_8page" data-name="8page"><g id="Thanks"><path class="cls-1" d="M18,8.87H12.67v18A3.39,3.39,0,0,1,12,29.21a2.24,2.24,0,0,1-1.75.75,2.27,2.27,0,0,1-1.77-.76,3.4,3.4,0,0,1-.68-2.3v-18H2.47A2.69,2.69,0,0,1,.61,8.31,2,2,0,0,1,0,6.81,1.93,1.93,0,0,1,.63,5.29a2.68,2.68,0,0,1,1.84-.56H18a2.69,2.69,0,0,1,1.88.57,2,2,0,0,1,.62,1.51,1.93,1.93,0,0,1-.63,1.5A2.73,2.73,0,0,1,18,8.87Z"/><path class="cls-1" d="M27,7.11V14a9.53,9.53,0,0,1,1.67-1.61,6.05,6.05,0,0,1,1.8-.89,7.31,7.31,0,0,1,2.13-.3,6,6,0,0,1,3,.75,5.27,5.27,0,0,1,2.09,2.17,5.34,5.34,0,0,1,.64,1.85,15,15,0,0,1,.16,2.36v8.85a3.12,3.12,0,0,1-.61,2.1,2.08,2.08,0,0,1-1.64.71c-1.48,0-2.22-.94-2.22-2.81v-7.8a7.27,7.27,0,0,0-.65-3.41A2.48,2.48,0,0,0,31,14.75a3.61,3.61,0,0,0-2.17.7,4.26,4.26,0,0,0-1.44,1.92A12.68,12.68,0,0,0,27,21v6.11a3.19,3.19,0,0,1-.6,2.09,2.06,2.06,0,0,1-1.67.72c-1.48,0-2.22-.94-2.22-2.81v-20A3.21,3.21,0,0,1,23.13,5a2,2,0,0,1,1.64-.71A2.08,2.08,0,0,1,26.44,5,3.21,3.21,0,0,1,27,7.11Z"/><path class="cls-1" d="M54.36,27.35a13.78,13.78,0,0,1-3.15,2A8.64,8.64,0,0,1,47.8,30a6.29,6.29,0,0,1-3-.7A5,5,0,0,1,42,24.75a4.72,4.72,0,0,1,1.17-3.23,5.73,5.73,0,0,1,3.2-1.8l2.13-.46c1.13-.23,2.1-.45,2.9-.65s1.68-.43,2.63-.72a5,5,0,0,0-.72-2.68,3.14,3.14,0,0,0-2.62-.85,5.32,5.32,0,0,0-2.58.49,4.16,4.16,0,0,0-1.48,1.47,14.43,14.43,0,0,1-.87,1.29,1.41,1.41,0,0,1-1.1.32,1.91,1.91,0,0,1-1.31-.5,1.67,1.67,0,0,1-.55-1.28,4,4,0,0,1,.84-2.37,5.92,5.92,0,0,1,2.62-1.89,11.41,11.41,0,0,1,4.43-.75,12.18,12.18,0,0,1,4.65.72,4.4,4.4,0,0,1,2.4,2.28,10.1,10.1,0,0,1,.7,4.13c0,1.08,0,2,0,2.75s0,1.6,0,2.53a9.18,9.18,0,0,0,.42,2.71,8.76,8.76,0,0,1,.42,1.82,1.71,1.71,0,0,1-.66,1.3,2.12,2.12,0,0,1-1.47.58,1.94,1.94,0,0,1-1.36-.67A9.83,9.83,0,0,1,54.36,27.35Zm-.29-6.68a22.67,22.67,0,0,1-2.87.79c-1.26.27-2.13.48-2.61.61a3.48,3.48,0,0,0-1.39.76,2,2,0,0,0-.65,1.58,2.34,2.34,0,0,0,.77,1.78,2.77,2.77,0,0,0,2,.74,5.15,5.15,0,0,0,2.46-.6,3.91,3.91,0,0,0,1.66-1.55,7.31,7.31,0,0,0,.61-3.45Z"/><path class="cls-1" d="M67.12,13.73v.56a7.91,7.91,0,0,1,2.59-2.36A6.8,6.8,0,0,1,73,11.17a6.3,6.3,0,0,1,3.17.8,5,5,0,0,1,2.09,2.25,5.37,5.37,0,0,1,.58,1.83,19,19,0,0,1,.13,2.5v8.6a3.12,3.12,0,0,1-.62,2.1,2.17,2.17,0,0,1-3.23,0,3.08,3.08,0,0,1-.63-2.08v-7.7A7.88,7.88,0,0,0,73.83,16a2.49,2.49,0,0,0-2.46-1.21,3.54,3.54,0,0,0-2.19.73,4.26,4.26,0,0,0-1.45,2,14.88,14.88,0,0,0-.33,3.86v5.79a3.08,3.08,0,0,1-.63,2.11,2.11,2.11,0,0,1-1.64.7,2,2,0,0,1-1.6-.73,3.08,3.08,0,0,1-.62-2.08V13.8a2.91,2.91,0,0,1,.56-2A1.89,1.89,0,0,1,65,11.17a2.07,2.07,0,0,1,1.07.29,2.1,2.1,0,0,1,.76.87A3.12,3.12,0,0,1,67.12,13.73Z"/><path class="cls-1" d="M94.59,27.84l-4-6.7-2.43,2.37v3.67a2.85,2.85,0,0,1-.69,2.06,2.1,2.1,0,0,1-1.57.72,2,2,0,0,1-1.63-.71,3.23,3.23,0,0,1-.59-2.1V7.45a3.94,3.94,0,0,1,.58-2.34,1.89,1.89,0,0,1,1.64-.81A2.07,2.07,0,0,1,87.58,5a3.32,3.32,0,0,1,.61,2.15v11.2l5-5.44a12,12,0,0,1,1.43-1.39,1.93,1.93,0,0,1,1.2-.38,1.91,1.91,0,0,1,1.4.56,1.84,1.84,0,0,1,.56,1.37c0,.68-.61,1.58-1.83,2.71l-2.38,2.25,4.61,7.45c.34.55.58,1,.73,1.26a1.77,1.77,0,0,1,.22.82,2.49,2.49,0,0,1-.58,1.74,2,2,0,0,1-1.54.63,1.68,1.68,0,0,1-1.27-.46A9.87,9.87,0,0,1,94.59,27.84Z"/><path class="cls-1" d="M116.35,23.92a5.81,5.81,0,0,1-.91,3.27,5.53,5.53,0,0,1-2.67,2.07,11.69,11.69,0,0,1-4.31.7,10.17,10.17,0,0,1-4.14-.76,6,6,0,0,1-2.56-1.91,3.87,3.87,0,0,1-.82-2.29,1.8,1.8,0,0,1,.53-1.3,1.77,1.77,0,0,1,1.33-.54,1.59,1.59,0,0,1,1.09.35,4,4,0,0,1,.72,1,5,5,0,0,0,1.66,1.85,4.91,4.91,0,0,0,2.62.6,3.7,3.7,0,0,0,2.21-.61,1.75,1.75,0,0,0,.87-1.42,1.92,1.92,0,0,0-.9-1.77,10.68,10.68,0,0,0-2.95-1.07,23.9,23.9,0,0,1-3.78-1.24A6.3,6.3,0,0,1,102,19.13a4,4,0,0,1-.87-2.62,4.73,4.73,0,0,1,.81-2.63,5.56,5.56,0,0,1,2.37-2,8.94,8.94,0,0,1,3.8-.74,12,12,0,0,1,3.13.38,7.65,7.65,0,0,1,2.32,1A4.81,4.81,0,0,1,115,13.93a2.81,2.81,0,0,1,.48,1.49,1.78,1.78,0,0,1-.51,1.31,2.07,2.07,0,0,1-1.48.5,1.75,1.75,0,0,1-1.17-.4,7.33,7.33,0,0,1-1.11-1.22A4.26,4.26,0,0,0,110,14.53a3.58,3.58,0,0,0-1.87-.41,3.65,3.65,0,0,0-2,.53,1.56,1.56,0,0,0-.8,1.33,1.42,1.42,0,0,0,.59,1.19,4.59,4.59,0,0,0,1.6.77c.66.21,1.59.46,2.76.75a15,15,0,0,1,3.42,1.25,5.72,5.72,0,0,1,2,1.72A3.85,3.85,0,0,1,116.35,23.92Z"/><path class="cls-1" d="M128.21,11.58h1.07V10.19a9,9,0,0,1,.54-3.44,3.43,3.43,0,0,1,1.81-1.86,8.53,8.53,0,0,1,3.5-.59q3.93,0,3.93,2a1.59,1.59,0,0,1-.41,1.1,1.26,1.26,0,0,1-1,.46,6.33,6.33,0,0,1-.91-.1,6.85,6.85,0,0,0-1.08-.1c-.82,0-1.34.24-1.57.73a5.18,5.18,0,0,0-.34,2.11v1.1h1.1c1.71,0,2.57.53,2.57,1.59q0,1.14-.69,1.44a4.76,4.76,0,0,1-1.88.3h-1.1V27.15a3,3,0,0,1-.64,2.09,2.08,2.08,0,0,1-1.64.72,2,2,0,0,1-1.58-.72,3,3,0,0,1-.64-2.09V14.91h-1.23a2.31,2.31,0,0,1-1.55-.46,1.52,1.52,0,0,1-.54-1.21C126,12.13,126.71,11.58,128.21,11.58Z"/><path class="cls-1" d="M156.18,20.57a11.1,11.1,0,0,1-.63,3.8,8.4,8.4,0,0,1-1.81,3,7.81,7.81,0,0,1-2.83,1.92,9.68,9.68,0,0,1-3.7.67,9.49,9.49,0,0,1-3.67-.68,8.15,8.15,0,0,1-2.83-1.93,8.61,8.61,0,0,1-1.81-3,11.26,11.26,0,0,1-.61-3.8,11.21,11.21,0,0,1,.62-3.84,8.35,8.35,0,0,1,1.8-3,7.78,7.78,0,0,1,2.83-1.91,10.4,10.4,0,0,1,7.37,0,8.08,8.08,0,0,1,2.85,1.93,8.41,8.41,0,0,1,1.8,3A11.28,11.28,0,0,1,156.18,20.57Zm-4.51,0a7.11,7.11,0,0,0-1.21-4.4,4.14,4.14,0,0,0-5.57-.87,4.34,4.34,0,0,0-1.55,2.07,8.68,8.68,0,0,0-.54,3.2,8.47,8.47,0,0,0,.53,3.16,4.61,4.61,0,0,0,1.53,2.08,4,4,0,0,0,2.35.71,3.87,3.87,0,0,0,3.25-1.58A7.07,7.07,0,0,0,151.67,20.57Z"/><path class="cls-1" d="M164.18,23.29v3.86a3,3,0,0,1-.65,2.11,2.09,2.09,0,0,1-1.63.7,2,2,0,0,1-1.59-.71,3.06,3.06,0,0,1-.63-2.1V14.29q0-3.12,2.19-3.12a1.8,1.8,0,0,1,1.61.73,4.17,4.17,0,0,1,.55,2.15,8,8,0,0,1,1.65-2.15,3.39,3.39,0,0,1,2.26-.73,5.72,5.72,0,0,1,2.75.73A2.19,2.19,0,0,1,172,13.83a1.86,1.86,0,0,1-.57,1.4,1.78,1.78,0,0,1-1.23.55,5.69,5.69,0,0,1-1.19-.32,5.68,5.68,0,0,0-1.67-.31,2.36,2.36,0,0,0-1.61.54,3.38,3.38,0,0,0-1,1.58,10.93,10.93,0,0,0-.47,2.49C164.22,20.73,164.18,21.9,164.18,23.29Z"/><path class="cls-1" d="M186.08,14.05l3.64,10.49,3.92-10.95a6.39,6.39,0,0,1,.9-1.86,1.64,1.64,0,0,1,1.35-.56,2,2,0,0,1,1.46.6,1.86,1.86,0,0,1,.6,1.37,2.93,2.93,0,0,1-.11.71,5.64,5.64,0,0,1-.25.76c-.09.24-.2.51-.32.81l-4.31,11c-.12.32-.28.72-.47,1.2a6.07,6.07,0,0,1-.64,1.25,2.55,2.55,0,0,1-.87.8,2.61,2.61,0,0,1-1.26.29,2.37,2.37,0,0,1-1.52-.45,2.94,2.94,0,0,1-.84-1c-.18-.36-.49-1.06-.92-2.11l-4.27-10.88-.31-.81a8,8,0,0,1-.26-.83,3.16,3.16,0,0,1-.11-.73,1.79,1.79,0,0,1,.28-.94,2.24,2.24,0,0,1,.77-.76,2,2,0,0,1,1.07-.3,1.7,1.7,0,0,1,1.54.66A10.87,10.87,0,0,1,186.08,14.05Z"/><path class="cls-1" d="M203.45,9a2.33,2.33,0,0,1-1.61-.6,2.12,2.12,0,0,1-.67-1.67,2.11,2.11,0,0,1,.69-1.62,2.25,2.25,0,0,1,1.59-.63,2.31,2.31,0,0,1,1.54.57,2.09,2.09,0,0,1,.68,1.68A2.13,2.13,0,0,1,205,8.42,2.21,2.21,0,0,1,203.45,9Zm2.22,4.77V27.15a3.07,3.07,0,0,1-.64,2.1,2.11,2.11,0,0,1-1.63.71,2,2,0,0,1-1.61-.73,3.13,3.13,0,0,1-.62-2.08V13.93a3,3,0,0,1,.62-2.06,2.07,2.07,0,0,1,1.61-.7,2.14,2.14,0,0,1,1.63.7A2.76,2.76,0,0,1,205.67,13.8Z"/><path class="cls-1" d="M224.78,23.92a5.73,5.73,0,0,1-.91,3.27,5.53,5.53,0,0,1-2.67,2.07,11.69,11.69,0,0,1-4.31.7,10.17,10.17,0,0,1-4.14-.76,6,6,0,0,1-2.56-1.91,3.94,3.94,0,0,1-.82-2.29,1.8,1.8,0,0,1,.53-1.3,1.77,1.77,0,0,1,1.33-.54,1.57,1.57,0,0,1,1.09.35,4,4,0,0,1,.72,1,5,5,0,0,0,1.66,1.85,4.91,4.91,0,0,0,2.62.6,3.76,3.76,0,0,0,2.22-.61,1.76,1.76,0,0,0,.86-1.42,1.92,1.92,0,0,0-.9-1.77,10.68,10.68,0,0,0-2.95-1.07,23.9,23.9,0,0,1-3.78-1.24,6.3,6.3,0,0,1-2.33-1.72,4,4,0,0,1-.87-2.62,4.73,4.73,0,0,1,.81-2.63,5.56,5.56,0,0,1,2.37-2,8.94,8.94,0,0,1,3.8-.74,12,12,0,0,1,3.13.38,7.65,7.65,0,0,1,2.32,1,4.81,4.81,0,0,1,1.42,1.38,2.83,2.83,0,0,1,.49,1.49,1.79,1.79,0,0,1-.52,1.31,2.07,2.07,0,0,1-1.48.5,1.75,1.75,0,0,1-1.17-.4,7.33,7.33,0,0,1-1.11-1.22,4.13,4.13,0,0,0-1.21-1.08,3.58,3.58,0,0,0-1.87-.41,3.67,3.67,0,0,0-2,.53,1.58,1.58,0,0,0-.8,1.33,1.42,1.42,0,0,0,.59,1.19,4.59,4.59,0,0,0,1.6.77q1,.31,2.76.75a15,15,0,0,1,3.42,1.25,5.72,5.72,0,0,1,2,1.72A3.85,3.85,0,0,1,224.78,23.92Z"/><path class="cls-1" d="M230.85,9a2.31,2.31,0,0,1-1.6-.6,2.09,2.09,0,0,1-.67-1.67,2.14,2.14,0,0,1,.68-1.62,2.29,2.29,0,0,1,1.59-.63,2.34,2.34,0,0,1,1.55.57,2.09,2.09,0,0,1,.67,1.68,2.13,2.13,0,0,1-.66,1.66A2.19,2.19,0,0,1,230.85,9Zm2.22,4.77V27.15a3,3,0,0,1-.64,2.1,2.11,2.11,0,0,1-1.63.71,2,2,0,0,1-1.6-.73,3.13,3.13,0,0,1-.62-2.08V13.93a3,3,0,0,1,.62-2.06,2,2,0,0,1,1.6-.7,2.14,2.14,0,0,1,1.63.7A2.71,2.71,0,0,1,233.07,13.8Z"/><path class="cls-1" d="M238,11.58h.5V8.81c0-.75,0-1.33,0-1.76A2.79,2.79,0,0,1,238.83,6a2.15,2.15,0,0,1,.76-.77,2.08,2.08,0,0,1,1.1-.29,2.19,2.19,0,0,1,1.55.66,1.92,1.92,0,0,1,.58,1.07,9.27,9.27,0,0,1,.13,1.8v3.15h1.64a2.07,2.07,0,0,1,1.46.47,1.55,1.55,0,0,1,.5,1.19,1.35,1.35,0,0,1-.71,1.3,4.52,4.52,0,0,1-2.05.37H243v8.5a14.3,14.3,0,0,0,.07,1.67,1.71,1.71,0,0,0,.4,1,1.32,1.32,0,0,0,1,.36,5.18,5.18,0,0,0,1.07-.15,5.82,5.82,0,0,1,1.06-.14,1.32,1.32,0,0,1,1,.45,1.5,1.5,0,0,1,.44,1.11,1.86,1.86,0,0,1-1.18,1.71,7.91,7.91,0,0,1-3.41.59,5.68,5.68,0,0,1-3.19-.73,3.35,3.35,0,0,1-1.43-2,14.35,14.35,0,0,1-.33-3.44V14.91h-.6a2.07,2.07,0,0,1-1.48-.47,1.56,1.56,0,0,1-.51-1.2,1.49,1.49,0,0,1,.54-1.19A2.28,2.28,0,0,1,238,11.58Z"/><path class="cls-1" d="M251.92,9a2.33,2.33,0,0,1-1.61-.6,2.12,2.12,0,0,1-.66-1.67,2.1,2.1,0,0,1,.68-1.62,2.27,2.27,0,0,1,1.59-.63,2.3,2.3,0,0,1,1.54.57,2.06,2.06,0,0,1,.68,1.68,2.13,2.13,0,0,1-.66,1.66A2.21,2.21,0,0,1,251.92,9Zm2.22,4.77V27.15a3,3,0,0,1-.64,2.1,2.11,2.11,0,0,1-1.63.71,2,2,0,0,1-1.61-.73,3.13,3.13,0,0,1-.61-2.08V13.93a3,3,0,0,1,.61-2.06,2.08,2.08,0,0,1,1.61-.7,2.14,2.14,0,0,1,1.63.7A2.71,2.71,0,0,1,254.14,13.8Z"/><path class="cls-1" d="M262.86,13.73v.56a7.93,7.93,0,0,1,2.6-2.36,6.73,6.73,0,0,1,3.23-.76,6.34,6.34,0,0,1,3.18.8A5,5,0,0,1,274,14.22a5.59,5.59,0,0,1,.57,1.83,19,19,0,0,1,.13,2.5v8.6a3.12,3.12,0,0,1-.61,2.1,2.18,2.18,0,0,1-3.24,0,3.13,3.13,0,0,1-.62-2.08v-7.7a7.87,7.87,0,0,0-.62-3.49,2.48,2.48,0,0,0-2.46-1.21,3.58,3.58,0,0,0-2.19.73,4.26,4.26,0,0,0-1.45,2,14.88,14.88,0,0,0-.33,3.86v5.79a3.08,3.08,0,0,1-.63,2.11,2.1,2.1,0,0,1-1.64.7,2,2,0,0,1-1.59-.73,3.08,3.08,0,0,1-.63-2.08V13.8a3,3,0,0,1,.56-2,1.89,1.89,0,0,1,1.53-.66,2.07,2.07,0,0,1,1.07.29,2.12,2.12,0,0,1,.77.87A3.12,3.12,0,0,1,262.86,13.73Z"/><path class="cls-1" d="M295.67,14.56V28a14.4,14.4,0,0,1-.48,4,6,6,0,0,1-4.29,4.35,14.6,14.6,0,0,1-4.24.52,12.21,12.21,0,0,1-4.15-.66,7.29,7.29,0,0,1-2.81-1.73,3.19,3.19,0,0,1-1-2.18,1.81,1.81,0,0,1,.56-1.37,1.9,1.9,0,0,1,1.35-.54,2.19,2.19,0,0,1,1.73.9l.75.92a4.33,4.33,0,0,0,.86.8,3.28,3.28,0,0,0,1.12.49,6.89,6.89,0,0,0,1.52.16,6,6,0,0,0,2.7-.5,2.74,2.74,0,0,0,1.35-1.4,5.81,5.81,0,0,0,.46-1.92c0-.68.07-1.78.1-3.29a7.57,7.57,0,0,1-2.4,2.27,6.36,6.36,0,0,1-3.23.78,6.71,6.71,0,0,1-3.95-1.19A7.57,7.57,0,0,1,279,25a12.55,12.55,0,0,1-.9-4.92,11.93,11.93,0,0,1,.55-3.76,7.94,7.94,0,0,1,1.57-2.82,6.7,6.7,0,0,1,2.35-1.74,7.23,7.23,0,0,1,2.93-.58,6.88,6.88,0,0,1,3.31.75,8.13,8.13,0,0,1,2.6,2.36V13.7a2.76,2.76,0,0,1,.58-1.87,1.91,1.91,0,0,1,1.48-.66,1.74,1.74,0,0,1,1.73.88A5.93,5.93,0,0,1,295.67,14.56Zm-13,5.85a6.49,6.49,0,0,0,1.19,4.25,3.83,3.83,0,0,0,3.09,1.44,3.87,3.87,0,0,0,2.11-.62,4.38,4.38,0,0,0,1.62-1.86,6.61,6.61,0,0,0,.63-3,7.13,7.13,0,0,0-1.21-4.4,3.83,3.83,0,0,0-3.19-1.57,3.7,3.7,0,0,0-3.08,1.5A6.87,6.87,0,0,0,282.65,20.41Z"/><ellipse class="cls-1" cx="336.68" cy="19.26" rx="18.73" ry="19.26"/></g></g></g></g></svg>