<svg xmlns="http://www.w3.org/2000/svg" viewBox="0 0 379.38 141.66"><defs><style>.cls-1{fill:#fff;}.cls-2{fill:#f15a24;}</style></defs><g id="레이어_2" data-name="레이어 2"><g id="메인_홍보" data-name="메인 홍보"><g id="_6page_2_" data-name="6page(2)"><path class="cls-1" d="M75.65,84.61v15.62a16.72,16.72,0,0,1-.6,5,7.78,7.78,0,0,1-2.19,3.36,20.21,20.21,0,0,1-4.08,2.89,63,63,0,0,1-13.84,5.84,54.13,54.13,0,0,1-14.49,1.84,46.2,46.2,0,0,1-16.66-2.89A34.93,34.93,0,0,1,11,107.85,37.14,37.14,0,0,1,2.84,94.51,51.27,51.27,0,0,1,0,77a52.4,52.4,0,0,1,2.76-17.4,35.92,35.92,0,0,1,8.11-13.4,35.39,35.39,0,0,1,13-8.42,48.63,48.63,0,0,1,17.41-2.92A42.22,42.22,0,0,1,55.48,37a30.91,30.91,0,0,1,10,5.54,24.42,24.42,0,0,1,5.79,7.06,14.61,14.61,0,0,1,2,6.61A7.13,7.13,0,0,1,71,61.56a7.39,7.39,0,0,1-5.38,2.2,7.13,7.13,0,0,1-3.32-.83,7.62,7.62,0,0,1-2.68-2.34,65.07,65.07,0,0,0-5-7.23A16.27,16.27,0,0,0,49,49.25a20.69,20.69,0,0,0-8.9-1.67,24.08,24.08,0,0,0-9.95,2,20.75,20.75,0,0,0-7.49,5.73,25.94,25.94,0,0,0-4.75,9.2,41.59,41.59,0,0,0-1.65,12.07q0,14.34,6.4,22.07t17.88,7.73A35.5,35.5,0,0,0,51,104.85a52.34,52.34,0,0,0,9.92-4.28V87.33H48.5q-4.48,0-6.78-1.39a5.07,5.07,0,0,1-2.3-4.72,5.89,5.89,0,0,1,1.92-4.51,7.4,7.4,0,0,1,5.22-1.77H64.78a22.53,22.53,0,0,1,5.68.61,6.42,6.42,0,0,1,3.76,2.72Q75.65,80.39,75.65,84.61Z"/><path class="cls-1" d="M127.24,110.58A45.87,45.87,0,0,1,116.88,117a28.34,28.34,0,0,1-11.22,2.14,20.8,20.8,0,0,1-10-2.31,16.6,16.6,0,0,1-9-14.82,15.59,15.59,0,0,1,3.84-10.62,19.12,19.12,0,0,1,10.55-5.89q1.41-.33,7-1.5t9.55-2.14q4-1,8.62-2.37-.27-6-2.35-8.81t-8.62-2.81q-5.62,0-8.47,1.62A13.84,13.84,0,0,0,102,74.32c-1.36,2.15-2.31,3.57-2.87,4.26s-1.76,1-3.59,1A6.19,6.19,0,0,1,91.2,78a5.43,5.43,0,0,1-1.82-4.2A13.07,13.07,0,0,1,92.14,66a19.77,19.77,0,0,1,8.6-6.22,37.78,37.78,0,0,1,14.55-2.45c6.48,0,11.59.79,15.3,2.36a14.45,14.45,0,0,1,7.87,7.48q2.29,5.11,2.29,13.57c0,3.56,0,6.58,0,9.06s0,5.25-.08,8.28A31.32,31.32,0,0,0,142,107a29.18,29.18,0,0,1,1.37,6,5.66,5.66,0,0,1-2.13,4.25,7.06,7.06,0,0,1-4.84,1.92,6.45,6.45,0,0,1-4.49-2.2A32.21,32.21,0,0,1,127.24,110.58Zm-1-22a72.23,72.23,0,0,1-9.43,2.59c-4.13.91-7,1.57-8.57,2a11.69,11.69,0,0,0-4.55,2.5,6.5,6.5,0,0,0-2.16,5.2,7.83,7.83,0,0,0,2.54,5.87,9.27,9.27,0,0,0,6.65,2.42,16.9,16.9,0,0,0,8.09-2,12.86,12.86,0,0,0,5.43-5.09c1.34-2.29,2-6.08,2-11.34Z"/><path class="cls-1" d="M155.73,109.91V44.08q0-4.56,2-6.9A6.62,6.62,0,0,1,163,34.85a6.91,6.91,0,0,1,5.41,2.3q2.06,2.31,2.06,6.93v65.83q0,4.61-2.09,6.92a6.9,6.9,0,0,1-5.38,2.31,6.6,6.6,0,0,1-5.27-2.39Q155.74,114.35,155.73,109.91Z"/><path class="cls-1" d="M185.74,109.91V44.08q0-4.56,2-6.9A6.62,6.62,0,0,1,193,34.85a6.91,6.91,0,0,1,5.41,2.3q2.06,2.31,2.06,6.93v65.83q0,4.61-2.09,6.92a6.9,6.9,0,0,1-5.38,2.31,6.6,6.6,0,0,1-5.27-2.39Q185.74,114.35,185.74,109.91Z"/><path class="cls-1" d="M257,92H228.08a20.62,20.62,0,0,0,2,9.12,14.08,14.08,0,0,0,5.25,5.95,13.49,13.49,0,0,0,7.22,2,17.06,17.06,0,0,0,4.83-.64,15.35,15.35,0,0,0,4.25-2,32.08,32.08,0,0,0,3.78-2.92c1.16-1,2.65-2.44,4.49-4.22a4.75,4.75,0,0,1,3.25-1,5.2,5.2,0,0,1,3.67,1.28,4.61,4.61,0,0,1,1.41,3.61,10,10,0,0,1-1.57,4.81,18.77,18.77,0,0,1-4.73,5.28,26.59,26.59,0,0,1-7.95,4.2,33.42,33.42,0,0,1-11,1.67q-14.22,0-22.12-8.34T213,88.17a38.87,38.87,0,0,1,1.94-12.48,27.64,27.64,0,0,1,5.68-9.87,24.48,24.48,0,0,1,9.19-6.31,32.09,32.09,0,0,1,12.12-2.2,28.13,28.13,0,0,1,14.84,3.75A24.3,24.3,0,0,1,266,70.77a26,26,0,0,1,3.08,12.12c0,3.81-1.06,6.29-3.19,7.42S260.82,92,257,92Zm-28.88-8.61h26.77q-.54-7.78-4.08-11.65a12,12,0,0,0-9.33-3.87,11.67,11.67,0,0,0-9.06,3.92Q228.84,75.72,228.08,83.39Z"/><path class="cls-1" d="M296.22,97.23v12.68c0,3.07-.71,5.38-2.11,6.92a6.94,6.94,0,0,1-5.36,2.31,6.67,6.67,0,0,1-5.24-2.34q-2.06-2.33-2.06-6.89V67.65q0-10.23,7.2-10.23,3.68,0,5.29,2.39c1.09,1.6,1.68,3.95,1.79,7.06a26.81,26.81,0,0,1,5.43-7.06,11.06,11.06,0,0,1,7.44-2.39,18.66,18.66,0,0,1,9,2.39q4.38,2.4,4.38,6.34a6.11,6.11,0,0,1-1.87,4.59,5.7,5.7,0,0,1-4,1.8,18.26,18.26,0,0,1-3.93-1,17.63,17.63,0,0,0-5.48-1,7.86,7.86,0,0,0-5.3,1.75,11.23,11.23,0,0,0-3.19,5.2,37.11,37.11,0,0,0-1.57,8.2Q296.22,90.4,296.22,97.23Z"/><path class="cls-1" d="M343.69,121l1.35-3.39-18.16-47a18,18,0,0,1-1.68-5.9,7,7,0,0,1,1-3.61,7.38,7.38,0,0,1,2.68-2.67,6.86,6.86,0,0,1,3.54-1,5.72,5.72,0,0,1,4.81,2.09,19.3,19.3,0,0,1,2.87,6l12.49,37.37L364.4,68.1a62.66,62.66,0,0,1,2.54-6.62,7.84,7.84,0,0,1,2.41-3.23,6.61,6.61,0,0,1,3.6-.83,6.19,6.19,0,0,1,3.21.92,6.34,6.34,0,0,1,2.38,2.47,6.81,6.81,0,0,1,.84,3.28c-.14.71-.38,1.71-.7,3S378,69.71,377.49,71l-19.25,51.82a61,61,0,0,1-4.87,10.73,16.08,16.08,0,0,1-6.3,6q-3.92,2.09-10.57,2.09c-4.33,0-7.57-.49-9.73-1.45a6,6,0,0,1-1.71-9.31,6.52,6.52,0,0,1,4.57-1.42,8.3,8.3,0,0,1,2.33.33,10.42,10.42,0,0,0,2.43.34,8.53,8.53,0,0,0,4-.78,7.11,7.11,0,0,0,2.63-2.7A42.94,42.94,0,0,0,343.69,121Z"/><path class="cls-2" d="M104,16.42H100.9L99.21,9.86H95.47l-1.1,6.56H91.51l2.67-16h6a9.53,9.53,0,0,1,2.86.34A3.77,3.77,0,0,1,105,2.23a4.24,4.24,0,0,1,.84,2.6,5,5,0,0,1-.92,2.91A4.53,4.53,0,0,1,102,9.52Zm-8.11-8.9h4a2.8,2.8,0,0,0,2.4-.81A2.9,2.9,0,0,0,102.81,5a2.18,2.18,0,0,0-.4-1.32,1.93,1.93,0,0,0-1-.73,5.33,5.33,0,0,0-1.66-.19H96.65Z"/><path class="cls-2" d="M122.82.42l-1.74,10.34a12.16,12.16,0,0,1-.86,3.15,4.86,4.86,0,0,1-1.91,2,6,6,0,0,1-3.32.88,7,7,0,0,1-2.35-.4,4.49,4.49,0,0,1-2-1.49,4.55,4.55,0,0,1-.88-3A13.86,13.86,0,0,1,110,9.68L111.5.42h3l-1.58,9.41a16,16,0,0,0-.26,2,2.1,2.1,0,0,0,.83,1.86,3.27,3.27,0,0,0,1.92.58,3.59,3.59,0,0,0,1.68-.38,2.62,2.62,0,0,0,1.14-1.14,9.91,9.91,0,0,0,.73-2.74L120.52.42Z"/><path class="cls-2" d="M138,16.42h-2.28l-5.46-12-2,12h-2.3l2.67-16h3l5,11,1.84-11h2.29Z"/><path class="cls-2" d="M167.13,16.54h-2.88l-1.41-12-4.93,12h-2.78L153.25.42h3.1l1.07,12.08L162.33.42h2.84l1.28,12.08L171.31.42h2.53Z"/><path class="cls-2" d="M178.53,16.42h-3l2.68-16h3Z"/><path class="cls-2" d="M196,2.93H192L189.7,16.42h-2.95L189,2.93H185l.42-2.51h11.08Z"/><path class="cls-2" d="M209.91,16.42H207l1.16-6.93h-6.26l-1.16,6.93h-2.86l2.67-16h2.87L202.36,7h6.26l1.1-6.55h2.86Z"/><path class="cls-2" d="M236.53,3.46l-2.63,1a3,3,0,0,0-3-2,3.17,3.17,0,0,0-2.08.62A2,2,0,0,0,228,4.62a1.48,1.48,0,0,0,.51,1.16,4.28,4.28,0,0,0,1.66.78l2.19.65a6.22,6.22,0,0,1,1.81.85,3.66,3.66,0,0,1,1.27,1.47,4.22,4.22,0,0,1,.43,1.85,5.16,5.16,0,0,1-1.63,3.78,6.5,6.5,0,0,1-4.74,1.6c-3.22,0-5.3-1.33-6.26-4l2.62-.92a3.7,3.7,0,0,0,3.82,2.51,3.48,3.48,0,0,0,2.44-.76,2.31,2.31,0,0,0,.79-1.72,1.56,1.56,0,0,0-.3-1,2,2,0,0,0-.75-.62,16,16,0,0,0-1.83-.6,15.43,15.43,0,0,1-2.85-1,4,4,0,0,1-1.54-1.43A4.09,4.09,0,0,1,225.08,5a4.57,4.57,0,0,1,1.58-3.59A6.29,6.29,0,0,1,231,0,5.57,5.57,0,0,1,236.53,3.46Z"/><path class="cls-2" d="M251.47,2.93H247.4l-2.26,13.49H242.2l2.26-13.49h-4.07l.42-2.51h11.08Z"/><path class="cls-2" d="M265.82,16.42h-3.06l-1.7-6.56h-3.74l-1.1,6.56h-2.86L256,.42h6a9.58,9.58,0,0,1,2.86.34,3.81,3.81,0,0,1,1.89,1.47,4.24,4.24,0,0,1,.84,2.6,5,5,0,0,1-.93,2.91,4.5,4.5,0,0,1-2.86,1.78Zm-8.11-8.9h4a2.83,2.83,0,0,0,2.41-.81A2.9,2.9,0,0,0,264.67,5a2.18,2.18,0,0,0-.4-1.32,1.91,1.91,0,0,0-1-.73,5.26,5.26,0,0,0-1.65-.19h-3.15Z"/><path class="cls-2" d="M283.64,12q-2.06,4.8-6.34,4.8A5.36,5.36,0,0,1,273.07,15a7.53,7.53,0,0,1-1.64-5.12,11.51,11.51,0,0,1,2.1-6.94A6.39,6.39,0,0,1,278.92,0,5.54,5.54,0,0,1,283,1.49a6.29,6.29,0,0,1,1.71,4.12l-2.6.47q-.36-3.67-3.24-3.68-2.33,0-3.36,2.77a15.2,15.2,0,0,0-1,5.26,4.36,4.36,0,0,0,.86,2.93,2.77,2.77,0,0,0,2.2,1,3.14,3.14,0,0,0,2.23-.95,6.23,6.23,0,0,0,1.53-2.33Z"/><path class="cls-2" d="M290.23,16.42h-2.89l.5-3h2.88ZM290.05,12h-1.22l.4-11.54h3.4Z"/></g></g></g></svg>