<svg xmlns="http://www.w3.org/2000/svg" viewBox="0 0 150.33 149.95"><defs><style>.cls-1{fill:#fff;}.cls-2{fill:#231815;}.cls-3{fill:none;}</style></defs><g id="레이어_2" data-name="레이어 2"><g id="레이어_1-2" data-name="레이어 1"><g id="_2page" data-name="2page"><g id="카카오"><path class="cls-1" d="M75.79,15.91c-41.16,0-74.53,25.72-74.53,57.46,0,15.57,8.08,29.64,21.12,40-1.3,6.12-5.35,16.35-18,20.68,21.24,0,28.86-4.67,36.32-10a92.15,92.15,0,0,0,35.11,6.82c41.16,0,74.53-25.73,74.53-57.47S117,15.91,75.79,15.91Z"/><path class="cls-2" d="M27.65,75.23l10.8,15.69H34.64L25.45,77.36l-4,4v9.6H18.32V55.19h3.13V77.5l12-12h4.18Z"/><path class="cls-2" d="M49.85,91.3a8.43,8.43,0,0,1-5.75-1.94A6.74,6.74,0,0,1,41.89,84V83a6.43,6.43,0,0,1,2.21-5.06Q46.31,76,50.63,76h7V73.62a5.82,5.82,0,0,0-1.49-4.28,6,6,0,0,0-4.39-1.49,10.46,10.46,0,0,0-3.86.72,16.43,16.43,0,0,0-3.45,1.87L42.91,68a20.37,20.37,0,0,1,3.89-2.13,12.77,12.77,0,0,1,5-.9,9.44,9.44,0,0,1,6.55,2.13,7.65,7.65,0,0,1,2.37,6V90.9h-3V87.78h0A5.2,5.2,0,0,1,56.55,89a9,9,0,0,1-1.68,1.16A10.71,10.71,0,0,1,49.85,91.3Zm7.77-12.62H50.68a6.26,6.26,0,0,0-4.32,1.23A4.16,4.16,0,0,0,45,83.12v.76a4.4,4.4,0,0,0,.46,2.1,4.26,4.26,0,0,0,1.22,1.44,5.08,5.08,0,0,0,1.7.83,7.27,7.27,0,0,0,1.91.26A8.92,8.92,0,0,0,53,88.13,9.29,9.29,0,0,0,55.29,87,6.07,6.07,0,0,0,57,85.41,4.26,4.26,0,0,0,57.64,83v-4.3Z"/><path class="cls-2" d="M77,75.23l10.8,15.69H83.94L74.75,77.36l-4,4v9.6H67.62V55.19h3.13V77.5l12-12h4.18Z"/><path class="cls-2" d="M99.16,91.3a8.38,8.38,0,0,1-5.74-1.94A6.74,6.74,0,0,1,91.21,84V83a6.4,6.4,0,0,1,2.21-5.06Q95.63,76,99.94,76h7V73.62a5.82,5.82,0,0,0-1.49-4.28,6,6,0,0,0-4.39-1.49,10.46,10.46,0,0,0-3.86.72,16.68,16.68,0,0,0-3.45,1.87L92.22,68a20.59,20.59,0,0,1,3.88-2.13,12.81,12.81,0,0,1,5-.9,9.44,9.44,0,0,1,6.55,2.13,7.65,7.65,0,0,1,2.37,6V90.9h-3V87.78h0A5.69,5.69,0,0,1,105.85,89a9,9,0,0,1-1.68,1.16A10.64,10.64,0,0,1,99.16,91.3Zm7.77-12.62H100a6.26,6.26,0,0,0-4.32,1.23,4.16,4.16,0,0,0-1.33,3.21v.76A4.4,4.4,0,0,0,94.8,86,4.26,4.26,0,0,0,96,87.42a5.18,5.18,0,0,0,1.7.83,7.27,7.27,0,0,0,1.91.26,8.81,8.81,0,0,0,2.66-.38,9.29,9.29,0,0,0,2.3-1.09,6.07,6.07,0,0,0,1.68-1.63,4.26,4.26,0,0,0,.67-2.43v-4.3Z"/><path class="cls-2" d="M126.33,65q5,0,7.77,3t2.76,8.55v3.17c0,3.67-.92,6.53-2.76,8.54s-4.43,3-7.77,3a10,10,0,0,1-7.77-3c-1.84-2-2.76-4.87-2.76-8.54V76.54q0-5.58,2.76-8.58T126.33,65Zm0,23.49a6.81,6.81,0,0,0,5.4-2.21q2-2.2,2-6.72V76.74c0-3-.65-5.27-2-6.73a7.73,7.73,0,0,0-10.8,0q-2,2.2-2,6.73v2.79c0,3,.65,5.27,2,6.72A6.81,6.81,0,0,0,126.33,88.46Z"/><rect class="cls-3" width="149.95" height="149.95"/></g></g></g></g></svg>