<svg xmlns="http://www.w3.org/2000/svg" viewBox="0 0 124.72 124.73"><defs><style>.cls-1{fill:#040000;}.cls-2{fill:#fff;}</style></defs><g id="레이어_2" data-name="레이어 2"><g id="Layer_1" data-name="Layer 1"><circle class="cls-1" cx="62.36" cy="62.36" r="62.36" transform="translate(-7.47 116.22) rotate(-82.64)"/><path class="cls-2" d="M23.92,62c1-3.81,2-7.57,3-11.33H65.63c-.17.64-.33,1.27-.49,1.89-.53,2-1.06,4-1.6,6A4.61,4.61,0,0,1,59.15,62H23.92Z"/><path class="cls-2" d="M48.09,38.16c5.73,0,11.46,0,17.2,0a3.77,3.77,0,0,1,1.45.27,2.3,2.3,0,0,1,1.34,2.84c-.55,2.19-1.14,4.37-1.71,6.55-.13.48-.26,1-.38,1.45,0,.17-.12.26-.3.23H31a5.16,5.16,0,0,1-1.11-.11,2.37,2.37,0,0,1-1.83-3c.68-2.69,1.4-5.36,2.1-8,.06-.23.18-.22.34-.22H48.09Z"/><path class="cls-2" d="M110.89,25.71q-1.44,5.47-2.87,10.95c-.08.3-.18.41-.52.41H96.11c-.27,0-.39.06-.46.33-1.12,4.3-2.26,8.6-3.39,12.9q-1.49,5.64-3,11.29c-.06.2-.09.34-.36.34H77.13q3.25-12.42,6.53-24.83h-12c0-.2.08-.35.12-.49q1.38-5.26,2.77-10.52c0-.12,0-.23.08-.35Z"/><path class="cls-2" d="M94,88.72c-.23.87-.44,1.68-.65,2.49-.48,1.83-.94,3.66-1.45,5.48A4.51,4.51,0,0,1,88.25,100a3.47,3.47,0,0,1-.79.07H54.72a2.53,2.53,0,0,1,.07-.34l9.36-35.55c.07-.28.17-.38.48-.38q16.19,0,32.36,0a3.16,3.16,0,0,1,1.82.49A2.44,2.44,0,0,1,99.73,67q-1,4-2.09,8c0,.17-.11.27-.3.24a1.62,1.62,0,0,0-.22,0H73.76c-.32,0-.43.09-.51.39Q71.59,81.9,69.9,88.26c0,.14-.07.28-.11.46Z"/><path class="cls-2" d="M72.21,25.71c-1,3.71-1.95,7.41-2.91,11.11-.06.2-.15.27-.34.24H30.55c0-.14.05-.24.08-.34.66-2.52,1.32-5,2-7.55a4.53,4.53,0,0,1,3.67-3.39l.18-.07Z"/><path class="cls-2" d="M14,100c0-.16.06-.29.09-.4q4.68-17.76,9.35-35.51a.34.34,0,0,1,.4-.31H56.4a3,3,0,0,1,1.5.35,2.32,2.32,0,0,1,1.17,2.52c-.3,1.35-.67,2.69-1,4s-.72,2.7-1.06,4c-.07.29-.18.38-.49.38l-23.36,0a.51.51,0,0,0-.6.45q-3.13,12-6.31,24a.47.47,0,0,1-.55.42c-3.75,0-7.49,0-11.23,0Z"/><path class="cls-2" d="M52.33,100H40.26c1-3.76,2-7.5,3-11.32L52.33,100"/></g></g></svg>